  0
SECTION
  2
HEADER
  9
$ACADVER
  1
AC1018
  9
$HANDSEED
  5
FFFFFFFF
  9
$ANGBASE
  50
0.0
  9
$ANGDIR
  70
1
  9
$MEASUREMENT
  70
0
  9
$INSUNITS
  70
1
  0
ENDSEC
  0
SECTION
  2
TABLES
  0
TABLE
  2
APPID
  5
1
330
0
100
AcDbSymbolTable
 70
1
  0
APPID
  5
2
330
1
100
AcDbSymbolTableRecord
100
AcDbRegAppTableRecord
  2
ACAD
 70
0
  0
ENDTAB
  0
TABLE
  2
LTYPE
  5
3
330
0
100
AcDbSymbolTable
 70
6
  0
LTYPE
  5
4
330
3
100
AcDbSymbolTableRecord
100
AcDbLinetypeTableRecord
  2
ByBlock
 70
0
  3

 72
65
 73
0
 40
0
  0
LTYPE
  5
5
330
3
100
AcDbSymbolTableRecord
100
AcDbLinetypeTableRecord
  2
ByLayer
 70
0
  3

 72
65
 73
0
 40
0
  0
LTYPE
  5
6
330
3
100
AcDbSymbolTableRecord
100
AcDbLinetypeTableRecord
  2
CONTINUOUS
 70
0
  3
Solid line
 72
65
 73
0
 40
0
  0
LTYPE
  5
7
330
3
100
AcDbSymbolTableRecord
100
AcDbLinetypeTableRecord
  2
DASHDOT
 70
0
  3
Dash Dot ____ _ ____ _
 72
65
 73
4
 40
2
 49
1.25
 74
0
 49
-0.25
 74
0
 49
0.25
 74
0
 49
-0.25
 74
0
  0
LTYPE
  5
8
330
3
100
AcDbSymbolTableRecord
100
AcDbLinetypeTableRecord
  2
DASHED
 70
0
  3
Dashed __ __ __ __ __
 72
65
 73
2
 40
0.75
 49
0.5
 74
0
 49
-0.25
 74
0
  0
LTYPE
  5
9
330
3
100
AcDbSymbolTableRecord
100
AcDbLinetypeTableRecord
  2
DOTTED
 70
0
  3
Dotted .  .  .  .
 72
65
 73
2
 40
0.2
 49
0.0
 74
0
 49
-0.2
 74
0
  0
ENDTAB
  0
TABLE
  2
STYLE
  5
A
330
0
100
AcDbSymbolTable
 70
4
  0
STYLE
  5
B
330
A
100
AcDbSymbolTableRecord
100
AcDbTextStyleTableRecord
  2
KICAD
 70
0
 40
0
 41
1
 42
1
 50
0
 71
0
  3
isocp.shx
  0
STYLE
  5
C
330
A
100
AcDbSymbolTableRecord
100
AcDbTextStyleTableRecord
  2
KICADB
 70
0
 40
0
 41
1
 42
1
 50
0
 71
0
  3
isocp.shx
  0
STYLE
  5
D
330
A
100
AcDbSymbolTableRecord
100
AcDbTextStyleTableRecord
  2
KICADI
 70
0
 40
0
 41
1
 42
1
 50
15
 71
0
  3
isocp.shx
  0
STYLE
  5
E
330
A
100
AcDbSymbolTableRecord
100
AcDbTextStyleTableRecord
  2
KICADBI
 70
0
 40
0
 41
1
 42
1
 50
15
 71
0
  3
isocp.shx
  0
ENDTAB
  0
TABLE
  2
LAYER
  5
F
330
0
100
AcDbSymbolTable
 70
3
  0
LAYER
  5
12
330
F
100
AcDbSymbolTableRecord
100
AcDbLayerTableRecord
  2
0
 70
0
 62
7
  6
CONTINUOUS
390
10
  0
LAYER
  5
13
330
F
100
AcDbSymbolTableRecord
100
AcDbLayerTableRecord
  2
User.Drawings
 70
0
 62
9
420
12763842
  6
CONTINUOUS
390
10
  0
LAYER
  5
14
330
F
100
AcDbSymbolTableRecord
100
AcDbLayerTableRecord
  2
Edge.Cuts
 70
0
 62
254
420
13685453
  6
CONTINUOUS
390
10
  0
ENDTAB
  0
TABLE
  2
VPORT
  5
15
330
0
100
AcDbSymbolTable
 70
0
  0
ENDTAB
  0
TABLE
  2
VIEW
  5
16
330
0
100
AcDbSymbolTable
 70
0
  0
ENDTAB
  0
TABLE
  2
UCS
  5
17
330
0
100
AcDbSymbolTable
 70
0
  0
ENDTAB
  0
TABLE
  2
DIMSTYLE
  5
18
330
0
100
AcDbSymbolTable
 70
1
100
AcDbDimStyleTable
 71
0
  0
DIMSTYLE
105
19
330
18
100
AcDbSymbolTableRecord
100
AcDbDimStyleTableRecord
  2
Standard
 70
0
  0
ENDTAB
  0
TABLE
  2
BLOCK_RECORD
  5
1A
330
0
100
AcDbSymbolTable
 70
3
  0
BLOCK_RECORD
  5
1B
330
1A
100
AcDbSymbolTableRecord
100
AcDbBlockTableRecord
  2
*Model_Space
340
1E
 70
0
280
1
281
0
  0
BLOCK_RECORD
  5
1C
330
1A
100
AcDbSymbolTableRecord
100
AcDbBlockTableRecord
  2
*Paper_Space
340
1F
 70
0
280
1
281
0
  0
BLOCK_RECORD
  5
1D
330
1A
100
AcDbSymbolTableRecord
100
AcDbBlockTableRecord
  2
*Paper_Space0
340
20
 70
0
280
1
281
0
  0
ENDTAB
  0
ENDSEC
  0
SECTION
  2
BLOCKS
  0
BLOCK
  5
23
330
1B
100
AcDbEntity
  8
0
100
AcDbBlockBegin
  2
*Model_Space
 70
0
 10
0.0
 20
0.0
 30
0.0
  3
*Model_Space
  1

  0
ENDBLK
  5
24
330
1B
100
AcDbEntity
  8
0
100
AcDbBlockEnd
  0
BLOCK
  5
25
330
1C
100
AcDbEntity
 67
1
  8
0
100
AcDbBlockBegin
  2
*Paper_Space
 70
0
 10
0.0
 20
0.0
 30
0.0
  3
*Paper_Space
  1

  0
ENDBLK
  5
26
330
1C
100
AcDbEntity
 67
1
  8
0
100
AcDbBlockEnd
  0
BLOCK
  5
27
330
1D
100
AcDbEntity
 67
1
  8
0
100
AcDbBlockBegin
  2
*Paper_Space0
 70
0
 10
0.0
 20
0.0
 30
0.0
  3
*Paper_Space0
  1

  0
ENDBLK
  5
28
330
1D
100
AcDbEntity
 67
1
  8
0
100
AcDbBlockEnd
  0
ENDSEC
  0
SECTION
  2
ENTITIES
  0
LINE
  5
29
330
1B
100
AcDbEntity
  8
Edge.Cuts
  6
CONTINUOUS
100
AcDbLine
 10
2.9285505905511808
 20
-5.0943145669291336
 30
0
 11
2.9382451968503935
 21
-5.0974645275590547
 31
0
  0
LINE
  5
2A
330
1B
100
AcDbEntity
  8
Edge.Cuts
  6
CONTINUOUS
100
AcDbLine
 10
2.9382451968503935
 20
-5.0974645275590547
 30
0
 11
2.947327677165354
 21
-5.1020922834645672
 31
0
  0
LINE
  5
2B
330
1B
100
AcDbEntity
  8
Edge.Cuts
  6
CONTINUOUS
100
AcDbLine
 10
2.947327677165354
 20
-5.1020922834645672
 30
0
 11
2.95557437007874
 21
-5.1080838582677162
 31
0
  0
LINE
  5
2C
330
1B
100
AcDbEntity
  8
Edge.Cuts
  6
CONTINUOUS
100
AcDbLine
 10
2.95557437007874
 20
-5.1080838582677162
 30
0
 11
2.9627822834645667
 21
-5.1152917716535429
 31
0
  0
LINE
  5
2D
330
1B
100
AcDbEntity
  8
Edge.Cuts
  6
CONTINUOUS
100
AcDbLine
 10
2.9627822834645667
 20
-5.1152917716535429
 30
0
 11
2.9687738582677166
 21
-5.1235384645669289
 31
0
  0
LINE
  5
2E
330
1B
100
AcDbEntity
  8
Edge.Cuts
  6
CONTINUOUS
100
AcDbLine
 10
2.9687738582677166
 20
-5.1235384645669289
 30
0
 11
2.9734016141732282
 21
-5.1326209448818894
 31
0
  0
LINE
  5
2F
330
1B
100
AcDbEntity
  8
Edge.Cuts
  6
CONTINUOUS
100
AcDbLine
 10
2.9734016141732282
 20
-5.1326209448818894
 30
0
 11
2.9765515748031497
 21
-5.1423155511811025
 31
0
  0
LINE
  5
30
330
1B
100
AcDbEntity
  8
Edge.Cuts
  6
CONTINUOUS
100
AcDbLine
 10
2.9765515748031497
 20
-5.1423155511811025
 30
0
 11
2.9781462204724409
 21
-5.1523835433070868
 31
0
  0
LINE
  5
31
330
1B
100
AcDbEntity
  8
Edge.Cuts
  6
CONTINUOUS
100
AcDbLine
 10
2.9781462204724409
 20
-5.1523835433070868
 30
0
 11
2.9781462204724409
 21
-5.1625770866141734
 31
0
  0
LINE
  5
32
330
1B
100
AcDbEntity
  8
Edge.Cuts
  6
CONTINUOUS
100
AcDbLine
 10
2.9781462204724409
 20
-5.1625770866141734
 30
0
 11
2.9765515748031497
 21
-5.1726450787401577
 31
0
  0
LINE
  5
33
330
1B
100
AcDbEntity
  8
Edge.Cuts
  6
CONTINUOUS
100
AcDbLine
 10
2.9765515748031497
 20
-5.1726450787401577
 30
0
 11
2.9734016141732282
 21
-5.1823396850393699
 31
0
  0
LINE
  5
34
330
1B
100
AcDbEntity
  8
Edge.Cuts
  6
CONTINUOUS
100
AcDbLine
 10
2.9734016141732282
 20
-5.1823396850393699
 30
0
 11
2.9687738582677166
 21
-5.1914221653543304
 31
0
  0
LINE
  5
35
330
1B
100
AcDbEntity
  8
Edge.Cuts
  6
CONTINUOUS
100
AcDbLine
 10
2.9687738582677166
 20
-5.1914221653543304
 30
0
 11
2.9627822834645667
 21
-5.1996688582677164
 31
0
  0
LINE
  5
36
330
1B
100
AcDbEntity
  8
Edge.Cuts
  6
CONTINUOUS
100
AcDbLine
 10
2.9627822834645667
 20
-5.1996688582677164
 30
0
 11
2.95557437007874
 21
-5.2068767716535431
 31
0
  0
LINE
  5
37
330
1B
100
AcDbEntity
  8
Edge.Cuts
  6
CONTINUOUS
100
AcDbLine
 10
2.95557437007874
 20
-5.2068767716535431
 30
0
 11
2.947327677165354
 21
-5.2128683464566929
 31
0
  0
LINE
  5
38
330
1B
100
AcDbEntity
  8
Edge.Cuts
  6
CONTINUOUS
100
AcDbLine
 10
2.947327677165354
 20
-5.2128683464566929
 30
0
 11
2.9382451968503935
 21
-5.2174961023622046
 31
0
  0
LINE
  5
39
330
1B
100
AcDbEntity
  8
Edge.Cuts
  6
CONTINUOUS
100
AcDbLine
 10
2.9382451968503935
 20
-5.2174961023622046
 30
0
 11
2.9285505905511808
 21
-5.2206460629921256
 31
0
  0
LINE
  5
3A
330
1B
100
AcDbEntity
  8
Edge.Cuts
  6
CONTINUOUS
100
AcDbLine
 10
2.9285505905511808
 20
-5.2206460629921256
 30
0
 11
2.918482598425197
 21
-5.2222407086614169
 31
0
  0
LINE
  5
3B
330
1B
100
AcDbEntity
  8
Edge.Cuts
  6
CONTINUOUS
100
AcDbLine
 10
2.918482598425197
 20
-5.2222407086614169
 30
0
 11
2.90828905511811
 21
-5.2222407086614169
 31
0
  0
LINE
  5
3C
330
1B
100
AcDbEntity
  8
Edge.Cuts
  6
CONTINUOUS
100
AcDbLine
 10
2.90828905511811
 20
-5.2222407086614169
 30
0
 11
2.8982210629921261
 21
-5.2206460629921256
 31
0
  0
LINE
  5
3D
330
1B
100
AcDbEntity
  8
Edge.Cuts
  6
CONTINUOUS
100
AcDbLine
 10
2.8982210629921261
 20
-5.2206460629921256
 30
0
 11
2.8885264566929134
 21
-5.2174961023622046
 31
0
  0
LINE
  5
3E
330
1B
100
AcDbEntity
  8
Edge.Cuts
  6
CONTINUOUS
100
AcDbLine
 10
2.8885264566929134
 20
-5.2174961023622046
 30
0
 11
2.8794439763779529
 21
-5.2128683464566929
 31
0
  0
LINE
  5
3F
330
1B
100
AcDbEntity
  8
Edge.Cuts
  6
CONTINUOUS
100
AcDbLine
 10
2.8794439763779529
 20
-5.2128683464566929
 30
0
 11
2.8711972834645669
 21
-5.2068767716535431
 31
0
  0
LINE
  5
40
330
1B
100
AcDbEntity
  8
Edge.Cuts
  6
CONTINUOUS
100
AcDbLine
 10
2.8711972834645669
 20
-5.2068767716535431
 30
0
 11
2.8639893700787402
 21
-5.1996688582677164
 31
0
  0
LINE
  5
41
330
1B
100
AcDbEntity
  8
Edge.Cuts
  6
CONTINUOUS
100
AcDbLine
 10
2.8639893700787402
 20
-5.1996688582677164
 30
0
 11
2.8579977952755904
 21
-5.1914221653543304
 31
0
  0
LINE
  5
42
330
1B
100
AcDbEntity
  8
Edge.Cuts
  6
CONTINUOUS
100
AcDbLine
 10
2.8579977952755904
 20
-5.1914221653543304
 30
0
 11
2.8533700393700787
 21
-5.1823396850393699
 31
0
  0
LINE
  5
43
330
1B
100
AcDbEntity
  8
Edge.Cuts
  6
CONTINUOUS
100
AcDbLine
 10
2.8533700393700787
 20
-5.1823396850393699
 30
0
 11
2.8502200787401573
 21
-5.1726450787401577
 31
0
  0
LINE
  5
44
330
1B
100
AcDbEntity
  8
Edge.Cuts
  6
CONTINUOUS
100
AcDbLine
 10
2.8502200787401573
 20
-5.1726450787401577
 30
0
 11
2.848625433070866
 21
-5.1625770866141734
 31
0
  0
LINE
  5
45
330
1B
100
AcDbEntity
  8
Edge.Cuts
  6
CONTINUOUS
100
AcDbLine
 10
2.848625433070866
 20
-5.1625770866141734
 30
0
 11
2.848625433070866
 21
-5.1526776377952759
 31
0
  0
LINE
  5
46
330
1B
100
AcDbEntity
  8
Edge.Cuts
  6
CONTINUOUS
100
AcDbLine
 10
2.848625433070866
 20
-5.1526776377952759
 30
0
 11
2.848625433070866
 21
-5.1523835433070868
 31
0
  0
LINE
  5
47
330
1B
100
AcDbEntity
  8
Edge.Cuts
  6
CONTINUOUS
100
AcDbLine
 10
2.848625433070866
 20
-5.1523835433070868
 30
0
 11
2.8502200787401573
 21
-5.1423155511811025
 31
0
  0
LINE
  5
48
330
1B
100
AcDbEntity
  8
Edge.Cuts
  6
CONTINUOUS
100
AcDbLine
 10
2.8502200787401573
 20
-5.1423155511811025
 30
0
 11
2.8533700393700787
 21
-5.1326209448818894
 31
0
  0
LINE
  5
49
330
1B
100
AcDbEntity
  8
Edge.Cuts
  6
CONTINUOUS
100
AcDbLine
 10
2.8533700393700787
 20
-5.1326209448818894
 30
0
 11
2.8579977952755904
 21
-5.1235384645669289
 31
0
  0
LINE
  5
4A
330
1B
100
AcDbEntity
  8
Edge.Cuts
  6
CONTINUOUS
100
AcDbLine
 10
2.8579977952755904
 20
-5.1235384645669289
 30
0
 11
2.8639893700787402
 21
-5.1152917716535429
 31
0
  0
LINE
  5
4B
330
1B
100
AcDbEntity
  8
Edge.Cuts
  6
CONTINUOUS
100
AcDbLine
 10
2.8639893700787402
 20
-5.1152917716535429
 30
0
 11
2.8711972834645669
 21
-5.1080838582677162
 31
0
  0
LINE
  5
4C
330
1B
100
AcDbEntity
  8
Edge.Cuts
  6
CONTINUOUS
100
AcDbLine
 10
2.8711972834645669
 20
-5.1080838582677162
 30
0
 11
2.8794439763779529
 21
-5.1020922834645672
 31
0
  0
LINE
  5
4D
330
1B
100
AcDbEntity
  8
Edge.Cuts
  6
CONTINUOUS
100
AcDbLine
 10
2.8794439763779529
 20
-5.1020922834645672
 30
0
 11
2.8885264566929134
 21
-5.0974645275590547
 31
0
  0
LINE
  5
4E
330
1B
100
AcDbEntity
  8
Edge.Cuts
  6
CONTINUOUS
100
AcDbLine
 10
2.8885264566929134
 20
-5.0974645275590547
 30
0
 11
2.8982210629921261
 21
-5.0943145669291336
 31
0
  0
LINE
  5
4F
330
1B
100
AcDbEntity
  8
Edge.Cuts
  6
CONTINUOUS
100
AcDbLine
 10
2.8982210629921261
 20
-5.0943145669291336
 30
0
 11
2.90828905511811
 21
-5.0927199212598424
 31
0
  0
LINE
  5
50
330
1B
100
AcDbEntity
  8
Edge.Cuts
  6
CONTINUOUS
100
AcDbLine
 10
2.90828905511811
 20
-5.0927199212598424
 30
0
 11
2.918482598425197
 21
-5.0927199212598424
 31
0
  0
LINE
  5
51
330
1B
100
AcDbEntity
  8
Edge.Cuts
  6
CONTINUOUS
100
AcDbLine
 10
2.918482598425197
 20
-5.0927199212598424
 30
0
 11
2.9285505905511808
 21
-5.0943145669291336
 31
0
  0
LINE
  5
52
330
1B
100
AcDbEntity
  8
Edge.Cuts
  6
CONTINUOUS
100
AcDbLine
 10
2.8523622047244093
 20
-5.1622829921259843
 30
0
 11
2.8538648031496061
 21
-5.1717700393700783
 31
0
  0
LINE
  5
53
330
1B
100
AcDbEntity
  8
Edge.Cuts
  6
CONTINUOUS
100
AcDbLine
 10
2.8538648031496061
 20
-5.1717700393700783
 30
0
 11
2.856833031496063
 21
-5.1809052755905514
 31
0
  0
LINE
  5
54
330
1B
100
AcDbEntity
  8
Edge.Cuts
  6
CONTINUOUS
100
AcDbLine
 10
2.856833031496063
 20
-5.1809052755905514
 30
0
 11
2.8611937401574803
 21
-5.1894636614173226
 31
0
  0
LINE
  5
55
330
1B
100
AcDbEntity
  8
Edge.Cuts
  6
CONTINUOUS
100
AcDbLine
 10
2.8611937401574803
 20
-5.1894636614173226
 30
0
 11
2.8668396062992128
 21
-5.197234527559055
 31
0
  0
LINE
  5
56
330
1B
100
AcDbEntity
  8
Edge.Cuts
  6
CONTINUOUS
100
AcDbLine
 10
2.8668396062992128
 20
-5.197234527559055
 30
0
 11
2.8736316141732283
 21
-5.204026535433071
 31
0
  0
LINE
  5
57
330
1B
100
AcDbEntity
  8
Edge.Cuts
  6
CONTINUOUS
100
AcDbLine
 10
2.8736316141732283
 20
-5.204026535433071
 30
0
 11
2.8814024803149607
 21
-5.209672401574803
 31
0
  0
LINE
  5
58
330
1B
100
AcDbEntity
  8
Edge.Cuts
  6
CONTINUOUS
100
AcDbLine
 10
2.8814024803149607
 20
-5.209672401574803
 30
0
 11
2.8899608661417324
 21
-5.2140331102362207
 31
0
  0
LINE
  5
59
330
1B
100
AcDbEntity
  8
Edge.Cuts
  6
CONTINUOUS
100
AcDbLine
 10
2.8899608661417324
 20
-5.2140331102362207
 30
0
 11
2.8990961023622046
 21
-5.2170013385826772
 31
0
  0
LINE
  5
5A
330
1B
100
AcDbEntity
  8
Edge.Cuts
  6
CONTINUOUS
100
AcDbLine
 10
2.8990961023622046
 20
-5.2170013385826772
 30
0
 11
2.908583149606299
 21
-5.2185039370078741
 31
0
  0
LINE
  5
5B
330
1B
100
AcDbEntity
  8
Edge.Cuts
  6
CONTINUOUS
100
AcDbLine
 10
2.908583149606299
 20
-5.2185039370078741
 30
0
 11
2.9181885039370079
 21
-5.2185039370078741
 31
0
  0
LINE
  5
5C
330
1B
100
AcDbEntity
  8
Edge.Cuts
  6
CONTINUOUS
100
AcDbLine
 10
2.9181885039370079
 20
-5.2185039370078741
 30
0
 11
2.9276755511811023
 21
-5.2170013385826772
 31
0
  0
LINE
  5
5D
330
1B
100
AcDbEntity
  8
Edge.Cuts
  6
CONTINUOUS
100
AcDbLine
 10
2.9276755511811023
 20
-5.2170013385826772
 30
0
 11
2.9368107874015745
 21
-5.2140331102362207
 31
0
  0
LINE
  5
5E
330
1B
100
AcDbEntity
  8
Edge.Cuts
  6
CONTINUOUS
100
AcDbLine
 10
2.9368107874015745
 20
-5.2140331102362207
 30
0
 11
2.9453691732283462
 21
-5.209672401574803
 31
0
  0
LINE
  5
5F
330
1B
100
AcDbEntity
  8
Edge.Cuts
  6
CONTINUOUS
100
AcDbLine
 10
2.9453691732283462
 20
-5.209672401574803
 30
0
 11
2.9531400393700786
 21
-5.204026535433071
 31
0
  0
LINE
  5
60
330
1B
100
AcDbEntity
  8
Edge.Cuts
  6
CONTINUOUS
100
AcDbLine
 10
2.9531400393700786
 20
-5.204026535433071
 30
0
 11
2.9599320472440942
 21
-5.197234527559055
 31
0
  0
LINE
  5
61
330
1B
100
AcDbEntity
  8
Edge.Cuts
  6
CONTINUOUS
100
AcDbLine
 10
2.9599320472440942
 20
-5.197234527559055
 30
0
 11
2.9655779133858267
 21
-5.1894636614173226
 31
0
  0
LINE
  5
62
330
1B
100
AcDbEntity
  8
Edge.Cuts
  6
CONTINUOUS
100
AcDbLine
 10
2.9655779133858267
 20
-5.1894636614173226
 30
0
 11
2.9699386220472439
 21
-5.1809052755905514
 31
0
  0
LINE
  5
63
330
1B
100
AcDbEntity
  8
Edge.Cuts
  6
CONTINUOUS
100
AcDbLine
 10
2.9699386220472439
 20
-5.1809052755905514
 30
0
 11
2.9729068503937008
 21
-5.1717700393700783
 31
0
  0
LINE
  5
64
330
1B
100
AcDbEntity
  8
Edge.Cuts
  6
CONTINUOUS
100
AcDbLine
 10
2.9729068503937008
 20
-5.1717700393700783
 30
0
 11
2.9744094488188977
 21
-5.1622829921259843
 31
0
  0
LINE
  5
65
330
1B
100
AcDbEntity
  8
Edge.Cuts
  6
CONTINUOUS
100
AcDbLine
 10
2.9744094488188977
 20
-5.1622829921259843
 30
0
 11
2.9744094488188977
 21
-5.1526776377952759
 31
0
  0
LINE
  5
66
330
1B
100
AcDbEntity
  8
Edge.Cuts
  6
CONTINUOUS
100
AcDbLine
 10
2.9744094488188977
 20
-5.1526776377952759
 30
0
 11
2.9729068503937008
 21
-5.143190590551181
 31
0
  0
LINE
  5
67
330
1B
100
AcDbEntity
  8
Edge.Cuts
  6
CONTINUOUS
100
AcDbLine
 10
2.9729068503937008
 20
-5.143190590551181
 30
0
 11
2.9699386220472439
 21
-5.1340553543307088
 31
0
  0
LINE
  5
68
330
1B
100
AcDbEntity
  8
Edge.Cuts
  6
CONTINUOUS
100
AcDbLine
 10
2.9699386220472439
 20
-5.1340553543307088
 30
0
 11
2.9655779133858267
 21
-5.1254969685039367
 31
0
  0
LINE
  5
69
330
1B
100
AcDbEntity
  8
Edge.Cuts
  6
CONTINUOUS
100
AcDbLine
 10
2.9655779133858267
 20
-5.1254969685039367
 30
0
 11
2.9599320472440942
 21
-5.1177261023622043
 31
0
  0
LINE
  5
6A
330
1B
100
AcDbEntity
  8
Edge.Cuts
  6
CONTINUOUS
100
AcDbLine
 10
2.9599320472440942
 20
-5.1177261023622043
 30
0
 11
2.9531400393700786
 21
-5.1109340944881891
 31
0
  0
LINE
  5
6B
330
1B
100
AcDbEntity
  8
Edge.Cuts
  6
CONTINUOUS
100
AcDbLine
 10
2.9531400393700786
 20
-5.1109340944881891
 30
0
 11
2.9453691732283462
 21
-5.1052882283464562
 31
0
  0
LINE
  5
6C
330
1B
100
AcDbEntity
  8
Edge.Cuts
  6
CONTINUOUS
100
AcDbLine
 10
2.9453691732283462
 20
-5.1052882283464562
 30
0
 11
2.9368107874015745
 21
-5.1009275196850394
 31
0
  0
LINE
  5
6D
330
1B
100
AcDbEntity
  8
Edge.Cuts
  6
CONTINUOUS
100
AcDbLine
 10
2.9368107874015745
 20
-5.1009275196850394
 30
0
 11
2.9276755511811023
 21
-5.0979592913385829
 31
0
  0
LINE
  5
6E
330
1B
100
AcDbEntity
  8
Edge.Cuts
  6
CONTINUOUS
100
AcDbLine
 10
2.9276755511811023
 20
-5.0979592913385829
 30
0
 11
2.9181885039370079
 21
-5.0964566929133861
 31
0
  0
LINE
  5
6F
330
1B
100
AcDbEntity
  8
Edge.Cuts
  6
CONTINUOUS
100
AcDbLine
 10
2.9181885039370079
 20
-5.0964566929133861
 30
0
 11
2.908583149606299
 21
-5.0964566929133861
 31
0
  0
LINE
  5
70
330
1B
100
AcDbEntity
  8
Edge.Cuts
  6
CONTINUOUS
100
AcDbLine
 10
2.908583149606299
 20
-5.0964566929133861
 30
0
 11
2.8990961023622046
 21
-5.0979592913385829
 31
0
  0
LINE
  5
71
330
1B
100
AcDbEntity
  8
Edge.Cuts
  6
CONTINUOUS
100
AcDbLine
 10
2.8990961023622046
 20
-5.0979592913385829
 30
0
 11
2.8899608661417324
 21
-5.1009275196850394
 31
0
  0
LINE
  5
72
330
1B
100
AcDbEntity
  8
Edge.Cuts
  6
CONTINUOUS
100
AcDbLine
 10
2.8899608661417324
 20
-5.1009275196850394
 30
0
 11
2.8814024803149607
 21
-5.1052882283464562
 31
0
  0
LINE
  5
73
330
1B
100
AcDbEntity
  8
Edge.Cuts
  6
CONTINUOUS
100
AcDbLine
 10
2.8814024803149607
 20
-5.1052882283464562
 30
0
 11
2.8736316141732283
 21
-5.1109340944881891
 31
0
  0
LINE
  5
74
330
1B
100
AcDbEntity
  8
Edge.Cuts
  6
CONTINUOUS
100
AcDbLine
 10
2.8736316141732283
 20
-5.1109340944881891
 30
0
 11
2.8668396062992128
 21
-5.1177261023622043
 31
0
  0
LINE
  5
75
330
1B
100
AcDbEntity
  8
Edge.Cuts
  6
CONTINUOUS
100
AcDbLine
 10
2.8668396062992128
 20
-5.1177261023622043
 30
0
 11
2.8611937401574803
 21
-5.1254969685039367
 31
0
  0
LINE
  5
76
330
1B
100
AcDbEntity
  8
Edge.Cuts
  6
CONTINUOUS
100
AcDbLine
 10
2.8611937401574803
 20
-5.1254969685039367
 30
0
 11
2.856833031496063
 21
-5.1340553543307088
 31
0
  0
LINE
  5
77
330
1B
100
AcDbEntity
  8
Edge.Cuts
  6
CONTINUOUS
100
AcDbLine
 10
2.856833031496063
 20
-5.1340553543307088
 30
0
 11
2.8538648031496061
 21
-5.143190590551181
 31
0
  0
LINE
  5
78
330
1B
100
AcDbEntity
  8
Edge.Cuts
  6
CONTINUOUS
100
AcDbLine
 10
2.8538648031496061
 20
-5.143190590551181
 30
0
 11
2.8523622047244093
 21
-5.1526776377952759
 31
0
  0
LINE
  5
79
330
1B
100
AcDbEntity
  8
Edge.Cuts
  6
CONTINUOUS
100
AcDbLine
 10
2.8523622047244093
 20
-5.1526776377952759
 30
0
 11
2.8523622047244093
 21
-5.1622829921259843
 31
0
  0
LINE
  5
7A
330
1B
100
AcDbEntity
  8
Edge.Cuts
  6
CONTINUOUS
100
AcDbLine
 10
8.1254009842519679
 20
-5.0943145669291336
 30
0
 11
8.135095590551181
 21
-5.0974645275590547
 31
0
  0
LINE
  5
7B
330
1B
100
AcDbEntity
  8
Edge.Cuts
  6
CONTINUOUS
100
AcDbLine
 10
8.135095590551181
 20
-5.0974645275590547
 30
0
 11
8.1441780708661415
 21
-5.1020922834645672
 31
0
  0
LINE
  5
7C
330
1B
100
AcDbEntity
  8
Edge.Cuts
  6
CONTINUOUS
100
AcDbLine
 10
8.1441780708661415
 20
-5.1020922834645672
 30
0
 11
8.1524247637795266
 21
-5.1080838582677162
 31
0
  0
LINE
  5
7D
330
1B
100
AcDbEntity
  8
Edge.Cuts
  6
CONTINUOUS
100
AcDbLine
 10
8.1524247637795266
 20
-5.1080838582677162
 30
0
 11
8.1596326771653533
 21
-5.1152917716535429
 31
0
  0
LINE
  5
7E
330
1B
100
AcDbEntity
  8
Edge.Cuts
  6
CONTINUOUS
100
AcDbLine
 10
8.1596326771653533
 20
-5.1152917716535429
 30
0
 11
8.1656242519685041
 21
-5.1235384645669289
 31
0
  0
LINE
  5
7F
330
1B
100
AcDbEntity
  8
Edge.Cuts
  6
CONTINUOUS
100
AcDbLine
 10
8.1656242519685041
 20
-5.1235384645669289
 30
0
 11
8.1702520078740157
 21
-5.1326209448818894
 31
0
  0
LINE
  5
80
330
1B
100
AcDbEntity
  8
Edge.Cuts
  6
CONTINUOUS
100
AcDbLine
 10
8.1702520078740157
 20
-5.1326209448818894
 30
0
 11
8.1734019685039367
 21
-5.1423155511811025
 31
0
  0
LINE
  5
81
330
1B
100
AcDbEntity
  8
Edge.Cuts
  6
CONTINUOUS
100
AcDbLine
 10
8.1734019685039367
 20
-5.1423155511811025
 30
0
 11
8.174996614173228
 21
-5.1523835433070868
 31
0
  0
LINE
  5
82
330
1B
100
AcDbEntity
  8
Edge.Cuts
  6
CONTINUOUS
100
AcDbLine
 10
8.174996614173228
 20
-5.1523835433070868
 30
0
 11
8.174996614173228
 21
-5.1625770866141734
 31
0
  0
LINE
  5
83
330
1B
100
AcDbEntity
  8
Edge.Cuts
  6
CONTINUOUS
100
AcDbLine
 10
8.174996614173228
 20
-5.1625770866141734
 30
0
 11
8.1734019685039367
 21
-5.1726450787401577
 31
0
  0
LINE
  5
84
330
1B
100
AcDbEntity
  8
Edge.Cuts
  6
CONTINUOUS
100
AcDbLine
 10
8.1734019685039367
 20
-5.1726450787401577
 30
0
 11
8.1702520078740157
 21
-5.1823396850393699
 31
0
  0
LINE
  5
85
330
1B
100
AcDbEntity
  8
Edge.Cuts
  6
CONTINUOUS
100
AcDbLine
 10
8.1702520078740157
 20
-5.1823396850393699
 30
0
 11
8.1656242519685041
 21
-5.1914221653543304
 31
0
  0
LINE
  5
86
330
1B
100
AcDbEntity
  8
Edge.Cuts
  6
CONTINUOUS
100
AcDbLine
 10
8.1656242519685041
 20
-5.1914221653543304
 30
0
 11
8.1596326771653533
 21
-5.1996688582677164
 31
0
  0
LINE
  5
87
330
1B
100
AcDbEntity
  8
Edge.Cuts
  6
CONTINUOUS
100
AcDbLine
 10
8.1596326771653533
 20
-5.1996688582677164
 30
0
 11
8.1524247637795266
 21
-5.2068767716535431
 31
0
  0
LINE
  5
88
330
1B
100
AcDbEntity
  8
Edge.Cuts
  6
CONTINUOUS
100
AcDbLine
 10
8.1524247637795266
 20
-5.2068767716535431
 30
0
 11
8.1441780708661415
 21
-5.2128683464566929
 31
0
  0
LINE
  5
89
330
1B
100
AcDbEntity
  8
Edge.Cuts
  6
CONTINUOUS
100
AcDbLine
 10
8.1441780708661415
 20
-5.2128683464566929
 30
0
 11
8.135095590551181
 21
-5.2174961023622046
 31
0
  0
LINE
  5
8A
330
1B
100
AcDbEntity
  8
Edge.Cuts
  6
CONTINUOUS
100
AcDbLine
 10
8.135095590551181
 20
-5.2174961023622046
 30
0
 11
8.1254009842519679
 21
-5.2206460629921256
 31
0
  0
LINE
  5
8B
330
1B
100
AcDbEntity
  8
Edge.Cuts
  6
CONTINUOUS
100
AcDbLine
 10
8.1254009842519679
 20
-5.2206460629921256
 30
0
 11
8.1153329921259836
 21
-5.2222407086614169
 31
0
  0
LINE
  5
8C
330
1B
100
AcDbEntity
  8
Edge.Cuts
  6
CONTINUOUS
100
AcDbLine
 10
8.1153329921259836
 20
-5.2222407086614169
 30
0
 11
8.1051394488188979
 21
-5.2222407086614169
 31
0
  0
LINE
  5
8D
330
1B
100
AcDbEntity
  8
Edge.Cuts
  6
CONTINUOUS
100
AcDbLine
 10
8.1051394488188979
 20
-5.2222407086614169
 30
0
 11
8.0950714566929136
 21
-5.2206460629921256
 31
0
  0
LINE
  5
8E
330
1B
100
AcDbEntity
  8
Edge.Cuts
  6
CONTINUOUS
100
AcDbLine
 10
8.0950714566929136
 20
-5.2206460629921256
 30
0
 11
8.0853768503937005
 21
-5.2174961023622046
 31
0
  0
LINE
  5
8F
330
1B
100
AcDbEntity
  8
Edge.Cuts
  6
CONTINUOUS
100
AcDbLine
 10
8.0853768503937005
 20
-5.2174961023622046
 30
0
 11
8.07629437007874
 21
-5.2128683464566929
 31
0
  0
LINE
  5
90
330
1B
100
AcDbEntity
  8
Edge.Cuts
  6
CONTINUOUS
100
AcDbLine
 10
8.07629437007874
 20
-5.2128683464566929
 30
0
 11
8.0680476771653549
 21
-5.2068767716535431
 31
0
  0
LINE
  5
91
330
1B
100
AcDbEntity
  8
Edge.Cuts
  6
CONTINUOUS
100
AcDbLine
 10
8.0680476771653549
 20
-5.2068767716535431
 30
0
 11
8.0608397637795282
 21
-5.1996688582677164
 31
0
  0
LINE
  5
92
330
1B
100
AcDbEntity
  8
Edge.Cuts
  6
CONTINUOUS
100
AcDbLine
 10
8.0608397637795282
 20
-5.1996688582677164
 30
0
 11
8.0548481889763774
 21
-5.1914221653543304
 31
0
  0
LINE
  5
93
330
1B
100
AcDbEntity
  8
Edge.Cuts
  6
CONTINUOUS
100
AcDbLine
 10
8.0548481889763774
 20
-5.1914221653543304
 30
0
 11
8.0502204330708658
 21
-5.1823396850393699
 31
0
  0
LINE
  5
94
330
1B
100
AcDbEntity
  8
Edge.Cuts
  6
CONTINUOUS
100
AcDbLine
 10
8.0502204330708658
 20
-5.1823396850393699
 30
0
 11
8.0470704724409448
 21
-5.1726450787401577
 31
0
  0
LINE
  5
95
330
1B
100
AcDbEntity
  8
Edge.Cuts
  6
CONTINUOUS
100
AcDbLine
 10
8.0470704724409448
 20
-5.1726450787401577
 30
0
 11
8.0454758267716535
 21
-5.1625770866141734
 31
0
  0
LINE
  5
96
330
1B
100
AcDbEntity
  8
Edge.Cuts
  6
CONTINUOUS
100
AcDbLine
 10
8.0454758267716535
 20
-5.1625770866141734
 30
0
 11
8.0454758267716535
 21
-5.1526776377952759
 31
0
  0
LINE
  5
97
330
1B
100
AcDbEntity
  8
Edge.Cuts
  6
CONTINUOUS
100
AcDbLine
 10
8.0454758267716535
 20
-5.1526776377952759
 30
0
 11
8.0454758267716535
 21
-5.1523835433070868
 31
0
  0
LINE
  5
98
330
1B
100
AcDbEntity
  8
Edge.Cuts
  6
CONTINUOUS
100
AcDbLine
 10
8.0454758267716535
 20
-5.1523835433070868
 30
0
 11
8.0470704724409448
 21
-5.1423155511811025
 31
0
  0
LINE
  5
99
330
1B
100
AcDbEntity
  8
Edge.Cuts
  6
CONTINUOUS
100
AcDbLine
 10
8.0470704724409448
 20
-5.1423155511811025
 30
0
 11
8.0502204330708658
 21
-5.1326209448818894
 31
0
  0
LINE
  5
9A
330
1B
100
AcDbEntity
  8
Edge.Cuts
  6
CONTINUOUS
100
AcDbLine
 10
8.0502204330708658
 20
-5.1326209448818894
 30
0
 11
8.0548481889763774
 21
-5.1235384645669289
 31
0
  0
LINE
  5
9B
330
1B
100
AcDbEntity
  8
Edge.Cuts
  6
CONTINUOUS
100
AcDbLine
 10
8.0548481889763774
 20
-5.1235384645669289
 30
0
 11
8.0608397637795282
 21
-5.1152917716535429
 31
0
  0
LINE
  5
9C
330
1B
100
AcDbEntity
  8
Edge.Cuts
  6
CONTINUOUS
100
AcDbLine
 10
8.0608397637795282
 20
-5.1152917716535429
 30
0
 11
8.0680476771653549
 21
-5.1080838582677162
 31
0
  0
LINE
  5
9D
330
1B
100
AcDbEntity
  8
Edge.Cuts
  6
CONTINUOUS
100
AcDbLine
 10
8.0680476771653549
 20
-5.1080838582677162
 30
0
 11
8.07629437007874
 21
-5.1020922834645672
 31
0
  0
LINE
  5
9E
330
1B
100
AcDbEntity
  8
Edge.Cuts
  6
CONTINUOUS
100
AcDbLine
 10
8.07629437007874
 20
-5.1020922834645672
 30
0
 11
8.0853768503937005
 21
-5.0974645275590547
 31
0
  0
LINE
  5
9F
330
1B
100
AcDbEntity
  8
Edge.Cuts
  6
CONTINUOUS
100
AcDbLine
 10
8.0853768503937005
 20
-5.0974645275590547
 30
0
 11
8.0950714566929136
 21
-5.0943145669291336
 31
0
  0
LINE
  5
A0
330
1B
100
AcDbEntity
  8
Edge.Cuts
  6
CONTINUOUS
100
AcDbLine
 10
8.0950714566929136
 20
-5.0943145669291336
 30
0
 11
8.1051394488188979
 21
-5.0927199212598424
 31
0
  0
LINE
  5
A1
330
1B
100
AcDbEntity
  8
Edge.Cuts
  6
CONTINUOUS
100
AcDbLine
 10
8.1051394488188979
 20
-5.0927199212598424
 30
0
 11
8.1153329921259836
 21
-5.0927199212598424
 31
0
  0
LINE
  5
A2
330
1B
100
AcDbEntity
  8
Edge.Cuts
  6
CONTINUOUS
100
AcDbLine
 10
8.1153329921259836
 20
-5.0927199212598424
 30
0
 11
8.1254009842519679
 21
-5.0943145669291336
 31
0
  0
LINE
  5
A3
330
1B
100
AcDbEntity
  8
Edge.Cuts
  6
CONTINUOUS
100
AcDbLine
 10
8.0492125984251963
 20
-5.1622829921259843
 30
0
 11
8.0507151968503941
 21
-5.1717700393700783
 31
0
  0
LINE
  5
A4
330
1B
100
AcDbEntity
  8
Edge.Cuts
  6
CONTINUOUS
100
AcDbLine
 10
8.0507151968503941
 20
-5.1717700393700783
 30
0
 11
8.0536834251968497
 21
-5.1809052755905514
 31
0
  0
LINE
  5
A5
330
1B
100
AcDbEntity
  8
Edge.Cuts
  6
CONTINUOUS
100
AcDbLine
 10
8.0536834251968497
 20
-5.1809052755905514
 30
0
 11
8.0580441338582673
 21
-5.1894636614173226
 31
0
  0
LINE
  5
A6
330
1B
100
AcDbEntity
  8
Edge.Cuts
  6
CONTINUOUS
100
AcDbLine
 10
8.0580441338582673
 20
-5.1894636614173226
 30
0
 11
8.0636899999999994
 21
-5.197234527559055
 31
0
  0
LINE
  5
A7
330
1B
100
AcDbEntity
  8
Edge.Cuts
  6
CONTINUOUS
100
AcDbLine
 10
8.0636899999999994
 20
-5.197234527559055
 30
0
 11
8.0704820078740163
 21
-5.204026535433071
 31
0
  0
LINE
  5
A8
330
1B
100
AcDbEntity
  8
Edge.Cuts
  6
CONTINUOUS
100
AcDbLine
 10
8.0704820078740163
 20
-5.204026535433071
 30
0
 11
8.0782528740157478
 21
-5.209672401574803
 31
0
  0
LINE
  5
A9
330
1B
100
AcDbEntity
  8
Edge.Cuts
  6
CONTINUOUS
100
AcDbLine
 10
8.0782528740157478
 20
-5.209672401574803
 30
0
 11
8.0868112598425199
 21
-5.2140331102362207
 31
0
  0
LINE
  5
AA
330
1B
100
AcDbEntity
  8
Edge.Cuts
  6
CONTINUOUS
100
AcDbLine
 10
8.0868112598425199
 20
-5.2140331102362207
 30
0
 11
8.0959464960629912
 21
-5.2170013385826772
 31
0
  0
LINE
  5
AB
330
1B
100
AcDbEntity
  8
Edge.Cuts
  6
CONTINUOUS
100
AcDbLine
 10
8.0959464960629912
 20
-5.2170013385826772
 30
0
 11
8.1054335433070861
 21
-5.2185039370078741
 31
0
  0
LINE
  5
AC
330
1B
100
AcDbEntity
  8
Edge.Cuts
  6
CONTINUOUS
100
AcDbLine
 10
8.1054335433070861
 20
-5.2185039370078741
 30
0
 11
8.1150388976377954
 21
-5.2185039370078741
 31
0
  0
LINE
  5
AD
330
1B
100
AcDbEntity
  8
Edge.Cuts
  6
CONTINUOUS
100
AcDbLine
 10
8.1150388976377954
 20
-5.2185039370078741
 30
0
 11
8.1245259448818903
 21
-5.2170013385826772
 31
0
  0
LINE
  5
AE
330
1B
100
AcDbEntity
  8
Edge.Cuts
  6
CONTINUOUS
100
AcDbLine
 10
8.1245259448818903
 20
-5.2170013385826772
 30
0
 11
8.1336611811023616
 21
-5.2140331102362207
 31
0
  0
LINE
  5
AF
330
1B
100
AcDbEntity
  8
Edge.Cuts
  6
CONTINUOUS
100
AcDbLine
 10
8.1336611811023616
 20
-5.2140331102362207
 30
0
 11
8.1422195669291337
 21
-5.209672401574803
 31
0
  0
LINE
  5
B0
330
1B
100
AcDbEntity
  8
Edge.Cuts
  6
CONTINUOUS
100
AcDbLine
 10
8.1422195669291337
 20
-5.209672401574803
 30
0
 11
8.1499904330708652
 21
-5.204026535433071
 31
0
  0
LINE
  5
B1
330
1B
100
AcDbEntity
  8
Edge.Cuts
  6
CONTINUOUS
100
AcDbLine
 10
8.1499904330708652
 20
-5.204026535433071
 30
0
 11
8.1567824409448821
 21
-5.197234527559055
 31
0
  0
LINE
  5
B2
330
1B
100
AcDbEntity
  8
Edge.Cuts
  6
CONTINUOUS
100
AcDbLine
 10
8.1567824409448821
 20
-5.197234527559055
 30
0
 11
8.1624283070866142
 21
-5.1894636614173226
 31
0
  0
LINE
  5
B3
330
1B
100
AcDbEntity
  8
Edge.Cuts
  6
CONTINUOUS
100
AcDbLine
 10
8.1624283070866142
 20
-5.1894636614173226
 30
0
 11
8.1667890157480318
 21
-5.1809052755905514
 31
0
  0
LINE
  5
B4
330
1B
100
AcDbEntity
  8
Edge.Cuts
  6
CONTINUOUS
100
AcDbLine
 10
8.1667890157480318
 20
-5.1809052755905514
 30
0
 11
8.1697572440944874
 21
-5.1717700393700783
 31
0
  0
LINE
  5
B5
330
1B
100
AcDbEntity
  8
Edge.Cuts
  6
CONTINUOUS
100
AcDbLine
 10
8.1697572440944874
 20
-5.1717700393700783
 30
0
 11
8.1712598425196852
 21
-5.1622829921259843
 31
0
  0
LINE
  5
B6
330
1B
100
AcDbEntity
  8
Edge.Cuts
  6
CONTINUOUS
100
AcDbLine
 10
8.1712598425196852
 20
-5.1622829921259843
 30
0
 11
8.1712598425196852
 21
-5.1526776377952759
 31
0
  0
LINE
  5
B7
330
1B
100
AcDbEntity
  8
Edge.Cuts
  6
CONTINUOUS
100
AcDbLine
 10
8.1712598425196852
 20
-5.1526776377952759
 30
0
 11
8.1697572440944874
 21
-5.143190590551181
 31
0
  0
LINE
  5
B8
330
1B
100
AcDbEntity
  8
Edge.Cuts
  6
CONTINUOUS
100
AcDbLine
 10
8.1697572440944874
 20
-5.143190590551181
 30
0
 11
8.1667890157480318
 21
-5.1340553543307088
 31
0
  0
LINE
  5
B9
330
1B
100
AcDbEntity
  8
Edge.Cuts
  6
CONTINUOUS
100
AcDbLine
 10
8.1667890157480318
 20
-5.1340553543307088
 30
0
 11
8.1624283070866142
 21
-5.1254969685039367
 31
0
  0
LINE
  5
BA
330
1B
100
AcDbEntity
  8
Edge.Cuts
  6
CONTINUOUS
100
AcDbLine
 10
8.1624283070866142
 20
-5.1254969685039367
 30
0
 11
8.1567824409448821
 21
-5.1177261023622043
 31
0
  0
LINE
  5
BB
330
1B
100
AcDbEntity
  8
Edge.Cuts
  6
CONTINUOUS
100
AcDbLine
 10
8.1567824409448821
 20
-5.1177261023622043
 30
0
 11
8.1499904330708652
 21
-5.1109340944881891
 31
0
  0
LINE
  5
BC
330
1B
100
AcDbEntity
  8
Edge.Cuts
  6
CONTINUOUS
100
AcDbLine
 10
8.1499904330708652
 20
-5.1109340944881891
 30
0
 11
8.1422195669291337
 21
-5.1052882283464562
 31
0
  0
LINE
  5
BD
330
1B
100
AcDbEntity
  8
Edge.Cuts
  6
CONTINUOUS
100
AcDbLine
 10
8.1422195669291337
 20
-5.1052882283464562
 30
0
 11
8.1336611811023616
 21
-5.1009275196850394
 31
0
  0
LINE
  5
BE
330
1B
100
AcDbEntity
  8
Edge.Cuts
  6
CONTINUOUS
100
AcDbLine
 10
8.1336611811023616
 20
-5.1009275196850394
 30
0
 11
8.1245259448818903
 21
-5.0979592913385829
 31
0
  0
LINE
  5
BF
330
1B
100
AcDbEntity
  8
Edge.Cuts
  6
CONTINUOUS
100
AcDbLine
 10
8.1245259448818903
 20
-5.0979592913385829
 30
0
 11
8.1150388976377954
 21
-5.0964566929133861
 31
0
  0
LINE
  5
C0
330
1B
100
AcDbEntity
  8
Edge.Cuts
  6
CONTINUOUS
100
AcDbLine
 10
8.1150388976377954
 20
-5.0964566929133861
 30
0
 11
8.1054335433070861
 21
-5.0964566929133861
 31
0
  0
LINE
  5
C1
330
1B
100
AcDbEntity
  8
Edge.Cuts
  6
CONTINUOUS
100
AcDbLine
 10
8.1054335433070861
 20
-5.0964566929133861
 30
0
 11
8.0959464960629912
 21
-5.0979592913385829
 31
0
  0
LINE
  5
C2
330
1B
100
AcDbEntity
  8
Edge.Cuts
  6
CONTINUOUS
100
AcDbLine
 10
8.0959464960629912
 20
-5.0979592913385829
 30
0
 11
8.0868112598425199
 21
-5.1009275196850394
 31
0
  0
LINE
  5
C3
330
1B
100
AcDbEntity
  8
Edge.Cuts
  6
CONTINUOUS
100
AcDbLine
 10
8.0868112598425199
 20
-5.1009275196850394
 30
0
 11
8.0782528740157478
 21
-5.1052882283464562
 31
0
  0
LINE
  5
C4
330
1B
100
AcDbEntity
  8
Edge.Cuts
  6
CONTINUOUS
100
AcDbLine
 10
8.0782528740157478
 20
-5.1052882283464562
 30
0
 11
8.0704820078740163
 21
-5.1109340944881891
 31
0
  0
LINE
  5
C5
330
1B
100
AcDbEntity
  8
Edge.Cuts
  6
CONTINUOUS
100
AcDbLine
 10
8.0704820078740163
 20
-5.1109340944881891
 30
0
 11
8.0636899999999994
 21
-5.1177261023622043
 31
0
  0
LINE
  5
C6
330
1B
100
AcDbEntity
  8
Edge.Cuts
  6
CONTINUOUS
100
AcDbLine
 10
8.0636899999999994
 20
-5.1177261023622043
 30
0
 11
8.0580441338582673
 21
-5.1254969685039367
 31
0
  0
LINE
  5
C7
330
1B
100
AcDbEntity
  8
Edge.Cuts
  6
CONTINUOUS
100
AcDbLine
 10
8.0580441338582673
 20
-5.1254969685039367
 30
0
 11
8.0536834251968497
 21
-5.1340553543307088
 31
0
  0
LINE
  5
C8
330
1B
100
AcDbEntity
  8
Edge.Cuts
  6
CONTINUOUS
100
AcDbLine
 10
8.0536834251968497
 20
-5.1340553543307088
 30
0
 11
8.0507151968503941
 21
-5.143190590551181
 31
0
  0
LINE
  5
C9
330
1B
100
AcDbEntity
  8
Edge.Cuts
  6
CONTINUOUS
100
AcDbLine
 10
8.0507151968503941
 20
-5.143190590551181
 30
0
 11
8.0492125984251963
 21
-5.1526776377952759
 31
0
  0
LINE
  5
CA
330
1B
100
AcDbEntity
  8
Edge.Cuts
  6
CONTINUOUS
100
AcDbLine
 10
8.0492125984251963
 20
-5.1526776377952759
 30
0
 11
8.0492125984251963
 21
-5.1622829921259843
 31
0
  0
LINE
  5
CB
330
1B
100
AcDbEntity
  8
Edge.Cuts
  6
CONTINUOUS
100
AcDbLine
 10
2.9285505905511808
 20
-2.0628185039370077
 30
0
 11
2.9382451968503935
 21
-2.0659684645669292
 31
0
  0
LINE
  5
CC
330
1B
100
AcDbEntity
  8
Edge.Cuts
  6
CONTINUOUS
100
AcDbLine
 10
2.9382451968503935
 20
-2.0659684645669292
 30
0
 11
2.947327677165354
 21
-2.0705962204724409
 31
0
  0
LINE
  5
CD
330
1B
100
AcDbEntity
  8
Edge.Cuts
  6
CONTINUOUS
100
AcDbLine
 10
2.947327677165354
 20
-2.0705962204724409
 30
0
 11
2.95557437007874
 21
-2.0765877952755907
 31
0
  0
LINE
  5
CE
330
1B
100
AcDbEntity
  8
Edge.Cuts
  6
CONTINUOUS
100
AcDbLine
 10
2.95557437007874
 20
-2.0765877952755907
 30
0
 11
2.9627822834645667
 21
-2.0837957086614174
 31
0
  0
LINE
  5
CF
330
1B
100
AcDbEntity
  8
Edge.Cuts
  6
CONTINUOUS
100
AcDbLine
 10
2.9627822834645667
 20
-2.0837957086614174
 30
0
 11
2.9687738582677166
 21
-2.0920424015748029
 31
0
  0
LINE
  5
D0
330
1B
100
AcDbEntity
  8
Edge.Cuts
  6
CONTINUOUS
100
AcDbLine
 10
2.9687738582677166
 20
-2.0920424015748029
 30
0
 11
2.9734016141732282
 21
-2.1011248818897639
 31
0
  0
LINE
  5
D1
330
1B
100
AcDbEntity
  8
Edge.Cuts
  6
CONTINUOUS
100
AcDbLine
 10
2.9734016141732282
 20
-2.1011248818897639
 30
0
 11
2.9765515748031497
 21
-2.1108194881889761
 31
0
  0
LINE
  5
D2
330
1B
100
AcDbEntity
  8
Edge.Cuts
  6
CONTINUOUS
100
AcDbLine
 10
2.9765515748031497
 20
-2.1108194881889761
 30
0
 11
2.9781462204724409
 21
-2.1208874803149604
 31
0
  0
LINE
  5
D3
330
1B
100
AcDbEntity
  8
Edge.Cuts
  6
CONTINUOUS
100
AcDbLine
 10
2.9781462204724409
 20
-2.1208874803149604
 30
0
 11
2.9781462204724409
 21
-2.131081023622047
 31
0
  0
LINE
  5
D4
330
1B
100
AcDbEntity
  8
Edge.Cuts
  6
CONTINUOUS
100
AcDbLine
 10
2.9781462204724409
 20
-2.131081023622047
 30
0
 11
2.9765515748031497
 21
-2.1411490157480313
 31
0
  0
LINE
  5
D5
330
1B
100
AcDbEntity
  8
Edge.Cuts
  6
CONTINUOUS
100
AcDbLine
 10
2.9765515748031497
 20
-2.1411490157480313
 30
0
 11
2.9734016141732282
 21
-2.150843622047244
 31
0
  0
LINE
  5
D6
330
1B
100
AcDbEntity
  8
Edge.Cuts
  6
CONTINUOUS
100
AcDbLine
 10
2.9734016141732282
 20
-2.150843622047244
 30
0
 11
2.9687738582677166
 21
-2.1599261023622045
 31
0
  0
LINE
  5
D7
330
1B
100
AcDbEntity
  8
Edge.Cuts
  6
CONTINUOUS
100
AcDbLine
 10
2.9687738582677166
 20
-2.1599261023622045
 30
0
 11
2.9627822834645667
 21
-2.1681727952755905
 31
0
  0
LINE
  5
D8
330
1B
100
AcDbEntity
  8
Edge.Cuts
  6
CONTINUOUS
100
AcDbLine
 10
2.9627822834645667
 20
-2.1681727952755905
 30
0
 11
2.95557437007874
 21
-2.1753807086614172
 31
0
  0
LINE
  5
D9
330
1B
100
AcDbEntity
  8
Edge.Cuts
  6
CONTINUOUS
100
AcDbLine
 10
2.95557437007874
 20
-2.1753807086614172
 30
0
 11
2.947327677165354
 21
-2.181372283464567
 31
0
  0
LINE
  5
DA
330
1B
100
AcDbEntity
  8
Edge.Cuts
  6
CONTINUOUS
100
AcDbLine
 10
2.947327677165354
 20
-2.181372283464567
 30
0
 11
2.9382451968503935
 21
-2.1860000393700787
 31
0
  0
LINE
  5
DB
330
1B
100
AcDbEntity
  8
Edge.Cuts
  6
CONTINUOUS
100
AcDbLine
 10
2.9382451968503935
 20
-2.1860000393700787
 30
0
 11
2.9285505905511808
 21
-2.1891500000000002
 31
0
  0
LINE
  5
DC
330
1B
100
AcDbEntity
  8
Edge.Cuts
  6
CONTINUOUS
100
AcDbLine
 10
2.9285505905511808
 20
-2.1891500000000002
 30
0
 11
2.918482598425197
 21
-2.1907446456692914
 31
0
  0
LINE
  5
DD
330
1B
100
AcDbEntity
  8
Edge.Cuts
  6
CONTINUOUS
100
AcDbLine
 10
2.918482598425197
 20
-2.1907446456692914
 30
0
 11
2.90828905511811
 21
-2.1907446456692914
 31
0
  0
LINE
  5
DE
330
1B
100
AcDbEntity
  8
Edge.Cuts
  6
CONTINUOUS
100
AcDbLine
 10
2.90828905511811
 20
-2.1907446456692914
 30
0
 11
2.8982210629921261
 21
-2.1891500000000002
 31
0
  0
LINE
  5
DF
330
1B
100
AcDbEntity
  8
Edge.Cuts
  6
CONTINUOUS
100
AcDbLine
 10
2.8982210629921261
 20
-2.1891500000000002
 30
0
 11
2.8885264566929134
 21
-2.1860000393700787
 31
0
  0
LINE
  5
E0
330
1B
100
AcDbEntity
  8
Edge.Cuts
  6
CONTINUOUS
100
AcDbLine
 10
2.8885264566929134
 20
-2.1860000393700787
 30
0
 11
2.8794439763779529
 21
-2.181372283464567
 31
0
  0
LINE
  5
E1
330
1B
100
AcDbEntity
  8
Edge.Cuts
  6
CONTINUOUS
100
AcDbLine
 10
2.8794439763779529
 20
-2.181372283464567
 30
0
 11
2.8711972834645669
 21
-2.1753807086614172
 31
0
  0
LINE
  5
E2
330
1B
100
AcDbEntity
  8
Edge.Cuts
  6
CONTINUOUS
100
AcDbLine
 10
2.8711972834645669
 20
-2.1753807086614172
 30
0
 11
2.8639893700787402
 21
-2.1681727952755905
 31
0
  0
LINE
  5
E3
330
1B
100
AcDbEntity
  8
Edge.Cuts
  6
CONTINUOUS
100
AcDbLine
 10
2.8639893700787402
 20
-2.1681727952755905
 30
0
 11
2.8579977952755904
 21
-2.1599261023622045
 31
0
  0
LINE
  5
E4
330
1B
100
AcDbEntity
  8
Edge.Cuts
  6
CONTINUOUS
100
AcDbLine
 10
2.8579977952755904
 20
-2.1599261023622045
 30
0
 11
2.8533700393700787
 21
-2.150843622047244
 31
0
  0
LINE
  5
E5
330
1B
100
AcDbEntity
  8
Edge.Cuts
  6
CONTINUOUS
100
AcDbLine
 10
2.8533700393700787
 20
-2.150843622047244
 30
0
 11
2.8502200787401573
 21
-2.1411490157480313
 31
0
  0
LINE
  5
E6
330
1B
100
AcDbEntity
  8
Edge.Cuts
  6
CONTINUOUS
100
AcDbLine
 10
2.8502200787401573
 20
-2.1411490157480313
 30
0
 11
2.848625433070866
 21
-2.131081023622047
 31
0
  0
LINE
  5
E7
330
1B
100
AcDbEntity
  8
Edge.Cuts
  6
CONTINUOUS
100
AcDbLine
 10
2.848625433070866
 20
-2.131081023622047
 30
0
 11
2.848625433070866
 21
-2.1211815748031495
 31
0
  0
LINE
  5
E8
330
1B
100
AcDbEntity
  8
Edge.Cuts
  6
CONTINUOUS
100
AcDbLine
 10
2.848625433070866
 20
-2.1211815748031495
 30
0
 11
2.848625433070866
 21
-2.1208874803149604
 31
0
  0
LINE
  5
E9
330
1B
100
AcDbEntity
  8
Edge.Cuts
  6
CONTINUOUS
100
AcDbLine
 10
2.848625433070866
 20
-2.1208874803149604
 30
0
 11
2.8502200787401573
 21
-2.1108194881889761
 31
0
  0
LINE
  5
EA
330
1B
100
AcDbEntity
  8
Edge.Cuts
  6
CONTINUOUS
100
AcDbLine
 10
2.8502200787401573
 20
-2.1108194881889761
 30
0
 11
2.8533700393700787
 21
-2.1011248818897639
 31
0
  0
LINE
  5
EB
330
1B
100
AcDbEntity
  8
Edge.Cuts
  6
CONTINUOUS
100
AcDbLine
 10
2.8533700393700787
 20
-2.1011248818897639
 30
0
 11
2.8579977952755904
 21
-2.0920424015748029
 31
0
  0
LINE
  5
EC
330
1B
100
AcDbEntity
  8
Edge.Cuts
  6
CONTINUOUS
100
AcDbLine
 10
2.8579977952755904
 20
-2.0920424015748029
 30
0
 11
2.8639893700787402
 21
-2.0837957086614174
 31
0
  0
LINE
  5
ED
330
1B
100
AcDbEntity
  8
Edge.Cuts
  6
CONTINUOUS
100
AcDbLine
 10
2.8639893700787402
 20
-2.0837957086614174
 30
0
 11
2.8711972834645669
 21
-2.0765877952755907
 31
0
  0
LINE
  5
EE
330
1B
100
AcDbEntity
  8
Edge.Cuts
  6
CONTINUOUS
100
AcDbLine
 10
2.8711972834645669
 20
-2.0765877952755907
 30
0
 11
2.8794439763779529
 21
-2.0705962204724409
 31
0
  0
LINE
  5
EF
330
1B
100
AcDbEntity
  8
Edge.Cuts
  6
CONTINUOUS
100
AcDbLine
 10
2.8794439763779529
 20
-2.0705962204724409
 30
0
 11
2.8885264566929134
 21
-2.0659684645669292
 31
0
  0
LINE
  5
F0
330
1B
100
AcDbEntity
  8
Edge.Cuts
  6
CONTINUOUS
100
AcDbLine
 10
2.8885264566929134
 20
-2.0659684645669292
 30
0
 11
2.8982210629921261
 21
-2.0628185039370077
 31
0
  0
LINE
  5
F1
330
1B
100
AcDbEntity
  8
Edge.Cuts
  6
CONTINUOUS
100
AcDbLine
 10
2.8982210629921261
 20
-2.0628185039370077
 30
0
 11
2.90828905511811
 21
-2.0612238582677165
 31
0
  0
LINE
  5
F2
330
1B
100
AcDbEntity
  8
Edge.Cuts
  6
CONTINUOUS
100
AcDbLine
 10
2.90828905511811
 20
-2.0612238582677165
 30
0
 11
2.918482598425197
 21
-2.0612238582677165
 31
0
  0
LINE
  5
F3
330
1B
100
AcDbEntity
  8
Edge.Cuts
  6
CONTINUOUS
100
AcDbLine
 10
2.918482598425197
 20
-2.0612238582677165
 30
0
 11
2.9285505905511808
 21
-2.0628185039370077
 31
0
  0
LINE
  5
F4
330
1B
100
AcDbEntity
  8
Edge.Cuts
  6
CONTINUOUS
100
AcDbLine
 10
2.8523622047244093
 20
-2.1307869291338584
 30
0
 11
2.8538648031496061
 21
-2.1402739763779528
 31
0
  0
LINE
  5
F5
330
1B
100
AcDbEntity
  8
Edge.Cuts
  6
CONTINUOUS
100
AcDbLine
 10
2.8538648031496061
 20
-2.1402739763779528
 30
0
 11
2.856833031496063
 21
-2.149409212598425
 31
0
  0
LINE
  5
F6
330
1B
100
AcDbEntity
  8
Edge.Cuts
  6
CONTINUOUS
100
AcDbLine
 10
2.856833031496063
 20
-2.149409212598425
 30
0
 11
2.8611937401574803
 21
-2.1579675984251967
 31
0
  0
LINE
  5
F7
330
1B
100
AcDbEntity
  8
Edge.Cuts
  6
CONTINUOUS
100
AcDbLine
 10
2.8611937401574803
 20
-2.1579675984251967
 30
0
 11
2.8668396062992128
 21
-2.1657384645669291
 31
0
  0
LINE
  5
F8
330
1B
100
AcDbEntity
  8
Edge.Cuts
  6
CONTINUOUS
100
AcDbLine
 10
2.8668396062992128
 20
-2.1657384645669291
 30
0
 11
2.8736316141732283
 21
-2.1725304724409447
 31
0
  0
LINE
  5
F9
330
1B
100
AcDbEntity
  8
Edge.Cuts
  6
CONTINUOUS
100
AcDbLine
 10
2.8736316141732283
 20
-2.1725304724409447
 30
0
 11
2.8814024803149607
 21
-2.1781763385826771
 31
0
  0
LINE
  5
FA
330
1B
100
AcDbEntity
  8
Edge.Cuts
  6
CONTINUOUS
100
AcDbLine
 10
2.8814024803149607
 20
-2.1781763385826771
 30
0
 11
2.8899608661417324
 21
-2.1825370472440944
 31
0
  0
LINE
  5
FB
330
1B
100
AcDbEntity
  8
Edge.Cuts
  6
CONTINUOUS
100
AcDbLine
 10
2.8899608661417324
 20
-2.1825370472440944
 30
0
 11
2.8990961023622046
 21
-2.1855052755905513
 31
0
  0
LINE
  5
FC
330
1B
100
AcDbEntity
  8
Edge.Cuts
  6
CONTINUOUS
100
AcDbLine
 10
2.8990961023622046
 20
-2.1855052755905513
 30
0
 11
2.908583149606299
 21
-2.1870078740157481
 31
0
  0
LINE
  5
FD
330
1B
100
AcDbEntity
  8
Edge.Cuts
  6
CONTINUOUS
100
AcDbLine
 10
2.908583149606299
 20
-2.1870078740157481
 30
0
 11
2.9181885039370079
 21
-2.1870078740157481
 31
0
  0
LINE
  5
FE
330
1B
100
AcDbEntity
  8
Edge.Cuts
  6
CONTINUOUS
100
AcDbLine
 10
2.9181885039370079
 20
-2.1870078740157481
 30
0
 11
2.9276755511811023
 21
-2.1855052755905513
 31
0
  0
LINE
  5
FF
330
1B
100
AcDbEntity
  8
Edge.Cuts
  6
CONTINUOUS
100
AcDbLine
 10
2.9276755511811023
 20
-2.1855052755905513
 30
0
 11
2.9368107874015745
 21
-2.1825370472440944
 31
0
  0
LINE
  5
100
330
1B
100
AcDbEntity
  8
Edge.Cuts
  6
CONTINUOUS
100
AcDbLine
 10
2.9368107874015745
 20
-2.1825370472440944
 30
0
 11
2.9453691732283462
 21
-2.1781763385826771
 31
0
  0
LINE
  5
101
330
1B
100
AcDbEntity
  8
Edge.Cuts
  6
CONTINUOUS
100
AcDbLine
 10
2.9453691732283462
 20
-2.1781763385826771
 30
0
 11
2.9531400393700786
 21
-2.1725304724409447
 31
0
  0
LINE
  5
102
330
1B
100
AcDbEntity
  8
Edge.Cuts
  6
CONTINUOUS
100
AcDbLine
 10
2.9531400393700786
 20
-2.1725304724409447
 30
0
 11
2.9599320472440942
 21
-2.1657384645669291
 31
0
  0
LINE
  5
103
330
1B
100
AcDbEntity
  8
Edge.Cuts
  6
CONTINUOUS
100
AcDbLine
 10
2.9599320472440942
 20
-2.1657384645669291
 30
0
 11
2.9655779133858267
 21
-2.1579675984251967
 31
0
  0
LINE
  5
104
330
1B
100
AcDbEntity
  8
Edge.Cuts
  6
CONTINUOUS
100
AcDbLine
 10
2.9655779133858267
 20
-2.1579675984251967
 30
0
 11
2.9699386220472439
 21
-2.149409212598425
 31
0
  0
LINE
  5
105
330
1B
100
AcDbEntity
  8
Edge.Cuts
  6
CONTINUOUS
100
AcDbLine
 10
2.9699386220472439
 20
-2.149409212598425
 30
0
 11
2.9729068503937008
 21
-2.1402739763779528
 31
0
  0
LINE
  5
106
330
1B
100
AcDbEntity
  8
Edge.Cuts
  6
CONTINUOUS
100
AcDbLine
 10
2.9729068503937008
 20
-2.1402739763779528
 30
0
 11
2.9744094488188977
 21
-2.1307869291338584
 31
0
  0
LINE
  5
107
330
1B
100
AcDbEntity
  8
Edge.Cuts
  6
CONTINUOUS
100
AcDbLine
 10
2.9744094488188977
 20
-2.1307869291338584
 30
0
 11
2.9744094488188977
 21
-2.1211815748031495
 31
0
  0
LINE
  5
108
330
1B
100
AcDbEntity
  8
Edge.Cuts
  6
CONTINUOUS
100
AcDbLine
 10
2.9744094488188977
 20
-2.1211815748031495
 30
0
 11
2.9729068503937008
 21
-2.1116945275590551
 31
0
  0
LINE
  5
109
330
1B
100
AcDbEntity
  8
Edge.Cuts
  6
CONTINUOUS
100
AcDbLine
 10
2.9729068503937008
 20
-2.1116945275590551
 30
0
 11
2.9699386220472439
 21
-2.1025592913385824
 31
0
  0
LINE
  5
10A
330
1B
100
AcDbEntity
  8
Edge.Cuts
  6
CONTINUOUS
100
AcDbLine
 10
2.9699386220472439
 20
-2.1025592913385824
 30
0
 11
2.9655779133858267
 21
-2.0940009055118112
 31
0
  0
LINE
  5
10B
330
1B
100
AcDbEntity
  8
Edge.Cuts
  6
CONTINUOUS
100
AcDbLine
 10
2.9655779133858267
 20
-2.0940009055118112
 30
0
 11
2.9599320472440942
 21
-2.0862300393700788
 31
0
  0
LINE
  5
10C
330
1B
100
AcDbEntity
  8
Edge.Cuts
  6
CONTINUOUS
100
AcDbLine
 10
2.9599320472440942
 20
-2.0862300393700788
 30
0
 11
2.9531400393700786
 21
-2.0794380314960628
 31
0
  0
LINE
  5
10D
330
1B
100
AcDbEntity
  8
Edge.Cuts
  6
CONTINUOUS
100
AcDbLine
 10
2.9531400393700786
 20
-2.0794380314960628
 30
0
 11
2.9453691732283462
 21
-2.0737921653543308
 31
0
  0
LINE
  5
10E
330
1B
100
AcDbEntity
  8
Edge.Cuts
  6
CONTINUOUS
100
AcDbLine
 10
2.9453691732283462
 20
-2.0737921653543308
 30
0
 11
2.9368107874015745
 21
-2.0694314566929135
 31
0
  0
LINE
  5
10F
330
1B
100
AcDbEntity
  8
Edge.Cuts
  6
CONTINUOUS
100
AcDbLine
 10
2.9368107874015745
 20
-2.0694314566929135
 30
0
 11
2.9276755511811023
 21
-2.0664632283464566
 31
0
  0
LINE
  5
110
330
1B
100
AcDbEntity
  8
Edge.Cuts
  6
CONTINUOUS
100
AcDbLine
 10
2.9276755511811023
 20
-2.0664632283464566
 30
0
 11
2.9181885039370079
 21
-2.0649606299212597
 31
0
  0
LINE
  5
111
330
1B
100
AcDbEntity
  8
Edge.Cuts
  6
CONTINUOUS
100
AcDbLine
 10
2.9181885039370079
 20
-2.0649606299212597
 30
0
 11
2.908583149606299
 21
-2.0649606299212597
 31
0
  0
LINE
  5
112
330
1B
100
AcDbEntity
  8
Edge.Cuts
  6
CONTINUOUS
100
AcDbLine
 10
2.908583149606299
 20
-2.0649606299212597
 30
0
 11
2.8990961023622046
 21
-2.0664632283464566
 31
0
  0
LINE
  5
113
330
1B
100
AcDbEntity
  8
Edge.Cuts
  6
CONTINUOUS
100
AcDbLine
 10
2.8990961023622046
 20
-2.0664632283464566
 30
0
 11
2.8899608661417324
 21
-2.0694314566929135
 31
0
  0
LINE
  5
114
330
1B
100
AcDbEntity
  8
Edge.Cuts
  6
CONTINUOUS
100
AcDbLine
 10
2.8899608661417324
 20
-2.0694314566929135
 30
0
 11
2.8814024803149607
 21
-2.0737921653543308
 31
0
  0
LINE
  5
115
330
1B
100
AcDbEntity
  8
Edge.Cuts
  6
CONTINUOUS
100
AcDbLine
 10
2.8814024803149607
 20
-2.0737921653543308
 30
0
 11
2.8736316141732283
 21
-2.0794380314960628
 31
0
  0
LINE
  5
116
330
1B
100
AcDbEntity
  8
Edge.Cuts
  6
CONTINUOUS
100
AcDbLine
 10
2.8736316141732283
 20
-2.0794380314960628
 30
0
 11
2.8668396062992128
 21
-2.0862300393700788
 31
0
  0
LINE
  5
117
330
1B
100
AcDbEntity
  8
Edge.Cuts
  6
CONTINUOUS
100
AcDbLine
 10
2.8668396062992128
 20
-2.0862300393700788
 30
0
 11
2.8611937401574803
 21
-2.0940009055118112
 31
0
  0
LINE
  5
118
330
1B
100
AcDbEntity
  8
Edge.Cuts
  6
CONTINUOUS
100
AcDbLine
 10
2.8611937401574803
 20
-2.0940009055118112
 30
0
 11
2.856833031496063
 21
-2.1025592913385824
 31
0
  0
LINE
  5
119
330
1B
100
AcDbEntity
  8
Edge.Cuts
  6
CONTINUOUS
100
AcDbLine
 10
2.856833031496063
 20
-2.1025592913385824
 30
0
 11
2.8538648031496061
 21
-2.1116945275590551
 31
0
  0
LINE
  5
11A
330
1B
100
AcDbEntity
  8
Edge.Cuts
  6
CONTINUOUS
100
AcDbLine
 10
2.8538648031496061
 20
-2.1116945275590551
 30
0
 11
2.8523622047244093
 21
-2.1211815748031495
 31
0
  0
LINE
  5
11B
330
1B
100
AcDbEntity
  8
Edge.Cuts
  6
CONTINUOUS
100
AcDbLine
 10
2.8523622047244093
 20
-2.1211815748031495
 30
0
 11
2.8523622047244093
 21
-2.1307869291338584
 31
0
  0
LINE
  5
11C
330
1B
100
AcDbEntity
  8
Edge.Cuts
  6
CONTINUOUS
100
AcDbLine
 10
8.1254009842519679
 20
-2.0628185039370077
 30
0
 11
8.135095590551181
 21
-2.0659684645669292
 31
0
  0
LINE
  5
11D
330
1B
100
AcDbEntity
  8
Edge.Cuts
  6
CONTINUOUS
100
AcDbLine
 10
8.135095590551181
 20
-2.0659684645669292
 30
0
 11
8.1441780708661415
 21
-2.0705962204724409
 31
0
  0
LINE
  5
11E
330
1B
100
AcDbEntity
  8
Edge.Cuts
  6
CONTINUOUS
100
AcDbLine
 10
8.1441780708661415
 20
-2.0705962204724409
 30
0
 11
8.1524247637795266
 21
-2.0765877952755907
 31
0
  0
LINE
  5
11F
330
1B
100
AcDbEntity
  8
Edge.Cuts
  6
CONTINUOUS
100
AcDbLine
 10
8.1524247637795266
 20
-2.0765877952755907
 30
0
 11
8.1596326771653533
 21
-2.0837957086614174
 31
0
  0
LINE
  5
120
330
1B
100
AcDbEntity
  8
Edge.Cuts
  6
CONTINUOUS
100
AcDbLine
 10
8.1596326771653533
 20
-2.0837957086614174
 30
0
 11
8.1656242519685041
 21
-2.0920424015748029
 31
0
  0
LINE
  5
121
330
1B
100
AcDbEntity
  8
Edge.Cuts
  6
CONTINUOUS
100
AcDbLine
 10
8.1656242519685041
 20
-2.0920424015748029
 30
0
 11
8.1702520078740157
 21
-2.1011248818897639
 31
0
  0
LINE
  5
122
330
1B
100
AcDbEntity
  8
Edge.Cuts
  6
CONTINUOUS
100
AcDbLine
 10
8.1702520078740157
 20
-2.1011248818897639
 30
0
 11
8.1734019685039367
 21
-2.1108194881889761
 31
0
  0
LINE
  5
123
330
1B
100
AcDbEntity
  8
Edge.Cuts
  6
CONTINUOUS
100
AcDbLine
 10
8.1734019685039367
 20
-2.1108194881889761
 30
0
 11
8.174996614173228
 21
-2.1208874803149604
 31
0
  0
LINE
  5
124
330
1B
100
AcDbEntity
  8
Edge.Cuts
  6
CONTINUOUS
100
AcDbLine
 10
8.174996614173228
 20
-2.1208874803149604
 30
0
 11
8.174996614173228
 21
-2.131081023622047
 31
0
  0
LINE
  5
125
330
1B
100
AcDbEntity
  8
Edge.Cuts
  6
CONTINUOUS
100
AcDbLine
 10
8.174996614173228
 20
-2.131081023622047
 30
0
 11
8.1734019685039367
 21
-2.1411490157480313
 31
0
  0
LINE
  5
126
330
1B
100
AcDbEntity
  8
Edge.Cuts
  6
CONTINUOUS
100
AcDbLine
 10
8.1734019685039367
 20
-2.1411490157480313
 30
0
 11
8.1702520078740157
 21
-2.150843622047244
 31
0
  0
LINE
  5
127
330
1B
100
AcDbEntity
  8
Edge.Cuts
  6
CONTINUOUS
100
AcDbLine
 10
8.1702520078740157
 20
-2.150843622047244
 30
0
 11
8.1656242519685041
 21
-2.1599261023622045
 31
0
  0
LINE
  5
128
330
1B
100
AcDbEntity
  8
Edge.Cuts
  6
CONTINUOUS
100
AcDbLine
 10
8.1656242519685041
 20
-2.1599261023622045
 30
0
 11
8.1596326771653533
 21
-2.1681727952755905
 31
0
  0
LINE
  5
129
330
1B
100
AcDbEntity
  8
Edge.Cuts
  6
CONTINUOUS
100
AcDbLine
 10
8.1596326771653533
 20
-2.1681727952755905
 30
0
 11
8.1524247637795266
 21
-2.1753807086614172
 31
0
  0
LINE
  5
12A
330
1B
100
AcDbEntity
  8
Edge.Cuts
  6
CONTINUOUS
100
AcDbLine
 10
8.1524247637795266
 20
-2.1753807086614172
 30
0
 11
8.1441780708661415
 21
-2.181372283464567
 31
0
  0
LINE
  5
12B
330
1B
100
AcDbEntity
  8
Edge.Cuts
  6
CONTINUOUS
100
AcDbLine
 10
8.1441780708661415
 20
-2.181372283464567
 30
0
 11
8.135095590551181
 21
-2.1860000393700787
 31
0
  0
LINE
  5
12C
330
1B
100
AcDbEntity
  8
Edge.Cuts
  6
CONTINUOUS
100
AcDbLine
 10
8.135095590551181
 20
-2.1860000393700787
 30
0
 11
8.1254009842519679
 21
-2.1891500000000002
 31
0
  0
LINE
  5
12D
330
1B
100
AcDbEntity
  8
Edge.Cuts
  6
CONTINUOUS
100
AcDbLine
 10
8.1254009842519679
 20
-2.1891500000000002
 30
0
 11
8.1153329921259836
 21
-2.1907446456692914
 31
0
  0
LINE
  5
12E
330
1B
100
AcDbEntity
  8
Edge.Cuts
  6
CONTINUOUS
100
AcDbLine
 10
8.1153329921259836
 20
-2.1907446456692914
 30
0
 11
8.1051394488188979
 21
-2.1907446456692914
 31
0
  0
LINE
  5
12F
330
1B
100
AcDbEntity
  8
Edge.Cuts
  6
CONTINUOUS
100
AcDbLine
 10
8.1051394488188979
 20
-2.1907446456692914
 30
0
 11
8.0950714566929136
 21
-2.1891500000000002
 31
0
  0
LINE
  5
130
330
1B
100
AcDbEntity
  8
Edge.Cuts
  6
CONTINUOUS
100
AcDbLine
 10
8.0950714566929136
 20
-2.1891500000000002
 30
0
 11
8.0853768503937005
 21
-2.1860000393700787
 31
0
  0
LINE
  5
131
330
1B
100
AcDbEntity
  8
Edge.Cuts
  6
CONTINUOUS
100
AcDbLine
 10
8.0853768503937005
 20
-2.1860000393700787
 30
0
 11
8.07629437007874
 21
-2.181372283464567
 31
0
  0
LINE
  5
132
330
1B
100
AcDbEntity
  8
Edge.Cuts
  6
CONTINUOUS
100
AcDbLine
 10
8.07629437007874
 20
-2.181372283464567
 30
0
 11
8.0680476771653549
 21
-2.1753807086614172
 31
0
  0
LINE
  5
133
330
1B
100
AcDbEntity
  8
Edge.Cuts
  6
CONTINUOUS
100
AcDbLine
 10
8.0680476771653549
 20
-2.1753807086614172
 30
0
 11
8.0608397637795282
 21
-2.1681727952755905
 31
0
  0
LINE
  5
134
330
1B
100
AcDbEntity
  8
Edge.Cuts
  6
CONTINUOUS
100
AcDbLine
 10
8.0608397637795282
 20
-2.1681727952755905
 30
0
 11
8.0548481889763774
 21
-2.1599261023622045
 31
0
  0
LINE
  5
135
330
1B
100
AcDbEntity
  8
Edge.Cuts
  6
CONTINUOUS
100
AcDbLine
 10
8.0548481889763774
 20
-2.1599261023622045
 30
0
 11
8.0502204330708658
 21
-2.150843622047244
 31
0
  0
LINE
  5
136
330
1B
100
AcDbEntity
  8
Edge.Cuts
  6
CONTINUOUS
100
AcDbLine
 10
8.0502204330708658
 20
-2.150843622047244
 30
0
 11
8.0470704724409448
 21
-2.1411490157480313
 31
0
  0
LINE
  5
137
330
1B
100
AcDbEntity
  8
Edge.Cuts
  6
CONTINUOUS
100
AcDbLine
 10
8.0470704724409448
 20
-2.1411490157480313
 30
0
 11
8.0454758267716535
 21
-2.131081023622047
 31
0
  0
LINE
  5
138
330
1B
100
AcDbEntity
  8
Edge.Cuts
  6
CONTINUOUS
100
AcDbLine
 10
8.0454758267716535
 20
-2.131081023622047
 30
0
 11
8.0454758267716535
 21
-2.1211815748031495
 31
0
  0
LINE
  5
139
330
1B
100
AcDbEntity
  8
Edge.Cuts
  6
CONTINUOUS
100
AcDbLine
 10
8.0454758267716535
 20
-2.1211815748031495
 30
0
 11
8.0454758267716535
 21
-2.1208874803149604
 31
0
  0
LINE
  5
13A
330
1B
100
AcDbEntity
  8
Edge.Cuts
  6
CONTINUOUS
100
AcDbLine
 10
8.0454758267716535
 20
-2.1208874803149604
 30
0
 11
8.0470704724409448
 21
-2.1108194881889761
 31
0
  0
LINE
  5
13B
330
1B
100
AcDbEntity
  8
Edge.Cuts
  6
CONTINUOUS
100
AcDbLine
 10
8.0470704724409448
 20
-2.1108194881889761
 30
0
 11
8.0502204330708658
 21
-2.1011248818897639
 31
0
  0
LINE
  5
13C
330
1B
100
AcDbEntity
  8
Edge.Cuts
  6
CONTINUOUS
100
AcDbLine
 10
8.0502204330708658
 20
-2.1011248818897639
 30
0
 11
8.0548481889763774
 21
-2.0920424015748029
 31
0
  0
LINE
  5
13D
330
1B
100
AcDbEntity
  8
Edge.Cuts
  6
CONTINUOUS
100
AcDbLine
 10
8.0548481889763774
 20
-2.0920424015748029
 30
0
 11
8.0608397637795282
 21
-2.0837957086614174
 31
0
  0
LINE
  5
13E
330
1B
100
AcDbEntity
  8
Edge.Cuts
  6
CONTINUOUS
100
AcDbLine
 10
8.0608397637795282
 20
-2.0837957086614174
 30
0
 11
8.0680476771653549
 21
-2.0765877952755907
 31
0
  0
LINE
  5
13F
330
1B
100
AcDbEntity
  8
Edge.Cuts
  6
CONTINUOUS
100
AcDbLine
 10
8.0680476771653549
 20
-2.0765877952755907
 30
0
 11
8.07629437007874
 21
-2.0705962204724409
 31
0
  0
LINE
  5
140
330
1B
100
AcDbEntity
  8
Edge.Cuts
  6
CONTINUOUS
100
AcDbLine
 10
8.07629437007874
 20
-2.0705962204724409
 30
0
 11
8.0853768503937005
 21
-2.0659684645669292
 31
0
  0
LINE
  5
141
330
1B
100
AcDbEntity
  8
Edge.Cuts
  6
CONTINUOUS
100
AcDbLine
 10
8.0853768503937005
 20
-2.0659684645669292
 30
0
 11
8.0950714566929136
 21
-2.0628185039370077
 31
0
  0
LINE
  5
142
330
1B
100
AcDbEntity
  8
Edge.Cuts
  6
CONTINUOUS
100
AcDbLine
 10
8.0950714566929136
 20
-2.0628185039370077
 30
0
 11
8.1051394488188979
 21
-2.0612238582677165
 31
0
  0
LINE
  5
143
330
1B
100
AcDbEntity
  8
Edge.Cuts
  6
CONTINUOUS
100
AcDbLine
 10
8.1051394488188979
 20
-2.0612238582677165
 30
0
 11
8.1153329921259836
 21
-2.0612238582677165
 31
0
  0
LINE
  5
144
330
1B
100
AcDbEntity
  8
Edge.Cuts
  6
CONTINUOUS
100
AcDbLine
 10
8.1153329921259836
 20
-2.0612238582677165
 30
0
 11
8.1254009842519679
 21
-2.0628185039370077
 31
0
  0
LINE
  5
145
330
1B
100
AcDbEntity
  8
Edge.Cuts
  6
CONTINUOUS
100
AcDbLine
 10
8.0492125984251963
 20
-2.1307869291338584
 30
0
 11
8.0507151968503941
 21
-2.1402739763779528
 31
0
  0
LINE
  5
146
330
1B
100
AcDbEntity
  8
Edge.Cuts
  6
CONTINUOUS
100
AcDbLine
 10
8.0507151968503941
 20
-2.1402739763779528
 30
0
 11
8.0536834251968497
 21
-2.149409212598425
 31
0
  0
LINE
  5
147
330
1B
100
AcDbEntity
  8
Edge.Cuts
  6
CONTINUOUS
100
AcDbLine
 10
8.0536834251968497
 20
-2.149409212598425
 30
0
 11
8.0580441338582673
 21
-2.1579675984251967
 31
0
  0
LINE
  5
148
330
1B
100
AcDbEntity
  8
Edge.Cuts
  6
CONTINUOUS
100
AcDbLine
 10
8.0580441338582673
 20
-2.1579675984251967
 30
0
 11
8.0636899999999994
 21
-2.1657384645669291
 31
0
  0
LINE
  5
149
330
1B
100
AcDbEntity
  8
Edge.Cuts
  6
CONTINUOUS
100
AcDbLine
 10
8.0636899999999994
 20
-2.1657384645669291
 30
0
 11
8.0704820078740163
 21
-2.1725304724409447
 31
0
  0
LINE
  5
14A
330
1B
100
AcDbEntity
  8
Edge.Cuts
  6
CONTINUOUS
100
AcDbLine
 10
8.0704820078740163
 20
-2.1725304724409447
 30
0
 11
8.0782528740157478
 21
-2.1781763385826771
 31
0
  0
LINE
  5
14B
330
1B
100
AcDbEntity
  8
Edge.Cuts
  6
CONTINUOUS
100
AcDbLine
 10
8.0782528740157478
 20
-2.1781763385826771
 30
0
 11
8.0868112598425199
 21
-2.1825370472440944
 31
0
  0
LINE
  5
14C
330
1B
100
AcDbEntity
  8
Edge.Cuts
  6
CONTINUOUS
100
AcDbLine
 10
8.0868112598425199
 20
-2.1825370472440944
 30
0
 11
8.0959464960629912
 21
-2.1855052755905513
 31
0
  0
LINE
  5
14D
330
1B
100
AcDbEntity
  8
Edge.Cuts
  6
CONTINUOUS
100
AcDbLine
 10
8.0959464960629912
 20
-2.1855052755905513
 30
0
 11
8.1054335433070861
 21
-2.1870078740157481
 31
0
  0
LINE
  5
14E
330
1B
100
AcDbEntity
  8
Edge.Cuts
  6
CONTINUOUS
100
AcDbLine
 10
8.1054335433070861
 20
-2.1870078740157481
 30
0
 11
8.1150388976377954
 21
-2.1870078740157481
 31
0
  0
LINE
  5
14F
330
1B
100
AcDbEntity
  8
Edge.Cuts
  6
CONTINUOUS
100
AcDbLine
 10
8.1150388976377954
 20
-2.1870078740157481
 30
0
 11
8.1245259448818903
 21
-2.1855052755905513
 31
0
  0
LINE
  5
150
330
1B
100
AcDbEntity
  8
Edge.Cuts
  6
CONTINUOUS
100
AcDbLine
 10
8.1245259448818903
 20
-2.1855052755905513
 30
0
 11
8.1336611811023616
 21
-2.1825370472440944
 31
0
  0
LINE
  5
151
330
1B
100
AcDbEntity
  8
Edge.Cuts
  6
CONTINUOUS
100
AcDbLine
 10
8.1336611811023616
 20
-2.1825370472440944
 30
0
 11
8.1422195669291337
 21
-2.1781763385826771
 31
0
  0
LINE
  5
152
330
1B
100
AcDbEntity
  8
Edge.Cuts
  6
CONTINUOUS
100
AcDbLine
 10
8.1422195669291337
 20
-2.1781763385826771
 30
0
 11
8.1499904330708652
 21
-2.1725304724409447
 31
0
  0
LINE
  5
153
330
1B
100
AcDbEntity
  8
Edge.Cuts
  6
CONTINUOUS
100
AcDbLine
 10
8.1499904330708652
 20
-2.1725304724409447
 30
0
 11
8.1567824409448821
 21
-2.1657384645669291
 31
0
  0
LINE
  5
154
330
1B
100
AcDbEntity
  8
Edge.Cuts
  6
CONTINUOUS
100
AcDbLine
 10
8.1567824409448821
 20
-2.1657384645669291
 30
0
 11
8.1624283070866142
 21
-2.1579675984251967
 31
0
  0
LINE
  5
155
330
1B
100
AcDbEntity
  8
Edge.Cuts
  6
CONTINUOUS
100
AcDbLine
 10
8.1624283070866142
 20
-2.1579675984251967
 30
0
 11
8.1667890157480318
 21
-2.149409212598425
 31
0
  0
LINE
  5
156
330
1B
100
AcDbEntity
  8
Edge.Cuts
  6
CONTINUOUS
100
AcDbLine
 10
8.1667890157480318
 20
-2.149409212598425
 30
0
 11
8.1697572440944874
 21
-2.1402739763779528
 31
0
  0
LINE
  5
157
330
1B
100
AcDbEntity
  8
Edge.Cuts
  6
CONTINUOUS
100
AcDbLine
 10
8.1697572440944874
 20
-2.1402739763779528
 30
0
 11
8.1712598425196852
 21
-2.1307869291338584
 31
0
  0
LINE
  5
158
330
1B
100
AcDbEntity
  8
Edge.Cuts
  6
CONTINUOUS
100
AcDbLine
 10
8.1712598425196852
 20
-2.1307869291338584
 30
0
 11
8.1712598425196852
 21
-2.1211815748031495
 31
0
  0
LINE
  5
159
330
1B
100
AcDbEntity
  8
Edge.Cuts
  6
CONTINUOUS
100
AcDbLine
 10
8.1712598425196852
 20
-2.1211815748031495
 30
0
 11
8.1697572440944874
 21
-2.1116945275590551
 31
0
  0
LINE
  5
15A
330
1B
100
AcDbEntity
  8
Edge.Cuts
  6
CONTINUOUS
100
AcDbLine
 10
8.1697572440944874
 20
-2.1116945275590551
 30
0
 11
8.1667890157480318
 21
-2.1025592913385824
 31
0
  0
LINE
  5
15B
330
1B
100
AcDbEntity
  8
Edge.Cuts
  6
CONTINUOUS
100
AcDbLine
 10
8.1667890157480318
 20
-2.1025592913385824
 30
0
 11
8.1624283070866142
 21
-2.0940009055118112
 31
0
  0
LINE
  5
15C
330
1B
100
AcDbEntity
  8
Edge.Cuts
  6
CONTINUOUS
100
AcDbLine
 10
8.1624283070866142
 20
-2.0940009055118112
 30
0
 11
8.1567824409448821
 21
-2.0862300393700788
 31
0
  0
LINE
  5
15D
330
1B
100
AcDbEntity
  8
Edge.Cuts
  6
CONTINUOUS
100
AcDbLine
 10
8.1567824409448821
 20
-2.0862300393700788
 30
0
 11
8.1499904330708652
 21
-2.0794380314960628
 31
0
  0
LINE
  5
15E
330
1B
100
AcDbEntity
  8
Edge.Cuts
  6
CONTINUOUS
100
AcDbLine
 10
8.1499904330708652
 20
-2.0794380314960628
 30
0
 11
8.1422195669291337
 21
-2.0737921653543308
 31
0
  0
LINE
  5
15F
330
1B
100
AcDbEntity
  8
Edge.Cuts
  6
CONTINUOUS
100
AcDbLine
 10
8.1422195669291337
 20
-2.0737921653543308
 30
0
 11
8.1336611811023616
 21
-2.0694314566929135
 31
0
  0
LINE
  5
160
330
1B
100
AcDbEntity
  8
Edge.Cuts
  6
CONTINUOUS
100
AcDbLine
 10
8.1336611811023616
 20
-2.0694314566929135
 30
0
 11
8.1245259448818903
 21
-2.0664632283464566
 31
0
  0
LINE
  5
161
330
1B
100
AcDbEntity
  8
Edge.Cuts
  6
CONTINUOUS
100
AcDbLine
 10
8.1245259448818903
 20
-2.0664632283464566
 30
0
 11
8.1150388976377954
 21
-2.0649606299212597
 31
0
  0
LINE
  5
162
330
1B
100
AcDbEntity
  8
Edge.Cuts
  6
CONTINUOUS
100
AcDbLine
 10
8.1150388976377954
 20
-2.0649606299212597
 30
0
 11
8.1054335433070861
 21
-2.0649606299212597
 31
0
  0
LINE
  5
163
330
1B
100
AcDbEntity
  8
Edge.Cuts
  6
CONTINUOUS
100
AcDbLine
 10
8.1054335433070861
 20
-2.0649606299212597
 30
0
 11
8.0959464960629912
 21
-2.0664632283464566
 31
0
  0
LINE
  5
164
330
1B
100
AcDbEntity
  8
Edge.Cuts
  6
CONTINUOUS
100
AcDbLine
 10
8.0959464960629912
 20
-2.0664632283464566
 30
0
 11
8.0868112598425199
 21
-2.0694314566929135
 31
0
  0
LINE
  5
165
330
1B
100
AcDbEntity
  8
Edge.Cuts
  6
CONTINUOUS
100
AcDbLine
 10
8.0868112598425199
 20
-2.0694314566929135
 30
0
 11
8.0782528740157478
 21
-2.0737921653543308
 31
0
  0
LINE
  5
166
330
1B
100
AcDbEntity
  8
Edge.Cuts
  6
CONTINUOUS
100
AcDbLine
 10
8.0782528740157478
 20
-2.0737921653543308
 30
0
 11
8.0704820078740163
 21
-2.0794380314960628
 31
0
  0
LINE
  5
167
330
1B
100
AcDbEntity
  8
Edge.Cuts
  6
CONTINUOUS
100
AcDbLine
 10
8.0704820078740163
 20
-2.0794380314960628
 30
0
 11
8.0636899999999994
 21
-2.0862300393700788
 31
0
  0
LINE
  5
168
330
1B
100
AcDbEntity
  8
Edge.Cuts
  6
CONTINUOUS
100
AcDbLine
 10
8.0636899999999994
 20
-2.0862300393700788
 30
0
 11
8.0580441338582673
 21
-2.0940009055118112
 31
0
  0
LINE
  5
169
330
1B
100
AcDbEntity
  8
Edge.Cuts
  6
CONTINUOUS
100
AcDbLine
 10
8.0580441338582673
 20
-2.0940009055118112
 30
0
 11
8.0536834251968497
 21
-2.1025592913385824
 31
0
  0
LINE
  5
16A
330
1B
100
AcDbEntity
  8
Edge.Cuts
  6
CONTINUOUS
100
AcDbLine
 10
8.0536834251968497
 20
-2.1025592913385824
 30
0
 11
8.0507151968503941
 21
-2.1116945275590551
 31
0
  0
LINE
  5
16B
330
1B
100
AcDbEntity
  8
Edge.Cuts
  6
CONTINUOUS
100
AcDbLine
 10
8.0507151968503941
 20
-2.1116945275590551
 30
0
 11
8.0492125984251963
 21
-2.1211815748031495
 31
0
  0
LINE
  5
16C
330
1B
100
AcDbEntity
  8
Edge.Cuts
  6
CONTINUOUS
100
AcDbLine
 10
8.0492125984251963
 20
-2.1211815748031495
 30
0
 11
8.0492125984251963
 21
-2.1307869291338584
 31
0
  0
LINE
  5
16D
330
1B
100
AcDbEntity
  8
Edge.Cuts
  6
CONTINUOUS
100
AcDbLine
 10
8.1102362204724407
 20
-1.9675196850393701
 30
0
 11
8.1248574803149598
 21
-1.9681956692913385
 31
0
  0
LINE
  5
16E
330
1B
100
AcDbEntity
  8
Edge.Cuts
  6
CONTINUOUS
100
AcDbLine
 10
8.1248574803149598
 20
-1.9681956692913385
 30
0
 11
8.1393540157480313
 21
-1.9702178346456694
 31
0
  0
LINE
  5
16F
330
1B
100
AcDbEntity
  8
Edge.Cuts
  6
CONTINUOUS
100
AcDbLine
 10
8.1393540157480313
 20
-1.9702178346456694
 30
0
 11
8.153602086614173
 21
-1.9735689763779527
 31
0
  0
LINE
  5
170
330
1B
100
AcDbEntity
  8
Edge.Cuts
  6
CONTINUOUS
100
AcDbLine
 10
8.153602086614173
 20
-1.9735689763779527
 30
0
 11
8.1674802362204719
 21
-1.9782204330708661
 31
0
  0
LINE
  5
171
330
1B
100
AcDbEntity
  8
Edge.Cuts
  6
CONTINUOUS
100
AcDbLine
 10
8.1674802362204719
 20
-1.9782204330708661
 30
0
 11
8.1808699606299218
 21
-1.9841325984251967
 31
0
  0
LINE
  5
172
330
1B
100
AcDbEntity
  8
Edge.Cuts
  6
CONTINUOUS
100
AcDbLine
 10
8.1808699606299218
 20
-1.9841325984251967
 30
0
 11
8.1936570472440948
 21
-1.9912549606299212
 31
0
  0
LINE
  5
173
330
1B
100
AcDbEntity
  8
Edge.Cuts
  6
CONTINUOUS
100
AcDbLine
 10
8.1936570472440948
 20
-1.9912549606299212
 30
0
 11
8.2057324409448817
 21
-1.999526811023622
 31
0
  0
LINE
  5
174
330
1B
100
AcDbEntity
  8
Edge.Cuts
  6
CONTINUOUS
100
AcDbLine
 10
8.2057324409448817
 20
-1.999526811023622
 30
0
 11
8.2169931102362206
 21
-2.0088775196850395
 31
0
  0
LINE
  5
175
330
1B
100
AcDbEntity
  8
Edge.Cuts
  6
CONTINUOUS
100
AcDbLine
 10
8.2169931102362206
 20
-2.0088775196850395
 30
0
 11
8.2273429527559045
 21
-2.0192273622047243
 31
0
  0
LINE
  5
176
330
1B
100
AcDbEntity
  8
Edge.Cuts
  6
CONTINUOUS
100
AcDbLine
 10
8.2273429527559045
 20
-2.0192273622047243
 30
0
 11
8.2366936614173234
 21
-2.0304880314960632
 31
0
  0
LINE
  5
177
330
1B
100
AcDbEntity
  8
Edge.Cuts
  6
CONTINUOUS
100
AcDbLine
 10
8.2366936614173234
 20
-2.0304880314960632
 30
0
 11
8.2449655118110226
 21
-2.0425634251968505
 31
0
  0
LINE
  5
178
330
1B
100
AcDbEntity
  8
Edge.Cuts
  6
CONTINUOUS
100
AcDbLine
 10
8.2449655118110226
 20
-2.0425634251968505
 30
0
 11
8.2520878740157482
 21
-2.0553505118110236
 31
0
  0
LINE
  5
179
330
1B
100
AcDbEntity
  8
Edge.Cuts
  6
CONTINUOUS
100
AcDbLine
 10
8.2520878740157482
 20
-2.0553505118110236
 30
0
 11
8.2580000393700779
 21
-2.0687402362204725
 31
0
  0
LINE
  5
17A
330
1B
100
AcDbEntity
  8
Edge.Cuts
  6
CONTINUOUS
100
AcDbLine
 10
8.2580000393700779
 20
-2.0687402362204725
 30
0
 11
8.2626514960629915
 21
-2.0826183858267715
 31
0
  0
LINE
  5
17B
330
1B
100
AcDbEntity
  8
Edge.Cuts
  6
CONTINUOUS
100
AcDbLine
 10
8.2626514960629915
 20
-2.0826183858267715
 30
0
 11
8.2660026377952747
 21
-2.0968664566929132
 31
0
  0
LINE
  5
17C
330
1B
100
AcDbEntity
  8
Edge.Cuts
  6
CONTINUOUS
100
AcDbLine
 10
8.2660026377952747
 20
-2.0968664566929132
 30
0
 11
8.268024803149606
 21
-2.1113629921259842
 31
0
  0
LINE
  5
17D
330
1B
100
AcDbEntity
  8
Edge.Cuts
  6
CONTINUOUS
100
AcDbLine
 10
8.268024803149606
 20
-2.1113629921259842
 30
0
 11
8.2687007874015741
 21
-2.1259842519685037
 31
0
  0
LINE
  5
17E
330
1B
100
AcDbEntity
  8
Edge.Cuts
  6
CONTINUOUS
100
AcDbLine
 10
8.2687007874015741
 20
-2.1259842519685037
 30
0
 11
8.2687007874015741
 21
-5.1574803149606296
 31
0
  0
LINE
  5
17F
330
1B
100
AcDbEntity
  8
Edge.Cuts
  6
CONTINUOUS
100
AcDbLine
 10
8.2687007874015741
 20
-5.1574803149606296
 30
0
 11
8.268024803149606
 21
-5.1721015748031496
 31
0
  0
LINE
  5
180
330
1B
100
AcDbEntity
  8
Edge.Cuts
  6
CONTINUOUS
100
AcDbLine
 10
8.268024803149606
 20
-5.1721015748031496
 30
0
 11
8.2660026377952747
 21
-5.1865981102362202
 31
0
  0
LINE
  5
181
330
1B
100
AcDbEntity
  8
Edge.Cuts
  6
CONTINUOUS
100
AcDbLine
 10
8.2660026377952747
 20
-5.1865981102362202
 30
0
 11
8.2626514960629915
 21
-5.2008461811023619
 31
0
  0
LINE
  5
182
330
1B
100
AcDbEntity
  8
Edge.Cuts
  6
CONTINUOUS
100
AcDbLine
 10
8.2626514960629915
 20
-5.2008461811023619
 30
0
 11
8.2580000393700779
 21
-5.2147243307086617
 31
0
  0
LINE
  5
183
330
1B
100
AcDbEntity
  8
Edge.Cuts
  6
CONTINUOUS
100
AcDbLine
 10
8.2580000393700779
 20
-5.2147243307086617
 30
0
 11
8.2520878740157482
 21
-5.2281140551181098
 31
0
  0
LINE
  5
184
330
1B
100
AcDbEntity
  8
Edge.Cuts
  6
CONTINUOUS
100
AcDbLine
 10
8.2520878740157482
 20
-5.2281140551181098
 30
0
 11
8.2449655118110226
 21
-5.2409011417322837
 31
0
  0
LINE
  5
185
330
1B
100
AcDbEntity
  8
Edge.Cuts
  6
CONTINUOUS
100
AcDbLine
 10
8.2449655118110226
 20
-5.2409011417322837
 30
0
 11
8.2366936614173234
 21
-5.2529765354330706
 31
0
  0
LINE
  5
186
330
1B
100
AcDbEntity
  8
Edge.Cuts
  6
CONTINUOUS
100
AcDbLine
 10
8.2366936614173234
 20
-5.2529765354330706
 30
0
 11
8.2273429527559045
 21
-5.2642372047244095
 31
0
  0
LINE
  5
187
330
1B
100
AcDbEntity
  8
Edge.Cuts
  6
CONTINUOUS
100
AcDbLine
 10
8.2273429527559045
 20
-5.2642372047244095
 30
0
 11
8.2169931102362206
 21
-5.2745870472440943
 31
0
  0
LINE
  5
188
330
1B
100
AcDbEntity
  8
Edge.Cuts
  6
CONTINUOUS
100
AcDbLine
 10
8.2169931102362206
 20
-5.2745870472440943
 30
0
 11
8.2057324409448817
 21
-5.2839377559055114
 31
0
  0
LINE
  5
189
330
1B
100
AcDbEntity
  8
Edge.Cuts
  6
CONTINUOUS
100
AcDbLine
 10
8.2057324409448817
 20
-5.2839377559055114
 30
0
 11
8.1936570472440948
 21
-5.2922096062992123
 31
0
  0
LINE
  5
18A
330
1B
100
AcDbEntity
  8
Edge.Cuts
  6
CONTINUOUS
100
AcDbLine
 10
8.1936570472440948
 20
-5.2922096062992123
 30
0
 11
8.1808699606299218
 21
-5.2993319685039371
 31
0
  0
LINE
  5
18B
330
1B
100
AcDbEntity
  8
Edge.Cuts
  6
CONTINUOUS
100
AcDbLine
 10
8.1808699606299218
 20
-5.2993319685039371
 30
0
 11
8.1674802362204719
 21
-5.3052441338582677
 31
0
  0
LINE
  5
18C
330
1B
100
AcDbEntity
  8
Edge.Cuts
  6
CONTINUOUS
100
AcDbLine
 10
8.1674802362204719
 20
-5.3052441338582677
 30
0
 11
8.153602086614173
 21
-5.3098955905511813
 31
0
  0
LINE
  5
18D
330
1B
100
AcDbEntity
  8
Edge.Cuts
  6
CONTINUOUS
100
AcDbLine
 10
8.153602086614173
 20
-5.3098955905511813
 30
0
 11
8.1393540157480313
 21
-5.3132467322834644
 31
0
  0
LINE
  5
18E
330
1B
100
AcDbEntity
  8
Edge.Cuts
  6
CONTINUOUS
100
AcDbLine
 10
8.1393540157480313
 20
-5.3132467322834644
 30
0
 11
8.1248574803149598
 21
-5.3152688976377949
 31
0
  0
LINE
  5
18F
330
1B
100
AcDbEntity
  8
Edge.Cuts
  6
CONTINUOUS
100
AcDbLine
 10
8.1248574803149598
 20
-5.3152688976377949
 30
0
 11
8.1102362204724407
 21
-5.3159448818897639
 31
0
  0
LINE
  5
190
330
1B
100
AcDbEntity
  8
Edge.Cuts
  6
CONTINUOUS
100
AcDbLine
 10
8.1102362204724407
 20
-5.3159448818897639
 30
0
 11
2.9133858267716537
 21
-5.3159448818897639
 31
0
  0
LINE
  5
191
330
1B
100
AcDbEntity
  8
Edge.Cuts
  6
CONTINUOUS
100
AcDbLine
 10
2.9133858267716537
 20
-5.3159448818897639
 30
0
 11
2.8987645669291338
 21
-5.3152688976377949
 31
0
  0
LINE
  5
192
330
1B
100
AcDbEntity
  8
Edge.Cuts
  6
CONTINUOUS
100
AcDbLine
 10
2.8987645669291338
 20
-5.3152688976377949
 30
0
 11
2.8842680314960631
 21
-5.3132467322834644
 31
0
  0
LINE
  5
193
330
1B
100
AcDbEntity
  8
Edge.Cuts
  6
CONTINUOUS
100
AcDbLine
 10
2.8842680314960631
 20
-5.3132467322834644
 30
0
 11
2.870019960629921
 21
-5.3098955905511813
 31
0
  0
LINE
  5
194
330
1B
100
AcDbEntity
  8
Edge.Cuts
  6
CONTINUOUS
100
AcDbLine
 10
2.870019960629921
 20
-5.3098955905511813
 30
0
 11
2.8561418110236221
 21
-5.3052441338582677
 31
0
  0
LINE
  5
195
330
1B
100
AcDbEntity
  8
Edge.Cuts
  6
CONTINUOUS
100
AcDbLine
 10
2.8561418110236221
 20
-5.3052441338582677
 30
0
 11
2.8427520866141731
 21
-5.2993319685039371
 31
0
  0
LINE
  5
196
330
1B
100
AcDbEntity
  8
Edge.Cuts
  6
CONTINUOUS
100
AcDbLine
 10
2.8427520866141731
 20
-5.2993319685039371
 30
0
 11
2.8299650000000001
 21
-5.2922096062992123
 31
0
  0
LINE
  5
197
330
1B
100
AcDbEntity
  8
Edge.Cuts
  6
CONTINUOUS
100
AcDbLine
 10
2.8299650000000001
 20
-5.2922096062992123
 30
0
 11
2.8178896062992127
 21
-5.2839377559055114
 31
0
  0
LINE
  5
198
330
1B
100
AcDbEntity
  8
Edge.Cuts
  6
CONTINUOUS
100
AcDbLine
 10
2.8178896062992127
 20
-5.2839377559055114
 30
0
 11
2.8066289370078739
 21
-5.2745870472440943
 31
0
  0
LINE
  5
199
330
1B
100
AcDbEntity
  8
Edge.Cuts
  6
CONTINUOUS
100
AcDbLine
 10
2.8066289370078739
 20
-5.2745870472440943
 30
0
 11
2.796279094488189
 21
-5.2642372047244095
 31
0
  0
LINE
  5
19A
330
1B
100
AcDbEntity
  8
Edge.Cuts
  6
CONTINUOUS
100
AcDbLine
 10
2.796279094488189
 20
-5.2642372047244095
 30
0
 11
2.7869283858267715
 21
-5.2529765354330706
 31
0
  0
LINE
  5
19B
330
1B
100
AcDbEntity
  8
Edge.Cuts
  6
CONTINUOUS
100
AcDbLine
 10
2.7869283858267715
 20
-5.2529765354330706
 30
0
 11
2.778656535433071
 21
-5.2409011417322837
 31
0
  0
LINE
  5
19C
330
1B
100
AcDbEntity
  8
Edge.Cuts
  6
CONTINUOUS
100
AcDbLine
 10
2.778656535433071
 20
-5.2409011417322837
 30
0
 11
2.7715341732283463
 21
-5.2281140551181098
 31
0
  0
LINE
  5
19D
330
1B
100
AcDbEntity
  8
Edge.Cuts
  6
CONTINUOUS
100
AcDbLine
 10
2.7715341732283463
 20
-5.2281140551181098
 30
0
 11
2.7656220078740157
 21
-5.2147243307086617
 31
0
  0
LINE
  5
19E
330
1B
100
AcDbEntity
  8
Edge.Cuts
  6
CONTINUOUS
100
AcDbLine
 10
2.7656220078740157
 20
-5.2147243307086617
 30
0
 11
2.7609705511811025
 21
-5.2008461811023619
 31
0
  0
LINE
  5
19F
330
1B
100
AcDbEntity
  8
Edge.Cuts
  6
CONTINUOUS
100
AcDbLine
 10
2.7609705511811025
 20
-5.2008461811023619
 30
0
 11
2.7576194094488189
 21
-5.1865981102362202
 31
0
  0
LINE
  5
1A0
330
1B
100
AcDbEntity
  8
Edge.Cuts
  6
CONTINUOUS
100
AcDbLine
 10
2.7576194094488189
 20
-5.1865981102362202
 30
0
 11
2.755597244094488
 21
-5.1721015748031496
 31
0
  0
LINE
  5
1A1
330
1B
100
AcDbEntity
  8
Edge.Cuts
  6
CONTINUOUS
100
AcDbLine
 10
2.755597244094488
 20
-5.1721015748031496
 30
0
 11
2.7549212598425195
 21
-5.1574803149606296
 31
0
  0
LINE
  5
1A2
330
1B
100
AcDbEntity
  8
Edge.Cuts
  6
CONTINUOUS
100
AcDbLine
 10
2.7549212598425195
 20
-5.1574803149606296
 30
0
 11
2.7549212598425195
 21
-2.1259842519685037
 31
0
  0
LINE
  5
1A3
330
1B
100
AcDbEntity
  8
Edge.Cuts
  6
CONTINUOUS
100
AcDbLine
 10
2.7549212598425195
 20
-2.1259842519685037
 30
0
 11
2.755597244094488
 21
-2.1113629921259842
 31
0
  0
LINE
  5
1A4
330
1B
100
AcDbEntity
  8
Edge.Cuts
  6
CONTINUOUS
100
AcDbLine
 10
2.755597244094488
 20
-2.1113629921259842
 30
0
 11
2.7576194094488189
 21
-2.0968664566929132
 31
0
  0
LINE
  5
1A5
330
1B
100
AcDbEntity
  8
Edge.Cuts
  6
CONTINUOUS
100
AcDbLine
 10
2.7576194094488189
 20
-2.0968664566929132
 30
0
 11
2.7609705511811025
 21
-2.0826183858267715
 31
0
  0
LINE
  5
1A6
330
1B
100
AcDbEntity
  8
Edge.Cuts
  6
CONTINUOUS
100
AcDbLine
 10
2.7609705511811025
 20
-2.0826183858267715
 30
0
 11
2.7656220078740157
 21
-2.0687402362204725
 31
0
  0
LINE
  5
1A7
330
1B
100
AcDbEntity
  8
Edge.Cuts
  6
CONTINUOUS
100
AcDbLine
 10
2.7656220078740157
 20
-2.0687402362204725
 30
0
 11
2.7715341732283463
 21
-2.0553505118110236
 31
0
  0
LINE
  5
1A8
330
1B
100
AcDbEntity
  8
Edge.Cuts
  6
CONTINUOUS
100
AcDbLine
 10
2.7715341732283463
 20
-2.0553505118110236
 30
0
 11
2.778656535433071
 21
-2.0425634251968505
 31
0
  0
LINE
  5
1A9
330
1B
100
AcDbEntity
  8
Edge.Cuts
  6
CONTINUOUS
100
AcDbLine
 10
2.778656535433071
 20
-2.0425634251968505
 30
0
 11
2.7869283858267715
 21
-2.0304880314960632
 31
0
  0
LINE
  5
1AA
330
1B
100
AcDbEntity
  8
Edge.Cuts
  6
CONTINUOUS
100
AcDbLine
 10
2.7869283858267715
 20
-2.0304880314960632
 30
0
 11
2.796279094488189
 21
-2.0192273622047243
 31
0
  0
LINE
  5
1AB
330
1B
100
AcDbEntity
  8
Edge.Cuts
  6
CONTINUOUS
100
AcDbLine
 10
2.796279094488189
 20
-2.0192273622047243
 30
0
 11
2.8066289370078739
 21
-2.0088775196850395
 31
0
  0
LINE
  5
1AC
330
1B
100
AcDbEntity
  8
Edge.Cuts
  6
CONTINUOUS
100
AcDbLine
 10
2.8066289370078739
 20
-2.0088775196850395
 30
0
 11
2.8178896062992127
 21
-1.999526811023622
 31
0
  0
LINE
  5
1AD
330
1B
100
AcDbEntity
  8
Edge.Cuts
  6
CONTINUOUS
100
AcDbLine
 10
2.8178896062992127
 20
-1.999526811023622
 30
0
 11
2.8299650000000001
 21
-1.9912549606299212
 31
0
  0
LINE
  5
1AE
330
1B
100
AcDbEntity
  8
Edge.Cuts
  6
CONTINUOUS
100
AcDbLine
 10
2.8299650000000001
 20
-1.9912549606299212
 30
0
 11
2.8427520866141731
 21
-1.9841325984251967
 31
0
  0
LINE
  5
1AF
330
1B
100
AcDbEntity
  8
Edge.Cuts
  6
CONTINUOUS
100
AcDbLine
 10
2.8427520866141731
 20
-1.9841325984251967
 30
0
 11
2.8561418110236221
 21
-1.9782204330708661
 31
0
  0
LINE
  5
1B0
330
1B
100
AcDbEntity
  8
Edge.Cuts
  6
CONTINUOUS
100
AcDbLine
 10
2.8561418110236221
 20
-1.9782204330708661
 30
0
 11
2.870019960629921
 21
-1.9735689763779527
 31
0
  0
LINE
  5
1B1
330
1B
100
AcDbEntity
  8
Edge.Cuts
  6
CONTINUOUS
100
AcDbLine
 10
2.870019960629921
 20
-1.9735689763779527
 30
0
 11
2.8842680314960631
 21
-1.9702178346456694
 31
0
  0
LINE
  5
1B2
330
1B
100
AcDbEntity
  8
Edge.Cuts
  6
CONTINUOUS
100
AcDbLine
 10
2.8842680314960631
 20
-1.9702178346456694
 30
0
 11
2.8987645669291338
 21
-1.9681956692913385
 31
0
  0
LINE
  5
1B3
330
1B
100
AcDbEntity
  8
Edge.Cuts
  6
CONTINUOUS
100
AcDbLine
 10
2.8987645669291338
 20
-1.9681956692913385
 30
0
 11
2.9133858267716537
 21
-1.9675196850393701
 31
0
  0
LINE
  5
1B4
330
1B
100
AcDbEntity
  8
Edge.Cuts
  6
CONTINUOUS
100
AcDbLine
 10
2.9133858267716537
 20
-1.9675196850393701
 30
0
 11
8.1102362204724407
 21
-1.9675196850393701
 31
0
  0
LINE
  5
1B5
330
1B
100
AcDbEntity
  8
Edge.Cuts
  6
CONTINUOUS
100
AcDbLine
 10
2.9133858267716537
 20
-1.969488188976378
 30
0
 11
2.9061505905511811
 21
-1.969488188976378
 31
0
  0
LINE
  5
1B6
330
1B
100
AcDbEntity
  8
Edge.Cuts
  6
CONTINUOUS
100
AcDbLine
 10
2.9061505905511811
 20
-1.969488188976378
 30
0
 11
2.8917418110236222
 21
-1.9708233464566929
 31
0
  0
LINE
  5
1B7
330
1B
100
AcDbEntity
  8
Edge.Cuts
  6
CONTINUOUS
100
AcDbLine
 10
2.8917418110236222
 20
-1.9708233464566929
 30
0
 11
2.8775176771653541
 21
-1.9734823228346456
 31
0
  0
LINE
  5
1B8
330
1B
100
AcDbEntity
  8
Edge.Cuts
  6
CONTINUOUS
100
AcDbLine
 10
2.8775176771653541
 20
-1.9734823228346456
 30
0
 11
2.8635996062992124
 21
-1.9774423622047244
 31
0
  0
LINE
  5
1B9
330
1B
100
AcDbEntity
  8
Edge.Cuts
  6
CONTINUOUS
100
AcDbLine
 10
2.8635996062992124
 20
-1.9774423622047244
 30
0
 11
2.8501062598425198
 21
-1.9826696850393701
 31
0
  0
LINE
  5
1BA
330
1B
100
AcDbEntity
  8
Edge.Cuts
  6
CONTINUOUS
100
AcDbLine
 10
2.8501062598425198
 20
-1.9826696850393701
 30
0
 11
2.8371527952755904
 21
-1.9891197637795275
 31
0
  0
LINE
  5
1BB
330
1B
100
AcDbEntity
  8
Edge.Cuts
  6
CONTINUOUS
100
AcDbLine
 10
2.8371527952755904
 20
-1.9891197637795275
 30
0
 11
2.8248497244094488
 21
-1.9967374803149607
 31
0
  0
LINE
  5
1BC
330
1B
100
AcDbEntity
  8
Edge.Cuts
  6
CONTINUOUS
100
AcDbLine
 10
2.8248497244094488
 20
-1.9967374803149607
 30
0
 11
2.8133020472440946
 21
-2.0054579133858268
 31
0
  0
LINE
  5
1BD
330
1B
100
AcDbEntity
  8
Edge.Cuts
  6
CONTINUOUS
100
AcDbLine
 10
2.8133020472440946
 20
-2.0054579133858268
 30
0
 11
2.8026081889763779
 21
-2.0152066141732283
 31
0
  0
LINE
  5
1BE
330
1B
100
AcDbEntity
  8
Edge.Cuts
  6
CONTINUOUS
100
AcDbLine
 10
2.8026081889763779
 20
-2.0152066141732283
 30
0
 11
2.7928594881889763
 21
-2.0259004724409446
 31
0
  0
LINE
  5
1BF
330
1B
100
AcDbEntity
  8
Edge.Cuts
  6
CONTINUOUS
100
AcDbLine
 10
2.7928594881889763
 20
-2.0259004724409446
 30
0
 11
2.7841390551181102
 21
-2.0374481496062993
 31
0
  0
LINE
  5
1C0
330
1B
100
AcDbEntity
  8
Edge.Cuts
  6
CONTINUOUS
100
AcDbLine
 10
2.7841390551181102
 20
-2.0374481496062993
 30
0
 11
2.7765213385826772
 21
-2.0497512204724408
 31
0
  0
LINE
  5
1C1
330
1B
100
AcDbEntity
  8
Edge.Cuts
  6
CONTINUOUS
100
AcDbLine
 10
2.7765213385826772
 20
-2.0497512204724408
 30
0
 11
2.7700712598425197
 21
-2.0627046850393702
 31
0
  0
LINE
  5
1C2
330
1B
100
AcDbEntity
  8
Edge.Cuts
  6
CONTINUOUS
100
AcDbLine
 10
2.7700712598425197
 20
-2.0627046850393702
 30
0
 11
2.7648439370078739
 21
-2.0761980314960629
 31
0
  0
LINE
  5
1C3
330
1B
100
AcDbEntity
  8
Edge.Cuts
  6
CONTINUOUS
100
AcDbLine
 10
2.7648439370078739
 20
-2.0761980314960629
 30
0
 11
2.7608838976377954
 21
-2.0901161023622046
 31
0
  0
LINE
  5
1C4
330
1B
100
AcDbEntity
  8
Edge.Cuts
  6
CONTINUOUS
100
AcDbLine
 10
2.7608838976377954
 20
-2.0901161023622046
 30
0
 11
2.7582249212598424
 21
-2.1043402362204722
 31
0
  0
LINE
  5
1C5
330
1B
100
AcDbEntity
  8
Edge.Cuts
  6
CONTINUOUS
100
AcDbLine
 10
2.7582249212598424
 20
-2.1043402362204722
 30
0
 11
2.7568897637795273
 21
-2.1187490157480315
 31
0
  0
LINE
  5
1C6
330
1B
100
AcDbEntity
  8
Edge.Cuts
  6
CONTINUOUS
100
AcDbLine
 10
2.7568897637795273
 20
-2.1187490157480315
 30
0
 11
2.7568897637795273
 21
-2.1259842519685037
 31
0
  0
LINE
  5
1C7
330
1B
100
AcDbEntity
  8
Edge.Cuts
  6
CONTINUOUS
100
AcDbLine
 10
2.7568897637795273
 20
-2.1259842519685037
 30
0
 11
2.7568897637795273
 21
-5.1574803149606296
 31
0
  0
LINE
  5
1C8
330
1B
100
AcDbEntity
  8
Edge.Cuts
  6
CONTINUOUS
100
AcDbLine
 10
2.7568897637795273
 20
-5.1574803149606296
 30
0
 11
2.7568897637795273
 21
-5.1647155511811018
 31
0
  0
LINE
  5
1C9
330
1B
100
AcDbEntity
  8
Edge.Cuts
  6
CONTINUOUS
100
AcDbLine
 10
2.7568897637795273
 20
-5.1647155511811018
 30
0
 11
2.7582249212598424
 21
-5.1791243307086612
 31
0
  0
LINE
  5
1CA
330
1B
100
AcDbEntity
  8
Edge.Cuts
  6
CONTINUOUS
100
AcDbLine
 10
2.7582249212598424
 20
-5.1791243307086612
 30
0
 11
2.7608838976377954
 21
-5.1933484645669292
 31
0
  0
LINE
  5
1CB
330
1B
100
AcDbEntity
  8
Edge.Cuts
  6
CONTINUOUS
100
AcDbLine
 10
2.7608838976377954
 20
-5.1933484645669292
 30
0
 11
2.7648439370078739
 21
-5.2072665354330709
 31
0
  0
LINE
  5
1CC
330
1B
100
AcDbEntity
  8
Edge.Cuts
  6
CONTINUOUS
100
AcDbLine
 10
2.7648439370078739
 20
-5.2072665354330709
 30
0
 11
2.7700712598425197
 21
-5.220759881889764
 31
0
  0
LINE
  5
1CD
330
1B
100
AcDbEntity
  8
Edge.Cuts
  6
CONTINUOUS
100
AcDbLine
 10
2.7700712598425197
 20
-5.220759881889764
 30
0
 11
2.7765213385826772
 21
-5.2337133464566925
 31
0
  0
LINE
  5
1CE
330
1B
100
AcDbEntity
  8
Edge.Cuts
  6
CONTINUOUS
100
AcDbLine
 10
2.7765213385826772
 20
-5.2337133464566925
 30
0
 11
2.7841390551181102
 21
-5.246016417322835
 31
0
  0
LINE
  5
1CF
330
1B
100
AcDbEntity
  8
Edge.Cuts
  6
CONTINUOUS
100
AcDbLine
 10
2.7841390551181102
 20
-5.246016417322835
 30
0
 11
2.7928594881889763
 21
-5.2575640944881892
 31
0
  0
LINE
  5
1D0
330
1B
100
AcDbEntity
  8
Edge.Cuts
  6
CONTINUOUS
100
AcDbLine
 10
2.7928594881889763
 20
-5.2575640944881892
 30
0
 11
2.8026081889763779
 21
-5.2682579527559055
 31
0
  0
LINE
  5
1D1
330
1B
100
AcDbEntity
  8
Edge.Cuts
  6
CONTINUOUS
100
AcDbLine
 10
2.8026081889763779
 20
-5.2682579527559055
 30
0
 11
2.8133020472440946
 21
-5.278006653543307
 31
0
  0
LINE
  5
1D2
330
1B
100
AcDbEntity
  8
Edge.Cuts
  6
CONTINUOUS
100
AcDbLine
 10
2.8133020472440946
 20
-5.278006653543307
 30
0
 11
2.8248497244094488
 21
-5.2867270866141727
 31
0
  0
LINE
  5
1D3
330
1B
100
AcDbEntity
  8
Edge.Cuts
  6
CONTINUOUS
100
AcDbLine
 10
2.8248497244094488
 20
-5.2867270866141727
 30
0
 11
2.8371527952755904
 21
-5.2943448031496061
 31
0
  0
LINE
  5
1D4
330
1B
100
AcDbEntity
  8
Edge.Cuts
  6
CONTINUOUS
100
AcDbLine
 10
2.8371527952755904
 20
-5.2943448031496061
 30
0
 11
2.8501062598425198
 21
-5.3007948818897637
 31
0
  0
LINE
  5
1D5
330
1B
100
AcDbEntity
  8
Edge.Cuts
  6
CONTINUOUS
100
AcDbLine
 10
2.8501062598425198
 20
-5.3007948818897637
 30
0
 11
2.8635996062992124
 21
-5.3060222047244094
 31
0
  0
LINE
  5
1D6
330
1B
100
AcDbEntity
  8
Edge.Cuts
  6
CONTINUOUS
100
AcDbLine
 10
2.8635996062992124
 20
-5.3060222047244094
 30
0
 11
2.8775176771653541
 21
-5.3099822440944884
 31
0
  0
LINE
  5
1D7
330
1B
100
AcDbEntity
  8
Edge.Cuts
  6
CONTINUOUS
100
AcDbLine
 10
2.8775176771653541
 20
-5.3099822440944884
 30
0
 11
2.8917418110236222
 21
-5.3126412204724405
 31
0
  0
LINE
  5
1D8
330
1B
100
AcDbEntity
  8
Edge.Cuts
  6
CONTINUOUS
100
AcDbLine
 10
2.8917418110236222
 20
-5.3126412204724405
 30
0
 11
2.9061505905511811
 21
-5.3139763779527556
 31
0
  0
LINE
  5
1D9
330
1B
100
AcDbEntity
  8
Edge.Cuts
  6
CONTINUOUS
100
AcDbLine
 10
2.9061505905511811
 20
-5.3139763779527556
 30
0
 11
2.9133858267716537
 21
-5.3139763779527556
 31
0
  0
LINE
  5
1DA
330
1B
100
AcDbEntity
  8
Edge.Cuts
  6
CONTINUOUS
100
AcDbLine
 10
2.9133858267716537
 20
-5.3139763779527556
 30
0
 11
8.1102362204724407
 21
-5.3139763779527556
 31
0
  0
LINE
  5
1DB
330
1B
100
AcDbEntity
  8
Edge.Cuts
  6
CONTINUOUS
100
AcDbLine
 10
8.1102362204724407
 20
-5.3139763779527556
 30
0
 11
8.1174714566929129
 21
-5.3139763779527556
 31
0
  0
LINE
  5
1DC
330
1B
100
AcDbEntity
  8
Edge.Cuts
  6
CONTINUOUS
100
AcDbLine
 10
8.1174714566929129
 20
-5.3139763779527556
 30
0
 11
8.1318802362204714
 21
-5.3126412204724405
 31
0
  0
LINE
  5
1DD
330
1B
100
AcDbEntity
  8
Edge.Cuts
  6
CONTINUOUS
100
AcDbLine
 10
8.1318802362204714
 20
-5.3126412204724405
 30
0
 11
8.1461043700787403
 21
-5.3099822440944884
 31
0
  0
LINE
  5
1DE
330
1B
100
AcDbEntity
  8
Edge.Cuts
  6
CONTINUOUS
100
AcDbLine
 10
8.1461043700787403
 20
-5.3099822440944884
 30
0
 11
8.160022440944882
 21
-5.3060222047244094
 31
0
  0
LINE
  5
1DF
330
1B
100
AcDbEntity
  8
Edge.Cuts
  6
CONTINUOUS
100
AcDbLine
 10
8.160022440944882
 20
-5.3060222047244094
 30
0
 11
8.1735157874015751
 21
-5.3007948818897637
 31
0
  0
LINE
  5
1E0
330
1B
100
AcDbEntity
  8
Edge.Cuts
  6
CONTINUOUS
100
AcDbLine
 10
8.1735157874015751
 20
-5.3007948818897637
 30
0
 11
8.1864692519685036
 21
-5.2943448031496061
 31
0
  0
LINE
  5
1E1
330
1B
100
AcDbEntity
  8
Edge.Cuts
  6
CONTINUOUS
100
AcDbLine
 10
8.1864692519685036
 20
-5.2943448031496061
 30
0
 11
8.1987723228346461
 21
-5.2867270866141727
 31
0
  0
LINE
  5
1E2
330
1B
100
AcDbEntity
  8
Edge.Cuts
  6
CONTINUOUS
100
AcDbLine
 10
8.1987723228346461
 20
-5.2867270866141727
 30
0
 11
8.2103199999999994
 21
-5.278006653543307
 31
0
  0
LINE
  5
1E3
330
1B
100
AcDbEntity
  8
Edge.Cuts
  6
CONTINUOUS
100
AcDbLine
 10
8.2103199999999994
 20
-5.278006653543307
 30
0
 11
8.2210138582677157
 21
-5.2682579527559055
 31
0
  0
LINE
  5
1E4
330
1B
100
AcDbEntity
  8
Edge.Cuts
  6
CONTINUOUS
100
AcDbLine
 10
8.2210138582677157
 20
-5.2682579527559055
 30
0
 11
8.2307625590551172
 21
-5.2575640944881892
 31
0
  0
LINE
  5
1E5
330
1B
100
AcDbEntity
  8
Edge.Cuts
  6
CONTINUOUS
100
AcDbLine
 10
8.2307625590551172
 20
-5.2575640944881892
 30
0
 11
8.2394829921259838
 21
-5.246016417322835
 31
0
  0
LINE
  5
1E6
330
1B
100
AcDbEntity
  8
Edge.Cuts
  6
CONTINUOUS
100
AcDbLine
 10
8.2394829921259838
 20
-5.246016417322835
 30
0
 11
8.2471007086614172
 21
-5.2337133464566925
 31
0
  0
LINE
  5
1E7
330
1B
100
AcDbEntity
  8
Edge.Cuts
  6
CONTINUOUS
100
AcDbLine
 10
8.2471007086614172
 20
-5.2337133464566925
 30
0
 11
8.2535507874015739
 21
-5.220759881889764
 31
0
  0
LINE
  5
1E8
330
1B
100
AcDbEntity
  8
Edge.Cuts
  6
CONTINUOUS
100
AcDbLine
 10
8.2535507874015739
 20
-5.220759881889764
 30
0
 11
8.2587781102362197
 21
-5.2072665354330709
 31
0
  0
LINE
  5
1E9
330
1B
100
AcDbEntity
  8
Edge.Cuts
  6
CONTINUOUS
100
AcDbLine
 10
8.2587781102362197
 20
-5.2072665354330709
 30
0
 11
8.2627381496062995
 21
-5.1933484645669292
 31
0
  0
LINE
  5
1EA
330
1B
100
AcDbEntity
  8
Edge.Cuts
  6
CONTINUOUS
100
AcDbLine
 10
8.2627381496062995
 20
-5.1933484645669292
 30
0
 11
8.2653971259842525
 21
-5.1791243307086612
 31
0
  0
LINE
  5
1EB
330
1B
100
AcDbEntity
  8
Edge.Cuts
  6
CONTINUOUS
100
AcDbLine
 10
8.2653971259842525
 20
-5.1791243307086612
 30
0
 11
8.2667322834645667
 21
-5.1647155511811018
 31
0
  0
LINE
  5
1EC
330
1B
100
AcDbEntity
  8
Edge.Cuts
  6
CONTINUOUS
100
AcDbLine
 10
8.2667322834645667
 20
-5.1647155511811018
 30
0
 11
8.2667322834645667
 21
-5.1574803149606296
 31
0
  0
LINE
  5
1ED
330
1B
100
AcDbEntity
  8
Edge.Cuts
  6
CONTINUOUS
100
AcDbLine
 10
8.2667322834645667
 20
-5.1574803149606296
 30
0
 11
8.2667322834645667
 21
-2.1259842519685037
 31
0
  0
LINE
  5
1EE
330
1B
100
AcDbEntity
  8
Edge.Cuts
  6
CONTINUOUS
100
AcDbLine
 10
8.2667322834645667
 20
-2.1259842519685037
 30
0
 11
8.2667322834645667
 21
-2.1187490157480315
 31
0
  0
LINE
  5
1EF
330
1B
100
AcDbEntity
  8
Edge.Cuts
  6
CONTINUOUS
100
AcDbLine
 10
8.2667322834645667
 20
-2.1187490157480315
 30
0
 11
8.2653971259842525
 21
-2.1043402362204722
 31
0
  0
LINE
  5
1F0
330
1B
100
AcDbEntity
  8
Edge.Cuts
  6
CONTINUOUS
100
AcDbLine
 10
8.2653971259842525
 20
-2.1043402362204722
 30
0
 11
8.2627381496062995
 21
-2.0901161023622046
 31
0
  0
LINE
  5
1F1
330
1B
100
AcDbEntity
  8
Edge.Cuts
  6
CONTINUOUS
100
AcDbLine
 10
8.2627381496062995
 20
-2.0901161023622046
 30
0
 11
8.2587781102362197
 21
-2.0761980314960629
 31
0
  0
LINE
  5
1F2
330
1B
100
AcDbEntity
  8
Edge.Cuts
  6
CONTINUOUS
100
AcDbLine
 10
8.2587781102362197
 20
-2.0761980314960629
 30
0
 11
8.2535507874015739
 21
-2.0627046850393702
 31
0
  0
LINE
  5
1F3
330
1B
100
AcDbEntity
  8
Edge.Cuts
  6
CONTINUOUS
100
AcDbLine
 10
8.2535507874015739
 20
-2.0627046850393702
 30
0
 11
8.2471007086614172
 21
-2.0497512204724408
 31
0
  0
LINE
  5
1F4
330
1B
100
AcDbEntity
  8
Edge.Cuts
  6
CONTINUOUS
100
AcDbLine
 10
8.2471007086614172
 20
-2.0497512204724408
 30
0
 11
8.2394829921259838
 21
-2.0374481496062993
 31
0
  0
LINE
  5
1F5
330
1B
100
AcDbEntity
  8
Edge.Cuts
  6
CONTINUOUS
100
AcDbLine
 10
8.2394829921259838
 20
-2.0374481496062993
 30
0
 11
8.2307625590551172
 21
-2.0259004724409446
 31
0
  0
LINE
  5
1F6
330
1B
100
AcDbEntity
  8
Edge.Cuts
  6
CONTINUOUS
100
AcDbLine
 10
8.2307625590551172
 20
-2.0259004724409446
 30
0
 11
8.2210138582677157
 21
-2.0152066141732283
 31
0
  0
LINE
  5
1F7
330
1B
100
AcDbEntity
  8
Edge.Cuts
  6
CONTINUOUS
100
AcDbLine
 10
8.2210138582677157
 20
-2.0152066141732283
 30
0
 11
8.2103199999999994
 21
-2.0054579133858268
 31
0
  0
LINE
  5
1F8
330
1B
100
AcDbEntity
  8
Edge.Cuts
  6
CONTINUOUS
100
AcDbLine
 10
8.2103199999999994
 20
-2.0054579133858268
 30
0
 11
8.1987723228346461
 21
-1.9967374803149607
 31
0
  0
LINE
  5
1F9
330
1B
100
AcDbEntity
  8
Edge.Cuts
  6
CONTINUOUS
100
AcDbLine
 10
8.1987723228346461
 20
-1.9967374803149607
 30
0
 11
8.1864692519685036
 21
-1.9891197637795275
 31
0
  0
LINE
  5
1FA
330
1B
100
AcDbEntity
  8
Edge.Cuts
  6
CONTINUOUS
100
AcDbLine
 10
8.1864692519685036
 20
-1.9891197637795275
 30
0
 11
8.1735157874015751
 21
-1.9826696850393701
 31
0
  0
LINE
  5
1FB
330
1B
100
AcDbEntity
  8
Edge.Cuts
  6
CONTINUOUS
100
AcDbLine
 10
8.1735157874015751
 20
-1.9826696850393701
 30
0
 11
8.160022440944882
 21
-1.9774423622047244
 31
0
  0
LINE
  5
1FC
330
1B
100
AcDbEntity
  8
Edge.Cuts
  6
CONTINUOUS
100
AcDbLine
 10
8.160022440944882
 20
-1.9774423622047244
 30
0
 11
8.1461043700787403
 21
-1.9734823228346456
 31
0
  0
LINE
  5
1FD
330
1B
100
AcDbEntity
  8
Edge.Cuts
  6
CONTINUOUS
100
AcDbLine
 10
8.1461043700787403
 20
-1.9734823228346456
 30
0
 11
8.1318802362204714
 21
-1.9708233464566929
 31
0
  0
LINE
  5
1FE
330
1B
100
AcDbEntity
  8
Edge.Cuts
  6
CONTINUOUS
100
AcDbLine
 10
8.1318802362204714
 20
-1.9708233464566929
 30
0
 11
8.1174714566929129
 21
-1.969488188976378
 31
0
  0
LINE
  5
1FF
330
1B
100
AcDbEntity
  8
Edge.Cuts
  6
CONTINUOUS
100
AcDbLine
 10
8.1174714566929129
 20
-1.969488188976378
 30
0
 11
8.1102362204724407
 21
-1.969488188976378
 31
0
  0
LINE
  5
200
330
1B
100
AcDbEntity
  8
Edge.Cuts
  6
CONTINUOUS
100
AcDbLine
 10
8.1102362204724407
 20
-1.969488188976378
 30
0
 11
2.9133858267716537
 21
-1.969488188976378
 31
0
  0
ENDSEC
  0
SECTION
  2
OBJECTS
  0
DICTIONARY
  5
21
330
0
100
AcDbDictionary
281
1
  3
ACAD_GROUP
350
201
  3
ACAD_LAYOUT
350
22
  3
ACAD_PLOTSTYLENAME
350
11
  0
DICTIONARY
  5
201
330
21
100
AcDbDictionary
281
1
  0
ACDBDICTIONARYWDFLT
  5
11
330
21
100
AcDbDictionary
281
1
  3
Normal
350
10
100
AcDbDictionaryWithDefault
340
10
  0
ACDBPLACEHOLDER
  5
10
330
11
  0
DICTIONARY
  5
22
330
21
100
AcDbDictionary
281
1
  3
Model
350
1E
  3
Layout1
350
1F
  3
Layout2
350
20
  0
LAYOUT
  5
1E
330
22
100
AcDbPlotSettings
  1

  2
none_device
  4
A3
  6

 40
0.0
 41
0.0
 42
0.0
 43
0.0
 44
420.0
 45
297.0
 46
0.0
 47
0.0
 48
0.0
 49
0.0
140
0.0
141
0.0
142
1.0
143
1.0
 70
1024
 72
1
 73
0
 74
5
  7

 75
16
 76
0
 77
2
 78
300
147
1.0
148
0.0
149
0.0
100
AcDbLayout
  1
Model
 70
1
 71
0
 10
0.0
 20
0.0
 11
420.0
 21
297.0
 12
0.0
 22
0.0
 32
0.0
 14
1e+20
 24
1e+20
 34
1e+20
 15
-1e+20
 25
-1e+20
 35
-1e+20
146
0.0
 13
0.0
 23
0.0
 33
0.0
 16
1.0
 26
0.0
 36
0.0
 17
0.0
 27
1.0
 37
0.0
 76
0
330
1B
  0
LAYOUT
  5
1F
330
22
100
AcDbPlotSettings
  1

  2
none_device
  4
A3
  6

 40
0.0
 41
0.0
 42
0.0
 43
0.0
 44
420.0
 45
297.0
 46
0.0
 47
0.0
 48
0.0
 49
0.0
140
0.0
141
0.0
142
1.0
143
1.0
 70
0
 72
1
 73
0
 74
5
  7

 75
16
 76
0
 77
2
 78
300
147
1.0
148
0.0
149
0.0
100
AcDbLayout
  1
Layout1
 70
1
 71
1
 10
0.0
 20
0.0
 11
420.0
 21
297.0
 12
0.0
 22
0.0
 32
0.0
 14
1e+20
 24
1e+20
 34
1e+20
 15
-1e+20
 25
-1e+20
 35
-1e+20
146
0.0
 13
0.0
 23
0.0
 33
0.0
 16
1.0
 26
0.0
 36
0.0
 17
0.0
 27
1.0
 37
0.0
 76
0
330
1C
  0
LAYOUT
  5
20
330
22
100
AcDbPlotSettings
  1

  2
none_device
  4
A3
  6

 40
0.0
 41
0.0
 42
0.0
 43
0.0
 44
420.0
 45
297.0
 46
0.0
 47
0.0
 48
0.0
 49
0.0
140
0.0
141
0.0
142
1.0
143
1.0
 70
0
 72
1
 73
0
 74
5
  7

 75
16
 76
0
 77
2
 78
300
147
1.0
148
0.0
149
0.0
100
AcDbLayout
  1
Layout2
 70
1
 71
2
 10
0.0
 20
0.0
 11
420.0
 21
297.0
 12
0.0
 22
0.0
 32
0.0
 14
1e+20
 24
1e+20
 34
1e+20
 15
-1e+20
 25
-1e+20
 35
-1e+20
146
0.0
 13
0.0
 23
0.0
 33
0.0
 16
1.0
 26
0.0
 36
0.0
 17
0.0
 27
1.0
 37
0.0
 76
0
330
1D
  0
ENDSEC
  0
EOF
