  0
SECTION
  2
HEADER
  9
$ACADVER
  1
AC1018
  9
$HANDSEED
  5
FFFFFFFF
  9
$ANGBASE
  50
0.0
  9
$ANGDIR
  70
1
  9
$MEASUREMENT
  70
0
  9
$INSUNITS
  70
1
  0
ENDSEC
  0
SECTION
  2
TABLES
  0
TABLE
  2
APPID
  5
1
330
0
100
AcDbSymbolTable
 70
1
  0
APPID
  5
2
330
1
100
AcDbSymbolTableRecord
100
AcDbRegAppTableRecord
  2
ACAD
 70
0
  0
ENDTAB
  0
TABLE
  2
LTYPE
  5
3
330
0
100
AcDbSymbolTable
 70
6
  0
LTYPE
  5
4
330
3
100
AcDbSymbolTableRecord
100
AcDbLinetypeTableRecord
  2
ByBlock
 70
0
  3

 72
65
 73
0
 40
0
  0
LTYPE
  5
5
330
3
100
AcDbSymbolTableRecord
100
AcDbLinetypeTableRecord
  2
ByLayer
 70
0
  3

 72
65
 73
0
 40
0
  0
LTYPE
  5
6
330
3
100
AcDbSymbolTableRecord
100
AcDbLinetypeTableRecord
  2
CONTINUOUS
 70
0
  3
Solid line
 72
65
 73
0
 40
0
  0
LTYPE
  5
7
330
3
100
AcDbSymbolTableRecord
100
AcDbLinetypeTableRecord
  2
DASHDOT
 70
0
  3
Dash Dot ____ _ ____ _
 72
65
 73
4
 40
2
 49
1.25
 74
0
 49
-0.25
 74
0
 49
0.25
 74
0
 49
-0.25
 74
0
  0
LTYPE
  5
8
330
3
100
AcDbSymbolTableRecord
100
AcDbLinetypeTableRecord
  2
DASHED
 70
0
  3
Dashed __ __ __ __ __
 72
65
 73
2
 40
0.75
 49
0.5
 74
0
 49
-0.25
 74
0
  0
LTYPE
  5
9
330
3
100
AcDbSymbolTableRecord
100
AcDbLinetypeTableRecord
  2
DOTTED
 70
0
  3
Dotted .  .  .  .
 72
65
 73
2
 40
0.2
 49
0.0
 74
0
 49
-0.2
 74
0
  0
ENDTAB
  0
TABLE
  2
STYLE
  5
A
330
0
100
AcDbSymbolTable
 70
4
  0
STYLE
  5
B
330
A
100
AcDbSymbolTableRecord
100
AcDbTextStyleTableRecord
  2
KICAD
 70
0
 40
0
 41
1
 42
1
 50
0
 71
0
  3
isocp.shx
  0
STYLE
  5
C
330
A
100
AcDbSymbolTableRecord
100
AcDbTextStyleTableRecord
  2
KICADB
 70
0
 40
0
 41
1
 42
1
 50
0
 71
0
  3
isocp.shx
  0
STYLE
  5
D
330
A
100
AcDbSymbolTableRecord
100
AcDbTextStyleTableRecord
  2
KICADI
 70
0
 40
0
 41
1
 42
1
 50
15
 71
0
  3
isocp.shx
  0
STYLE
  5
E
330
A
100
AcDbSymbolTableRecord
100
AcDbTextStyleTableRecord
  2
KICADBI
 70
0
 40
0
 41
1
 42
1
 50
15
 71
0
  3
isocp.shx
  0
ENDTAB
  0
TABLE
  2
LAYER
  5
F
330
0
100
AcDbSymbolTable
 70
3
  0
LAYER
  5
12
330
F
100
AcDbSymbolTableRecord
100
AcDbLayerTableRecord
  2
0
 70
0
 62
7
  6
CONTINUOUS
390
10
  0
LAYER
  5
13
330
F
100
AcDbSymbolTableRecord
100
AcDbLayerTableRecord
  2
User.Drawings
 70
0
 62
9
420
12763842
  6
CONTINUOUS
390
10
  0
LAYER
  5
14
330
F
100
AcDbSymbolTableRecord
100
AcDbLayerTableRecord
  2
Edge.Cuts
 70
0
 62
254
420
13685453
  6
CONTINUOUS
390
10
  0
ENDTAB
  0
TABLE
  2
VPORT
  5
15
330
0
100
AcDbSymbolTable
 70
0
  0
ENDTAB
  0
TABLE
  2
VIEW
  5
16
330
0
100
AcDbSymbolTable
 70
0
  0
ENDTAB
  0
TABLE
  2
UCS
  5
17
330
0
100
AcDbSymbolTable
 70
0
  0
ENDTAB
  0
TABLE
  2
DIMSTYLE
  5
18
330
0
100
AcDbSymbolTable
 70
1
100
AcDbDimStyleTable
 71
0
  0
DIMSTYLE
105
19
330
18
100
AcDbSymbolTableRecord
100
AcDbDimStyleTableRecord
  2
Standard
 70
0
  0
ENDTAB
  0
TABLE
  2
BLOCK_RECORD
  5
1A
330
0
100
AcDbSymbolTable
 70
3
  0
BLOCK_RECORD
  5
1B
330
1A
100
AcDbSymbolTableRecord
100
AcDbBlockTableRecord
  2
*Model_Space
340
1E
 70
0
280
1
281
0
  0
BLOCK_RECORD
  5
1C
330
1A
100
AcDbSymbolTableRecord
100
AcDbBlockTableRecord
  2
*Paper_Space
340
1F
 70
0
280
1
281
0
  0
BLOCK_RECORD
  5
1D
330
1A
100
AcDbSymbolTableRecord
100
AcDbBlockTableRecord
  2
*Paper_Space0
340
20
 70
0
280
1
281
0
  0
ENDTAB
  0
ENDSEC
  0
SECTION
  2
BLOCKS
  0
BLOCK
  5
23
330
1B
100
AcDbEntity
  8
0
100
AcDbBlockBegin
  2
*Model_Space
 70
0
 10
0.0
 20
0.0
 30
0.0
  3
*Model_Space
  1

  0
ENDBLK
  5
24
330
1B
100
AcDbEntity
  8
0
100
AcDbBlockEnd
  0
BLOCK
  5
25
330
1C
100
AcDbEntity
 67
1
  8
0
100
AcDbBlockBegin
  2
*Paper_Space
 70
0
 10
0.0
 20
0.0
 30
0.0
  3
*Paper_Space
  1

  0
ENDBLK
  5
26
330
1C
100
AcDbEntity
 67
1
  8
0
100
AcDbBlockEnd
  0
BLOCK
  5
27
330
1D
100
AcDbEntity
 67
1
  8
0
100
AcDbBlockBegin
  2
*Paper_Space0
 70
0
 10
0.0
 20
0.0
 30
0.0
  3
*Paper_Space0
  1

  0
ENDBLK
  5
28
330
1D
100
AcDbEntity
 67
1
  8
0
100
AcDbBlockEnd
  0
ENDSEC
  0
SECTION
  2
ENTITIES
  0
LINE
  5
29
330
1B
100
AcDbEntity
  8
User.Drawings
  6
CONTINUOUS
100
AcDbLine
 10
9.256124173228347
 20
-1.9666852755905511
 30
0
 11
9.2571895275590546
 21
-1.9677506299212597
 31
0
  0
LINE
  5
2A
330
1B
100
AcDbEntity
  8
User.Drawings
  6
CONTINUOUS
100
AcDbLine
 10
9.2571895275590546
 20
-1.9677506299212597
 30
0
 11
9.2571895275590546
 21
-1.9692572440944882
 31
0
  0
LINE
  5
2B
330
1B
100
AcDbEntity
  8
User.Drawings
  6
CONTINUOUS
100
AcDbLine
 10
9.2571895275590546
 20
-1.9692572440944882
 30
0
 11
9.256124173228347
 21
-1.9703225984251969
 31
0
  0
LINE
  5
2C
330
1B
100
AcDbEntity
  8
User.Drawings
  6
CONTINUOUS
100
AcDbLine
 10
9.256124173228347
 20
-1.9703225984251969
 30
0
 11
9.2553708661417318
 21
-1.9704724409448819
 31
0
  0
LINE
  5
2D
330
1B
100
AcDbEntity
  8
User.Drawings
  6
CONTINUOUS
100
AcDbLine
 10
9.2553708661417318
 20
-1.9704724409448819
 30
0
 11
9.2355274803149605
 21
-1.9704724409448819
 31
0
  0
LINE
  5
2E
330
1B
100
AcDbEntity
  8
User.Drawings
  6
CONTINUOUS
100
AcDbLine
 10
9.2355274803149605
 20
-1.9704724409448819
 30
0
 11
9.2571169685039365
 21
-2.0119455118110237
 31
0
  0
LINE
  5
2F
330
1B
100
AcDbEntity
  8
User.Drawings
  6
CONTINUOUS
100
AcDbLine
 10
9.2571169685039365
 20
-2.0119455118110237
 30
0
 11
9.2573319291338585
 21
-2.0126829133858268
 31
0
  0
LINE
  5
30
330
1B
100
AcDbEntity
  8
User.Drawings
  6
CONTINUOUS
100
AcDbLine
 10
9.2573319291338585
 20
-2.0126829133858268
 30
0
 11
9.2568788582677168
 21
-2.0141198031496064
 31
0
  0
LINE
  5
31
330
1B
100
AcDbEntity
  8
User.Drawings
  6
CONTINUOUS
100
AcDbLine
 10
9.2568788582677168
 20
-2.0141198031496064
 30
0
 11
9.2555424803149613
 21
-2.0148154724409451
 31
0
  0
LINE
  5
32
330
1B
100
AcDbEntity
  8
User.Drawings
  6
CONTINUOUS
100
AcDbLine
 10
9.2555424803149613
 20
-2.0148154724409451
 30
0
 11
9.2541055511811017
 21
-2.0143624409448817
 31
0
  0
LINE
  5
33
330
1B
100
AcDbEntity
  8
User.Drawings
  6
CONTINUOUS
100
AcDbLine
 10
9.2541055511811017
 20
-2.0143624409448817
 30
0
 11
9.2536248031496058
 21
-2.0137634251968501
 31
0
  0
LINE
  5
34
330
1B
100
AcDbEntity
  8
User.Drawings
  6
CONTINUOUS
100
AcDbLine
 10
9.2536248031496058
 20
-2.0137634251968501
 30
0
 11
9.234251968503937
 21
-1.9765485433070866
 31
0
  0
LINE
  5
35
330
1B
100
AcDbEntity
  8
User.Drawings
  6
CONTINUOUS
100
AcDbLine
 10
9.234251968503937
 20
-1.9765485433070866
 30
0
 11
9.234251968503937
 21
-5.306915984251968
 31
0
  0
LINE
  5
36
330
1B
100
AcDbEntity
  8
User.Drawings
  6
CONTINUOUS
100
AcDbLine
 10
9.234251968503937
 20
-5.306915984251968
 30
0
 11
9.2536248031496058
 21
-5.2697011417322832
 31
0
  0
LINE
  5
37
330
1B
100
AcDbEntity
  8
User.Drawings
  6
CONTINUOUS
100
AcDbLine
 10
9.2536248031496058
 20
-5.2697011417322832
 30
0
 11
9.2541055511811017
 21
-5.2691021259842516
 31
0
  0
LINE
  5
38
330
1B
100
AcDbEntity
  8
User.Drawings
  6
CONTINUOUS
100
AcDbLine
 10
9.2541055511811017
 20
-5.2691021259842516
 30
0
 11
9.2555424803149613
 21
-5.2686490944881887
 31
0
  0
LINE
  5
39
330
1B
100
AcDbEntity
  8
User.Drawings
  6
CONTINUOUS
100
AcDbLine
 10
9.2555424803149613
 20
-5.2686490944881887
 30
0
 11
9.2568788582677168
 21
-5.2693447637795279
 31
0
  0
LINE
  5
3A
330
1B
100
AcDbEntity
  8
User.Drawings
  6
CONTINUOUS
100
AcDbLine
 10
9.2568788582677168
 20
-5.2693447637795279
 30
0
 11
9.2573319291338585
 21
-5.270781653543307
 31
0
  0
LINE
  5
3B
330
1B
100
AcDbEntity
  8
User.Drawings
  6
CONTINUOUS
100
AcDbLine
 10
9.2573319291338585
 20
-5.270781653543307
 30
0
 11
9.2571169685039365
 21
-5.2715190551181097
 31
0
  0
LINE
  5
3C
330
1B
100
AcDbEntity
  8
User.Drawings
  6
CONTINUOUS
100
AcDbLine
 10
9.2571169685039365
 20
-5.2715190551181097
 30
0
 11
9.2355274803149605
 21
-5.3129921259842519
 31
0
  0
LINE
  5
3D
330
1B
100
AcDbEntity
  8
User.Drawings
  6
CONTINUOUS
100
AcDbLine
 10
9.2355274803149605
 20
-5.3129921259842519
 30
0
 11
9.2553708661417318
 21
-5.3129921259842519
 31
0
  0
LINE
  5
3E
330
1B
100
AcDbEntity
  8
User.Drawings
  6
CONTINUOUS
100
AcDbLine
 10
9.2553708661417318
 20
-5.3129921259842519
 30
0
 11
9.256124173228347
 21
-5.3131419685039365
 31
0
  0
LINE
  5
3F
330
1B
100
AcDbEntity
  8
User.Drawings
  6
CONTINUOUS
100
AcDbLine
 10
9.256124173228347
 20
-5.3131419685039365
 30
0
 11
9.2571895275590546
 21
-5.3142073228346458
 31
0
  0
LINE
  5
40
330
1B
100
AcDbEntity
  8
User.Drawings
  6
CONTINUOUS
100
AcDbLine
 10
9.2571895275590546
 20
-5.3142073228346458
 30
0
 11
9.2571895275590546
 21
-5.3157139370078736
 31
0
  0
LINE
  5
41
330
1B
100
AcDbEntity
  8
User.Drawings
  6
CONTINUOUS
100
AcDbLine
 10
9.2571895275590546
 20
-5.3157139370078736
 30
0
 11
9.256124173228347
 21
-5.316779291338583
 31
0
  0
LINE
  5
42
330
1B
100
AcDbEntity
  8
User.Drawings
  6
CONTINUOUS
100
AcDbLine
 10
9.256124173228347
 20
-5.316779291338583
 30
0
 11
9.2553708661417318
 21
-5.3169291338582676
 31
0
  0
LINE
  5
43
330
1B
100
AcDbEntity
  8
User.Drawings
  6
CONTINUOUS
100
AcDbLine
 10
9.2553708661417318
 20
-5.3169291338582676
 30
0
 11
8.28740157480315
 21
-5.3169291338582676
 31
0
  0
LINE
  5
44
330
1B
100
AcDbEntity
  8
User.Drawings
  6
CONTINUOUS
100
AcDbLine
 10
8.28740157480315
 20
-5.3169291338582676
 30
0
 11
8.2866482677165347
 21
-5.316779291338583
 31
0
  0
LINE
  5
45
330
1B
100
AcDbEntity
  8
User.Drawings
  6
CONTINUOUS
100
AcDbLine
 10
8.2866482677165347
 20
-5.316779291338583
 30
0
 11
8.2855829133858272
 21
-5.3157139370078736
 31
0
  0
LINE
  5
46
330
1B
100
AcDbEntity
  8
User.Drawings
  6
CONTINUOUS
100
AcDbLine
 10
8.2855829133858272
 20
-5.3157139370078736
 30
0
 11
8.2855829133858272
 21
-5.3142073228346458
 31
0
  0
LINE
  5
47
330
1B
100
AcDbEntity
  8
User.Drawings
  6
CONTINUOUS
100
AcDbLine
 10
8.2855829133858272
 20
-5.3142073228346458
 30
0
 11
8.2866482677165347
 21
-5.3131419685039365
 31
0
  0
LINE
  5
48
330
1B
100
AcDbEntity
  8
User.Drawings
  6
CONTINUOUS
100
AcDbLine
 10
8.2866482677165347
 20
-5.3131419685039365
 30
0
 11
8.28740157480315
 21
-5.3129921259842519
 31
0
  0
LINE
  5
49
330
1B
100
AcDbEntity
  8
User.Drawings
  6
CONTINUOUS
100
AcDbLine
 10
8.28740157480315
 20
-5.3129921259842519
 30
0
 11
9.2290394488188969
 21
-5.3129921259842519
 31
0
  0
LINE
  5
4A
330
1B
100
AcDbEntity
  8
User.Drawings
  6
CONTINUOUS
100
AcDbLine
 10
9.2290394488188969
 20
-5.3129921259842519
 30
0
 11
9.2074499212598422
 21
-5.2715190157480309
 31
0
  0
LINE
  5
4B
330
1B
100
AcDbEntity
  8
User.Drawings
  6
CONTINUOUS
100
AcDbLine
 10
9.2074499212598422
 20
-5.2715190157480309
 30
0
 11
9.2072349999999989
 21
-5.270781653543307
 31
0
  0
LINE
  5
4C
330
1B
100
AcDbEntity
  8
User.Drawings
  6
CONTINUOUS
100
AcDbLine
 10
9.2072349999999989
 20
-5.270781653543307
 30
0
 11
9.2076880708661424
 21
-5.2693447637795279
 31
0
  0
LINE
  5
4D
330
1B
100
AcDbEntity
  8
User.Drawings
  6
CONTINUOUS
100
AcDbLine
 10
9.2076880708661424
 20
-5.2693447637795279
 30
0
 11
9.2090244488188979
 21
-5.26864905511811
 31
0
  0
LINE
  5
4E
330
1B
100
AcDbEntity
  8
User.Drawings
  6
CONTINUOUS
100
AcDbLine
 10
9.2090244488188979
 20
-5.26864905511811
 30
0
 11
9.210461338582677
 21
-5.2691021259842516
 31
0
  0
LINE
  5
4F
330
1B
100
AcDbEntity
  8
User.Drawings
  6
CONTINUOUS
100
AcDbLine
 10
9.210461338582677
 20
-5.2691021259842516
 30
0
 11
9.2109421259842517
 21
-5.2697011417322832
 31
0
  0
LINE
  5
50
330
1B
100
AcDbEntity
  8
User.Drawings
  6
CONTINUOUS
100
AcDbLine
 10
9.2109421259842517
 20
-5.2697011417322832
 30
0
 11
9.2303149606299204
 21
-5.3069160236220467
 31
0
  0
LINE
  5
51
330
1B
100
AcDbEntity
  8
User.Drawings
  6
CONTINUOUS
100
AcDbLine
 10
9.2303149606299204
 20
-5.3069160236220467
 30
0
 11
9.2303149606299204
 21
-1.9765485039370079
 31
0
  0
LINE
  5
52
330
1B
100
AcDbEntity
  8
User.Drawings
  6
CONTINUOUS
100
AcDbLine
 10
9.2303149606299204
 20
-1.9765485039370079
 30
0
 11
9.2109421259842517
 21
-2.0137634251968501
 31
0
  0
LINE
  5
53
330
1B
100
AcDbEntity
  8
User.Drawings
  6
CONTINUOUS
100
AcDbLine
 10
9.2109421259842517
 20
-2.0137634251968501
 30
0
 11
9.210461338582677
 21
-2.0143624409448817
 31
0
  0
LINE
  5
54
330
1B
100
AcDbEntity
  8
User.Drawings
  6
CONTINUOUS
100
AcDbLine
 10
9.210461338582677
 20
-2.0143624409448817
 30
0
 11
9.2090244488188979
 21
-2.0148155118110234
 31
0
  0
LINE
  5
55
330
1B
100
AcDbEntity
  8
User.Drawings
  6
CONTINUOUS
100
AcDbLine
 10
9.2090244488188979
 20
-2.0148155118110234
 30
0
 11
9.2076880708661424
 21
-2.0141198031496064
 31
0
  0
LINE
  5
56
330
1B
100
AcDbEntity
  8
User.Drawings
  6
CONTINUOUS
100
AcDbLine
 10
9.2076880708661424
 20
-2.0141198031496064
 30
0
 11
9.2072349999999989
 21
-2.0126829133858268
 31
0
  0
LINE
  5
57
330
1B
100
AcDbEntity
  8
User.Drawings
  6
CONTINUOUS
100
AcDbLine
 10
9.2072349999999989
 20
-2.0126829133858268
 30
0
 11
9.2074499212598422
 21
-2.0119455511811024
 31
0
  0
LINE
  5
58
330
1B
100
AcDbEntity
  8
User.Drawings
  6
CONTINUOUS
100
AcDbLine
 10
9.2074499212598422
 20
-2.0119455511811024
 30
0
 11
9.2290394488188969
 21
-1.9704724409448819
 31
0
  0
LINE
  5
59
330
1B
100
AcDbEntity
  8
User.Drawings
  6
CONTINUOUS
100
AcDbLine
 10
9.2290394488188969
 20
-1.9704724409448819
 30
0
 11
8.1299212598425203
 21
-1.9704724409448819
 31
0
  0
LINE
  5
5A
330
1B
100
AcDbEntity
  8
User.Drawings
  6
CONTINUOUS
100
AcDbLine
 10
8.1299212598425203
 20
-1.9704724409448819
 30
0
 11
8.1291679527559051
 21
-1.9703225984251969
 31
0
  0
LINE
  5
5B
330
1B
100
AcDbEntity
  8
User.Drawings
  6
CONTINUOUS
100
AcDbLine
 10
8.1291679527559051
 20
-1.9703225984251969
 30
0
 11
8.1281025984251958
 21
-1.9692572440944882
 31
0
  0
LINE
  5
5C
330
1B
100
AcDbEntity
  8
User.Drawings
  6
CONTINUOUS
100
AcDbLine
 10
8.1281025984251958
 20
-1.9692572440944882
 30
0
 11
8.1281025984251958
 21
-1.9677506299212597
 31
0
  0
LINE
  5
5D
330
1B
100
AcDbEntity
  8
User.Drawings
  6
CONTINUOUS
100
AcDbLine
 10
8.1281025984251958
 20
-1.9677506299212597
 30
0
 11
8.1291679527559051
 21
-1.9666852755905511
 31
0
  0
LINE
  5
5E
330
1B
100
AcDbEntity
  8
User.Drawings
  6
CONTINUOUS
100
AcDbLine
 10
8.1291679527559051
 20
-1.9666852755905511
 30
0
 11
8.1299212598425203
 21
-1.9665354330708662
 31
0
  0
LINE
  5
5F
330
1B
100
AcDbEntity
  8
User.Drawings
  6
CONTINUOUS
100
AcDbLine
 10
8.1299212598425203
 20
-1.9665354330708662
 30
0
 11
9.2553708661417318
 21
-1.9665354330708662
 31
0
  0
LINE
  5
60
330
1B
100
AcDbEntity
  8
User.Drawings
  6
CONTINUOUS
100
AcDbLine
 10
9.2553708661417318
 20
-1.9665354330708662
 30
0
 11
9.256124173228347
 21
-1.9666852755905511
 31
0
  0
LINE
  5
61
330
1B
100
AcDbEntity
  8
User.Drawings
  6
CONTINUOUS
100
AcDbLine
 10
3.3070866141732282
 20
-3.0688976377952755
 30
0
 11
3.3217987007874017
 21
-3.0695778346456692
 31
0
  0
LINE
  5
62
330
1B
100
AcDbEntity
  8
User.Drawings
  6
CONTINUOUS
100
AcDbLine
 10
3.3217987007874017
 20
-3.0695778346456692
 30
0
 11
3.3363852755905512
 21
-3.0716125590551182
 31
0
  0
LINE
  5
63
330
1B
100
AcDbEntity
  8
User.Drawings
  6
CONTINUOUS
100
AcDbLine
 10
3.3363852755905512
 20
-3.0716125590551182
 30
0
 11
3.3507218503937009
 21
-3.0749844881889765
 31
0
  0
LINE
  5
64
330
1B
100
AcDbEntity
  8
User.Drawings
  6
CONTINUOUS
100
AcDbLine
 10
3.3507218503937009
 20
-3.0749844881889765
 30
0
 11
3.3646861811023623
 21
-3.0796648818897636
 31
0
  0
LINE
  5
65
330
1B
100
AcDbEntity
  8
User.Drawings
  6
CONTINUOUS
100
AcDbLine
 10
3.3646861811023623
 20
-3.0796648818897636
 30
0
 11
3.3781590551181102
 21
-3.0856137401574801
 31
0
  0
LINE
  5
66
330
1B
100
AcDbEntity
  8
User.Drawings
  6
CONTINUOUS
100
AcDbLine
 10
3.3781590551181102
 20
-3.0856137401574801
 30
0
 11
3.3910255905511812
 21
-3.0927803543307086
 31
0
  0
LINE
  5
67
330
1B
100
AcDbEntity
  8
User.Drawings
  6
CONTINUOUS
100
AcDbLine
 10
3.3910255905511812
 20
-3.0927803543307086
 30
0
 11
3.4031759842519684
 21
-3.1011035433070866
 31
0
  0
LINE
  5
68
330
1B
100
AcDbEntity
  8
User.Drawings
  6
CONTINUOUS
100
AcDbLine
 10
3.4031759842519684
 20
-3.1011035433070866
 30
0
 11
3.4145065748031493
 21
-3.1105123622047244
 31
0
  0
LINE
  5
69
330
1B
100
AcDbEntity
  8
User.Drawings
  6
CONTINUOUS
100
AcDbLine
 10
3.4145065748031493
 20
-3.1105123622047244
 30
0
 11
3.4249207086614173
 21
-3.1209264960629919
 31
0
  0
LINE
  5
6A
330
1B
100
AcDbEntity
  8
User.Drawings
  6
CONTINUOUS
100
AcDbLine
 10
3.4249207086614173
 20
-3.1209264960629919
 30
0
 11
3.4343295275590551
 21
-3.1322570866141732
 31
0
  0
LINE
  5
6B
330
1B
100
AcDbEntity
  8
User.Drawings
  6
CONTINUOUS
100
AcDbLine
 10
3.4343295275590551
 20
-3.1322570866141732
 30
0
 11
3.442652716535433
 21
-3.1444074803149604
 31
0
  0
LINE
  5
6C
330
1B
100
AcDbEntity
  8
User.Drawings
  6
CONTINUOUS
100
AcDbLine
 10
3.442652716535433
 20
-3.1444074803149604
 30
0
 11
3.4498193307086615
 21
-3.1572740157480315
 31
0
  0
LINE
  5
6D
330
1B
100
AcDbEntity
  8
User.Drawings
  6
CONTINUOUS
100
AcDbLine
 10
3.4498193307086615
 20
-3.1572740157480315
 30
0
 11
3.4557681889763781
 21
-3.1707468897637794
 31
0
  0
LINE
  5
6E
330
1B
100
AcDbEntity
  8
User.Drawings
  6
CONTINUOUS
100
AcDbLine
 10
3.4557681889763781
 20
-3.1707468897637794
 30
0
 11
3.4604485826771652
 21
-3.1847112204724408
 31
0
  0
LINE
  5
6F
330
1B
100
AcDbEntity
  8
User.Drawings
  6
CONTINUOUS
100
AcDbLine
 10
3.4604485826771652
 20
-3.1847112204724408
 30
0
 11
3.4638205118110235
 21
-3.1990477952755905
 31
0
  0
LINE
  5
70
330
1B
100
AcDbEntity
  8
User.Drawings
  6
CONTINUOUS
100
AcDbLine
 10
3.4638205118110235
 20
-3.1990477952755905
 30
0
 11
3.4658552362204724
 21
-3.21363437007874
 31
0
  0
LINE
  5
71
330
1B
100
AcDbEntity
  8
User.Drawings
  6
CONTINUOUS
100
AcDbLine
 10
3.4658552362204724
 20
-3.21363437007874
 30
0
 11
3.4665354330708662
 21
-3.2283464566929134
 31
0
  0
LINE
  5
72
330
1B
100
AcDbEntity
  8
User.Drawings
  6
CONTINUOUS
100
AcDbLine
 10
3.4665354330708662
 20
-3.2283464566929134
 30
0
 11
3.4665354330708662
 21
-4.5275590551181102
 31
0
  0
LINE
  5
73
330
1B
100
AcDbEntity
  8
User.Drawings
  6
CONTINUOUS
100
AcDbLine
 10
3.4665354330708662
 20
-4.5275590551181102
 30
0
 11
3.4658552362204724
 21
-4.5422711417322832
 31
0
  0
LINE
  5
74
330
1B
100
AcDbEntity
  8
User.Drawings
  6
CONTINUOUS
100
AcDbLine
 10
3.4658552362204724
 20
-4.5422711417322832
 30
0
 11
3.4638205118110235
 21
-4.5568577165354327
 31
0
  0
LINE
  5
75
330
1B
100
AcDbEntity
  8
User.Drawings
  6
CONTINUOUS
100
AcDbLine
 10
3.4638205118110235
 20
-4.5568577165354327
 30
0
 11
3.4604485826771652
 21
-4.5711942913385828
 31
0
  0
LINE
  5
76
330
1B
100
AcDbEntity
  8
User.Drawings
  6
CONTINUOUS
100
AcDbLine
 10
3.4604485826771652
 20
-4.5711942913385828
 30
0
 11
3.4557681889763781
 21
-4.5851586220472438
 31
0
  0
LINE
  5
77
330
1B
100
AcDbEntity
  8
User.Drawings
  6
CONTINUOUS
100
AcDbLine
 10
3.4557681889763781
 20
-4.5851586220472438
 30
0
 11
3.4498193307086615
 21
-4.5986314960629917
 31
0
  0
LINE
  5
78
330
1B
100
AcDbEntity
  8
User.Drawings
  6
CONTINUOUS
100
AcDbLine
 10
3.4498193307086615
 20
-4.5986314960629917
 30
0
 11
3.4466445275590551
 21
-4.6043313385826767
 31
0
  0
LINE
  5
79
330
1B
100
AcDbEntity
  8
User.Drawings
  6
CONTINUOUS
100
AcDbLine
 10
3.4466445275590551
 20
-4.6043313385826767
 30
0
 11
7.5769771653543305
 21
-4.6043307086614176
 31
0
  0
LINE
  5
7A
330
1B
100
AcDbEntity
  8
User.Drawings
  6
CONTINUOUS
100
AcDbLine
 10
7.5769771653543305
 20
-4.6043307086614176
 30
0
 11
7.5738027165354325
 21
-4.5986314960629917
 31
0
  0
LINE
  5
7B
330
1B
100
AcDbEntity
  8
User.Drawings
  6
CONTINUOUS
100
AcDbLine
 10
7.5738027165354325
 20
-4.5986314960629917
 30
0
 11
7.5678538582677159
 21
-4.5851586220472438
 31
0
  0
LINE
  5
7C
330
1B
100
AcDbEntity
  8
User.Drawings
  6
CONTINUOUS
100
AcDbLine
 10
7.5678538582677159
 20
-4.5851586220472438
 30
0
 11
7.5631734645669288
 21
-4.5711942913385828
 31
0
  0
LINE
  5
7D
330
1B
100
AcDbEntity
  8
User.Drawings
  6
CONTINUOUS
100
AcDbLine
 10
7.5631734645669288
 20
-4.5711942913385828
 30
0
 11
7.5598015354330705
 21
-4.5568577165354327
 31
0
  0
LINE
  5
7E
330
1B
100
AcDbEntity
  8
User.Drawings
  6
CONTINUOUS
100
AcDbLine
 10
7.5598015354330705
 20
-4.5568577165354327
 30
0
 11
7.5577668110236216
 21
-4.5422711417322832
 31
0
  0
LINE
  5
7F
330
1B
100
AcDbEntity
  8
User.Drawings
  6
CONTINUOUS
100
AcDbLine
 10
7.5577668110236216
 20
-4.5422711417322832
 30
0
 11
7.5570866141732278
 21
-4.5275590551181102
 31
0
  0
LINE
  5
80
330
1B
100
AcDbEntity
  8
User.Drawings
  6
CONTINUOUS
100
AcDbLine
 10
7.5570866141732278
 20
-4.5275590551181102
 30
0
 11
7.5570866141732278
 21
-3.2283464566929134
 31
0
  0
LINE
  5
81
330
1B
100
AcDbEntity
  8
User.Drawings
  6
CONTINUOUS
100
AcDbLine
 10
7.5570866141732278
 20
-3.2283464566929134
 30
0
 11
7.5577668110236216
 21
-3.21363437007874
 31
0
  0
LINE
  5
82
330
1B
100
AcDbEntity
  8
User.Drawings
  6
CONTINUOUS
100
AcDbLine
 10
7.5577668110236216
 20
-3.21363437007874
 30
0
 11
7.5598015354330705
 21
-3.1990477952755905
 31
0
  0
LINE
  5
83
330
1B
100
AcDbEntity
  8
User.Drawings
  6
CONTINUOUS
100
AcDbLine
 10
7.5598015354330705
 20
-3.1990477952755905
 30
0
 11
7.5631734645669288
 21
-3.1847112204724408
 31
0
  0
LINE
  5
84
330
1B
100
AcDbEntity
  8
User.Drawings
  6
CONTINUOUS
100
AcDbLine
 10
7.5631734645669288
 20
-3.1847112204724408
 30
0
 11
7.5678538582677159
 21
-3.1707468897637794
 31
0
  0
LINE
  5
85
330
1B
100
AcDbEntity
  8
User.Drawings
  6
CONTINUOUS
100
AcDbLine
 10
7.5678538582677159
 20
-3.1707468897637794
 30
0
 11
7.5738027165354325
 21
-3.1572740157480315
 31
0
  0
LINE
  5
86
330
1B
100
AcDbEntity
  8
User.Drawings
  6
CONTINUOUS
100
AcDbLine
 10
7.5738027165354325
 20
-3.1572740157480315
 30
0
 11
7.580969330708661
 21
-3.1444074803149604
 31
0
  0
LINE
  5
87
330
1B
100
AcDbEntity
  8
User.Drawings
  6
CONTINUOUS
100
AcDbLine
 10
7.580969330708661
 20
-3.1444074803149604
 30
0
 11
7.5892925196850394
 21
-3.1322570866141732
 31
0
  0
LINE
  5
88
330
1B
100
AcDbEntity
  8
User.Drawings
  6
CONTINUOUS
100
AcDbLine
 10
7.5892925196850394
 20
-3.1322570866141732
 30
0
 11
7.5987013385826767
 21
-3.1209264960629919
 31
0
  0
LINE
  5
89
330
1B
100
AcDbEntity
  8
User.Drawings
  6
CONTINUOUS
100
AcDbLine
 10
7.5987013385826767
 20
-3.1209264960629919
 30
0
 11
7.6091154724409451
 21
-3.1105123622047244
 31
0
  0
LINE
  5
8A
330
1B
100
AcDbEntity
  8
User.Drawings
  6
CONTINUOUS
100
AcDbLine
 10
7.6091154724409451
 20
-3.1105123622047244
 30
0
 11
7.6204460629921256
 21
-3.1011035433070866
 31
0
  0
LINE
  5
8B
330
1B
100
AcDbEntity
  8
User.Drawings
  6
CONTINUOUS
100
AcDbLine
 10
7.6204460629921256
 20
-3.1011035433070866
 30
0
 11
7.6325964566929132
 21
-3.0927803543307086
 31
0
  0
LINE
  5
8C
330
1B
100
AcDbEntity
  8
User.Drawings
  6
CONTINUOUS
100
AcDbLine
 10
7.6325964566929132
 20
-3.0927803543307086
 30
0
 11
7.6454629921259842
 21
-3.0856137401574801
 31
0
  0
LINE
  5
8D
330
1B
100
AcDbEntity
  8
User.Drawings
  6
CONTINUOUS
100
AcDbLine
 10
7.6454629921259842
 20
-3.0856137401574801
 30
0
 11
7.6589358661417322
 21
-3.0796648818897636
 31
0
  0
LINE
  5
8E
330
1B
100
AcDbEntity
  8
User.Drawings
  6
CONTINUOUS
100
AcDbLine
 10
7.6589358661417322
 20
-3.0796648818897636
 30
0
 11
7.6729001968503932
 21
-3.0749844881889765
 31
0
  0
LINE
  5
8F
330
1B
100
AcDbEntity
  8
User.Drawings
  6
CONTINUOUS
100
AcDbLine
 10
7.6729001968503932
 20
-3.0749844881889765
 30
0
 11
7.6872367716535432
 21
-3.0716125590551182
 31
0
  0
LINE
  5
90
330
1B
100
AcDbEntity
  8
User.Drawings
  6
CONTINUOUS
100
AcDbLine
 10
7.6872367716535432
 20
-3.0716125590551182
 30
0
 11
7.7018233464566928
 21
-3.0695778346456692
 31
0
  0
LINE
  5
91
330
1B
100
AcDbEntity
  8
User.Drawings
  6
CONTINUOUS
100
AcDbLine
 10
7.7018233464566928
 20
-3.0695778346456692
 30
0
 11
7.7165354330708658
 21
-3.0688976377952755
 31
0
  0
LINE
  5
92
330
1B
100
AcDbEntity
  8
User.Drawings
  6
CONTINUOUS
100
AcDbLine
 10
7.7165354330708658
 20
-3.0688976377952755
 30
0
 11
8.2677165354330704
 21
-3.0688976377952755
 31
0
  0
LINE
  5
93
330
1B
100
AcDbEntity
  8
User.Drawings
  6
CONTINUOUS
100
AcDbLine
 10
8.2677165354330704
 20
-3.0688976377952755
 30
0
 11
8.2684698425196856
 21
-3.0690474803149606
 31
0
  0
LINE
  5
94
330
1B
100
AcDbEntity
  8
User.Drawings
  6
CONTINUOUS
100
AcDbLine
 10
8.2684698425196856
 20
-3.0690474803149606
 30
0
 11
8.2695351968503932
 21
-3.0701128346456694
 31
0
  0
LINE
  5
95
330
1B
100
AcDbEntity
  8
User.Drawings
  6
CONTINUOUS
100
AcDbLine
 10
8.2695351968503932
 20
-3.0701128346456694
 30
0
 11
8.2695351968503932
 21
-3.0716194488188977
 31
0
  0
LINE
  5
96
330
1B
100
AcDbEntity
  8
User.Drawings
  6
CONTINUOUS
100
AcDbLine
 10
8.2695351968503932
 20
-3.0716194488188977
 30
0
 11
8.2684698425196856
 21
-3.0726848031496061
 31
0
  0
LINE
  5
97
330
1B
100
AcDbEntity
  8
User.Drawings
  6
CONTINUOUS
100
AcDbLine
 10
8.2684698425196856
 20
-3.0726848031496061
 30
0
 11
8.2677165354330704
 21
-3.0728346456692912
 31
0
  0
LINE
  5
98
330
1B
100
AcDbEntity
  8
User.Drawings
  6
CONTINUOUS
100
AcDbLine
 10
8.2677165354330704
 20
-3.0728346456692912
 30
0
 11
7.7165354330708658
 21
-3.0728346456692912
 31
0
  0
LINE
  5
99
330
1B
100
AcDbEntity
  8
User.Drawings
  6
CONTINUOUS
100
AcDbLine
 10
7.7165354330708658
 20
-3.0728346456692912
 30
0
 11
7.7093457086614174
 21
-3.0728346456692912
 31
0
  0
LINE
  5
9A
330
1B
100
AcDbEntity
  8
User.Drawings
  6
CONTINUOUS
100
AcDbLine
 10
7.7093457086614174
 20
-3.0728346456692912
 30
0
 11
7.6950275590551183
 21
-3.0741614173228347
 31
0
  0
LINE
  5
9B
330
1B
100
AcDbEntity
  8
User.Drawings
  6
CONTINUOUS
100
AcDbLine
 10
7.6950275590551183
 20
-3.0741614173228347
 30
0
 11
7.6808928740157478
 21
-3.0768036614173226
 31
0
  0
LINE
  5
9C
330
1B
100
AcDbEntity
  8
User.Drawings
  6
CONTINUOUS
100
AcDbLine
 10
7.6808928740157478
 20
-3.0768036614173226
 30
0
 11
7.6670623228346457
 21
-3.0807387795275591
 31
0
  0
LINE
  5
9D
330
1B
100
AcDbEntity
  8
User.Drawings
  6
CONTINUOUS
100
AcDbLine
 10
7.6670623228346457
 20
-3.0807387795275591
 30
0
 11
7.6536538582677167
 21
-3.0859332677165354
 31
0
  0
LINE
  5
9E
330
1B
100
AcDbEntity
  8
User.Drawings
  6
CONTINUOUS
100
AcDbLine
 10
7.6536538582677167
 20
-3.0859332677165354
 30
0
 11
7.6407818503937008
 21
-3.0923427559055119
 31
0
  0
LINE
  5
9F
330
1B
100
AcDbEntity
  8
User.Drawings
  6
CONTINUOUS
100
AcDbLine
 10
7.6407818503937008
 20
-3.0923427559055119
 30
0
 11
7.6285561811023621
 21
-3.099912559055118
 31
0
  0
LINE
  5
A0
330
1B
100
AcDbEntity
  8
User.Drawings
  6
CONTINUOUS
100
AcDbLine
 10
7.6285561811023621
 20
-3.099912559055118
 30
0
 11
7.6170811023622047
 21
-3.108578149606299
 31
0
  0
LINE
  5
A1
330
1B
100
AcDbEntity
  8
User.Drawings
  6
CONTINUOUS
100
AcDbLine
 10
7.6170811023622047
 20
-3.108578149606299
 30
0
 11
7.6064545275590554
 21
-3.1182655511811022
 31
0
  0
LINE
  5
A2
330
1B
100
AcDbEntity
  8
User.Drawings
  6
CONTINUOUS
100
AcDbLine
 10
7.6064545275590554
 20
-3.1182655511811022
 30
0
 11
7.5967671259842522
 21
-3.1288921259842519
 31
0
  0
LINE
  5
A3
330
1B
100
AcDbEntity
  8
User.Drawings
  6
CONTINUOUS
100
AcDbLine
 10
7.5967671259842522
 20
-3.1288921259842519
 30
0
 11
7.5881015354330703
 21
-3.1403672047244093
 31
0
  0
LINE
  5
A4
330
1B
100
AcDbEntity
  8
User.Drawings
  6
CONTINUOUS
100
AcDbLine
 10
7.5881015354330703
 20
-3.1403672047244093
 30
0
 11
7.5805317322834647
 21
-3.1525928740157481
 31
0
  0
LINE
  5
A5
330
1B
100
AcDbEntity
  8
User.Drawings
  6
CONTINUOUS
100
AcDbLine
 10
7.5805317322834647
 20
-3.1525928740157481
 30
0
 11
7.5741222440944878
 21
-3.1654648818897635
 31
0
  0
LINE
  5
A6
330
1B
100
AcDbEntity
  8
User.Drawings
  6
CONTINUOUS
100
AcDbLine
 10
7.5741222440944878
 20
-3.1654648818897635
 30
0
 11
7.5689277559055119
 21
-3.1788733464566929
 31
0
  0
LINE
  5
A7
330
1B
100
AcDbEntity
  8
User.Drawings
  6
CONTINUOUS
100
AcDbLine
 10
7.5689277559055119
 20
-3.1788733464566929
 30
0
 11
7.5649926377952754
 21
-3.1927038976377951
 31
0
  0
LINE
  5
A8
330
1B
100
AcDbEntity
  8
User.Drawings
  6
CONTINUOUS
100
AcDbLine
 10
7.5649926377952754
 20
-3.1927038976377951
 30
0
 11
7.562350393700787
 21
-3.2068385826771655
 31
0
  0
LINE
  5
A9
330
1B
100
AcDbEntity
  8
User.Drawings
  6
CONTINUOUS
100
AcDbLine
 10
7.562350393700787
 20
-3.2068385826771655
 30
0
 11
7.5610236220472435
 21
-3.2211567322834647
 31
0
  0
LINE
  5
AA
330
1B
100
AcDbEntity
  8
User.Drawings
  6
CONTINUOUS
100
AcDbLine
 10
7.5610236220472435
 20
-3.2211567322834647
 30
0
 11
7.5610236220472435
 21
-3.2283464566929134
 31
0
  0
LINE
  5
AB
330
1B
100
AcDbEntity
  8
User.Drawings
  6
CONTINUOUS
100
AcDbLine
 10
7.5610236220472435
 20
-3.2283464566929134
 30
0
 11
7.5610236220472435
 21
-4.5275590551181102
 31
0
  0
LINE
  5
AC
330
1B
100
AcDbEntity
  8
User.Drawings
  6
CONTINUOUS
100
AcDbLine
 10
7.5610236220472435
 20
-4.5275590551181102
 30
0
 11
7.5610236220472435
 21
-4.5347487795275594
 31
0
  0
LINE
  5
AD
330
1B
100
AcDbEntity
  8
User.Drawings
  6
CONTINUOUS
100
AcDbLine
 10
7.5610236220472435
 20
-4.5347487795275594
 30
0
 11
7.562350393700787
 21
-4.5490669291338586
 31
0
  0
LINE
  5
AE
330
1B
100
AcDbEntity
  8
User.Drawings
  6
CONTINUOUS
100
AcDbLine
 10
7.562350393700787
 20
-4.5490669291338586
 30
0
 11
7.5649926377952754
 21
-4.5632016141732281
 31
0
  0
LINE
  5
AF
330
1B
100
AcDbEntity
  8
User.Drawings
  6
CONTINUOUS
100
AcDbLine
 10
7.5649926377952754
 20
-4.5632016141732281
 30
0
 11
7.5689277559055119
 21
-4.5770321653543302
 31
0
  0
LINE
  5
B0
330
1B
100
AcDbEntity
  8
User.Drawings
  6
CONTINUOUS
100
AcDbLine
 10
7.5689277559055119
 20
-4.5770321653543302
 30
0
 11
7.5741222440944878
 21
-4.5904406299212601
 31
0
  0
LINE
  5
B1
330
1B
100
AcDbEntity
  8
User.Drawings
  6
CONTINUOUS
100
AcDbLine
 10
7.5741222440944878
 20
-4.5904406299212601
 30
0
 11
7.5805317322834647
 21
-4.6033126377952751
 31
0
  0
LINE
  5
B2
330
1B
100
AcDbEntity
  8
User.Drawings
  6
CONTINUOUS
100
AcDbLine
 10
7.5805317322834647
 20
-4.6033126377952751
 30
0
 11
7.5811620866141727
 21
-4.6043307086614176
 31
0
  0
LINE
  5
B3
330
1B
100
AcDbEntity
  8
User.Drawings
  6
CONTINUOUS
100
AcDbLine
 10
7.5811620866141727
 20
-4.6043307086614176
 30
0
 11
7.6921499606299211
 21
-4.6043307086614176
 31
0
  0
LINE
  5
B4
330
1B
100
AcDbEntity
  8
User.Drawings
  6
CONTINUOUS
100
AcDbLine
 10
7.6921499606299211
 20
-4.6043307086614176
 30
0
 11
7.6856495669291336
 21
-4.6021241338582675
 31
0
  0
LINE
  5
B5
330
1B
100
AcDbEntity
  8
User.Drawings
  6
CONTINUOUS
100
AcDbLine
 10
7.6856495669291336
 20
-4.6021241338582675
 30
0
 11
7.6761811023622046
 21
-4.5974548425196851
 31
0
  0
LINE
  5
B6
330
1B
100
AcDbEntity
  8
User.Drawings
  6
CONTINUOUS
100
AcDbLine
 10
7.6761811023622046
 20
-4.5974548425196851
 30
0
 11
7.6674031102362203
 21
-4.5915895669291338
 31
0
  0
LINE
  5
B7
330
1B
100
AcDbEntity
  8
User.Drawings
  6
CONTINUOUS
100
AcDbLine
 10
7.6674031102362203
 20
-4.5915895669291338
 30
0
 11
7.659465787401575
 21
-4.5846287007874018
 31
0
  0
LINE
  5
B8
330
1B
100
AcDbEntity
  8
User.Drawings
  6
CONTINUOUS
100
AcDbLine
 10
7.659465787401575
 20
-4.5846287007874018
 30
0
 11
7.6525049212598422
 21
-4.5766913779527556
 31
0
  0
LINE
  5
B9
330
1B
100
AcDbEntity
  8
User.Drawings
  6
CONTINUOUS
100
AcDbLine
 10
7.6525049212598422
 20
-4.5766913779527556
 30
0
 11
7.6466396456692909
 21
-4.5679133858267713
 31
0
  0
LINE
  5
BA
330
1B
100
AcDbEntity
  8
User.Drawings
  6
CONTINUOUS
100
AcDbLine
 10
7.6466396456692909
 20
-4.5679133858267713
 30
0
 11
7.6419703543307085
 21
-4.5584449212598424
 31
0
  0
LINE
  5
BB
330
1B
100
AcDbEntity
  8
User.Drawings
  6
CONTINUOUS
100
AcDbLine
 10
7.6419703543307085
 20
-4.5584449212598424
 30
0
 11
7.6385768503937008
 21
-4.5484479921259844
 31
0
  0
LINE
  5
BC
330
1B
100
AcDbEntity
  8
User.Drawings
  6
CONTINUOUS
100
AcDbLine
 10
7.6385768503937008
 20
-4.5484479921259844
 30
0
 11
7.6365172440944882
 21
-4.5380936614173226
 31
0
  0
LINE
  5
BD
330
1B
100
AcDbEntity
  8
User.Drawings
  6
CONTINUOUS
100
AcDbLine
 10
7.6365172440944882
 20
-4.5380936614173226
 30
0
 11
7.6358267716535435
 21
-4.5275590551181102
 31
0
  0
LINE
  5
BE
330
1B
100
AcDbEntity
  8
User.Drawings
  6
CONTINUOUS
100
AcDbLine
 10
7.6358267716535435
 20
-4.5275590551181102
 30
0
 11
7.6358267716535435
 21
-3.2283464566929134
 31
0
  0
LINE
  5
BF
330
1B
100
AcDbEntity
  8
User.Drawings
  6
CONTINUOUS
100
AcDbLine
 10
7.6358267716535435
 20
-3.2283464566929134
 30
0
 11
7.6365172440944882
 21
-3.2178118503937005
 31
0
  0
LINE
  5
C0
330
1B
100
AcDbEntity
  8
User.Drawings
  6
CONTINUOUS
100
AcDbLine
 10
7.6365172440944882
 20
-3.2178118503937005
 30
0
 11
7.6385768503937008
 21
-3.2074575196850392
 31
0
  0
LINE
  5
C1
330
1B
100
AcDbEntity
  8
User.Drawings
  6
CONTINUOUS
100
AcDbLine
 10
7.6385768503937008
 20
-3.2074575196850392
 30
0
 11
7.6419703543307085
 21
-3.1974605905511808
 31
0
  0
LINE
  5
C2
330
1B
100
AcDbEntity
  8
User.Drawings
  6
CONTINUOUS
100
AcDbLine
 10
7.6419703543307085
 20
-3.1974605905511808
 30
0
 11
7.6466396456692909
 21
-3.1879921259842519
 31
0
  0
LINE
  5
C3
330
1B
100
AcDbEntity
  8
User.Drawings
  6
CONTINUOUS
100
AcDbLine
 10
7.6466396456692909
 20
-3.1879921259842519
 30
0
 11
7.6525049212598422
 21
-3.1792141338582676
 31
0
  0
LINE
  5
C4
330
1B
100
AcDbEntity
  8
User.Drawings
  6
CONTINUOUS
100
AcDbLine
 10
7.6525049212598422
 20
-3.1792141338582676
 30
0
 11
7.659465787401575
 21
-3.1712768110236218
 31
0
  0
LINE
  5
C5
330
1B
100
AcDbEntity
  8
User.Drawings
  6
CONTINUOUS
100
AcDbLine
 10
7.659465787401575
 20
-3.1712768110236218
 30
0
 11
7.6674031102362203
 21
-3.1643159448818898
 31
0
  0
LINE
  5
C6
330
1B
100
AcDbEntity
  8
User.Drawings
  6
CONTINUOUS
100
AcDbLine
 10
7.6674031102362203
 20
-3.1643159448818898
 30
0
 11
7.6761811023622046
 21
-3.1584506692913386
 31
0
  0
LINE
  5
C7
330
1B
100
AcDbEntity
  8
User.Drawings
  6
CONTINUOUS
100
AcDbLine
 10
7.6761811023622046
 20
-3.1584506692913386
 30
0
 11
7.6856495669291336
 21
-3.1537813779527557
 31
0
  0
LINE
  5
C8
330
1B
100
AcDbEntity
  8
User.Drawings
  6
CONTINUOUS
100
AcDbLine
 10
7.6856495669291336
 20
-3.1537813779527557
 30
0
 11
7.6956464960629916
 21
-3.150387874015748
 31
0
  0
LINE
  5
C9
330
1B
100
AcDbEntity
  8
User.Drawings
  6
CONTINUOUS
100
AcDbLine
 10
7.6956464960629916
 20
-3.150387874015748
 30
0
 11
7.7060008267716533
 21
-3.1483282677165354
 31
0
  0
LINE
  5
CA
330
1B
100
AcDbEntity
  8
User.Drawings
  6
CONTINUOUS
100
AcDbLine
 10
7.7060008267716533
 20
-3.1483282677165354
 30
0
 11
7.7165354330708658
 21
-3.1476377952755903
 31
0
  0
LINE
  5
CB
330
1B
100
AcDbEntity
  8
User.Drawings
  6
CONTINUOUS
100
AcDbLine
 10
7.7165354330708658
 20
-3.1476377952755903
 30
0
 11
8.2677165354330704
 21
-3.1476377952755903
 31
0
  0
LINE
  5
CC
330
1B
100
AcDbEntity
  8
User.Drawings
  6
CONTINUOUS
100
AcDbLine
 10
8.2677165354330704
 20
-3.1476377952755903
 30
0
 11
8.2684698425196856
 21
-3.1477876377952754
 31
0
  0
LINE
  5
CD
330
1B
100
AcDbEntity
  8
User.Drawings
  6
CONTINUOUS
100
AcDbLine
 10
8.2684698425196856
 20
-3.1477876377952754
 30
0
 11
8.2695351968503932
 21
-3.1488529921259842
 31
0
  0
LINE
  5
CE
330
1B
100
AcDbEntity
  8
User.Drawings
  6
CONTINUOUS
100
AcDbLine
 10
8.2695351968503932
 20
-3.1488529921259842
 30
0
 11
8.2695351968503932
 21
-3.1503596062992125
 31
0
  0
LINE
  5
CF
330
1B
100
AcDbEntity
  8
User.Drawings
  6
CONTINUOUS
100
AcDbLine
 10
8.2695351968503932
 20
-3.1503596062992125
 30
0
 11
8.2684698425196856
 21
-3.1514249606299214
 31
0
  0
LINE
  5
D0
330
1B
100
AcDbEntity
  8
User.Drawings
  6
CONTINUOUS
100
AcDbLine
 10
8.2684698425196856
 20
-3.1514249606299214
 30
0
 11
8.2677165354330704
 21
-3.151574803149606
 31
0
  0
LINE
  5
D1
330
1B
100
AcDbEntity
  8
User.Drawings
  6
CONTINUOUS
100
AcDbLine
 10
8.2677165354330704
 20
-3.151574803149606
 30
0
 11
7.7165354330708658
 21
-3.151574803149606
 31
0
  0
LINE
  5
D2
330
1B
100
AcDbEntity
  8
User.Drawings
  6
CONTINUOUS
100
AcDbLine
 10
7.7165354330708658
 20
-3.151574803149606
 30
0
 11
7.7115035433070869
 21
-3.151574803149606
 31
0
  0
LINE
  5
D3
330
1B
100
AcDbEntity
  8
User.Drawings
  6
CONTINUOUS
100
AcDbLine
 10
7.7115035433070869
 20
-3.151574803149606
 30
0
 11
7.7015258661417318
 21
-3.1528883858267718
 31
0
  0
LINE
  5
D4
330
1B
100
AcDbEntity
  8
User.Drawings
  6
CONTINUOUS
100
AcDbLine
 10
7.7015258661417318
 20
-3.1528883858267718
 30
0
 11
7.6918050393700783
 21
-3.1554930708661417
 31
0
  0
LINE
  5
D5
330
1B
100
AcDbEntity
  8
User.Drawings
  6
CONTINUOUS
100
AcDbLine
 10
7.6918050393700783
 20
-3.1554930708661417
 30
0
 11
7.6825073228346454
 21
-3.1593442913385825
 31
0
  0
LINE
  5
D6
330
1B
100
AcDbEntity
  8
User.Drawings
  6
CONTINUOUS
100
AcDbLine
 10
7.6825073228346454
 20
-3.1593442913385825
 30
0
 11
7.6737918503937008
 21
-3.1643761811023623
 31
0
  0
LINE
  5
D7
330
1B
100
AcDbEntity
  8
User.Drawings
  6
CONTINUOUS
100
AcDbLine
 10
7.6737918503937008
 20
-3.1643761811023623
 30
0
 11
7.6658077559055116
 21
-3.1705025984251969
 31
0
  0
LINE
  5
D8
330
1B
100
AcDbEntity
  8
User.Drawings
  6
CONTINUOUS
100
AcDbLine
 10
7.6658077559055116
 20
-3.1705025984251969
 30
0
 11
7.6586915748031492
 21
-3.1776187795275588
 31
0
  0
LINE
  5
D9
330
1B
100
AcDbEntity
  8
User.Drawings
  6
CONTINUOUS
100
AcDbLine
 10
7.6586915748031492
 20
-3.1776187795275588
 30
0
 11
7.6525651574803151
 21
-3.185602874015748
 31
0
  0
LINE
  5
DA
330
1B
100
AcDbEntity
  8
User.Drawings
  6
CONTINUOUS
100
AcDbLine
 10
7.6525651574803151
 20
-3.185602874015748
 30
0
 11
7.6475332677165353
 21
-3.1943183464566927
 31
0
  0
LINE
  5
DB
330
1B
100
AcDbEntity
  8
User.Drawings
  6
CONTINUOUS
100
AcDbLine
 10
7.6475332677165353
 20
-3.1943183464566927
 30
0
 11
7.6436820472440941
 21
-3.203616062992126
 31
0
  0
LINE
  5
DC
330
1B
100
AcDbEntity
  8
User.Drawings
  6
CONTINUOUS
100
AcDbLine
 10
7.6436820472440941
 20
-3.203616062992126
 30
0
 11
7.6410773622047241
 21
-3.2133368897637795
 31
0
  0
LINE
  5
DD
330
1B
100
AcDbEntity
  8
User.Drawings
  6
CONTINUOUS
100
AcDbLine
 10
7.6410773622047241
 20
-3.2133368897637795
 30
0
 11
7.6397637795275593
 21
-3.2233145669291337
 31
0
  0
LINE
  5
DE
330
1B
100
AcDbEntity
  8
User.Drawings
  6
CONTINUOUS
100
AcDbLine
 10
7.6397637795275593
 20
-3.2233145669291337
 30
0
 11
7.6397637795275593
 21
-3.2283464566929134
 31
0
  0
LINE
  5
DF
330
1B
100
AcDbEntity
  8
User.Drawings
  6
CONTINUOUS
100
AcDbLine
 10
7.6397637795275593
 20
-3.2283464566929134
 30
0
 11
7.6397637795275593
 21
-4.5275590551181102
 31
0
  0
LINE
  5
E0
330
1B
100
AcDbEntity
  8
User.Drawings
  6
CONTINUOUS
100
AcDbLine
 10
7.6397637795275593
 20
-4.5275590551181102
 30
0
 11
7.6397637795275593
 21
-4.53259094488189
 31
0
  0
LINE
  5
E1
330
1B
100
AcDbEntity
  8
User.Drawings
  6
CONTINUOUS
100
AcDbLine
 10
7.6397637795275593
 20
-4.53259094488189
 30
0
 11
7.6410773622047241
 21
-4.5425686220472441
 31
0
  0
LINE
  5
E2
330
1B
100
AcDbEntity
  8
User.Drawings
  6
CONTINUOUS
100
AcDbLine
 10
7.6410773622047241
 20
-4.5425686220472441
 30
0
 11
7.6436820472440941
 21
-4.5522894488188976
 31
0
  0
LINE
  5
E3
330
1B
100
AcDbEntity
  8
User.Drawings
  6
CONTINUOUS
100
AcDbLine
 10
7.6436820472440941
 20
-4.5522894488188976
 30
0
 11
7.6475332677165353
 21
-4.5615871653543305
 31
0
  0
LINE
  5
E4
330
1B
100
AcDbEntity
  8
User.Drawings
  6
CONTINUOUS
100
AcDbLine
 10
7.6475332677165353
 20
-4.5615871653543305
 30
0
 11
7.6525651574803151
 21
-4.5703026377952751
 31
0
  0
LINE
  5
E5
330
1B
100
AcDbEntity
  8
User.Drawings
  6
CONTINUOUS
100
AcDbLine
 10
7.6525651574803151
 20
-4.5703026377952751
 30
0
 11
7.6586915748031492
 21
-4.5782867322834644
 31
0
  0
LINE
  5
E6
330
1B
100
AcDbEntity
  8
User.Drawings
  6
CONTINUOUS
100
AcDbLine
 10
7.6586915748031492
 20
-4.5782867322834644
 30
0
 11
7.6658077559055116
 21
-4.5854029133858267
 31
0
  0
LINE
  5
E7
330
1B
100
AcDbEntity
  8
User.Drawings
  6
CONTINUOUS
100
AcDbLine
 10
7.6658077559055116
 20
-4.5854029133858267
 30
0
 11
7.6737918503937008
 21
-4.5915293307086609
 31
0
  0
LINE
  5
E8
330
1B
100
AcDbEntity
  8
User.Drawings
  6
CONTINUOUS
100
AcDbLine
 10
7.6737918503937008
 20
-4.5915293307086609
 30
0
 11
7.6825073228346454
 21
-4.5965612204724406
 31
0
  0
LINE
  5
E9
330
1B
100
AcDbEntity
  8
User.Drawings
  6
CONTINUOUS
100
AcDbLine
 10
7.6825073228346454
 20
-4.5965612204724406
 30
0
 11
7.6918050393700783
 21
-4.6004124409448819
 31
0
  0
LINE
  5
EA
330
1B
100
AcDbEntity
  8
User.Drawings
  6
CONTINUOUS
100
AcDbLine
 10
7.6918050393700783
 20
-4.6004124409448819
 30
0
 11
7.7015258661417318
 21
-4.6030171259842518
 31
0
  0
LINE
  5
EB
330
1B
100
AcDbEntity
  8
User.Drawings
  6
CONTINUOUS
100
AcDbLine
 10
7.7015258661417318
 20
-4.6030171259842518
 30
0
 11
7.7115035433070869
 21
-4.6043307086614176
 31
0
  0
LINE
  5
EC
330
1B
100
AcDbEntity
  8
User.Drawings
  6
CONTINUOUS
100
AcDbLine
 10
7.7115035433070869
 20
-4.6043307086614176
 30
0
 11
7.7165354330708658
 21
-4.6043307086614176
 31
0
  0
LINE
  5
ED
330
1B
100
AcDbEntity
  8
User.Drawings
  6
CONTINUOUS
100
AcDbLine
 10
7.7165354330708658
 20
-4.6043307086614176
 30
0
 11
8.2677165354330704
 21
-4.6043307086614176
 31
0
  0
LINE
  5
EE
330
1B
100
AcDbEntity
  8
User.Drawings
  6
CONTINUOUS
100
AcDbLine
 10
8.2677165354330704
 20
-4.6043307086614176
 30
0
 11
8.2684698425196856
 21
-4.6044805511811022
 31
0
  0
LINE
  5
EF
330
1B
100
AcDbEntity
  8
User.Drawings
  6
CONTINUOUS
100
AcDbLine
 10
8.2684698425196856
 20
-4.6044805511811022
 30
0
 11
8.2695351968503932
 21
-4.6055459055118106
 31
0
  0
LINE
  5
F0
330
1B
100
AcDbEntity
  8
User.Drawings
  6
CONTINUOUS
100
AcDbLine
 10
8.2695351968503932
 20
-4.6055459055118106
 30
0
 11
8.2695351968503932
 21
-4.6070525196850394
 31
0
  0
LINE
  5
F1
330
1B
100
AcDbEntity
  8
User.Drawings
  6
CONTINUOUS
100
AcDbLine
 10
8.2695351968503932
 20
-4.6070525196850394
 30
0
 11
8.2684698425196856
 21
-4.6081178740157478
 31
0
  0
LINE
  5
F2
330
1B
100
AcDbEntity
  8
User.Drawings
  6
CONTINUOUS
100
AcDbLine
 10
8.2684698425196856
 20
-4.6081178740157478
 30
0
 11
8.2677165354330704
 21
-4.6082677165354333
 31
0
  0
LINE
  5
F3
330
1B
100
AcDbEntity
  8
User.Drawings
  6
CONTINUOUS
100
AcDbLine
 10
8.2677165354330704
 20
-4.6082677165354333
 30
0
 11
7.8691403149606298
 21
-4.6082677165354333
 31
0
  0
LINE
  5
F4
330
1B
100
AcDbEntity
  8
User.Drawings
  6
CONTINUOUS
100
AcDbLine
 10
7.8691403149606298
 20
-4.6082677165354333
 30
0
 11
7.8782809055118106
 21
-4.6104175590551177
 31
0
  0
LINE
  5
F5
330
1B
100
AcDbEntity
  8
User.Drawings
  6
CONTINUOUS
100
AcDbLine
 10
7.8782809055118106
 20
-4.6104175590551177
 30
0
 11
7.8922452362204725
 21
-4.6150979527559057
 31
0
  0
LINE
  5
F6
330
1B
100
AcDbEntity
  8
User.Drawings
  6
CONTINUOUS
100
AcDbLine
 10
7.8922452362204725
 20
-4.6150979527559057
 30
0
 11
7.9057181102362204
 21
-4.6210468110236222
 31
0
  0
LINE
  5
F7
330
1B
100
AcDbEntity
  8
User.Drawings
  6
CONTINUOUS
100
AcDbLine
 10
7.9057181102362204
 20
-4.6210468110236222
 30
0
 11
7.9185846456692914
 21
-4.6282134251968499
 31
0
  0
LINE
  5
F8
330
1B
100
AcDbEntity
  8
User.Drawings
  6
CONTINUOUS
100
AcDbLine
 10
7.9185846456692914
 20
-4.6282134251968499
 30
0
 11
7.9307350393700782
 21
-4.6365366141732283
 31
0
  0
LINE
  5
F9
330
1B
100
AcDbEntity
  8
User.Drawings
  6
CONTINUOUS
100
AcDbLine
 10
7.9307350393700782
 20
-4.6365366141732283
 30
0
 11
7.9420656299212595
 21
-4.6459454330708656
 31
0
  0
LINE
  5
FA
330
1B
100
AcDbEntity
  8
User.Drawings
  6
CONTINUOUS
100
AcDbLine
 10
7.9420656299212595
 20
-4.6459454330708656
 30
0
 11
7.952479763779527
 21
-4.656359566929134
 31
0
  0
LINE
  5
FB
330
1B
100
AcDbEntity
  8
User.Drawings
  6
CONTINUOUS
100
AcDbLine
 10
7.952479763779527
 20
-4.656359566929134
 30
0
 11
7.9618885826771653
 21
-4.6676901574803145
 31
0
  0
LINE
  5
FC
330
1B
100
AcDbEntity
  8
User.Drawings
  6
CONTINUOUS
100
AcDbLine
 10
7.9618885826771653
 20
-4.6676901574803145
 30
0
 11
7.9702117716535428
 21
-4.6798405511811021
 31
0
  0
LINE
  5
FD
330
1B
100
AcDbEntity
  8
User.Drawings
  6
CONTINUOUS
100
AcDbLine
 10
7.9702117716535428
 20
-4.6798405511811021
 30
0
 11
7.9720110629921255
 21
-4.6830708661417324
 31
0
  0
LINE
  5
FE
330
1B
100
AcDbEntity
  8
User.Drawings
  6
CONTINUOUS
100
AcDbLine
 10
7.9720110629921255
 20
-4.6830708661417324
 30
0
 11
8.2677165354330704
 21
-4.6830708661417324
 31
0
  0
LINE
  5
FF
330
1B
100
AcDbEntity
  8
User.Drawings
  6
CONTINUOUS
100
AcDbLine
 10
8.2677165354330704
 20
-4.6830708661417324
 30
0
 11
8.2684698425196856
 21
-4.683220708661417
 31
0
  0
LINE
  5
100
330
1B
100
AcDbEntity
  8
User.Drawings
  6
CONTINUOUS
100
AcDbLine
 10
8.2684698425196856
 20
-4.683220708661417
 30
0
 11
8.2695351968503932
 21
-4.6842860629921255
 31
0
  0
LINE
  5
101
330
1B
100
AcDbEntity
  8
User.Drawings
  6
CONTINUOUS
100
AcDbLine
 10
8.2695351968503932
 20
-4.6842860629921255
 30
0
 11
8.2695351968503932
 21
-4.6857926771653542
 31
0
  0
LINE
  5
102
330
1B
100
AcDbEntity
  8
User.Drawings
  6
CONTINUOUS
100
AcDbLine
 10
8.2695351968503932
 20
-4.6857926771653542
 30
0
 11
8.2684698425196856
 21
-4.6868580314960626
 31
0
  0
LINE
  5
103
330
1B
100
AcDbEntity
  8
User.Drawings
  6
CONTINUOUS
100
AcDbLine
 10
8.2684698425196856
 20
-4.6868580314960626
 30
0
 11
8.2677165354330704
 21
-4.6870078740157481
 31
0
  0
LINE
  5
104
330
1B
100
AcDbEntity
  8
User.Drawings
  6
CONTINUOUS
100
AcDbLine
 10
8.2677165354330704
 20
-4.6870078740157481
 30
0
 11
7.9742039370078741
 21
-4.6870078740157481
 31
0
  0
LINE
  5
105
330
1B
100
AcDbEntity
  8
User.Drawings
  6
CONTINUOUS
100
AcDbLine
 10
7.9742039370078741
 20
-4.6870078740157481
 30
0
 11
7.9773783858267713
 21
-4.6927070866141731
 31
0
  0
LINE
  5
106
330
1B
100
AcDbEntity
  8
User.Drawings
  6
CONTINUOUS
100
AcDbLine
 10
7.9773783858267713
 20
-4.6927070866141731
 30
0
 11
7.9833272440944878
 21
-4.7061799606299211
 31
0
  0
LINE
  5
107
330
1B
100
AcDbEntity
  8
User.Drawings
  6
CONTINUOUS
100
AcDbLine
 10
7.9833272440944878
 20
-4.7061799606299211
 30
0
 11
7.9880076377952758
 21
-4.7201442913385829
 31
0
  0
LINE
  5
108
330
1B
100
AcDbEntity
  8
User.Drawings
  6
CONTINUOUS
100
AcDbLine
 10
7.9880076377952758
 20
-4.7201442913385829
 30
0
 11
7.9913795669291341
 21
-4.7344808661417321
 31
0
  0
LINE
  5
109
330
1B
100
AcDbEntity
  8
User.Drawings
  6
CONTINUOUS
100
AcDbLine
 10
7.9913795669291341
 20
-4.7344808661417321
 30
0
 11
7.9934142913385822
 21
-4.7490674409448816
 31
0
  0
LINE
  5
10A
330
1B
100
AcDbEntity
  8
User.Drawings
  6
CONTINUOUS
100
AcDbLine
 10
7.9934142913385822
 20
-4.7490674409448816
 30
0
 11
7.9940944881889759
 21
-4.7637795275590546
 31
0
  0
LINE
  5
10B
330
1B
100
AcDbEntity
  8
User.Drawings
  6
CONTINUOUS
100
AcDbLine
 10
7.9940944881889759
 20
-4.7637795275590546
 30
0
 11
7.9940944881889759
 21
-5.3149606299212593
 31
0
  0
LINE
  5
10C
330
1B
100
AcDbEntity
  8
User.Drawings
  6
CONTINUOUS
100
AcDbLine
 10
7.9940944881889759
 20
-5.3149606299212593
 30
0
 11
7.9939446456692913
 21
-5.3157139370078736
 31
0
  0
LINE
  5
10D
330
1B
100
AcDbEntity
  8
User.Drawings
  6
CONTINUOUS
100
AcDbLine
 10
7.9939446456692913
 20
-5.3157139370078736
 30
0
 11
7.9928792913385829
 21
-5.316779291338583
 31
0
  0
LINE
  5
10E
330
1B
100
AcDbEntity
  8
User.Drawings
  6
CONTINUOUS
100
AcDbLine
 10
7.9928792913385829
 20
-5.316779291338583
 30
0
 11
7.9913726771653542
 21
-5.316779291338583
 31
0
  0
LINE
  5
10F
330
1B
100
AcDbEntity
  8
User.Drawings
  6
CONTINUOUS
100
AcDbLine
 10
7.9913726771653542
 20
-5.316779291338583
 30
0
 11
7.9903073228346457
 21
-5.3157139370078736
 31
0
  0
LINE
  5
110
330
1B
100
AcDbEntity
  8
User.Drawings
  6
CONTINUOUS
100
AcDbLine
 10
7.9903073228346457
 20
-5.3157139370078736
 30
0
 11
7.9901574803149602
 21
-5.3149606299212593
 31
0
  0
LINE
  5
111
330
1B
100
AcDbEntity
  8
User.Drawings
  6
CONTINUOUS
100
AcDbLine
 10
7.9901574803149602
 20
-5.3149606299212593
 30
0
 11
7.9901574803149602
 21
-4.7637795275590546
 31
0
  0
LINE
  5
112
330
1B
100
AcDbEntity
  8
User.Drawings
  6
CONTINUOUS
100
AcDbLine
 10
7.9901574803149602
 20
-4.7637795275590546
 30
0
 11
7.9901574803149602
 21
-4.7565898031496063
 31
0
  0
LINE
  5
113
330
1B
100
AcDbEntity
  8
User.Drawings
  6
CONTINUOUS
100
AcDbLine
 10
7.9901574803149602
 20
-4.7565898031496063
 30
0
 11
7.9888307086614168
 21
-4.7422716535433072
 31
0
  0
LINE
  5
114
330
1B
100
AcDbEntity
  8
User.Drawings
  6
CONTINUOUS
100
AcDbLine
 10
7.9888307086614168
 20
-4.7422716535433072
 30
0
 11
7.9861884645669292
 21
-4.7281369685039367
 31
0
  0
LINE
  5
115
330
1B
100
AcDbEntity
  8
User.Drawings
  6
CONTINUOUS
100
AcDbLine
 10
7.9861884645669292
 20
-4.7281369685039367
 30
0
 11
7.9822533464566927
 21
-4.7143064173228346
 31
0
  0
LINE
  5
116
330
1B
100
AcDbEntity
  8
User.Drawings
  6
CONTINUOUS
100
AcDbLine
 10
7.9822533464566927
 20
-4.7143064173228346
 30
0
 11
7.977058858267716
 21
-4.7008979527559056
 31
0
  0
LINE
  5
117
330
1B
100
AcDbEntity
  8
User.Drawings
  6
CONTINUOUS
100
AcDbLine
 10
7.977058858267716
 20
-4.7008979527559056
 30
0
 11
7.97064937007874
 21
-4.6880259448818897
 31
0
  0
LINE
  5
118
330
1B
100
AcDbEntity
  8
User.Drawings
  6
CONTINUOUS
100
AcDbLine
 10
7.97064937007874
 20
-4.6880259448818897
 30
0
 11
7.9700190157480311
 21
-4.6870078740157481
 31
0
  0
LINE
  5
119
330
1B
100
AcDbEntity
  8
User.Drawings
  6
CONTINUOUS
100
AcDbLine
 10
7.9700190157480311
 20
-4.6870078740157481
 30
0
 11
7.8590311811023623
 21
-4.6870078740157481
 31
0
  0
LINE
  5
11A
330
1B
100
AcDbEntity
  8
User.Drawings
  6
CONTINUOUS
100
AcDbLine
 10
7.8590311811023623
 20
-4.6870078740157481
 30
0
 11
7.865531535433071
 21
-4.6892144488188974
 31
0
  0
LINE
  5
11B
330
1B
100
AcDbEntity
  8
User.Drawings
  6
CONTINUOUS
100
AcDbLine
 10
7.865531535433071
 20
-4.6892144488188974
 30
0
 11
7.875
 21
-4.6938837401574798
 31
0
  0
LINE
  5
11C
330
1B
100
AcDbEntity
  8
User.Drawings
  6
CONTINUOUS
100
AcDbLine
 10
7.875
 20
-4.6938837401574798
 30
0
 11
7.8837779921259843
 21
-4.6997490157480311
 31
0
  0
LINE
  5
11D
330
1B
100
AcDbEntity
  8
User.Drawings
  6
CONTINUOUS
100
AcDbLine
 10
7.8837779921259843
 20
-4.6997490157480311
 30
0
 11
7.8917153149606296
 21
-4.7067098818897639
 31
0
  0
LINE
  5
11E
330
1B
100
AcDbEntity
  8
User.Drawings
  6
CONTINUOUS
100
AcDbLine
 10
7.8917153149606296
 20
-4.7067098818897639
 30
0
 11
7.8986761811023616
 21
-4.7146472047244092
 31
0
  0
LINE
  5
11F
330
1B
100
AcDbEntity
  8
User.Drawings
  6
CONTINUOUS
100
AcDbLine
 10
7.8986761811023616
 20
-4.7146472047244092
 30
0
 11
7.9045414566929129
 21
-4.7234251968503935
 31
0
  0
LINE
  5
120
330
1B
100
AcDbEntity
  8
User.Drawings
  6
CONTINUOUS
100
AcDbLine
 10
7.9045414566929129
 20
-4.7234251968503935
 30
0
 11
7.9092107480314962
 21
-4.7328936614173225
 31
0
  0
LINE
  5
121
330
1B
100
AcDbEntity
  8
User.Drawings
  6
CONTINUOUS
100
AcDbLine
 10
7.9092107480314962
 20
-4.7328936614173225
 30
0
 11
7.9126042519685038
 21
-4.7428905905511813
 31
0
  0
LINE
  5
122
330
1B
100
AcDbEntity
  8
User.Drawings
  6
CONTINUOUS
100
AcDbLine
 10
7.9126042519685038
 20
-4.7428905905511813
 30
0
 11
7.9146638582677165
 21
-4.7532449212598422
 31
0
  0
LINE
  5
123
330
1B
100
AcDbEntity
  8
User.Drawings
  6
CONTINUOUS
100
AcDbLine
 10
7.9146638582677165
 20
-4.7532449212598422
 30
0
 11
7.9153543307086611
 21
-4.7637795275590546
 31
0
  0
LINE
  5
124
330
1B
100
AcDbEntity
  8
User.Drawings
  6
CONTINUOUS
100
AcDbLine
 10
7.9153543307086611
 20
-4.7637795275590546
 30
0
 11
7.9153543307086611
 21
-5.3149606299212593
 31
0
  0
LINE
  5
125
330
1B
100
AcDbEntity
  8
User.Drawings
  6
CONTINUOUS
100
AcDbLine
 10
7.9153543307086611
 20
-5.3149606299212593
 30
0
 11
7.9152044881889765
 21
-5.3157139370078736
 31
0
  0
LINE
  5
126
330
1B
100
AcDbEntity
  8
User.Drawings
  6
CONTINUOUS
100
AcDbLine
 10
7.9152044881889765
 20
-5.3157139370078736
 30
0
 11
7.9141391338582672
 21
-5.316779291338583
 31
0
  0
LINE
  5
127
330
1B
100
AcDbEntity
  8
User.Drawings
  6
CONTINUOUS
100
AcDbLine
 10
7.9141391338582672
 20
-5.316779291338583
 30
0
 11
7.9126325196850393
 21
-5.316779291338583
 31
0
  0
LINE
  5
128
330
1B
100
AcDbEntity
  8
User.Drawings
  6
CONTINUOUS
100
AcDbLine
 10
7.9126325196850393
 20
-5.316779291338583
 30
0
 11
7.9115671653543309
 21
-5.3157139370078736
 31
0
  0
LINE
  5
129
330
1B
100
AcDbEntity
  8
User.Drawings
  6
CONTINUOUS
100
AcDbLine
 10
7.9115671653543309
 20
-5.3157139370078736
 30
0
 11
7.9114173228346454
 21
-5.3149606299212593
 31
0
  0
LINE
  5
12A
330
1B
100
AcDbEntity
  8
User.Drawings
  6
CONTINUOUS
100
AcDbLine
 10
7.9114173228346454
 20
-5.3149606299212593
 30
0
 11
7.9114173228346454
 21
-4.7637795275590546
 31
0
  0
LINE
  5
12B
330
1B
100
AcDbEntity
  8
User.Drawings
  6
CONTINUOUS
100
AcDbLine
 10
7.9114173228346454
 20
-4.7637795275590546
 30
0
 11
7.9114173228346454
 21
-4.7587476377952758
 31
0
  0
LINE
  5
12C
330
1B
100
AcDbEntity
  8
User.Drawings
  6
CONTINUOUS
100
AcDbLine
 10
7.9114173228346454
 20
-4.7587476377952758
 30
0
 11
7.9101037401574805
 21
-4.7487699606299207
 31
0
  0
LINE
  5
12D
330
1B
100
AcDbEntity
  8
User.Drawings
  6
CONTINUOUS
100
AcDbLine
 10
7.9101037401574805
 20
-4.7487699606299207
 30
0
 11
7.9074990551181097
 21
-4.7390491338582672
 31
0
  0
LINE
  5
12E
330
1B
100
AcDbEntity
  8
User.Drawings
  6
CONTINUOUS
100
AcDbLine
 10
7.9074990551181097
 20
-4.7390491338582672
 30
0
 11
7.9036478346456693
 21
-4.7297514173228343
 31
0
  0
LINE
  5
12F
330
1B
100
AcDbEntity
  8
User.Drawings
  6
CONTINUOUS
100
AcDbLine
 10
7.9036478346456693
 20
-4.7297514173228343
 30
0
 11
7.8986159448818896
 21
-4.7210359448818897
 31
0
  0
LINE
  5
130
330
1B
100
AcDbEntity
  8
User.Drawings
  6
CONTINUOUS
100
AcDbLine
 10
7.8986159448818896
 20
-4.7210359448818897
 30
0
 11
7.8924895275590545
 21
-4.7130518503937004
 31
0
  0
LINE
  5
131
330
1B
100
AcDbEntity
  8
User.Drawings
  6
CONTINUOUS
100
AcDbLine
 10
7.8924895275590545
 20
-4.7130518503937004
 30
0
 11
7.8853733464566931
 21
-4.7059356692913381
 31
0
  0
LINE
  5
132
330
1B
100
AcDbEntity
  8
User.Drawings
  6
CONTINUOUS
100
AcDbLine
 10
7.8853733464566931
 20
-4.7059356692913381
 30
0
 11
7.8773892519685038
 21
-4.699809251968504
 31
0
  0
LINE
  5
133
330
1B
100
AcDbEntity
  8
User.Drawings
  6
CONTINUOUS
100
AcDbLine
 10
7.8773892519685038
 20
-4.699809251968504
 30
0
 11
7.8686737795275592
 21
-4.6947773622047242
 31
0
  0
LINE
  5
134
330
1B
100
AcDbEntity
  8
User.Drawings
  6
CONTINUOUS
100
AcDbLine
 10
7.8686737795275592
 20
-4.6947773622047242
 30
0
 11
7.8593760629921254
 21
-4.690926141732283
 31
0
  0
LINE
  5
135
330
1B
100
AcDbEntity
  8
User.Drawings
  6
CONTINUOUS
100
AcDbLine
 10
7.8593760629921254
 20
-4.690926141732283
 30
0
 11
7.8496552362204719
 21
-4.688321456692913
 31
0
  0
LINE
  5
136
330
1B
100
AcDbEntity
  8
User.Drawings
  6
CONTINUOUS
100
AcDbLine
 10
7.8496552362204719
 20
-4.688321456692913
 30
0
 11
7.8396775590551178
 21
-4.6870078740157481
 31
0
  0
LINE
  5
137
330
1B
100
AcDbEntity
  8
User.Drawings
  6
CONTINUOUS
100
AcDbLine
 10
7.8396775590551178
 20
-4.6870078740157481
 30
0
 11
7.834645669291338
 21
-4.6870078740157481
 31
0
  0
LINE
  5
138
330
1B
100
AcDbEntity
  8
User.Drawings
  6
CONTINUOUS
100
AcDbLine
 10
7.834645669291338
 20
-4.6870078740157481
 30
0
 11
7.7165354330708658
 21
-4.6870078740157481
 31
0
  0
LINE
  5
139
330
1B
100
AcDbEntity
  8
User.Drawings
  6
CONTINUOUS
100
AcDbLine
 10
7.7165354330708658
 20
-4.6870078740157481
 30
0
 11
7.716535078740157
 21
-4.6870078346456694
 31
0
  0
LINE
  5
13A
330
1B
100
AcDbEntity
  8
User.Drawings
  6
CONTINUOUS
100
AcDbLine
 10
7.716535078740157
 20
-4.6870078346456694
 30
0
 11
3.3070990551181101
 21
-4.6870072834645669
 31
0
  0
LINE
  5
13B
330
1B
100
AcDbEntity
  8
User.Drawings
  6
CONTINUOUS
100
AcDbLine
 10
3.3070990551181101
 20
-4.6870072834645669
 30
0
 11
3.3070866141732282
 21
-4.6870078740157481
 31
0
  0
LINE
  5
13C
330
1B
100
AcDbEntity
  8
User.Drawings
  6
CONTINUOUS
100
AcDbLine
 10
3.3070866141732282
 20
-4.6870078740157481
 30
0
 11
3.1839386614173226
 21
-4.6870078740157481
 31
0
  0
LINE
  5
13D
330
1B
100
AcDbEntity
  8
User.Drawings
  6
CONTINUOUS
100
AcDbLine
 10
3.1839386614173226
 20
-4.6870078740157481
 30
0
 11
3.1739655118110237
 21
-4.6883208661417326
 31
0
  0
LINE
  5
13E
330
1B
100
AcDbEntity
  8
User.Drawings
  6
CONTINUOUS
100
AcDbLine
 10
3.1739655118110237
 20
-4.6883208661417326
 30
0
 11
3.1642446456692914
 21
-4.6909255905511813
 31
0
  0
LINE
  5
13F
330
1B
100
AcDbEntity
  8
User.Drawings
  6
CONTINUOUS
100
AcDbLine
 10
3.1642446456692914
 20
-4.6909255905511813
 30
0
 11
3.1549469685039369
 21
-4.6947768110236217
 31
0
  0
LINE
  5
140
330
1B
100
AcDbEntity
  8
User.Drawings
  6
CONTINUOUS
100
AcDbLine
 10
3.1549469685039369
 20
-4.6947768110236217
 30
0
 11
3.1462314960629922
 21
-4.6998087007874014
 31
0
  0
LINE
  5
141
330
1B
100
AcDbEntity
  8
User.Drawings
  6
CONTINUOUS
100
AcDbLine
 10
3.1462314960629922
 20
-4.6998087007874014
 30
0
 11
3.1382473622047242
 21
-4.7059351181102365
 31
0
  0
LINE
  5
142
330
1B
100
AcDbEntity
  8
User.Drawings
  6
CONTINUOUS
100
AcDbLine
 10
3.1382473622047242
 20
-4.7059351181102365
 30
0
 11
3.1311312204724411
 21
-4.7130512598425192
 31
0
  0
LINE
  5
143
330
1B
100
AcDbEntity
  8
User.Drawings
  6
CONTINUOUS
100
AcDbLine
 10
3.1311312204724411
 20
-4.7130512598425192
 30
0
 11
3.125004803149606
 21
-4.7210353937007872
 31
0
  0
LINE
  5
144
330
1B
100
AcDbEntity
  8
User.Drawings
  6
CONTINUOUS
100
AcDbLine
 10
3.125004803149606
 20
-4.7210353937007872
 30
0
 11
3.1199729133858267
 21
-4.7297508661417318
 31
0
  0
LINE
  5
145
330
1B
100
AcDbEntity
  8
User.Drawings
  6
CONTINUOUS
100
AcDbLine
 10
3.1199729133858267
 20
-4.7297508661417318
 30
0
 11
3.1161216929133859
 21
-4.7390485433070868
 31
0
  0
LINE
  5
146
330
1B
100
AcDbEntity
  8
User.Drawings
  6
CONTINUOUS
100
AcDbLine
 10
3.1161216929133859
 20
-4.7390485433070868
 30
0
 11
3.1135169685039368
 21
-4.7487694094488191
 31
0
  0
LINE
  5
147
330
1B
100
AcDbEntity
  8
User.Drawings
  6
CONTINUOUS
100
AcDbLine
 10
3.1135169685039368
 20
-4.7487694094488191
 30
0
 11
3.1122033858267715
 21
-4.7587470472440945
 31
0
  0
LINE
  5
148
330
1B
100
AcDbEntity
  8
User.Drawings
  6
CONTINUOUS
100
AcDbLine
 10
3.1122033858267715
 20
-4.7587470472440945
 30
0
 11
3.1122033858267715
 21
-4.7637727952755906
 31
0
  0
LINE
  5
149
330
1B
100
AcDbEntity
  8
User.Drawings
  6
CONTINUOUS
100
AcDbLine
 10
3.1122033858267715
 20
-4.7637727952755906
 30
0
 11
3.1122047244094486
 21
-4.7637795275590546
 31
0
  0
LINE
  5
14A
330
1B
100
AcDbEntity
  8
User.Drawings
  6
CONTINUOUS
100
AcDbLine
 10
3.1122047244094486
 20
-4.7637795275590546
 30
0
 11
3.1122047244094486
 21
-5.3149606299212593
 31
0
  0
LINE
  5
14B
330
1B
100
AcDbEntity
  8
User.Drawings
  6
CONTINUOUS
100
AcDbLine
 10
3.1122047244094486
 20
-5.3149606299212593
 30
0
 11
3.1120548818897635
 21
-5.3157139370078736
 31
0
  0
LINE
  5
14C
330
1B
100
AcDbEntity
  8
User.Drawings
  6
CONTINUOUS
100
AcDbLine
 10
3.1120548818897635
 20
-5.3157139370078736
 30
0
 11
3.1109895275590551
 21
-5.316779291338583
 31
0
  0
LINE
  5
14D
330
1B
100
AcDbEntity
  8
User.Drawings
  6
CONTINUOUS
100
AcDbLine
 10
3.1109895275590551
 20
-5.316779291338583
 30
0
 11
3.1094829133858268
 21
-5.316779291338583
 31
0
  0
LINE
  5
14E
330
1B
100
AcDbEntity
  8
User.Drawings
  6
CONTINUOUS
100
AcDbLine
 10
3.1094829133858268
 20
-5.316779291338583
 30
0
 11
3.108417559055118
 21
-5.3157139370078736
 31
0
  0
LINE
  5
14F
330
1B
100
AcDbEntity
  8
User.Drawings
  6
CONTINUOUS
100
AcDbLine
 10
3.108417559055118
 20
-5.3157139370078736
 30
0
 11
3.1082677165354329
 21
-5.3149606299212593
 31
0
  0
LINE
  5
150
330
1B
100
AcDbEntity
  8
User.Drawings
  6
CONTINUOUS
100
AcDbLine
 10
3.1082677165354329
 20
-5.3149606299212593
 30
0
 11
3.1082677165354329
 21
-4.7637830314960627
 31
0
  0
LINE
  5
151
330
1B
100
AcDbEntity
  8
User.Drawings
  6
CONTINUOUS
100
AcDbLine
 10
3.1082677165354329
 20
-4.7637830314960627
 30
0
 11
3.1082663779527557
 21
-4.7637789370078742
 31
0
  0
LINE
  5
152
330
1B
100
AcDbEntity
  8
User.Drawings
  6
CONTINUOUS
100
AcDbLine
 10
3.1082663779527557
 20
-4.7637789370078742
 30
0
 11
3.1089568503937008
 21
-4.7532443307086609
 31
0
  0
LINE
  5
153
330
1B
100
AcDbEntity
  8
User.Drawings
  6
CONTINUOUS
100
AcDbLine
 10
3.1089568503937008
 20
-4.7532443307086609
 30
0
 11
3.1110164566929135
 21
-4.7428900000000001
 31
0
  0
LINE
  5
154
330
1B
100
AcDbEntity
  8
User.Drawings
  6
CONTINUOUS
100
AcDbLine
 10
3.1110164566929135
 20
-4.7428900000000001
 30
0
 11
3.1144099606299211
 21
-4.7328930708661412
 31
0
  0
LINE
  5
155
330
1B
100
AcDbEntity
  8
User.Drawings
  6
CONTINUOUS
100
AcDbLine
 10
3.1144099606299211
 20
-4.7328930708661412
 30
0
 11
3.1190793307086615
 21
-4.7234246062992122
 31
0
  0
LINE
  5
156
330
1B
100
AcDbEntity
  8
User.Drawings
  6
CONTINUOUS
100
AcDbLine
 10
3.1190793307086615
 20
-4.7234246062992122
 30
0
 11
3.1249445669291336
 21
-4.7146466535433067
 31
0
  0
LINE
  5
157
330
1B
100
AcDbEntity
  8
User.Drawings
  6
CONTINUOUS
100
AcDbLine
 10
3.1249445669291336
 20
-4.7146466535433067
 30
0
 11
3.131905433070866
 21
-4.7067093307086614
 31
0
  0
LINE
  5
158
330
1B
100
AcDbEntity
  8
User.Drawings
  6
CONTINUOUS
100
AcDbLine
 10
3.131905433070866
 20
-4.7067093307086614
 30
0
 11
3.1398427559055118
 21
-4.6997484645669294
 31
0
  0
LINE
  5
159
330
1B
100
AcDbEntity
  8
User.Drawings
  6
CONTINUOUS
100
AcDbLine
 10
3.1398427559055118
 20
-4.6997484645669294
 30
0
 11
3.1486207086614173
 21
-4.6938832283464569
 31
0
  0
LINE
  5
15A
330
1B
100
AcDbEntity
  8
User.Drawings
  6
CONTINUOUS
100
AcDbLine
 10
3.1486207086614173
 20
-4.6938832283464569
 30
0
 11
3.1580891732283463
 21
-4.6892138582677161
 31
0
  0
LINE
  5
15B
330
1B
100
AcDbEntity
  8
User.Drawings
  6
CONTINUOUS
100
AcDbLine
 10
3.1580891732283463
 20
-4.6892138582677161
 30
0
 11
3.1645877952755903
 21
-4.6870078740157481
 31
0
  0
LINE
  5
15C
330
1B
100
AcDbEntity
  8
User.Drawings
  6
CONTINUOUS
100
AcDbLine
 10
3.1645877952755903
 20
-4.6870078740157481
 30
0
 11
3.053601653543307
 21
-4.6870078740157481
 31
0
  0
LINE
  5
15D
330
1B
100
AcDbEntity
  8
User.Drawings
  6
CONTINUOUS
100
AcDbLine
 10
3.053601653543307
 20
-4.6870078740157481
 30
0
 11
3.0529711417322836
 21
-4.688026220472441
 31
0
  0
LINE
  5
15E
330
1B
100
AcDbEntity
  8
User.Drawings
  6
CONTINUOUS
100
AcDbLine
 10
3.0529711417322836
 20
-4.688026220472441
 30
0
 11
3.0465616929133859
 21
-4.7008983070866144
 31
0
  0
LINE
  5
15F
330
1B
100
AcDbEntity
  8
User.Drawings
  6
CONTINUOUS
100
AcDbLine
 10
3.0465616929133859
 20
-4.7008983070866144
 30
0
 11
3.0413672834645666
 21
-4.7143068503937009
 31
0
  0
LINE
  5
160
330
1B
100
AcDbEntity
  8
User.Drawings
  6
CONTINUOUS
100
AcDbLine
 10
3.0413672834645666
 20
-4.7143068503937009
 30
0
 11
3.0374322440944881
 21
-4.7281374803149605
 31
0
  0
LINE
  5
161
330
1B
100
AcDbEntity
  8
User.Drawings
  6
CONTINUOUS
100
AcDbLine
 10
3.0374322440944881
 20
-4.7281374803149605
 30
0
 11
3.0347901181102364
 21
-4.7422722047244097
 31
0
  0
LINE
  5
162
330
1B
100
AcDbEntity
  8
User.Drawings
  6
CONTINUOUS
100
AcDbLine
 10
3.0347901181102364
 20
-4.7422722047244097
 30
0
 11
3.0334635039370079
 21
-4.7565903937007876
 31
0
  0
LINE
  5
163
330
1B
100
AcDbEntity
  8
User.Drawings
  6
CONTINUOUS
100
AcDbLine
 10
3.0334635039370079
 20
-4.7565903937007876
 30
0
 11
3.0334635826771654
 21
-4.7637801574803147
 31
0
  0
LINE
  5
164
330
1B
100
AcDbEntity
  8
User.Drawings
  6
CONTINUOUS
100
AcDbLine
 10
3.0334635826771654
 20
-4.7637801574803147
 30
0
 11
3.0334635826771654
 21
-4.7637801968503934
 31
0
  0
LINE
  5
165
330
1B
100
AcDbEntity
  8
User.Drawings
  6
CONTINUOUS
100
AcDbLine
 10
3.0334635826771654
 20
-4.7637801968503934
 30
0
 11
3.0334635826771654
 21
-5.3149612992125981
 31
0
  0
LINE
  5
166
330
1B
100
AcDbEntity
  8
User.Drawings
  6
CONTINUOUS
100
AcDbLine
 10
3.0334635826771654
 20
-5.3149612992125981
 30
0
 11
3.0333137401574803
 21
-5.3157146062992124
 31
0
  0
LINE
  5
167
330
1B
100
AcDbEntity
  8
User.Drawings
  6
CONTINUOUS
100
AcDbLine
 10
3.0333137401574803
 20
-5.3157146062992124
 30
0
 11
3.0322483858267715
 21
-5.3167799606299209
 31
0
  0
LINE
  5
168
330
1B
100
AcDbEntity
  8
User.Drawings
  6
CONTINUOUS
100
AcDbLine
 10
3.0322483858267715
 20
-5.3167799606299209
 30
0
 11
3.0307417716535432
 21
-5.3167799606299209
 31
0
  0
LINE
  5
169
330
1B
100
AcDbEntity
  8
User.Drawings
  6
CONTINUOUS
100
AcDbLine
 10
3.0307417716535432
 20
-5.3167799606299209
 30
0
 11
3.0296764173228348
 21
-5.3157146062992124
 31
0
  0
LINE
  5
16A
330
1B
100
AcDbEntity
  8
User.Drawings
  6
CONTINUOUS
100
AcDbLine
 10
3.0296764173228348
 20
-5.3157146062992124
 30
0
 11
3.0295265748031497
 21
-5.3149612992125981
 31
0
  0
LINE
  5
16B
330
1B
100
AcDbEntity
  8
User.Drawings
  6
CONTINUOUS
100
AcDbLine
 10
3.0295265748031497
 20
-5.3149612992125981
 30
0
 11
3.0295265748031497
 21
-4.7637801968503934
 31
0
  0
LINE
  5
16C
330
1B
100
AcDbEntity
  8
User.Drawings
  6
CONTINUOUS
100
AcDbLine
 10
3.0295265748031497
 20
-4.7637801968503934
 30
0
 11
3.0295265748031497
 21
-4.7637801574803147
 31
0
  0
LINE
  5
16D
330
1B
100
AcDbEntity
  8
User.Drawings
  6
CONTINUOUS
100
AcDbLine
 10
3.0295265748031497
 20
-4.7637801574803147
 30
0
 11
3.0302065748031497
 21
-4.7490680708661417
 31
0
  0
LINE
  5
16E
330
1B
100
AcDbEntity
  8
User.Drawings
  6
CONTINUOUS
100
AcDbLine
 10
3.0302065748031497
 20
-4.7490680708661417
 30
0
 11
3.032241181102362
 21
-4.7344814566929134
 31
0
  0
LINE
  5
16F
330
1B
100
AcDbEntity
  8
User.Drawings
  6
CONTINUOUS
100
AcDbLine
 10
3.032241181102362
 20
-4.7344814566929134
 30
0
 11
3.0356130314960628
 21
-4.7201447637795271
 31
0
  0
LINE
  5
170
330
1B
100
AcDbEntity
  8
User.Drawings
  6
CONTINUOUS
100
AcDbLine
 10
3.0356130314960628
 20
-4.7201447637795271
 30
0
 11
3.040293307086614
 21
-4.7061803937007873
 31
0
  0
LINE
  5
171
330
1B
100
AcDbEntity
  8
User.Drawings
  6
CONTINUOUS
100
AcDbLine
 10
3.040293307086614
 20
-4.7061803937007873
 30
0
 11
3.0462421259842518
 21
-4.6927074015748031
 31
0
  0
LINE
  5
172
330
1B
100
AcDbEntity
  8
User.Drawings
  6
CONTINUOUS
100
AcDbLine
 10
3.0462421259842518
 20
-4.6927074015748031
 30
0
 11
3.0494166929133857
 21
-4.6870078740157481
 31
0
  0
LINE
  5
173
330
1B
100
AcDbEntity
  8
User.Drawings
  6
CONTINUOUS
100
AcDbLine
 10
3.0494166929133857
 20
-4.6870078740157481
 30
0
 11
2.7559055118110236
 21
-4.6870078740157481
 31
0
  0
LINE
  5
174
330
1B
100
AcDbEntity
  8
User.Drawings
  6
CONTINUOUS
100
AcDbLine
 10
2.7559055118110236
 20
-4.6870078740157481
 30
0
 11
2.7551522047244092
 21
-4.6868580314960626
 31
0
  0
LINE
  5
175
330
1B
100
AcDbEntity
  8
User.Drawings
  6
CONTINUOUS
100
AcDbLine
 10
2.7551522047244092
 20
-4.6868580314960626
 30
0
 11
2.7540868503937008
 21
-4.6857926771653542
 31
0
  0
LINE
  5
176
330
1B
100
AcDbEntity
  8
User.Drawings
  6
CONTINUOUS
100
AcDbLine
 10
2.7540868503937008
 20
-4.6857926771653542
 30
0
 11
2.7540868503937008
 21
-4.6842860629921255
 31
0
  0
LINE
  5
177
330
1B
100
AcDbEntity
  8
User.Drawings
  6
CONTINUOUS
100
AcDbLine
 10
2.7540868503937008
 20
-4.6842860629921255
 30
0
 11
2.7551522047244092
 21
-4.683220708661417
 31
0
  0
LINE
  5
178
330
1B
100
AcDbEntity
  8
User.Drawings
  6
CONTINUOUS
100
AcDbLine
 10
2.7551522047244092
 20
-4.683220708661417
 30
0
 11
2.7559055118110236
 21
-4.6830708661417324
 31
0
  0
LINE
  5
179
330
1B
100
AcDbEntity
  8
User.Drawings
  6
CONTINUOUS
100
AcDbLine
 10
2.7559055118110236
 20
-4.6830708661417324
 30
0
 11
3.0516095669291339
 21
-4.6830708661417324
 31
0
  0
LINE
  5
17A
330
1B
100
AcDbEntity
  8
User.Drawings
  6
CONTINUOUS
100
AcDbLine
 10
3.0516095669291339
 20
-4.6830708661417324
 30
0
 11
3.0534087007874016
 21
-4.6798407874015746
 31
0
  0
LINE
  5
17B
330
1B
100
AcDbEntity
  8
User.Drawings
  6
CONTINUOUS
100
AcDbLine
 10
3.0534087007874016
 20
-4.6798407874015746
 30
0
 11
3.0617319291338583
 21
-4.6676903543307082
 31
0
  0
LINE
  5
17C
330
1B
100
AcDbEntity
  8
User.Drawings
  6
CONTINUOUS
100
AcDbLine
 10
3.0617319291338583
 20
-4.6676903543307082
 30
0
 11
3.0711407480314961
 21
-4.6563596850393703
 31
0
  0
LINE
  5
17D
330
1B
100
AcDbEntity
  8
User.Drawings
  6
CONTINUOUS
100
AcDbLine
 10
3.0711407480314961
 20
-4.6563596850393703
 30
0
 11
3.0815548818897636
 21
-4.6459455511811019
 31
0
  0
LINE
  5
17E
330
1B
100
AcDbEntity
  8
User.Drawings
  6
CONTINUOUS
100
AcDbLine
 10
3.0815548818897636
 20
-4.6459455511811019
 30
0
 11
3.0928855511811024
 21
-4.6365367322834645
 31
0
  0
LINE
  5
17F
330
1B
100
AcDbEntity
  8
User.Drawings
  6
CONTINUOUS
100
AcDbLine
 10
3.0928855511811024
 20
-4.6365367322834645
 30
0
 11
3.1050359842519684
 21
-4.6282135039370074
 31
0
  0
LINE
  5
180
330
1B
100
AcDbEntity
  8
User.Drawings
  6
CONTINUOUS
100
AcDbLine
 10
3.1050359842519684
 20
-4.6282135039370074
 30
0
 11
3.1179025984251969
 21
-4.6210469291338585
 31
0
  0
LINE
  5
181
330
1B
100
AcDbEntity
  8
User.Drawings
  6
CONTINUOUS
100
AcDbLine
 10
3.1179025984251969
 20
-4.6210469291338585
 30
0
 11
3.1313755905511811
 21
-4.6150981102362207
 31
0
  0
LINE
  5
182
330
1B
100
AcDbEntity
  8
User.Drawings
  6
CONTINUOUS
100
AcDbLine
 10
3.1313755905511811
 20
-4.6150981102362207
 30
0
 11
3.1453399606299213
 21
-4.610417834645669
 31
0
  0
LINE
  5
183
330
1B
100
AcDbEntity
  8
User.Drawings
  6
CONTINUOUS
100
AcDbLine
 10
3.1453399606299213
 20
-4.610417834645669
 30
0
 11
3.1544820078740159
 21
-4.6082677165354333
 31
0
  0
LINE
  5
184
330
1B
100
AcDbEntity
  8
User.Drawings
  6
CONTINUOUS
100
AcDbLine
 10
3.1544820078740159
 20
-4.6082677165354333
 30
0
 11
2.7559055118110236
 21
-4.6082677165354333
 31
0
  0
LINE
  5
185
330
1B
100
AcDbEntity
  8
User.Drawings
  6
CONTINUOUS
100
AcDbLine
 10
2.7559055118110236
 20
-4.6082677165354333
 30
0
 11
2.7551522047244092
 21
-4.6081178740157478
 31
0
  0
LINE
  5
186
330
1B
100
AcDbEntity
  8
User.Drawings
  6
CONTINUOUS
100
AcDbLine
 10
2.7551522047244092
 20
-4.6081178740157478
 30
0
 11
2.7540868503937008
 21
-4.6070525196850394
 31
0
  0
LINE
  5
187
330
1B
100
AcDbEntity
  8
User.Drawings
  6
CONTINUOUS
100
AcDbLine
 10
2.7540868503937008
 20
-4.6070525196850394
 30
0
 11
2.7540868503937008
 21
-4.6055459055118106
 31
0
  0
LINE
  5
188
330
1B
100
AcDbEntity
  8
User.Drawings
  6
CONTINUOUS
100
AcDbLine
 10
2.7540868503937008
 20
-4.6055459055118106
 30
0
 11
2.7551522047244092
 21
-4.6044805511811022
 31
0
  0
LINE
  5
189
330
1B
100
AcDbEntity
  8
User.Drawings
  6
CONTINUOUS
100
AcDbLine
 10
2.7551522047244092
 20
-4.6044805511811022
 30
0
 11
2.7559055118110236
 21
-4.6043307086614176
 31
0
  0
LINE
  5
18A
330
1B
100
AcDbEntity
  8
User.Drawings
  6
CONTINUOUS
100
AcDbLine
 10
2.7559055118110236
 20
-4.6043307086614176
 30
0
 11
3.3070866141732282
 21
-4.6043307086614176
 31
0
  0
LINE
  5
18B
330
1B
100
AcDbEntity
  8
User.Drawings
  6
CONTINUOUS
100
AcDbLine
 10
3.3070866141732282
 20
-4.6043307086614176
 30
0
 11
3.312118503937008
 21
-4.6043307086614176
 31
0
  0
LINE
  5
18C
330
1B
100
AcDbEntity
  8
User.Drawings
  6
CONTINUOUS
100
AcDbLine
 10
3.312118503937008
 20
-4.6043307086614176
 30
0
 11
3.3220961811023622
 21
-4.6030171259842518
 31
0
  0
LINE
  5
18D
330
1B
100
AcDbEntity
  8
User.Drawings
  6
CONTINUOUS
100
AcDbLine
 10
3.3220961811023622
 20
-4.6030171259842518
 30
0
 11
3.3318170078740157
 21
-4.6004124409448819
 31
0
  0
LINE
  5
18E
330
1B
100
AcDbEntity
  8
User.Drawings
  6
CONTINUOUS
100
AcDbLine
 10
3.3318170078740157
 20
-4.6004124409448819
 30
0
 11
3.3411147244094486
 21
-4.5965612204724406
 31
0
  0
LINE
  5
18F
330
1B
100
AcDbEntity
  8
User.Drawings
  6
CONTINUOUS
100
AcDbLine
 10
3.3411147244094486
 20
-4.5965612204724406
 30
0
 11
3.3498301968503936
 21
-4.5915293307086609
 31
0
  0
LINE
  5
190
330
1B
100
AcDbEntity
  8
User.Drawings
  6
CONTINUOUS
100
AcDbLine
 10
3.3498301968503936
 20
-4.5915293307086609
 30
0
 11
3.3578142913385824
 21
-4.5854029133858267
 31
0
  0
LINE
  5
191
330
1B
100
AcDbEntity
  8
User.Drawings
  6
CONTINUOUS
100
AcDbLine
 10
3.3578142913385824
 20
-4.5854029133858267
 30
0
 11
3.3649304724409448
 21
-4.5782867322834644
 31
0
  0
LINE
  5
192
330
1B
100
AcDbEntity
  8
User.Drawings
  6
CONTINUOUS
100
AcDbLine
 10
3.3649304724409448
 20
-4.5782867322834644
 30
0
 11
3.3710568897637794
 21
-4.5703026377952751
 31
0
  0
LINE
  5
193
330
1B
100
AcDbEntity
  8
User.Drawings
  6
CONTINUOUS
100
AcDbLine
 10
3.3710568897637794
 20
-4.5703026377952751
 30
0
 11
3.3760887795275591
 21
-4.5615871653543305
 31
0
  0
LINE
  5
194
330
1B
100
AcDbEntity
  8
User.Drawings
  6
CONTINUOUS
100
AcDbLine
 10
3.3760887795275591
 20
-4.5615871653543305
 30
0
 11
3.3799399999999999
 21
-4.5522894488188976
 31
0
  0
LINE
  5
195
330
1B
100
AcDbEntity
  8
User.Drawings
  6
CONTINUOUS
100
AcDbLine
 10
3.3799399999999999
 20
-4.5522894488188976
 30
0
 11
3.3825446850393699
 21
-4.5425686220472441
 31
0
  0
LINE
  5
196
330
1B
100
AcDbEntity
  8
User.Drawings
  6
CONTINUOUS
100
AcDbLine
 10
3.3825446850393699
 20
-4.5425686220472441
 30
0
 11
3.3838582677165352
 21
-4.53259094488189
 31
0
  0
LINE
  5
197
330
1B
100
AcDbEntity
  8
User.Drawings
  6
CONTINUOUS
100
AcDbLine
 10
3.3838582677165352
 20
-4.53259094488189
 30
0
 11
3.3838582677165352
 21
-4.5275590551181102
 31
0
  0
LINE
  5
198
330
1B
100
AcDbEntity
  8
User.Drawings
  6
CONTINUOUS
100
AcDbLine
 10
3.3838582677165352
 20
-4.5275590551181102
 30
0
 11
3.3838582677165352
 21
-3.2283464566929134
 31
0
  0
LINE
  5
199
330
1B
100
AcDbEntity
  8
User.Drawings
  6
CONTINUOUS
100
AcDbLine
 10
3.3838582677165352
 20
-3.2283464566929134
 30
0
 11
3.3838582677165352
 21
-3.2233145669291337
 31
0
  0
LINE
  5
19A
330
1B
100
AcDbEntity
  8
User.Drawings
  6
CONTINUOUS
100
AcDbLine
 10
3.3838582677165352
 20
-3.2233145669291337
 30
0
 11
3.3825446850393699
 21
-3.2133368897637795
 31
0
  0
LINE
  5
19B
330
1B
100
AcDbEntity
  8
User.Drawings
  6
CONTINUOUS
100
AcDbLine
 10
3.3825446850393699
 20
-3.2133368897637795
 30
0
 11
3.3799399999999999
 21
-3.203616062992126
 31
0
  0
LINE
  5
19C
330
1B
100
AcDbEntity
  8
User.Drawings
  6
CONTINUOUS
100
AcDbLine
 10
3.3799399999999999
 20
-3.203616062992126
 30
0
 11
3.3760887795275591
 21
-3.1943183464566927
 31
0
  0
LINE
  5
19D
330
1B
100
AcDbEntity
  8
User.Drawings
  6
CONTINUOUS
100
AcDbLine
 10
3.3760887795275591
 20
-3.1943183464566927
 30
0
 11
3.3710568897637794
 21
-3.185602874015748
 31
0
  0
LINE
  5
19E
330
1B
100
AcDbEntity
  8
User.Drawings
  6
CONTINUOUS
100
AcDbLine
 10
3.3710568897637794
 20
-3.185602874015748
 30
0
 11
3.3649304724409448
 21
-3.1776187795275588
 31
0
  0
LINE
  5
19F
330
1B
100
AcDbEntity
  8
User.Drawings
  6
CONTINUOUS
100
AcDbLine
 10
3.3649304724409448
 20
-3.1776187795275588
 30
0
 11
3.3578142913385824
 21
-3.1705025984251969
 31
0
  0
LINE
  5
1A0
330
1B
100
AcDbEntity
  8
User.Drawings
  6
CONTINUOUS
100
AcDbLine
 10
3.3578142913385824
 20
-3.1705025984251969
 30
0
 11
3.3498301968503936
 21
-3.1643761811023623
 31
0
  0
LINE
  5
1A1
330
1B
100
AcDbEntity
  8
User.Drawings
  6
CONTINUOUS
100
AcDbLine
 10
3.3498301968503936
 20
-3.1643761811023623
 30
0
 11
3.3411147244094486
 21
-3.1593442913385825
 31
0
  0
LINE
  5
1A2
330
1B
100
AcDbEntity
  8
User.Drawings
  6
CONTINUOUS
100
AcDbLine
 10
3.3411147244094486
 20
-3.1593442913385825
 30
0
 11
3.3318170078740157
 21
-3.1554930708661417
 31
0
  0
LINE
  5
1A3
330
1B
100
AcDbEntity
  8
User.Drawings
  6
CONTINUOUS
100
AcDbLine
 10
3.3318170078740157
 20
-3.1554930708661417
 30
0
 11
3.3220961811023622
 21
-3.1528883858267718
 31
0
  0
LINE
  5
1A4
330
1B
100
AcDbEntity
  8
User.Drawings
  6
CONTINUOUS
100
AcDbLine
 10
3.3220961811023622
 20
-3.1528883858267718
 30
0
 11
3.312118503937008
 21
-3.151574803149606
 31
0
  0
LINE
  5
1A5
330
1B
100
AcDbEntity
  8
User.Drawings
  6
CONTINUOUS
100
AcDbLine
 10
3.312118503937008
 20
-3.151574803149606
 30
0
 11
3.3070866141732282
 21
-3.151574803149606
 31
0
  0
LINE
  5
1A6
330
1B
100
AcDbEntity
  8
User.Drawings
  6
CONTINUOUS
100
AcDbLine
 10
3.3070866141732282
 20
-3.151574803149606
 30
0
 11
2.7559055118110236
 21
-3.151574803149606
 31
0
  0
LINE
  5
1A7
330
1B
100
AcDbEntity
  8
User.Drawings
  6
CONTINUOUS
100
AcDbLine
 10
2.7559055118110236
 20
-3.151574803149606
 30
0
 11
2.7551522047244092
 21
-3.1514249606299214
 31
0
  0
LINE
  5
1A8
330
1B
100
AcDbEntity
  8
User.Drawings
  6
CONTINUOUS
100
AcDbLine
 10
2.7551522047244092
 20
-3.1514249606299214
 30
0
 11
2.7540868503937008
 21
-3.1503596062992125
 31
0
  0
LINE
  5
1A9
330
1B
100
AcDbEntity
  8
User.Drawings
  6
CONTINUOUS
100
AcDbLine
 10
2.7540868503937008
 20
-3.1503596062992125
 30
0
 11
2.7540868503937008
 21
-3.1488529921259842
 31
0
  0
LINE
  5
1AA
330
1B
100
AcDbEntity
  8
User.Drawings
  6
CONTINUOUS
100
AcDbLine
 10
2.7540868503937008
 20
-3.1488529921259842
 30
0
 11
2.7551522047244092
 21
-3.1477876377952754
 31
0
  0
LINE
  5
1AB
330
1B
100
AcDbEntity
  8
User.Drawings
  6
CONTINUOUS
100
AcDbLine
 10
2.7551522047244092
 20
-3.1477876377952754
 30
0
 11
2.7559055118110236
 21
-3.1476377952755903
 31
0
  0
LINE
  5
1AC
330
1B
100
AcDbEntity
  8
User.Drawings
  6
CONTINUOUS
100
AcDbLine
 10
2.7559055118110236
 20
-3.1476377952755903
 30
0
 11
3.3070866141732282
 21
-3.1476377952755903
 31
0
  0
LINE
  5
1AD
330
1B
100
AcDbEntity
  8
User.Drawings
  6
CONTINUOUS
100
AcDbLine
 10
3.3070866141732282
 20
-3.1476377952755903
 30
0
 11
3.3176212204724407
 21
-3.1483282677165354
 31
0
  0
LINE
  5
1AE
330
1B
100
AcDbEntity
  8
User.Drawings
  6
CONTINUOUS
100
AcDbLine
 10
3.3176212204724407
 20
-3.1483282677165354
 30
0
 11
3.3279755511811024
 21
-3.150387874015748
 31
0
  0
LINE
  5
1AF
330
1B
100
AcDbEntity
  8
User.Drawings
  6
CONTINUOUS
100
AcDbLine
 10
3.3279755511811024
 20
-3.150387874015748
 30
0
 11
3.3379724803149604
 21
-3.1537813779527557
 31
0
  0
LINE
  5
1B0
330
1B
100
AcDbEntity
  8
User.Drawings
  6
CONTINUOUS
100
AcDbLine
 10
3.3379724803149604
 20
-3.1537813779527557
 30
0
 11
3.3474409448818898
 21
-3.1584506692913386
 31
0
  0
LINE
  5
1B1
330
1B
100
AcDbEntity
  8
User.Drawings
  6
CONTINUOUS
100
AcDbLine
 10
3.3474409448818898
 20
-3.1584506692913386
 30
0
 11
3.3562189370078741
 21
-3.1643159448818898
 31
0
  0
LINE
  5
1B2
330
1B
100
AcDbEntity
  8
User.Drawings
  6
CONTINUOUS
100
AcDbLine
 10
3.3562189370078741
 20
-3.1643159448818898
 30
0
 11
3.3641562598425194
 21
-3.1712768110236218
 31
0
  0
LINE
  5
1B3
330
1B
100
AcDbEntity
  8
User.Drawings
  6
CONTINUOUS
100
AcDbLine
 10
3.3641562598425194
 20
-3.1712768110236218
 30
0
 11
3.3711171259842518
 21
-3.1792141338582676
 31
0
  0
LINE
  5
1B4
330
1B
100
AcDbEntity
  8
User.Drawings
  6
CONTINUOUS
100
AcDbLine
 10
3.3711171259842518
 20
-3.1792141338582676
 30
0
 11
3.3769824015748031
 21
-3.1879921259842519
 31
0
  0
LINE
  5
1B5
330
1B
100
AcDbEntity
  8
User.Drawings
  6
CONTINUOUS
100
AcDbLine
 10
3.3769824015748031
 20
-3.1879921259842519
 30
0
 11
3.381651692913386
 21
-3.1974605905511808
 31
0
  0
LINE
  5
1B6
330
1B
100
AcDbEntity
  8
User.Drawings
  6
CONTINUOUS
100
AcDbLine
 10
3.381651692913386
 20
-3.1974605905511808
 30
0
 11
3.3850451968503936
 21
-3.2074575196850392
 31
0
  0
LINE
  5
1B7
330
1B
100
AcDbEntity
  8
User.Drawings
  6
CONTINUOUS
100
AcDbLine
 10
3.3850451968503936
 20
-3.2074575196850392
 30
0
 11
3.3871048031496063
 21
-3.2178118503937005
 31
0
  0
LINE
  5
1B8
330
1B
100
AcDbEntity
  8
User.Drawings
  6
CONTINUOUS
100
AcDbLine
 10
3.3871048031496063
 20
-3.2178118503937005
 30
0
 11
3.3877952755905509
 21
-3.2283464566929134
 31
0
  0
LINE
  5
1B9
330
1B
100
AcDbEntity
  8
User.Drawings
  6
CONTINUOUS
100
AcDbLine
 10
3.3877952755905509
 20
-3.2283464566929134
 30
0
 11
3.3877952755905509
 21
-4.5275590551181102
 31
0
  0
LINE
  5
1BA
330
1B
100
AcDbEntity
  8
User.Drawings
  6
CONTINUOUS
100
AcDbLine
 10
3.3877952755905509
 20
-4.5275590551181102
 30
0
 11
3.3871048031496063
 21
-4.5380936614173226
 31
0
  0
LINE
  5
1BB
330
1B
100
AcDbEntity
  8
User.Drawings
  6
CONTINUOUS
100
AcDbLine
 10
3.3871048031496063
 20
-4.5380936614173226
 30
0
 11
3.3850451968503936
 21
-4.5484479921259844
 31
0
  0
LINE
  5
1BC
330
1B
100
AcDbEntity
  8
User.Drawings
  6
CONTINUOUS
100
AcDbLine
 10
3.3850451968503936
 20
-4.5484479921259844
 30
0
 11
3.381651692913386
 21
-4.5584449212598424
 31
0
  0
LINE
  5
1BD
330
1B
100
AcDbEntity
  8
User.Drawings
  6
CONTINUOUS
100
AcDbLine
 10
3.381651692913386
 20
-4.5584449212598424
 30
0
 11
3.3769824015748031
 21
-4.5679133858267713
 31
0
  0
LINE
  5
1BE
330
1B
100
AcDbEntity
  8
User.Drawings
  6
CONTINUOUS
100
AcDbLine
 10
3.3769824015748031
 20
-4.5679133858267713
 30
0
 11
3.3711171259842518
 21
-4.5766913779527556
 31
0
  0
LINE
  5
1BF
330
1B
100
AcDbEntity
  8
User.Drawings
  6
CONTINUOUS
100
AcDbLine
 10
3.3711171259842518
 20
-4.5766913779527556
 30
0
 11
3.3641562598425194
 21
-4.5846287007874018
 31
0
  0
LINE
  5
1C0
330
1B
100
AcDbEntity
  8
User.Drawings
  6
CONTINUOUS
100
AcDbLine
 10
3.3641562598425194
 20
-4.5846287007874018
 30
0
 11
3.3562189370078741
 21
-4.5915895669291338
 31
0
  0
LINE
  5
1C1
330
1B
100
AcDbEntity
  8
User.Drawings
  6
CONTINUOUS
100
AcDbLine
 10
3.3562189370078741
 20
-4.5915895669291338
 30
0
 11
3.3474409448818898
 21
-4.5974548425196851
 31
0
  0
LINE
  5
1C2
330
1B
100
AcDbEntity
  8
User.Drawings
  6
CONTINUOUS
100
AcDbLine
 10
3.3474409448818898
 20
-4.5974548425196851
 30
0
 11
3.3379724803149604
 21
-4.6021241338582675
 31
0
  0
LINE
  5
1C3
330
1B
100
AcDbEntity
  8
User.Drawings
  6
CONTINUOUS
100
AcDbLine
 10
3.3379724803149604
 20
-4.6021241338582675
 30
0
 11
3.3314701968503937
 21
-4.6043313385826767
 31
0
  0
LINE
  5
1C4
330
1B
100
AcDbEntity
  8
User.Drawings
  6
CONTINUOUS
100
AcDbLine
 10
3.3314701968503937
 20
-4.6043313385826767
 30
0
 11
3.442459527559055
 21
-4.6043313385826767
 31
0
  0
LINE
  5
1C5
330
1B
100
AcDbEntity
  8
User.Drawings
  6
CONTINUOUS
100
AcDbLine
 10
3.442459527559055
 20
-4.6043313385826767
 30
0
 11
3.4430903149606298
 21
-4.6033126377952751
 31
0
  0
LINE
  5
1C6
330
1B
100
AcDbEntity
  8
User.Drawings
  6
CONTINUOUS
100
AcDbLine
 10
3.4430903149606298
 20
-4.6033126377952751
 30
0
 11
3.4494998031496062
 21
-4.5904406299212601
 31
0
  0
LINE
  5
1C7
330
1B
100
AcDbEntity
  8
User.Drawings
  6
CONTINUOUS
100
AcDbLine
 10
3.4494998031496062
 20
-4.5904406299212601
 30
0
 11
3.4546942913385825
 21
-4.5770321653543302
 31
0
  0
LINE
  5
1C8
330
1B
100
AcDbEntity
  8
User.Drawings
  6
CONTINUOUS
100
AcDbLine
 10
3.4546942913385825
 20
-4.5770321653543302
 30
0
 11
3.458629409448819
 21
-4.5632016141732281
 31
0
  0
LINE
  5
1C9
330
1B
100
AcDbEntity
  8
User.Drawings
  6
CONTINUOUS
100
AcDbLine
 10
3.458629409448819
 20
-4.5632016141732281
 30
0
 11
3.461271653543307
 21
-4.5490669291338586
 31
0
  0
LINE
  5
1CA
330
1B
100
AcDbEntity
  8
User.Drawings
  6
CONTINUOUS
100
AcDbLine
 10
3.461271653543307
 20
-4.5490669291338586
 30
0
 11
3.4625984251968505
 21
-4.5347487795275594
 31
0
  0
LINE
  5
1CB
330
1B
100
AcDbEntity
  8
User.Drawings
  6
CONTINUOUS
100
AcDbLine
 10
3.4625984251968505
 20
-4.5347487795275594
 30
0
 11
3.4625984251968505
 21
-4.5275590551181102
 31
0
  0
LINE
  5
1CC
330
1B
100
AcDbEntity
  8
User.Drawings
  6
CONTINUOUS
100
AcDbLine
 10
3.4625984251968505
 20
-4.5275590551181102
 30
0
 11
3.4625984251968505
 21
-3.2283464566929134
 31
0
  0
LINE
  5
1CD
330
1B
100
AcDbEntity
  8
User.Drawings
  6
CONTINUOUS
100
AcDbLine
 10
3.4625984251968505
 20
-3.2283464566929134
 30
0
 11
3.4625984251968505
 21
-3.2211567322834647
 31
0
  0
LINE
  5
1CE
330
1B
100
AcDbEntity
  8
User.Drawings
  6
CONTINUOUS
100
AcDbLine
 10
3.4625984251968505
 20
-3.2211567322834647
 30
0
 11
3.461271653543307
 21
-3.2068385826771655
 31
0
  0
LINE
  5
1CF
330
1B
100
AcDbEntity
  8
User.Drawings
  6
CONTINUOUS
100
AcDbLine
 10
3.461271653543307
 20
-3.2068385826771655
 30
0
 11
3.458629409448819
 21
-3.1927038976377951
 31
0
  0
LINE
  5
1D0
330
1B
100
AcDbEntity
  8
User.Drawings
  6
CONTINUOUS
100
AcDbLine
 10
3.458629409448819
 20
-3.1927038976377951
 30
0
 11
3.4546942913385825
 21
-3.1788733464566929
 31
0
  0
LINE
  5
1D1
330
1B
100
AcDbEntity
  8
User.Drawings
  6
CONTINUOUS
100
AcDbLine
 10
3.4546942913385825
 20
-3.1788733464566929
 30
0
 11
3.4494998031496062
 21
-3.1654648818897635
 31
0
  0
LINE
  5
1D2
330
1B
100
AcDbEntity
  8
User.Drawings
  6
CONTINUOUS
100
AcDbLine
 10
3.4494998031496062
 20
-3.1654648818897635
 30
0
 11
3.4430903149606298
 21
-3.1525928740157481
 31
0
  0
LINE
  5
1D3
330
1B
100
AcDbEntity
  8
User.Drawings
  6
CONTINUOUS
100
AcDbLine
 10
3.4430903149606298
 20
-3.1525928740157481
 30
0
 11
3.4355205118110237
 21
-3.1403672047244093
 31
0
  0
LINE
  5
1D4
330
1B
100
AcDbEntity
  8
User.Drawings
  6
CONTINUOUS
100
AcDbLine
 10
3.4355205118110237
 20
-3.1403672047244093
 30
0
 11
3.4268549212598423
 21
-3.1288921259842519
 31
0
  0
LINE
  5
1D5
330
1B
100
AcDbEntity
  8
User.Drawings
  6
CONTINUOUS
100
AcDbLine
 10
3.4268549212598423
 20
-3.1288921259842519
 30
0
 11
3.4171675196850395
 21
-3.1182655511811022
 31
0
  0
LINE
  5
1D6
330
1B
100
AcDbEntity
  8
User.Drawings
  6
CONTINUOUS
100
AcDbLine
 10
3.4171675196850395
 20
-3.1182655511811022
 30
0
 11
3.4065409448818897
 21
-3.108578149606299
 31
0
  0
LINE
  5
1D7
330
1B
100
AcDbEntity
  8
User.Drawings
  6
CONTINUOUS
100
AcDbLine
 10
3.4065409448818897
 20
-3.108578149606299
 30
0
 11
3.3950658661417323
 21
-3.099912559055118
 31
0
  0
LINE
  5
1D8
330
1B
100
AcDbEntity
  8
User.Drawings
  6
CONTINUOUS
100
AcDbLine
 10
3.3950658661417323
 20
-3.099912559055118
 30
0
 11
3.3828401968503936
 21
-3.0923427559055119
 31
0
  0
LINE
  5
1D9
330
1B
100
AcDbEntity
  8
User.Drawings
  6
CONTINUOUS
100
AcDbLine
 10
3.3828401968503936
 20
-3.0923427559055119
 30
0
 11
3.3699681889763777
 21
-3.0859332677165354
 31
0
  0
LINE
  5
1DA
330
1B
100
AcDbEntity
  8
User.Drawings
  6
CONTINUOUS
100
AcDbLine
 10
3.3699681889763777
 20
-3.0859332677165354
 30
0
 11
3.3565597244094487
 21
-3.0807387795275591
 31
0
  0
LINE
  5
1DB
330
1B
100
AcDbEntity
  8
User.Drawings
  6
CONTINUOUS
100
AcDbLine
 10
3.3565597244094487
 20
-3.0807387795275591
 30
0
 11
3.3427291732283462
 21
-3.0768036614173226
 31
0
  0
LINE
  5
1DC
330
1B
100
AcDbEntity
  8
User.Drawings
  6
CONTINUOUS
100
AcDbLine
 10
3.3427291732283462
 20
-3.0768036614173226
 30
0
 11
3.3285944881889762
 21
-3.0741614173228347
 31
0
  0
LINE
  5
1DD
330
1B
100
AcDbEntity
  8
User.Drawings
  6
CONTINUOUS
100
AcDbLine
 10
3.3285944881889762
 20
-3.0741614173228347
 30
0
 11
3.314276338582677
 21
-3.0728346456692912
 31
0
  0
LINE
  5
1DE
330
1B
100
AcDbEntity
  8
User.Drawings
  6
CONTINUOUS
100
AcDbLine
 10
3.314276338582677
 20
-3.0728346456692912
 30
0
 11
3.3070866141732282
 21
-3.0728346456692912
 31
0
  0
LINE
  5
1DF
330
1B
100
AcDbEntity
  8
User.Drawings
  6
CONTINUOUS
100
AcDbLine
 10
3.3070866141732282
 20
-3.0728346456692912
 30
0
 11
2.7559055118110236
 21
-3.0728346456692912
 31
0
  0
LINE
  5
1E0
330
1B
100
AcDbEntity
  8
User.Drawings
  6
CONTINUOUS
100
AcDbLine
 10
2.7559055118110236
 20
-3.0728346456692912
 30
0
 11
2.7551522047244092
 21
-3.0726848031496061
 31
0
  0
LINE
  5
1E1
330
1B
100
AcDbEntity
  8
User.Drawings
  6
CONTINUOUS
100
AcDbLine
 10
2.7551522047244092
 20
-3.0726848031496061
 30
0
 11
2.7540868503937008
 21
-3.0716194488188977
 31
0
  0
LINE
  5
1E2
330
1B
100
AcDbEntity
  8
User.Drawings
  6
CONTINUOUS
100
AcDbLine
 10
2.7540868503937008
 20
-3.0716194488188977
 30
0
 11
2.7540868503937008
 21
-3.0701128346456694
 31
0
  0
LINE
  5
1E3
330
1B
100
AcDbEntity
  8
User.Drawings
  6
CONTINUOUS
100
AcDbLine
 10
2.7540868503937008
 20
-3.0701128346456694
 30
0
 11
2.7551522047244092
 21
-3.0690474803149606
 31
0
  0
LINE
  5
1E4
330
1B
100
AcDbEntity
  8
User.Drawings
  6
CONTINUOUS
100
AcDbLine
 10
2.7551522047244092
 20
-3.0690474803149606
 30
0
 11
2.7559055118110236
 21
-3.0688976377952755
 31
0
  0
LINE
  5
1E5
330
1B
100
AcDbEntity
  8
User.Drawings
  6
CONTINUOUS
100
AcDbLine
 10
2.7559055118110236
 20
-3.0688976377952755
 30
0
 11
3.3070866141732282
 21
-3.0688976377952755
 31
0
  0
LINE
  5
1E6
330
1B
100
AcDbEntity
  8
User.Drawings
  6
CONTINUOUS
100
AcDbLine
 10
7.5835998031496059
 20
-4.6082677165354333
 30
0
 11
7.5881015354330703
 21
-4.6155383070866138
 31
0
  0
LINE
  5
1E7
330
1B
100
AcDbEntity
  8
User.Drawings
  6
CONTINUOUS
100
AcDbLine
 10
7.5881015354330703
 20
-4.6155383070866138
 30
0
 11
7.5967671259842522
 21
-4.6270133858267712
 31
0
  0
LINE
  5
1E8
330
1B
100
AcDbEntity
  8
User.Drawings
  6
CONTINUOUS
100
AcDbLine
 10
7.5967671259842522
 20
-4.6270133858267712
 30
0
 11
7.6064545275590554
 21
-4.6376399606299215
 31
0
  0
LINE
  5
1E9
330
1B
100
AcDbEntity
  8
User.Drawings
  6
CONTINUOUS
100
AcDbLine
 10
7.6064545275590554
 20
-4.6376399606299215
 30
0
 11
7.6170811023622047
 21
-4.6473273622047246
 31
0
  0
LINE
  5
1EA
330
1B
100
AcDbEntity
  8
User.Drawings
  6
CONTINUOUS
100
AcDbLine
 10
7.6170811023622047
 20
-4.6473273622047246
 30
0
 11
7.6285561811023621
 21
-4.6559929527559056
 31
0
  0
LINE
  5
1EB
330
1B
100
AcDbEntity
  8
User.Drawings
  6
CONTINUOUS
100
AcDbLine
 10
7.6285561811023621
 20
-4.6559929527559056
 30
0
 11
7.6407818503937008
 21
-4.6635627559055113
 31
0
  0
LINE
  5
1EC
330
1B
100
AcDbEntity
  8
User.Drawings
  6
CONTINUOUS
100
AcDbLine
 10
7.6407818503937008
 20
-4.6635627559055113
 30
0
 11
7.6536538582677167
 21
-4.6699722440944882
 31
0
  0
LINE
  5
1ED
330
1B
100
AcDbEntity
  8
User.Drawings
  6
CONTINUOUS
100
AcDbLine
 10
7.6536538582677167
 20
-4.6699722440944882
 30
0
 11
7.6670623228346457
 21
-4.675166732283464
 31
0
  0
LINE
  5
1EE
330
1B
100
AcDbEntity
  8
User.Drawings
  6
CONTINUOUS
100
AcDbLine
 10
7.6670623228346457
 20
-4.675166732283464
 30
0
 11
7.6808928740157478
 21
-4.6791018503937005
 31
0
  0
LINE
  5
1EF
330
1B
100
AcDbEntity
  8
User.Drawings
  6
CONTINUOUS
100
AcDbLine
 10
7.6808928740157478
 20
-4.6791018503937005
 30
0
 11
7.6950275590551183
 21
-4.681744094488189
 31
0
  0
LINE
  5
1F0
330
1B
100
AcDbEntity
  8
User.Drawings
  6
CONTINUOUS
100
AcDbLine
 10
7.6950275590551183
 20
-4.681744094488189
 30
0
 11
7.7093455118110237
 21
-4.6830708267716536
 31
0
  0
LINE
  5
1F1
330
1B
100
AcDbEntity
  8
User.Drawings
  6
CONTINUOUS
100
AcDbLine
 10
7.7093455118110237
 20
-4.6830708267716536
 30
0
 11
7.834645669291338
 21
-4.6830708661417324
 31
0
  0
LINE
  5
1F2
330
1B
100
AcDbEntity
  8
User.Drawings
  6
CONTINUOUS
100
AcDbLine
 10
7.834645669291338
 20
-4.6830708661417324
 30
0
 11
7.9675813385826766
 21
-4.6830708661417324
 31
0
  0
LINE
  5
1F3
330
1B
100
AcDbEntity
  8
User.Drawings
  6
CONTINUOUS
100
AcDbLine
 10
7.9675813385826766
 20
-4.6830708661417324
 30
0
 11
7.9630795669291334
 21
-4.675800275590551
 31
0
  0
LINE
  5
1F4
330
1B
100
AcDbEntity
  8
User.Drawings
  6
CONTINUOUS
100
AcDbLine
 10
7.9630795669291334
 20
-4.675800275590551
 30
0
 11
7.9544139763779524
 21
-4.6643251968503936
 31
0
  0
LINE
  5
1F5
330
1B
100
AcDbEntity
  8
User.Drawings
  6
CONTINUOUS
100
AcDbLine
 10
7.9544139763779524
 20
-4.6643251968503936
 30
0
 11
7.9447265748031493
 21
-4.6536986220472443
 31
0
  0
LINE
  5
1F6
330
1B
100
AcDbEntity
  8
User.Drawings
  6
CONTINUOUS
100
AcDbLine
 10
7.9447265748031493
 20
-4.6536986220472443
 30
0
 11
7.9340999999999999
 21
-4.6440112204724411
 31
0
  0
LINE
  5
1F7
330
1B
100
AcDbEntity
  8
User.Drawings
  6
CONTINUOUS
100
AcDbLine
 10
7.9340999999999999
 20
-4.6440112204724411
 30
0
 11
7.9226249212598425
 21
-4.6353456299212601
 31
0
  0
LINE
  5
1F8
330
1B
100
AcDbEntity
  8
User.Drawings
  6
CONTINUOUS
100
AcDbLine
 10
7.9226249212598425
 20
-4.6353456299212601
 30
0
 11
7.9103992519685038
 21
-4.6277758267716536
 31
0
  0
LINE
  5
1F9
330
1B
100
AcDbEntity
  8
User.Drawings
  6
CONTINUOUS
100
AcDbLine
 10
7.9103992519685038
 20
-4.6277758267716536
 30
0
 11
7.8975272440944879
 21
-4.6213663385826766
 31
0
  0
LINE
  5
1FA
330
1B
100
AcDbEntity
  8
User.Drawings
  6
CONTINUOUS
100
AcDbLine
 10
7.8975272440944879
 20
-4.6213663385826766
 30
0
 11
7.8841187795275589
 21
-4.6161718503937008
 31
0
  0
LINE
  5
1FB
330
1B
100
AcDbEntity
  8
User.Drawings
  6
CONTINUOUS
100
AcDbLine
 10
7.8841187795275589
 20
-4.6161718503937008
 30
0
 11
7.8702882283464568
 21
-4.6122367322834643
 31
0
  0
LINE
  5
1FC
330
1B
100
AcDbEntity
  8
User.Drawings
  6
CONTINUOUS
100
AcDbLine
 10
7.8702882283464568
 20
-4.6122367322834643
 30
0
 11
7.8561535433070864
 21
-4.6095944881889759
 31
0
  0
LINE
  5
1FD
330
1B
100
AcDbEntity
  8
User.Drawings
  6
CONTINUOUS
100
AcDbLine
 10
7.8561535433070864
 20
-4.6095944881889759
 30
0
 11
7.8418353937007872
 21
-4.6082677165354333
 31
0
  0
LINE
  5
1FE
330
1B
100
AcDbEntity
  8
User.Drawings
  6
CONTINUOUS
100
AcDbLine
 10
7.8418353937007872
 20
-4.6082677165354333
 30
0
 11
7.834645669291338
 21
-4.6082677165354333
 31
0
  0
LINE
  5
1FF
330
1B
100
AcDbEntity
  8
User.Drawings
  6
CONTINUOUS
100
AcDbLine
 10
7.834645669291338
 20
-4.6082677165354333
 30
0
 11
7.5835998031496059
 21
-4.6082677165354333
 31
0
  0
LINE
  5
200
330
1B
100
AcDbEntity
  8
User.Drawings
  6
CONTINUOUS
100
AcDbLine
 10
3.167467401574803
 20
-4.6095949212598422
 30
0
 11
3.1533326771653543
 21
-4.6122370472440943
 31
0
  0
LINE
  5
201
330
1B
100
AcDbEntity
  8
User.Drawings
  6
CONTINUOUS
100
AcDbLine
 10
3.1533326771653543
 20
-4.6122370472440943
 30
0
 11
3.1395020472440942
 21
-4.6161720866141733
 31
0
  0
LINE
  5
202
330
1B
100
AcDbEntity
  8
User.Drawings
  6
CONTINUOUS
100
AcDbLine
 10
3.1395020472440942
 20
-4.6161720866141733
 30
0
 11
3.1260935039370077
 21
-4.6213664960629917
 31
0
  0
LINE
  5
203
330
1B
100
AcDbEntity
  8
User.Drawings
  6
CONTINUOUS
100
AcDbLine
 10
3.1260935039370077
 20
-4.6213664960629917
 30
0
 11
3.1132214173228347
 21
-4.6277759448818898
 31
0
  0
LINE
  5
204
330
1B
100
AcDbEntity
  8
User.Drawings
  6
CONTINUOUS
100
AcDbLine
 10
3.1132214173228347
 20
-4.6277759448818898
 30
0
 11
3.1009956692913385
 21
-4.6353457480314963
 31
0
  0
LINE
  5
205
330
1B
100
AcDbEntity
  8
User.Drawings
  6
CONTINUOUS
100
AcDbLine
 10
3.1009956692913385
 20
-4.6353457480314963
 30
0
 11
3.0895205511811024
 21
-4.6440113385826773
 31
0
  0
LINE
  5
206
330
1B
100
AcDbEntity
  8
User.Drawings
  6
CONTINUOUS
100
AcDbLine
 10
3.0895205511811024
 20
-4.6440113385826773
 30
0
 11
3.0788939370078738
 21
-4.6536987401574805
 31
0
  0
LINE
  5
207
330
1B
100
AcDbEntity
  8
User.Drawings
  6
CONTINUOUS
100
AcDbLine
 10
3.0788939370078738
 20
-4.6536987401574805
 30
0
 11
3.0692065354330706
 21
-4.6643253543307086
 31
0
  0
LINE
  5
208
330
1B
100
AcDbEntity
  8
User.Drawings
  6
CONTINUOUS
100
AcDbLine
 10
3.0692065354330706
 20
-4.6643253543307086
 30
0
 11
3.0605409448818897
 21
-4.6758004724409448
 31
0
  0
LINE
  5
209
330
1B
100
AcDbEntity
  8
User.Drawings
  6
CONTINUOUS
100
AcDbLine
 10
3.0605409448818897
 20
-4.6758004724409448
 30
0
 11
3.0560393307086615
 21
-4.6830708661417324
 31
0
  0
LINE
  5
20A
330
1B
100
AcDbEntity
  8
User.Drawings
  6
CONTINUOUS
100
AcDbLine
 10
3.0560393307086615
 20
-4.6830708661417324
 30
0
 11
3.1889660236220472
 21
-4.6830708661417324
 31
0
  0
LINE
  5
20B
330
1B
100
AcDbEntity
  8
User.Drawings
  6
CONTINUOUS
100
AcDbLine
 10
3.1889660236220472
 20
-4.6830708661417324
 30
0
 11
3.1889750393700789
 21
-4.6830702755905511
 31
0
  0
LINE
  5
20C
330
1B
100
AcDbEntity
  8
User.Drawings
  6
CONTINUOUS
100
AcDbLine
 10
3.1889750393700789
 20
-4.6830702755905511
 30
0
 11
3.3142825196850394
 21
-4.6830702755905511
 31
0
  0
LINE
  5
20D
330
1B
100
AcDbEntity
  8
User.Drawings
  6
CONTINUOUS
100
AcDbLine
 10
3.3142825196850394
 20
-4.6830702755905511
 30
0
 11
3.3285944881889762
 21
-4.681744094488189
 31
0
  0
LINE
  5
20E
330
1B
100
AcDbEntity
  8
User.Drawings
  6
CONTINUOUS
100
AcDbLine
 10
3.3285944881889762
 20
-4.681744094488189
 30
0
 11
3.3427291732283462
 21
-4.6791018503937005
 31
0
  0
LINE
  5
20F
330
1B
100
AcDbEntity
  8
User.Drawings
  6
CONTINUOUS
100
AcDbLine
 10
3.3427291732283462
 20
-4.6791018503937005
 30
0
 11
3.3565597244094487
 21
-4.675166732283464
 31
0
  0
LINE
  5
210
330
1B
100
AcDbEntity
  8
User.Drawings
  6
CONTINUOUS
100
AcDbLine
 10
3.3565597244094487
 20
-4.675166732283464
 30
0
 11
3.3699681889763777
 21
-4.6699722440944882
 31
0
  0
LINE
  5
211
330
1B
100
AcDbEntity
  8
User.Drawings
  6
CONTINUOUS
100
AcDbLine
 10
3.3699681889763777
 20
-4.6699722440944882
 30
0
 11
3.3828401968503936
 21
-4.6635627559055113
 31
0
  0
LINE
  5
212
330
1B
100
AcDbEntity
  8
User.Drawings
  6
CONTINUOUS
100
AcDbLine
 10
3.3828401968503936
 20
-4.6635627559055113
 30
0
 11
3.3950658661417323
 21
-4.6559929527559056
 31
0
  0
LINE
  5
213
330
1B
100
AcDbEntity
  8
User.Drawings
  6
CONTINUOUS
100
AcDbLine
 10
3.3950658661417323
 20
-4.6559929527559056
 30
0
 11
3.4065409448818897
 21
-4.6473273622047246
 31
0
  0
LINE
  5
214
330
1B
100
AcDbEntity
  8
User.Drawings
  6
CONTINUOUS
100
AcDbLine
 10
3.4065409448818897
 20
-4.6473273622047246
 30
0
 11
3.4171675196850395
 21
-4.6376399606299215
 31
0
  0
LINE
  5
215
330
1B
100
AcDbEntity
  8
User.Drawings
  6
CONTINUOUS
100
AcDbLine
 10
3.4171675196850395
 20
-4.6376399606299215
 30
0
 11
3.4268549212598423
 21
-4.6270133858267712
 31
0
  0
LINE
  5
216
330
1B
100
AcDbEntity
  8
User.Drawings
  6
CONTINUOUS
100
AcDbLine
 10
3.4268549212598423
 20
-4.6270133858267712
 30
0
 11
3.4355205118110237
 21
-4.6155383070866138
 31
0
  0
LINE
  5
217
330
1B
100
AcDbEntity
  8
User.Drawings
  6
CONTINUOUS
100
AcDbLine
 10
3.4355205118110237
 20
-4.6155383070866138
 30
0
 11
3.4400218503937006
 21
-4.6082683464566925
 31
0
  0
LINE
  5
218
330
1B
100
AcDbEntity
  8
User.Drawings
  6
CONTINUOUS
100
AcDbLine
 10
3.4400218503937006
 20
-4.6082683464566925
 30
0
 11
3.1889753937007872
 21
-4.6082683858267712
 31
0
  0
LINE
  5
219
330
1B
100
AcDbEntity
  8
User.Drawings
  6
CONTINUOUS
100
AcDbLine
 10
3.1889753937007872
 20
-4.6082683858267712
 30
0
 11
3.1889753543307084
 21
-4.6082683464566925
 31
0
  0
LINE
  5
21A
330
1B
100
AcDbEntity
  8
User.Drawings
  6
CONTINUOUS
100
AcDbLine
 10
3.1889753543307084
 20
-4.6082683464566925
 30
0
 11
3.1889753543307084
 21
-4.6082683858267712
 31
0
  0
LINE
  5
21B
330
1B
100
AcDbEntity
  8
User.Drawings
  6
CONTINUOUS
100
AcDbLine
 10
3.1889753543307084
 20
-4.6082683858267712
 30
0
 11
3.1817855905511809
 21
-4.6082683070866137
 31
0
  0
LINE
  5
21C
330
1B
100
AcDbEntity
  8
User.Drawings
  6
CONTINUOUS
100
AcDbLine
 10
3.1817855905511809
 20
-4.6082683070866137
 30
0
 11
3.167467401574803
 21
-4.6095949212598422
 31
0
  0
LINE
  5
21D
330
1B
100
AcDbEntity
  8
User.Drawings
  6
CONTINUOUS
100
AcDbLine
 10
3.4444516141732282
 20
-4.6082683464566925
 30
0
 11
3.442652716535433
 21
-4.6114980314960627
 31
0
  0
LINE
  5
21E
330
1B
100
AcDbEntity
  8
User.Drawings
  6
CONTINUOUS
100
AcDbLine
 10
3.442652716535433
 20
-4.6114980314960627
 30
0
 11
3.4343295275590551
 21
-4.6236484251968504
 31
0
  0
LINE
  5
21F
330
1B
100
AcDbEntity
  8
User.Drawings
  6
CONTINUOUS
100
AcDbLine
 10
3.4343295275590551
 20
-4.6236484251968504
 30
0
 11
3.4249207086614173
 21
-4.6349790157480317
 31
0
  0
LINE
  5
220
330
1B
100
AcDbEntity
  8
User.Drawings
  6
CONTINUOUS
100
AcDbLine
 10
3.4249207086614173
 20
-4.6349790157480317
 30
0
 11
3.4145065748031493
 21
-4.6453931496062992
 31
0
  0
LINE
  5
221
330
1B
100
AcDbEntity
  8
User.Drawings
  6
CONTINUOUS
100
AcDbLine
 10
3.4145065748031493
 20
-4.6453931496062992
 30
0
 11
3.4031759842519684
 21
-4.6548019685039366
 31
0
  0
LINE
  5
222
330
1B
100
AcDbEntity
  8
User.Drawings
  6
CONTINUOUS
100
AcDbLine
 10
3.4031759842519684
 20
-4.6548019685039366
 30
0
 11
3.3910255905511812
 21
-4.663125157480315
 31
0
  0
LINE
  5
223
330
1B
100
AcDbEntity
  8
User.Drawings
  6
CONTINUOUS
100
AcDbLine
 10
3.3910255905511812
 20
-4.663125157480315
 30
0
 11
3.3781590551181102
 21
-4.6702917716535435
 31
0
  0
LINE
  5
224
330
1B
100
AcDbEntity
  8
User.Drawings
  6
CONTINUOUS
100
AcDbLine
 10
3.3781590551181102
 20
-4.6702917716535435
 30
0
 11
3.3646861811023623
 21
-4.67624062992126
 31
0
  0
LINE
  5
225
330
1B
100
AcDbEntity
  8
User.Drawings
  6
CONTINUOUS
100
AcDbLine
 10
3.3646861811023623
 20
-4.67624062992126
 30
0
 11
3.3507218503937009
 21
-4.6809210236220471
 31
0
  0
LINE
  5
226
330
1B
100
AcDbEntity
  8
User.Drawings
  6
CONTINUOUS
100
AcDbLine
 10
3.3507218503937009
 20
-4.6809210236220471
 30
0
 11
3.3415837007874014
 21
-4.6830702755905511
 31
0
  0
LINE
  5
227
330
1B
100
AcDbEntity
  8
User.Drawings
  6
CONTINUOUS
100
AcDbLine
 10
3.3415837007874014
 20
-4.6830702755905511
 30
0
 11
7.6820406692913386
 21
-4.6830708267716536
 31
0
  0
LINE
  5
228
330
1B
100
AcDbEntity
  8
User.Drawings
  6
CONTINUOUS
100
AcDbLine
 10
7.6820406692913386
 20
-4.6830708267716536
 30
0
 11
7.6729001968503932
 21
-4.6809210236220471
 31
0
  0
LINE
  5
229
330
1B
100
AcDbEntity
  8
User.Drawings
  6
CONTINUOUS
100
AcDbLine
 10
7.6729001968503932
 20
-4.6809210236220471
 30
0
 11
7.6589358661417322
 21
-4.67624062992126
 31
0
  0
LINE
  5
22A
330
1B
100
AcDbEntity
  8
User.Drawings
  6
CONTINUOUS
100
AcDbLine
 10
7.6589358661417322
 20
-4.67624062992126
 30
0
 11
7.6454629921259842
 21
-4.6702917716535435
 31
0
  0
LINE
  5
22B
330
1B
100
AcDbEntity
  8
User.Drawings
  6
CONTINUOUS
100
AcDbLine
 10
7.6454629921259842
 20
-4.6702917716535435
 30
0
 11
7.6325964566929132
 21
-4.663125157480315
 31
0
  0
LINE
  5
22C
330
1B
100
AcDbEntity
  8
User.Drawings
  6
CONTINUOUS
100
AcDbLine
 10
7.6325964566929132
 20
-4.663125157480315
 30
0
 11
7.6204460629921256
 21
-4.6548019685039366
 31
0
  0
LINE
  5
22D
330
1B
100
AcDbEntity
  8
User.Drawings
  6
CONTINUOUS
100
AcDbLine
 10
7.6204460629921256
 20
-4.6548019685039366
 30
0
 11
7.6091154724409451
 21
-4.6453931496062992
 31
0
  0
LINE
  5
22E
330
1B
100
AcDbEntity
  8
User.Drawings
  6
CONTINUOUS
100
AcDbLine
 10
7.6091154724409451
 20
-4.6453931496062992
 30
0
 11
7.5987013385826767
 21
-4.6349790157480317
 31
0
  0
LINE
  5
22F
330
1B
100
AcDbEntity
  8
User.Drawings
  6
CONTINUOUS
100
AcDbLine
 10
7.5987013385826767
 20
-4.6349790157480317
 30
0
 11
7.5892925196850394
 21
-4.6236484251968504
 31
0
  0
LINE
  5
230
330
1B
100
AcDbEntity
  8
User.Drawings
  6
CONTINUOUS
100
AcDbLine
 10
7.5892925196850394
 20
-4.6236484251968504
 30
0
 11
7.580969330708661
 21
-4.6114980314960627
 31
0
  0
LINE
  5
231
330
1B
100
AcDbEntity
  8
User.Drawings
  6
CONTINUOUS
100
AcDbLine
 10
7.580969330708661
 20
-4.6114980314960627
 30
0
 11
7.5791700393700783
 21
-4.6082677165354333
 31
0
  0
LINE
  5
232
330
1B
100
AcDbEntity
  8
User.Drawings
  6
CONTINUOUS
100
AcDbLine
 10
7.5791700393700783
 20
-4.6082677165354333
 30
0
 11
3.4444516141732282
 21
-4.6082683464566925
 31
0
  0
LINE
  5
233
330
1B
100
AcDbEntity
  8
User.Drawings
  6
CONTINUOUS
100
AcDbLine
 10
5.748784803149606
 20
-4.9391262204724411
 30
0
 11
5.7498501574803145
 21
-4.9401915748031495
 31
0
  0
LINE
  5
234
330
1B
100
AcDbEntity
  8
User.Drawings
  6
CONTINUOUS
100
AcDbLine
 10
5.7498501574803145
 20
-4.9401915748031495
 30
0
 11
5.75
 21
-4.9409448818897639
 31
0
  0
LINE
  5
235
330
1B
100
AcDbEntity
  8
User.Drawings
  6
CONTINUOUS
100
AcDbLine
 10
5.75
 20
-4.9409448818897639
 30
0
 11
5.75
 21
-5.0590551181102361
 31
0
  0
LINE
  5
236
330
1B
100
AcDbEntity
  8
User.Drawings
  6
CONTINUOUS
100
AcDbLine
 10
5.75
 20
-5.0590551181102361
 30
0
 11
5.7498501574803145
 21
-5.0598084251968505
 31
0
  0
LINE
  5
237
330
1B
100
AcDbEntity
  8
User.Drawings
  6
CONTINUOUS
100
AcDbLine
 10
5.7498501574803145
 20
-5.0598084251968505
 30
0
 11
5.748784803149606
 21
-5.0608737795275589
 31
0
  0
LINE
  5
238
330
1B
100
AcDbEntity
  8
User.Drawings
  6
CONTINUOUS
100
AcDbLine
 10
5.748784803149606
 20
-5.0608737795275589
 30
0
 11
5.7480314960629917
 21
-5.0610236220472435
 31
0
  0
LINE
  5
239
330
1B
100
AcDbEntity
  8
User.Drawings
  6
CONTINUOUS
100
AcDbLine
 10
5.7480314960629917
 20
-5.0610236220472435
 30
0
 11
5.1574803149606296
 21
-5.0610236220472435
 31
0
  0
LINE
  5
23A
330
1B
100
AcDbEntity
  8
User.Drawings
  6
CONTINUOUS
100
AcDbLine
 10
5.1574803149606296
 20
-5.0610236220472435
 30
0
 11
5.1567270078740153
 21
-5.0608737795275589
 31
0
  0
LINE
  5
23B
330
1B
100
AcDbEntity
  8
User.Drawings
  6
CONTINUOUS
100
AcDbLine
 10
5.1567270078740153
 20
-5.0608737795275589
 30
0
 11
5.1556616535433069
 21
-5.0598084251968505
 31
0
  0
LINE
  5
23C
330
1B
100
AcDbEntity
  8
User.Drawings
  6
CONTINUOUS
100
AcDbLine
 10
5.1556616535433069
 20
-5.0598084251968505
 30
0
 11
5.1555118110236222
 21
-5.0590551181102361
 31
0
  0
LINE
  5
23D
330
1B
100
AcDbEntity
  8
User.Drawings
  6
CONTINUOUS
100
AcDbLine
 10
5.1555118110236222
 20
-5.0590551181102361
 30
0
 11
5.1555118110236222
 21
-4.9409448818897639
 31
0
  0
LINE
  5
23E
330
1B
100
AcDbEntity
  8
User.Drawings
  6
CONTINUOUS
100
AcDbLine
 10
5.1555118110236222
 20
-4.9409448818897639
 30
0
 11
5.1556616535433069
 21
-4.9401915748031495
 31
0
  0
LINE
  5
23F
330
1B
100
AcDbEntity
  8
User.Drawings
  6
CONTINUOUS
100
AcDbLine
 10
5.1556616535433069
 20
-4.9401915748031495
 30
0
 11
5.1567270078740153
 21
-4.9391262204724411
 31
0
  0
LINE
  5
240
330
1B
100
AcDbEntity
  8
User.Drawings
  6
CONTINUOUS
100
AcDbLine
 10
5.1567270078740153
 20
-4.9391262204724411
 30
0
 11
5.1574803149606296
 21
-4.9389763779527556
 31
0
  0
LINE
  5
241
330
1B
100
AcDbEntity
  8
User.Drawings
  6
CONTINUOUS
100
AcDbLine
 10
5.1574803149606296
 20
-4.9389763779527556
 30
0
 11
5.7480314960629917
 21
-4.9389763779527556
 31
0
  0
LINE
  5
242
330
1B
100
AcDbEntity
  8
User.Drawings
  6
CONTINUOUS
100
AcDbLine
 10
5.7480314960629917
 20
-4.9389763779527556
 30
0
 11
5.748784803149606
 21
-4.9391262204724411
 31
0
  0
LINE
  5
243
330
1B
100
AcDbEntity
  8
User.Drawings
  6
CONTINUOUS
100
AcDbLine
 10
5.159448818897638
 20
-4.9429133858267713
 30
0
 11
5.159448818897638
 21
-5.0570866141732278
 31
0
  0
LINE
  5
244
330
1B
100
AcDbEntity
  8
User.Drawings
  6
CONTINUOUS
100
AcDbLine
 10
5.159448818897638
 20
-5.0570866141732278
 30
0
 11
5.7460629921259843
 21
-5.0570866141732278
 31
0
  0
LINE
  5
245
330
1B
100
AcDbEntity
  8
User.Drawings
  6
CONTINUOUS
100
AcDbLine
 10
5.7460629921259843
 20
-5.0570866141732278
 30
0
 11
5.7460629921259843
 21
-4.9429133858267713
 31
0
  0
LINE
  5
246
330
1B
100
AcDbEntity
  8
User.Drawings
  6
CONTINUOUS
100
AcDbLine
 10
5.7460629921259843
 20
-4.9429133858267713
 30
0
 11
5.159448818897638
 21
-4.9429133858267713
 31
0
  0
LINE
  5
247
330
1B
100
AcDbEntity
  8
User.Drawings
  6
CONTINUOUS
100
AcDbLine
 10
9.1754939370078734
 20
-3.6463353149606297
 30
0
 11
9.1755919291338586
 21
-3.6463759055118108
 31
0
  0
LINE
  5
248
330
1B
100
AcDbEntity
  8
User.Drawings
  6
CONTINUOUS
100
AcDbLine
 10
9.1755919291338586
 20
-3.6463759055118108
 30
0
 11
9.175697755905512
 21
-3.6463834251968503
 31
0
  0
LINE
  5
249
330
1B
100
AcDbEntity
  8
User.Drawings
  6
CONTINUOUS
100
AcDbLine
 10
9.175697755905512
 20
-3.6463834251968503
 30
0
 11
9.1762383858267711
 21
-3.6465903149606298
 31
0
  0
LINE
  5
24A
330
1B
100
AcDbEntity
  8
User.Drawings
  6
CONTINUOUS
100
AcDbLine
 10
9.1762383858267711
 20
-3.6465903149606298
 30
0
 11
9.1799879133858262
 21
-3.6484650787401574
 31
0
  0
LINE
  5
24B
330
1B
100
AcDbEntity
  8
User.Drawings
  6
CONTINUOUS
100
AcDbLine
 10
9.1799879133858262
 20
-3.6484650787401574
 30
0
 11
9.180235905511811
 21
-3.6486211417322836
 31
0
  0
LINE
  5
24C
330
1B
100
AcDbEntity
  8
User.Drawings
  6
CONTINUOUS
100
AcDbLine
 10
9.180235905511811
 20
-3.6486211417322836
 30
0
 11
9.1803078740157478
 21
-3.6486509842519683
 31
0
  0
LINE
  5
24D
330
1B
100
AcDbEntity
  8
User.Drawings
  6
CONTINUOUS
100
AcDbLine
 10
9.1803078740157478
 20
-3.6486509842519683
 30
0
 11
9.1803888188976384
 21
-3.6487174409448819
 31
0
  0
LINE
  5
24E
330
1B
100
AcDbEntity
  8
User.Drawings
  6
CONTINUOUS
100
AcDbLine
 10
9.1803888188976384
 20
-3.6487174409448819
 30
0
 11
9.1804777952755909
 21
-3.6487734251968504
 31
0
  0
LINE
  5
24F
330
1B
100
AcDbEntity
  8
User.Drawings
  6
CONTINUOUS
100
AcDbLine
 10
9.1804777952755909
 20
-3.6487734251968504
 30
0
 11
9.1805289370078746
 21
-3.6488324015748033
 31
0
  0
LINE
  5
250
330
1B
100
AcDbEntity
  8
User.Drawings
  6
CONTINUOUS
100
AcDbLine
 10
9.1805289370078746
 20
-3.6488324015748033
 30
0
 11
9.1807553149606296
 21
-3.649018188976378
 31
0
  0
LINE
  5
251
330
1B
100
AcDbEntity
  8
User.Drawings
  6
CONTINUOUS
100
AcDbLine
 10
9.1807553149606296
 20
-3.649018188976378
 30
0
 11
9.1824169291338578
 21
-3.6506798031496062
 31
0
  0
LINE
  5
252
330
1B
100
AcDbEntity
  8
User.Drawings
  6
CONTINUOUS
100
AcDbLine
 10
9.1824169291338578
 20
-3.6506798031496062
 30
0
 11
9.184078543307086
 21
-3.649018188976378
 31
0
  0
LINE
  5
253
330
1B
100
AcDbEntity
  8
User.Drawings
  6
CONTINUOUS
100
AcDbLine
 10
9.184078543307086
 20
-3.649018188976378
 30
0
 11
9.1843048818897639
 21
-3.6488324015748033
 31
0
  0
LINE
  5
254
330
1B
100
AcDbEntity
  8
User.Drawings
  6
CONTINUOUS
100
AcDbLine
 10
9.1843048818897639
 20
-3.6488324015748033
 30
0
 11
9.1843560629921264
 21
-3.6487734251968504
 31
0
  0
LINE
  5
255
330
1B
100
AcDbEntity
  8
User.Drawings
  6
CONTINUOUS
100
AcDbLine
 10
9.1843560629921264
 20
-3.6487734251968504
 30
0
 11
9.1844450000000002
 21
-3.6487174409448819
 31
0
  0
LINE
  5
256
330
1B
100
AcDbEntity
  8
User.Drawings
  6
CONTINUOUS
100
AcDbLine
 10
9.1844450000000002
 20
-3.6487174409448819
 30
0
 11
9.1845259842519678
 21
-3.6486509842519683
 31
0
  0
LINE
  5
257
330
1B
100
AcDbEntity
  8
User.Drawings
  6
CONTINUOUS
100
AcDbLine
 10
9.1845259842519678
 20
-3.6486509842519683
 30
0
 11
9.1845979133858258
 21
-3.6486211417322836
 31
0
  0
LINE
  5
258
330
1B
100
AcDbEntity
  8
User.Drawings
  6
CONTINUOUS
100
AcDbLine
 10
9.1845979133858258
 20
-3.6486211417322836
 30
0
 11
9.1848459448818893
 21
-3.6484650787401574
 31
0
  0
LINE
  5
259
330
1B
100
AcDbEntity
  8
User.Drawings
  6
CONTINUOUS
100
AcDbLine
 10
9.1848459448818893
 20
-3.6484650787401574
 30
0
 11
9.1885954724409444
 21
-3.6465903149606298
 31
0
  0
LINE
  5
25A
330
1B
100
AcDbEntity
  8
User.Drawings
  6
CONTINUOUS
100
AcDbLine
 10
9.1885954724409444
 20
-3.6465903149606298
 30
0
 11
9.1891360629921266
 21
-3.6463834251968503
 31
0
  0
LINE
  5
25B
330
1B
100
AcDbEntity
  8
User.Drawings
  6
CONTINUOUS
100
AcDbLine
 10
9.1891360629921266
 20
-3.6463834251968503
 30
0
 11
9.1892419291338587
 21
-3.646375866141732
 31
0
  0
LINE
  5
25C
330
1B
100
AcDbEntity
  8
User.Drawings
  6
CONTINUOUS
100
AcDbLine
 10
9.1892419291338587
 20
-3.646375866141732
 30
0
 11
9.1893399212598421
 21
-3.6463353149606297
 31
0
  0
LINE
  5
25D
330
1B
100
AcDbEntity
  8
User.Drawings
  6
CONTINUOUS
100
AcDbLine
 10
9.1893399212598421
 20
-3.6463353149606297
 30
0
 11
9.189915984251968
 21
-3.6462785826771653
 31
0
  0
LINE
  5
25E
330
1B
100
AcDbEntity
  8
User.Drawings
  6
CONTINUOUS
100
AcDbLine
 10
9.189915984251968
 20
-3.6462785826771653
 30
0
 11
9.1974150393700782
 21
-3.6462785826771653
 31
0
  0
LINE
  5
25F
330
1B
100
AcDbEntity
  8
User.Drawings
  6
CONTINUOUS
100
AcDbLine
 10
9.1974150393700782
 20
-3.6462785826771653
 30
0
 11
9.1979911023622041
 21
-3.6463353149606297
 31
0
  0
LINE
  5
260
330
1B
100
AcDbEntity
  8
User.Drawings
  6
CONTINUOUS
100
AcDbLine
 10
9.1979911023622041
 20
-3.6463353149606297
 30
0
 11
9.1980890944881892
 21
-3.6463759055118108
 31
0
  0
LINE
  5
261
330
1B
100
AcDbEntity
  8
User.Drawings
  6
CONTINUOUS
100
AcDbLine
 10
9.1980890944881892
 20
-3.6463759055118108
 30
0
 11
9.1981949212598426
 21
-3.6463834251968503
 31
0
  0
LINE
  5
262
330
1B
100
AcDbEntity
  8
User.Drawings
  6
CONTINUOUS
100
AcDbLine
 10
9.1981949212598426
 20
-3.6463834251968503
 30
0
 11
9.1987355511811018
 21
-3.6465903149606298
 31
0
  0
LINE
  5
263
330
1B
100
AcDbEntity
  8
User.Drawings
  6
CONTINUOUS
100
AcDbLine
 10
9.1987355511811018
 20
-3.6465903149606298
 30
0
 11
9.2024850787401569
 21
-3.6484650787401574
 31
0
  0
LINE
  5
264
330
1B
100
AcDbEntity
  8
User.Drawings
  6
CONTINUOUS
100
AcDbLine
 10
9.2024850787401569
 20
-3.6484650787401574
 30
0
 11
9.2027329527559054
 21
-3.6486211023622048
 31
0
  0
LINE
  5
265
330
1B
100
AcDbEntity
  8
User.Drawings
  6
CONTINUOUS
100
AcDbLine
 10
9.2027329527559054
 20
-3.6486211023622048
 30
0
 11
9.2028049999999997
 21
-3.6486509448818896
 31
0
  0
LINE
  5
266
330
1B
100
AcDbEntity
  8
User.Drawings
  6
CONTINUOUS
100
AcDbLine
 10
9.2028049999999997
 20
-3.6486509448818896
 30
0
 11
9.2028860236220478
 21
-3.6487174409448819
 31
0
  0
LINE
  5
267
330
1B
100
AcDbEntity
  8
User.Drawings
  6
CONTINUOUS
100
AcDbLine
 10
9.2028860236220478
 20
-3.6487174409448819
 30
0
 11
9.2029749606299216
 21
-3.6487734251968504
 31
0
  0
LINE
  5
268
330
1B
100
AcDbEntity
  8
User.Drawings
  6
CONTINUOUS
100
AcDbLine
 10
9.2029749606299216
 20
-3.6487734251968504
 30
0
 11
9.2030261023622053
 21
-3.6488324015748033
 31
0
  0
LINE
  5
269
330
1B
100
AcDbEntity
  8
User.Drawings
  6
CONTINUOUS
100
AcDbLine
 10
9.2030261023622053
 20
-3.6488324015748033
 30
0
 11
9.2032524409448815
 21
-3.6490181496062992
 31
0
  0
LINE
  5
26A
330
1B
100
AcDbEntity
  8
User.Drawings
  6
CONTINUOUS
100
AcDbLine
 10
9.2032524409448815
 20
-3.6490181496062992
 30
0
 11
9.2051272440944878
 21
-3.6508929133858268
 31
0
  0
LINE
  5
26B
330
1B
100
AcDbEntity
  8
User.Drawings
  6
CONTINUOUS
100
AcDbLine
 10
9.2051272440944878
 20
-3.6508929133858268
 30
0
 11
9.2053129921259842
 21
-3.6511192519685038
 31
0
  0
LINE
  5
26C
330
1B
100
AcDbEntity
  8
User.Drawings
  6
CONTINUOUS
100
AcDbLine
 10
9.2053129921259842
 20
-3.6511192519685038
 30
0
 11
9.2053720472440936
 21
-3.6511704724409446
 31
0
  0
LINE
  5
26D
330
1B
100
AcDbEntity
  8
User.Drawings
  6
CONTINUOUS
100
AcDbLine
 10
9.2053720472440936
 20
-3.6511704724409446
 30
0
 11
9.2054280314960621
 21
-3.6512594094488189
 31
0
  0
LINE
  5
26E
330
1B
100
AcDbEntity
  8
User.Drawings
  6
CONTINUOUS
100
AcDbLine
 10
9.2054280314960621
 20
-3.6512594094488189
 30
0
 11
9.2054944881889753
 21
-3.6513403937007873
 31
0
  0
LINE
  5
26F
330
1B
100
AcDbEntity
  8
User.Drawings
  6
CONTINUOUS
100
AcDbLine
 10
9.2054944881889753
 20
-3.6513403937007873
 30
0
 11
9.2055242913385822
 21
-3.6514123228346458
 31
0
  0
LINE
  5
270
330
1B
100
AcDbEntity
  8
User.Drawings
  6
CONTINUOUS
100
AcDbLine
 10
9.2055242913385822
 20
-3.6514123228346458
 30
0
 11
9.2056803937007867
 21
-3.6516603543307085
 31
0
  0
LINE
  5
271
330
1B
100
AcDbEntity
  8
User.Drawings
  6
CONTINUOUS
100
AcDbLine
 10
9.2056803937007867
 20
-3.6516603543307085
 30
0
 11
9.2075551574803143
 21
-3.6554098818897636
 31
0
  0
LINE
  5
272
330
1B
100
AcDbEntity
  8
User.Drawings
  6
CONTINUOUS
100
AcDbLine
 10
9.2075551574803143
 20
-3.6554098818897636
 30
0
 11
9.2077620472440938
 21
-3.6559504724409448
 31
0
  0
LINE
  5
273
330
1B
100
AcDbEntity
  8
User.Drawings
  6
CONTINUOUS
100
AcDbLine
 10
9.2077620472440938
 20
-3.6559504724409448
 30
0
 11
9.2077695669291337
 21
-3.656056338582677
 31
0
  0
LINE
  5
274
330
1B
100
AcDbEntity
  8
User.Drawings
  6
CONTINUOUS
100
AcDbLine
 10
9.2077695669291337
 20
-3.656056338582677
 30
0
 11
9.2078101574803153
 21
-3.6561543307086612
 31
0
  0
LINE
  5
275
330
1B
100
AcDbEntity
  8
User.Drawings
  6
CONTINUOUS
100
AcDbLine
 10
9.2078101574803153
 20
-3.6561543307086612
 30
0
 11
9.2078668897637801
 21
-3.6567303937007871
 31
0
  0
LINE
  5
276
330
1B
100
AcDbEntity
  8
User.Drawings
  6
CONTINUOUS
100
AcDbLine
 10
9.2078668897637801
 20
-3.6567303937007871
 30
0
 11
9.2078668897637801
 21
-3.6642294488188973
 31
0
  0
LINE
  5
277
330
1B
100
AcDbEntity
  8
User.Drawings
  6
CONTINUOUS
100
AcDbLine
 10
9.2078668897637801
 20
-3.6642294488188973
 30
0
 11
9.2078101574803153
 21
-3.6648055118110237
 31
0
  0
LINE
  5
278
330
1B
100
AcDbEntity
  8
User.Drawings
  6
CONTINUOUS
100
AcDbLine
 10
9.2078101574803153
 20
-3.6648055118110237
 30
0
 11
9.2077695669291337
 21
-3.6649034645669292
 31
0
  0
LINE
  5
279
330
1B
100
AcDbEntity
  8
User.Drawings
  6
CONTINUOUS
100
AcDbLine
 10
9.2077695669291337
 20
-3.6649034645669292
 30
0
 11
9.2077620472440938
 21
-3.6650093700787401
 31
0
  0
LINE
  5
27A
330
1B
100
AcDbEntity
  8
User.Drawings
  6
CONTINUOUS
100
AcDbLine
 10
9.2077620472440938
 20
-3.6650093700787401
 30
0
 11
9.2075551574803143
 21
-3.6655499606299213
 31
0
  0
LINE
  5
27B
330
1B
100
AcDbEntity
  8
User.Drawings
  6
CONTINUOUS
100
AcDbLine
 10
9.2075551574803143
 20
-3.6655499606299213
 30
0
 11
9.2056803937007867
 21
-3.6692994881889764
 31
0
  0
LINE
  5
27C
330
1B
100
AcDbEntity
  8
User.Drawings
  6
CONTINUOUS
100
AcDbLine
 10
9.2056803937007867
 20
-3.6692994881889764
 30
0
 11
9.2055242913385822
 21
-3.6695474803149604
 31
0
  0
LINE
  5
27D
330
1B
100
AcDbEntity
  8
User.Drawings
  6
CONTINUOUS
100
AcDbLine
 10
9.2055242913385822
 20
-3.6695474803149604
 30
0
 11
9.2054944881889753
 21
-3.6696194488188976
 31
0
  0
LINE
  5
27E
330
1B
100
AcDbEntity
  8
User.Drawings
  6
CONTINUOUS
100
AcDbLine
 10
9.2054944881889753
 20
-3.6696194488188976
 30
0
 11
9.2054280314960621
 21
-3.6697003937007873
 31
0
  0
LINE
  5
27F
330
1B
100
AcDbEntity
  8
User.Drawings
  6
CONTINUOUS
100
AcDbLine
 10
9.2054280314960621
 20
-3.6697003937007873
 30
0
 11
9.2053720472440936
 21
-3.6697893700787403
 31
0
  0
LINE
  5
280
330
1B
100
AcDbEntity
  8
User.Drawings
  6
CONTINUOUS
100
AcDbLine
 10
9.2053720472440936
 20
-3.6697893700787403
 30
0
 11
9.2053129921259842
 21
-3.6698405511811023
 31
0
  0
LINE
  5
281
330
1B
100
AcDbEntity
  8
User.Drawings
  6
CONTINUOUS
100
AcDbLine
 10
9.2053129921259842
 20
-3.6698405511811023
 30
0
 11
9.2051272440944878
 21
-3.6700669291338581
 31
0
  0
LINE
  5
282
330
1B
100
AcDbEntity
  8
User.Drawings
  6
CONTINUOUS
100
AcDbLine
 10
9.2051272440944878
 20
-3.6700669291338581
 30
0
 11
9.2032524409448815
 21
-3.6719416929133857
 31
0
  0
LINE
  5
283
330
1B
100
AcDbEntity
  8
User.Drawings
  6
CONTINUOUS
100
AcDbLine
 10
9.2032524409448815
 20
-3.6719416929133857
 30
0
 11
9.2030261023622053
 21
-3.6721274015748029
 31
0
  0
LINE
  5
284
330
1B
100
AcDbEntity
  8
User.Drawings
  6
CONTINUOUS
100
AcDbLine
 10
9.2030261023622053
 20
-3.6721274015748029
 30
0
 11
9.2029749606299216
 21
-3.6721864173228345
 31
0
  0
LINE
  5
285
330
1B
100
AcDbEntity
  8
User.Drawings
  6
CONTINUOUS
100
AcDbLine
 10
9.2029749606299216
 20
-3.6721864173228345
 30
0
 11
9.2028860236220478
 21
-3.6722423622047242
 31
0
  0
LINE
  5
286
330
1B
100
AcDbEntity
  8
User.Drawings
  6
CONTINUOUS
100
AcDbLine
 10
9.2028860236220478
 20
-3.6722423622047242
 30
0
 11
9.2028049999999997
 21
-3.6723088976377953
 31
0
  0
LINE
  5
287
330
1B
100
AcDbEntity
  8
User.Drawings
  6
CONTINUOUS
100
AcDbLine
 10
9.2028049999999997
 20
-3.6723088976377953
 30
0
 11
9.2027329527559054
 21
-3.6723387007874013
 31
0
  0
LINE
  5
288
330
1B
100
AcDbEntity
  8
User.Drawings
  6
CONTINUOUS
100
AcDbLine
 10
9.2027329527559054
 20
-3.6723387007874013
 30
0
 11
9.2024850787401569
 21
-3.6724947637795275
 31
0
  0
LINE
  5
289
330
1B
100
AcDbEntity
  8
User.Drawings
  6
CONTINUOUS
100
AcDbLine
 10
9.2024850787401569
 20
-3.6724947637795275
 30
0
 11
9.1987355511811018
 21
-3.6743695275590551
 31
0
  0
LINE
  5
28A
330
1B
100
AcDbEntity
  8
User.Drawings
  6
CONTINUOUS
100
AcDbLine
 10
9.1987355511811018
 20
-3.6743695275590551
 30
0
 11
9.1981949212598426
 21
-3.6745764173228346
 31
0
  0
LINE
  5
28B
330
1B
100
AcDbEntity
  8
User.Drawings
  6
CONTINUOUS
100
AcDbLine
 10
9.1981949212598426
 20
-3.6745764173228346
 30
0
 11
9.1980890944881892
 21
-3.6745838976377954
 31
0
  0
LINE
  5
28C
330
1B
100
AcDbEntity
  8
User.Drawings
  6
CONTINUOUS
100
AcDbLine
 10
9.1980890944881892
 20
-3.6745838976377954
 30
0
 11
9.1979911023622041
 21
-3.6746245275590552
 31
0
  0
LINE
  5
28D
330
1B
100
AcDbEntity
  8
User.Drawings
  6
CONTINUOUS
100
AcDbLine
 10
9.1979911023622041
 20
-3.6746245275590552
 30
0
 11
9.1974150393700782
 21
-3.6746812598425196
 31
0
  0
LINE
  5
28E
330
1B
100
AcDbEntity
  8
User.Drawings
  6
CONTINUOUS
100
AcDbLine
 10
9.1974150393700782
 20
-3.6746812598425196
 30
0
 11
9.189915984251968
 21
-3.6746812598425196
 31
0
  0
LINE
  5
28F
330
1B
100
AcDbEntity
  8
User.Drawings
  6
CONTINUOUS
100
AcDbLine
 10
9.189915984251968
 20
-3.6746812598425196
 30
0
 11
9.1893399212598421
 21
-3.6746245275590552
 31
0
  0
LINE
  5
290
330
1B
100
AcDbEntity
  8
User.Drawings
  6
CONTINUOUS
100
AcDbLine
 10
9.1893399212598421
 20
-3.6746245275590552
 30
0
 11
9.1892419291338587
 21
-3.6745839370078741
 31
0
  0
LINE
  5
291
330
1B
100
AcDbEntity
  8
User.Drawings
  6
CONTINUOUS
100
AcDbLine
 10
9.1892419291338587
 20
-3.6745839370078741
 30
0
 11
9.1891360629921266
 21
-3.6745764173228346
 31
0
  0
LINE
  5
292
330
1B
100
AcDbEntity
  8
User.Drawings
  6
CONTINUOUS
100
AcDbLine
 10
9.1891360629921266
 20
-3.6745764173228346
 30
0
 11
9.1885954724409444
 21
-3.6743695275590551
 31
0
  0
LINE
  5
293
330
1B
100
AcDbEntity
  8
User.Drawings
  6
CONTINUOUS
100
AcDbLine
 10
9.1885954724409444
 20
-3.6743695275590551
 30
0
 11
9.1848459448818893
 21
-3.6724947637795275
 31
0
  0
LINE
  5
294
330
1B
100
AcDbEntity
  8
User.Drawings
  6
CONTINUOUS
100
AcDbLine
 10
9.1848459448818893
 20
-3.6724947637795275
 30
0
 11
9.1845979133858258
 21
-3.6723386614173226
 31
0
  0
LINE
  5
295
330
1B
100
AcDbEntity
  8
User.Drawings
  6
CONTINUOUS
100
AcDbLine
 10
9.1845979133858258
 20
-3.6723386614173226
 30
0
 11
9.1845259842519678
 21
-3.6723088582677166
 31
0
  0
LINE
  5
296
330
1B
100
AcDbEntity
  8
User.Drawings
  6
CONTINUOUS
100
AcDbLine
 10
9.1845259842519678
 20
-3.6723088582677166
 30
0
 11
9.1844450000000002
 21
-3.6722423622047242
 31
0
  0
LINE
  5
297
330
1B
100
AcDbEntity
  8
User.Drawings
  6
CONTINUOUS
100
AcDbLine
 10
9.1844450000000002
 20
-3.6722423622047242
 30
0
 11
9.1843560629921264
 21
-3.6721864173228345
 31
0
  0
LINE
  5
298
330
1B
100
AcDbEntity
  8
User.Drawings
  6
CONTINUOUS
100
AcDbLine
 10
9.1843560629921264
 20
-3.6721864173228345
 30
0
 11
9.1843048818897639
 21
-3.6721274015748029
 31
0
  0
LINE
  5
299
330
1B
100
AcDbEntity
  8
User.Drawings
  6
CONTINUOUS
100
AcDbLine
 10
9.1843048818897639
 20
-3.6721274015748029
 30
0
 11
9.184078543307086
 21
-3.6719416535433069
 31
0
  0
LINE
  5
29A
330
1B
100
AcDbEntity
  8
User.Drawings
  6
CONTINUOUS
100
AcDbLine
 10
9.184078543307086
 20
-3.6719416535433069
 30
0
 11
9.1824169291338578
 21
-3.6702800393700787
 31
0
  0
LINE
  5
29B
330
1B
100
AcDbEntity
  8
User.Drawings
  6
CONTINUOUS
100
AcDbLine
 10
9.1824169291338578
 20
-3.6702800393700787
 30
0
 11
9.1807553149606296
 21
-3.6719416535433069
 31
0
  0
LINE
  5
29C
330
1B
100
AcDbEntity
  8
User.Drawings
  6
CONTINUOUS
100
AcDbLine
 10
9.1807553149606296
 20
-3.6719416535433069
 30
0
 11
9.1805289370078746
 21
-3.6721274015748029
 31
0
  0
LINE
  5
29D
330
1B
100
AcDbEntity
  8
User.Drawings
  6
CONTINUOUS
100
AcDbLine
 10
9.1805289370078746
 20
-3.6721274015748029
 30
0
 11
9.1804777952755909
 21
-3.6721864173228345
 31
0
  0
LINE
  5
29E
330
1B
100
AcDbEntity
  8
User.Drawings
  6
CONTINUOUS
100
AcDbLine
 10
9.1804777952755909
 20
-3.6721864173228345
 30
0
 11
9.1803888188976384
 21
-3.6722423622047242
 31
0
  0
LINE
  5
29F
330
1B
100
AcDbEntity
  8
User.Drawings
  6
CONTINUOUS
100
AcDbLine
 10
9.1803888188976384
 20
-3.6722423622047242
 30
0
 11
9.1803078740157478
 21
-3.6723088582677166
 31
0
  0
LINE
  5
2A0
330
1B
100
AcDbEntity
  8
User.Drawings
  6
CONTINUOUS
100
AcDbLine
 10
9.1803078740157478
 20
-3.6723088582677166
 30
0
 11
9.180235905511811
 21
-3.6723386614173226
 31
0
  0
LINE
  5
2A1
330
1B
100
AcDbEntity
  8
User.Drawings
  6
CONTINUOUS
100
AcDbLine
 10
9.180235905511811
 20
-3.6723386614173226
 30
0
 11
9.1799879133858262
 21
-3.6724947637795275
 31
0
  0
LINE
  5
2A2
330
1B
100
AcDbEntity
  8
User.Drawings
  6
CONTINUOUS
100
AcDbLine
 10
9.1799879133858262
 20
-3.6724947637795275
 30
0
 11
9.1762383858267711
 21
-3.6743695275590551
 31
0
  0
LINE
  5
2A3
330
1B
100
AcDbEntity
  8
User.Drawings
  6
CONTINUOUS
100
AcDbLine
 10
9.1762383858267711
 20
-3.6743695275590551
 30
0
 11
9.175697755905512
 21
-3.6745764173228346
 31
0
  0
LINE
  5
2A4
330
1B
100
AcDbEntity
  8
User.Drawings
  6
CONTINUOUS
100
AcDbLine
 10
9.175697755905512
 20
-3.6745764173228346
 30
0
 11
9.1755919291338586
 21
-3.6745838976377954
 31
0
  0
LINE
  5
2A5
330
1B
100
AcDbEntity
  8
User.Drawings
  6
CONTINUOUS
100
AcDbLine
 10
9.1755919291338586
 20
-3.6745838976377954
 30
0
 11
9.1754939370078734
 21
-3.6746245275590552
 31
0
  0
LINE
  5
2A6
330
1B
100
AcDbEntity
  8
User.Drawings
  6
CONTINUOUS
100
AcDbLine
 10
9.1754939370078734
 20
-3.6746245275590552
 30
0
 11
9.1749178740157475
 21
-3.6746812598425196
 31
0
  0
LINE
  5
2A7
330
1B
100
AcDbEntity
  8
User.Drawings
  6
CONTINUOUS
100
AcDbLine
 10
9.1749178740157475
 20
-3.6746812598425196
 30
0
 11
9.17304311023622
 21
-3.6746812598425196
 31
0
  0
LINE
  5
2A8
330
1B
100
AcDbEntity
  8
User.Drawings
  6
CONTINUOUS
100
AcDbLine
 10
9.17304311023622
 20
-3.6746812598425196
 30
0
 11
9.1724670472440941
 21
-3.6746245275590552
 31
0
  0
LINE
  5
2A9
330
1B
100
AcDbEntity
  8
User.Drawings
  6
CONTINUOUS
100
AcDbLine
 10
9.1724670472440941
 20
-3.6746245275590552
 30
0
 11
9.1723690551181107
 21
-3.6745839370078741
 31
0
  0
LINE
  5
2AA
330
1B
100
AcDbEntity
  8
User.Drawings
  6
CONTINUOUS
100
AcDbLine
 10
9.1723690551181107
 20
-3.6745839370078741
 30
0
 11
9.1722631889763786
 21
-3.6745764173228346
 31
0
  0
LINE
  5
2AB
330
1B
100
AcDbEntity
  8
User.Drawings
  6
CONTINUOUS
100
AcDbLine
 10
9.1722631889763786
 20
-3.6745764173228346
 30
0
 11
9.1717225984251964
 21
-3.6743695275590551
 31
0
  0
LINE
  5
2AC
330
1B
100
AcDbEntity
  8
User.Drawings
  6
CONTINUOUS
100
AcDbLine
 10
9.1717225984251964
 20
-3.6743695275590551
 30
0
 11
9.1679730708661413
 21
-3.6724947637795275
 31
0
  0
LINE
  5
2AD
330
1B
100
AcDbEntity
  8
User.Drawings
  6
CONTINUOUS
100
AcDbLine
 10
9.1679730708661413
 20
-3.6724947637795275
 30
0
 11
9.1677250393700778
 21
-3.6723386614173226
 31
0
  0
LINE
  5
2AE
330
1B
100
AcDbEntity
  8
User.Drawings
  6
CONTINUOUS
100
AcDbLine
 10
9.1677250393700778
 20
-3.6723386614173226
 30
0
 11
9.1676531102362198
 21
-3.6723088582677166
 31
0
  0
LINE
  5
2AF
330
1B
100
AcDbEntity
  8
User.Drawings
  6
CONTINUOUS
100
AcDbLine
 10
9.1676531102362198
 20
-3.6723088582677166
 30
0
 11
9.1675721259842522
 21
-3.6722423622047242
 31
0
  0
LINE
  5
2B0
330
1B
100
AcDbEntity
  8
User.Drawings
  6
CONTINUOUS
100
AcDbLine
 10
9.1675721259842522
 20
-3.6722423622047242
 30
0
 11
9.1674831889763784
 21
-3.6721864173228345
 31
0
  0
LINE
  5
2B1
330
1B
100
AcDbEntity
  8
User.Drawings
  6
CONTINUOUS
100
AcDbLine
 10
9.1674831889763784
 20
-3.6721864173228345
 30
0
 11
9.1674320078740159
 21
-3.6721274015748029
 31
0
  0
LINE
  5
2B2
330
1B
100
AcDbEntity
  8
User.Drawings
  6
CONTINUOUS
100
AcDbLine
 10
9.1674320078740159
 20
-3.6721274015748029
 30
0
 11
9.167205669291338
 21
-3.6719416535433069
 31
0
  0
LINE
  5
2B3
330
1B
100
AcDbEntity
  8
User.Drawings
  6
CONTINUOUS
100
AcDbLine
 10
9.167205669291338
 20
-3.6719416535433069
 30
0
 11
9.1653309055118104
 21
-3.6700668897637794
 31
0
  0
LINE
  5
2B4
330
1B
100
AcDbEntity
  8
User.Drawings
  6
CONTINUOUS
100
AcDbLine
 10
9.1653309055118104
 20
-3.6700668897637794
 30
0
 11
9.1651451181102352
 21
-3.6698405118110236
 31
0
  0
LINE
  5
2B5
330
1B
100
AcDbEntity
  8
User.Drawings
  6
CONTINUOUS
100
AcDbLine
 10
9.1651451181102352
 20
-3.6698405118110236
 30
0
 11
9.1650861417322833
 21
-3.6697893700787403
 31
0
  0
LINE
  5
2B6
330
1B
100
AcDbEntity
  8
User.Drawings
  6
CONTINUOUS
100
AcDbLine
 10
9.1650861417322833
 20
-3.6697893700787403
 30
0
 11
9.1650301574803148
 21
-3.6697003937007873
 31
0
  0
LINE
  5
2B7
330
1B
100
AcDbEntity
  8
User.Drawings
  6
CONTINUOUS
100
AcDbLine
 10
9.1650301574803148
 20
-3.6697003937007873
 30
0
 11
9.1649637007874016
 21
-3.6696194488188976
 31
0
  0
LINE
  5
2B8
330
1B
100
AcDbEntity
  8
User.Drawings
  6
CONTINUOUS
100
AcDbLine
 10
9.1649637007874016
 20
-3.6696194488188976
 30
0
 11
9.164933858267716
 21
-3.6695474803149604
 31
0
  0
LINE
  5
2B9
330
1B
100
AcDbEntity
  8
User.Drawings
  6
CONTINUOUS
100
AcDbLine
 10
9.164933858267716
 20
-3.6695474803149604
 30
0
 11
9.1647777952755902
 21
-3.6692994881889764
 31
0
  0
LINE
  5
2BA
330
1B
100
AcDbEntity
  8
User.Drawings
  6
CONTINUOUS
100
AcDbLine
 10
9.1647777952755902
 20
-3.6692994881889764
 30
0
 11
9.1629030314960627
 21
-3.6655499606299213
 31
0
  0
LINE
  5
2BB
330
1B
100
AcDbEntity
  8
User.Drawings
  6
CONTINUOUS
100
AcDbLine
 10
9.1629030314960627
 20
-3.6655499606299213
 30
0
 11
9.1626961417322832
 21
-3.6650093307086613
 31
0
  0
LINE
  5
2BC
330
1B
100
AcDbEntity
  8
User.Drawings
  6
CONTINUOUS
100
AcDbLine
 10
9.1626961417322832
 20
-3.6650093307086613
 30
0
 11
9.1626886220472432
 21
-3.6649035039370079
 31
0
  0
LINE
  5
2BD
330
1B
100
AcDbEntity
  8
User.Drawings
  6
CONTINUOUS
100
AcDbLine
 10
9.1626886220472432
 20
-3.6649035039370079
 30
0
 11
9.1626480314960634
 21
-3.6648055118110237
 31
0
  0
LINE
  5
2BE
330
1B
100
AcDbEntity
  8
User.Drawings
  6
CONTINUOUS
100
AcDbLine
 10
9.1626480314960634
 20
-3.6648055118110237
 30
0
 11
9.1625912992125986
 21
-3.6642294488188973
 31
0
  0
LINE
  5
2BF
330
1B
100
AcDbEntity
  8
User.Drawings
  6
CONTINUOUS
100
AcDbLine
 10
9.1625912992125986
 20
-3.6642294488188973
 30
0
 11
9.1625912992125986
 21
-3.6567303937007871
 31
0
  0
LINE
  5
2C0
330
1B
100
AcDbEntity
  8
User.Drawings
  6
CONTINUOUS
100
AcDbLine
 10
9.1625912992125986
 20
-3.6567303937007871
 30
0
 11
9.1626480314960634
 21
-3.6561543307086612
 31
0
  0
LINE
  5
2C1
330
1B
100
AcDbEntity
  8
User.Drawings
  6
CONTINUOUS
100
AcDbLine
 10
9.1626480314960634
 20
-3.6561543307086612
 30
0
 11
9.1626886220472432
 21
-3.6560562992125982
 31
0
  0
LINE
  5
2C2
330
1B
100
AcDbEntity
  8
User.Drawings
  6
CONTINUOUS
100
AcDbLine
 10
9.1626886220472432
 20
-3.6560562992125982
 30
0
 11
9.1626961417322832
 21
-3.6559505118110236
 31
0
  0
LINE
  5
2C3
330
1B
100
AcDbEntity
  8
User.Drawings
  6
CONTINUOUS
100
AcDbLine
 10
9.1626961417322832
 20
-3.6559505118110236
 30
0
 11
9.1629030314960627
 21
-3.6554098818897636
 31
0
  0
LINE
  5
2C4
330
1B
100
AcDbEntity
  8
User.Drawings
  6
CONTINUOUS
100
AcDbLine
 10
9.1629030314960627
 20
-3.6554098818897636
 30
0
 11
9.1647777952755902
 21
-3.6516603543307085
 31
0
  0
LINE
  5
2C5
330
1B
100
AcDbEntity
  8
User.Drawings
  6
CONTINUOUS
100
AcDbLine
 10
9.1647777952755902
 20
-3.6516603543307085
 30
0
 11
9.164933858267716
 21
-3.6514123228346458
 31
0
  0
LINE
  5
2C6
330
1B
100
AcDbEntity
  8
User.Drawings
  6
CONTINUOUS
100
AcDbLine
 10
9.164933858267716
 20
-3.6514123228346458
 30
0
 11
9.1649637007874016
 21
-3.6513403937007873
 31
0
  0
LINE
  5
2C7
330
1B
100
AcDbEntity
  8
User.Drawings
  6
CONTINUOUS
100
AcDbLine
 10
9.1649637007874016
 20
-3.6513403937007873
 30
0
 11
9.1650301574803148
 21
-3.6512594094488189
 31
0
  0
LINE
  5
2C8
330
1B
100
AcDbEntity
  8
User.Drawings
  6
CONTINUOUS
100
AcDbLine
 10
9.1650301574803148
 20
-3.6512594094488189
 30
0
 11
9.1650861417322833
 21
-3.6511704724409446
 31
0
  0
LINE
  5
2C9
330
1B
100
AcDbEntity
  8
User.Drawings
  6
CONTINUOUS
100
AcDbLine
 10
9.1650861417322833
 20
-3.6511704724409446
 30
0
 11
9.1651451181102352
 21
-3.6511192913385826
 31
0
  0
LINE
  5
2CA
330
1B
100
AcDbEntity
  8
User.Drawings
  6
CONTINUOUS
100
AcDbLine
 10
9.1651451181102352
 20
-3.6511192913385826
 30
0
 11
9.1653309055118104
 21
-3.6508929527559055
 31
0
  0
LINE
  5
2CB
330
1B
100
AcDbEntity
  8
User.Drawings
  6
CONTINUOUS
100
AcDbLine
 10
9.1653309055118104
 20
-3.6508929527559055
 30
0
 11
9.167205669291338
 21
-3.649018188976378
 31
0
  0
LINE
  5
2CC
330
1B
100
AcDbEntity
  8
User.Drawings
  6
CONTINUOUS
100
AcDbLine
 10
9.167205669291338
 20
-3.649018188976378
 30
0
 11
9.1674320078740159
 21
-3.6488324015748033
 31
0
  0
LINE
  5
2CD
330
1B
100
AcDbEntity
  8
User.Drawings
  6
CONTINUOUS
100
AcDbLine
 10
9.1674320078740159
 20
-3.6488324015748033
 30
0
 11
9.1674831889763784
 21
-3.6487734251968504
 31
0
  0
LINE
  5
2CE
330
1B
100
AcDbEntity
  8
User.Drawings
  6
CONTINUOUS
100
AcDbLine
 10
9.1674831889763784
 20
-3.6487734251968504
 30
0
 11
9.1675721259842522
 21
-3.6487174409448819
 31
0
  0
LINE
  5
2CF
330
1B
100
AcDbEntity
  8
User.Drawings
  6
CONTINUOUS
100
AcDbLine
 10
9.1675721259842522
 20
-3.6487174409448819
 30
0
 11
9.1676531102362198
 21
-3.6486509842519683
 31
0
  0
LINE
  5
2D0
330
1B
100
AcDbEntity
  8
User.Drawings
  6
CONTINUOUS
100
AcDbLine
 10
9.1676531102362198
 20
-3.6486509842519683
 30
0
 11
9.1677250393700778
 21
-3.6486211417322836
 31
0
  0
LINE
  5
2D1
330
1B
100
AcDbEntity
  8
User.Drawings
  6
CONTINUOUS
100
AcDbLine
 10
9.1677250393700778
 20
-3.6486211417322836
 30
0
 11
9.1679730708661413
 21
-3.6484650787401574
 31
0
  0
LINE
  5
2D2
330
1B
100
AcDbEntity
  8
User.Drawings
  6
CONTINUOUS
100
AcDbLine
 10
9.1679730708661413
 20
-3.6484650787401574
 30
0
 11
9.1717225984251964
 21
-3.6465903149606298
 31
0
  0
LINE
  5
2D3
330
1B
100
AcDbEntity
  8
User.Drawings
  6
CONTINUOUS
100
AcDbLine
 10
9.1717225984251964
 20
-3.6465903149606298
 30
0
 11
9.1722631889763786
 21
-3.6463834251968503
 31
0
  0
LINE
  5
2D4
330
1B
100
AcDbEntity
  8
User.Drawings
  6
CONTINUOUS
100
AcDbLine
 10
9.1722631889763786
 20
-3.6463834251968503
 30
0
 11
9.1723690551181107
 21
-3.646375866141732
 31
0
  0
LINE
  5
2D5
330
1B
100
AcDbEntity
  8
User.Drawings
  6
CONTINUOUS
100
AcDbLine
 10
9.1723690551181107
 20
-3.646375866141732
 30
0
 11
9.1724670472440941
 21
-3.6463353149606297
 31
0
  0
LINE
  5
2D6
330
1B
100
AcDbEntity
  8
User.Drawings
  6
CONTINUOUS
100
AcDbLine
 10
9.1724670472440941
 20
-3.6463353149606297
 30
0
 11
9.17304311023622
 21
-3.6462785826771653
 31
0
  0
LINE
  5
2D7
330
1B
100
AcDbEntity
  8
User.Drawings
  6
CONTINUOUS
100
AcDbLine
 10
9.17304311023622
 20
-3.6462785826771653
 30
0
 11
9.1749178740157475
 21
-3.6462785826771653
 31
0
  0
LINE
  5
2D8
330
1B
100
AcDbEntity
  8
User.Drawings
  6
CONTINUOUS
100
AcDbLine
 10
9.1749178740157475
 20
-3.6462785826771653
 30
0
 11
9.1754939370078734
 21
-3.6463353149606297
 31
0
  0
LINE
  5
2D9
330
1B
100
AcDbEntity
  8
User.Drawings
  6
CONTINUOUS
100
AcDbLine
 10
9.1710426771653548
 20
-3.6535328346456692
 30
0
 11
9.169845551181103
 21
-3.6547299606299211
 31
0
  0
LINE
  5
2DA
330
1B
100
AcDbEntity
  8
User.Drawings
  6
CONTINUOUS
100
AcDbLine
 10
9.169845551181103
 20
-3.6547299606299211
 30
0
 11
9.1684968110236227
 21
-3.6574274409448817
 31
0
  0
LINE
  5
2DB
330
1B
100
AcDbEntity
  8
User.Drawings
  6
CONTINUOUS
100
AcDbLine
 10
9.1684968110236227
 20
-3.6574274409448817
 30
0
 11
9.1684968110236227
 21
-3.6635324015748032
 31
0
  0
LINE
  5
2DC
330
1B
100
AcDbEntity
  8
User.Drawings
  6
CONTINUOUS
100
AcDbLine
 10
9.1684968110236227
 20
-3.6635324015748032
 30
0
 11
9.169845551181103
 21
-3.6662298818897638
 31
0
  0
LINE
  5
2DD
330
1B
100
AcDbEntity
  8
User.Drawings
  6
CONTINUOUS
100
AcDbLine
 10
9.169845551181103
 20
-3.6662298818897638
 30
0
 11
9.1710426771653548
 21
-3.6674270078740157
 31
0
  0
LINE
  5
2DE
330
1B
100
AcDbEntity
  8
User.Drawings
  6
CONTINUOUS
100
AcDbLine
 10
9.1710426771653548
 20
-3.6674270078740157
 30
0
 11
9.1737401574803155
 21
-3.668775748031496
 31
0
  0
LINE
  5
2DF
330
1B
100
AcDbEntity
  8
User.Drawings
  6
CONTINUOUS
100
AcDbLine
 10
9.1737401574803155
 20
-3.668775748031496
 30
0
 11
9.1742208267716538
 21
-3.668775748031496
 31
0
  0
LINE
  5
2E0
330
1B
100
AcDbEntity
  8
User.Drawings
  6
CONTINUOUS
100
AcDbLine
 10
9.1742208267716538
 20
-3.668775748031496
 30
0
 11
9.1769183070866145
 21
-3.6674270078740157
 31
0
  0
LINE
  5
2E1
330
1B
100
AcDbEntity
  8
User.Drawings
  6
CONTINUOUS
100
AcDbLine
 10
9.1769183070866145
 20
-3.6674270078740157
 30
0
 11
9.1781154330708663
 21
-3.6662298818897638
 31
0
  0
LINE
  5
2E2
330
1B
100
AcDbEntity
  8
User.Drawings
  6
CONTINUOUS
100
AcDbLine
 10
9.1781154330708663
 20
-3.6662298818897638
 30
0
 11
9.1794641732283466
 21
-3.6635324015748032
 31
0
  0
LINE
  5
2E3
330
1B
100
AcDbEntity
  8
User.Drawings
  6
CONTINUOUS
100
AcDbLine
 10
9.1794641732283466
 20
-3.6635324015748032
 30
0
 11
9.1794641732283466
 21
-3.6574274409448817
 31
0
  0
LINE
  5
2E4
330
1B
100
AcDbEntity
  8
User.Drawings
  6
CONTINUOUS
100
AcDbLine
 10
9.1794641732283466
 20
-3.6574274409448817
 30
0
 11
9.1781154330708663
 21
-3.6547299606299211
 31
0
  0
LINE
  5
2E5
330
1B
100
AcDbEntity
  8
User.Drawings
  6
CONTINUOUS
100
AcDbLine
 10
9.1781154330708663
 20
-3.6547299606299211
 30
0
 11
9.1769183070866145
 21
-3.6535328346456692
 31
0
  0
LINE
  5
2E6
330
1B
100
AcDbEntity
  8
User.Drawings
  6
CONTINUOUS
100
AcDbLine
 10
9.1769183070866145
 20
-3.6535328346456692
 30
0
 11
9.1742208267716538
 21
-3.6521840944881889
 31
0
  0
LINE
  5
2E7
330
1B
100
AcDbEntity
  8
User.Drawings
  6
CONTINUOUS
100
AcDbLine
 10
9.1742208267716538
 20
-3.6521840944881889
 30
0
 11
9.1737401574803155
 21
-3.6521840944881889
 31
0
  0
LINE
  5
2E8
330
1B
100
AcDbEntity
  8
User.Drawings
  6
CONTINUOUS
100
AcDbLine
 10
9.1737401574803155
 20
-3.6521840944881889
 30
0
 11
9.1710426771653548
 21
-3.6535328346456692
 31
0
  0
LINE
  5
2E9
330
1B
100
AcDbEntity
  8
User.Drawings
  6
CONTINUOUS
100
AcDbLine
 10
9.1879155511811028
 20
-3.6535328346456692
 30
0
 11
9.186718425196851
 21
-3.6547299606299211
 31
0
  0
LINE
  5
2EA
330
1B
100
AcDbEntity
  8
User.Drawings
  6
CONTINUOUS
100
AcDbLine
 10
9.186718425196851
 20
-3.6547299606299211
 30
0
 11
9.1853696850393707
 21
-3.6574274409448817
 31
0
  0
LINE
  5
2EB
330
1B
100
AcDbEntity
  8
User.Drawings
  6
CONTINUOUS
100
AcDbLine
 10
9.1853696850393707
 20
-3.6574274409448817
 30
0
 11
9.1853696850393707
 21
-3.6635324015748032
 31
0
  0
LINE
  5
2EC
330
1B
100
AcDbEntity
  8
User.Drawings
  6
CONTINUOUS
100
AcDbLine
 10
9.1853696850393707
 20
-3.6635324015748032
 30
0
 11
9.186718425196851
 21
-3.6662298818897638
 31
0
  0
LINE
  5
2ED
330
1B
100
AcDbEntity
  8
User.Drawings
  6
CONTINUOUS
100
AcDbLine
 10
9.186718425196851
 20
-3.6662298818897638
 30
0
 11
9.1879155511811028
 21
-3.6674270078740157
 31
0
  0
LINE
  5
2EE
330
1B
100
AcDbEntity
  8
User.Drawings
  6
CONTINUOUS
100
AcDbLine
 10
9.1879155511811028
 20
-3.6674270078740157
 30
0
 11
9.1906130314960635
 21
-3.668775748031496
 31
0
  0
LINE
  5
2EF
330
1B
100
AcDbEntity
  8
User.Drawings
  6
CONTINUOUS
100
AcDbLine
 10
9.1906130314960635
 20
-3.668775748031496
 30
0
 11
9.1967179921259845
 21
-3.668775748031496
 31
0
  0
LINE
  5
2F0
330
1B
100
AcDbEntity
  8
User.Drawings
  6
CONTINUOUS
100
AcDbLine
 10
9.1967179921259845
 20
-3.668775748031496
 30
0
 11
9.1994154724409452
 21
-3.6674269685039369
 31
0
  0
LINE
  5
2F1
330
1B
100
AcDbEntity
  8
User.Drawings
  6
CONTINUOUS
100
AcDbLine
 10
9.1994154724409452
 20
-3.6674269685039369
 30
0
 11
9.2006126377952757
 21
-3.6662298425196851
 31
0
  0
LINE
  5
2F2
330
1B
100
AcDbEntity
  8
User.Drawings
  6
CONTINUOUS
100
AcDbLine
 10
9.2006126377952757
 20
-3.6662298425196851
 30
0
 11
9.201961377952756
 21
-3.6635324015748032
 31
0
  0
LINE
  5
2F3
330
1B
100
AcDbEntity
  8
User.Drawings
  6
CONTINUOUS
100
AcDbLine
 10
9.201961377952756
 20
-3.6635324015748032
 30
0
 11
9.201961377952756
 21
-3.6574274409448817
 31
0
  0
LINE
  5
2F4
330
1B
100
AcDbEntity
  8
User.Drawings
  6
CONTINUOUS
100
AcDbLine
 10
9.201961377952756
 20
-3.6574274409448817
 30
0
 11
9.2006126377952757
 21
-3.6547299606299211
 31
0
  0
LINE
  5
2F5
330
1B
100
AcDbEntity
  8
User.Drawings
  6
CONTINUOUS
100
AcDbLine
 10
9.2006126377952757
 20
-3.6547299606299211
 30
0
 11
9.1994154724409452
 21
-3.6535328346456692
 31
0
  0
LINE
  5
2F6
330
1B
100
AcDbEntity
  8
User.Drawings
  6
CONTINUOUS
100
AcDbLine
 10
9.1994154724409452
 20
-3.6535328346456692
 30
0
 11
9.1967179921259845
 21
-3.6521840944881889
 31
0
  0
LINE
  5
2F7
330
1B
100
AcDbEntity
  8
User.Drawings
  6
CONTINUOUS
100
AcDbLine
 10
9.1967179921259845
 20
-3.6521840944881889
 30
0
 11
9.1906130314960635
 21
-3.6521840944881889
 31
0
  0
LINE
  5
2F8
330
1B
100
AcDbEntity
  8
User.Drawings
  6
CONTINUOUS
100
AcDbLine
 10
9.1906130314960635
 20
-3.6521840944881889
 30
0
 11
9.1879155511811028
 21
-3.6535328346456692
 31
0
  0
LINE
  5
2F9
330
1B
100
AcDbEntity
  8
User.Drawings
  6
CONTINUOUS
100
AcDbLine
 10
9.1979911023622041
 20
-3.6088399999999998
 30
0
 11
9.1980890944881892
 21
-3.6088805905511809
 31
0
  0
LINE
  5
2FA
330
1B
100
AcDbEntity
  8
User.Drawings
  6
CONTINUOUS
100
AcDbLine
 10
9.1980890944881892
 20
-3.6088805905511809
 30
0
 11
9.1981949212598426
 21
-3.6088881102362205
 31
0
  0
LINE
  5
2FB
330
1B
100
AcDbEntity
  8
User.Drawings
  6
CONTINUOUS
100
AcDbLine
 10
9.1981949212598426
 20
-3.6088881102362205
 30
0
 11
9.1987355511811018
 21
-3.6090949999999999
 31
0
  0
LINE
  5
2FC
330
1B
100
AcDbEntity
  8
User.Drawings
  6
CONTINUOUS
100
AcDbLine
 10
9.1987355511811018
 20
-3.6090949999999999
 30
0
 11
9.2024850787401569
 21
-3.6109697637795275
 31
0
  0
LINE
  5
2FD
330
1B
100
AcDbEntity
  8
User.Drawings
  6
CONTINUOUS
100
AcDbLine
 10
9.2024850787401569
 20
-3.6109697637795275
 30
0
 11
9.2027329527559054
 21
-3.6111257874015745
 31
0
  0
LINE
  5
2FE
330
1B
100
AcDbEntity
  8
User.Drawings
  6
CONTINUOUS
100
AcDbLine
 10
9.2027329527559054
 20
-3.6111257874015745
 30
0
 11
9.2028049999999997
 21
-3.6111556299212597
 31
0
  0
LINE
  5
2FF
330
1B
100
AcDbEntity
  8
User.Drawings
  6
CONTINUOUS
100
AcDbLine
 10
9.2028049999999997
 20
-3.6111556299212597
 30
0
 11
9.2028860236220478
 21
-3.6112221259842521
 31
0
  0
LINE
  5
300
330
1B
100
AcDbEntity
  8
User.Drawings
  6
CONTINUOUS
100
AcDbLine
 10
9.2028860236220478
 20
-3.6112221259842521
 30
0
 11
9.2029749606299216
 21
-3.6112781102362206
 31
0
  0
LINE
  5
301
330
1B
100
AcDbEntity
  8
User.Drawings
  6
CONTINUOUS
100
AcDbLine
 10
9.2029749606299216
 20
-3.6112781102362206
 30
0
 11
9.2030261023622053
 21
-3.611337086614173
 31
0
  0
LINE
  5
302
330
1B
100
AcDbEntity
  8
User.Drawings
  6
CONTINUOUS
100
AcDbLine
 10
9.2030261023622053
 20
-3.611337086614173
 30
0
 11
9.2032524409448815
 21
-3.6115228346456694
 31
0
  0
LINE
  5
303
330
1B
100
AcDbEntity
  8
User.Drawings
  6
CONTINUOUS
100
AcDbLine
 10
9.2032524409448815
 20
-3.6115228346456694
 30
0
 11
9.2051272440944878
 21
-3.6133975984251969
 31
0
  0
LINE
  5
304
330
1B
100
AcDbEntity
  8
User.Drawings
  6
CONTINUOUS
100
AcDbLine
 10
9.2051272440944878
 20
-3.6133975984251969
 30
0
 11
9.2053129921259842
 21
-3.613623937007874
 31
0
  0
LINE
  5
305
330
1B
100
AcDbEntity
  8
User.Drawings
  6
CONTINUOUS
100
AcDbLine
 10
9.2053129921259842
 20
-3.613623937007874
 30
0
 11
9.2053720472440936
 21
-3.6136751574803148
 31
0
  0
LINE
  5
306
330
1B
100
AcDbEntity
  8
User.Drawings
  6
CONTINUOUS
100
AcDbLine
 10
9.2053720472440936
 20
-3.6136751574803148
 30
0
 11
9.2054280314960621
 21
-3.613764094488189
 31
0
  0
LINE
  5
307
330
1B
100
AcDbEntity
  8
User.Drawings
  6
CONTINUOUS
100
AcDbLine
 10
9.2054280314960621
 20
-3.613764094488189
 30
0
 11
9.2054944881889753
 21
-3.6138450787401575
 31
0
  0
LINE
  5
308
330
1B
100
AcDbEntity
  8
User.Drawings
  6
CONTINUOUS
100
AcDbLine
 10
9.2054944881889753
 20
-3.6138450787401575
 30
0
 11
9.2055242913385822
 21
-3.6139170078740155
 31
0
  0
LINE
  5
309
330
1B
100
AcDbEntity
  8
User.Drawings
  6
CONTINUOUS
100
AcDbLine
 10
9.2055242913385822
 20
-3.6139170078740155
 30
0
 11
9.2056803937007867
 21
-3.6141650393700786
 31
0
  0
LINE
  5
30A
330
1B
100
AcDbEntity
  8
User.Drawings
  6
CONTINUOUS
100
AcDbLine
 10
9.2056803937007867
 20
-3.6141650393700786
 30
0
 11
9.2075551574803143
 21
-3.6179145669291337
 31
0
  0
LINE
  5
30B
330
1B
100
AcDbEntity
  8
User.Drawings
  6
CONTINUOUS
100
AcDbLine
 10
9.2075551574803143
 20
-3.6179145669291337
 30
0
 11
9.2077620472440938
 21
-3.618455157480315
 31
0
  0
LINE
  5
30C
330
1B
100
AcDbEntity
  8
User.Drawings
  6
CONTINUOUS
100
AcDbLine
 10
9.2077620472440938
 20
-3.618455157480315
 30
0
 11
9.2077695669291337
 21
-3.6185610236220471
 31
0
  0
LINE
  5
30D
330
1B
100
AcDbEntity
  8
User.Drawings
  6
CONTINUOUS
100
AcDbLine
 10
9.2077695669291337
 20
-3.6185610236220471
 30
0
 11
9.2078101574803153
 21
-3.6186590157480314
 31
0
  0
LINE
  5
30E
330
1B
100
AcDbEntity
  8
User.Drawings
  6
CONTINUOUS
100
AcDbLine
 10
9.2078101574803153
 20
-3.6186590157480314
 30
0
 11
9.2078668897637801
 21
-3.6192350787401573
 31
0
  0
LINE
  5
30F
330
1B
100
AcDbEntity
  8
User.Drawings
  6
CONTINUOUS
100
AcDbLine
 10
9.2078668897637801
 20
-3.6192350787401573
 30
0
 11
9.2078668897637801
 21
-3.628608897637795
 31
0
  0
LINE
  5
310
330
1B
100
AcDbEntity
  8
User.Drawings
  6
CONTINUOUS
100
AcDbLine
 10
9.2078668897637801
 20
-3.628608897637795
 30
0
 11
9.2078101574803153
 21
-3.6291849606299214
 31
0
  0
LINE
  5
311
330
1B
100
AcDbEntity
  8
User.Drawings
  6
CONTINUOUS
100
AcDbLine
 10
9.2078101574803153
 20
-3.6291849606299214
 30
0
 11
9.2077695669291337
 21
-3.6292829133858269
 31
0
  0
LINE
  5
312
330
1B
100
AcDbEntity
  8
User.Drawings
  6
CONTINUOUS
100
AcDbLine
 10
9.2077695669291337
 20
-3.6292829133858269
 30
0
 11
9.2077620472440938
 21
-3.6293888188976378
 31
0
  0
LINE
  5
313
330
1B
100
AcDbEntity
  8
User.Drawings
  6
CONTINUOUS
100
AcDbLine
 10
9.2077620472440938
 20
-3.6293888188976378
 30
0
 11
9.2075551574803143
 21
-3.629929409448819
 31
0
  0
LINE
  5
314
330
1B
100
AcDbEntity
  8
User.Drawings
  6
CONTINUOUS
100
AcDbLine
 10
9.2075551574803143
 20
-3.629929409448819
 30
0
 11
9.2056803937007867
 21
-3.6336789370078741
 31
0
  0
LINE
  5
315
330
1B
100
AcDbEntity
  8
User.Drawings
  6
CONTINUOUS
100
AcDbLine
 10
9.2056803937007867
 20
-3.6336789370078741
 30
0
 11
9.2055242913385822
 21
-3.6339269291338581
 31
0
  0
LINE
  5
316
330
1B
100
AcDbEntity
  8
User.Drawings
  6
CONTINUOUS
100
AcDbLine
 10
9.2055242913385822
 20
-3.6339269291338581
 30
0
 11
9.2054944881889753
 21
-3.6339988976377953
 31
0
  0
LINE
  5
317
330
1B
100
AcDbEntity
  8
User.Drawings
  6
CONTINUOUS
100
AcDbLine
 10
9.2054944881889753
 20
-3.6339988976377953
 30
0
 11
9.2054280314960621
 21
-3.634079842519685
 31
0
  0
LINE
  5
318
330
1B
100
AcDbEntity
  8
User.Drawings
  6
CONTINUOUS
100
AcDbLine
 10
9.2054280314960621
 20
-3.634079842519685
 30
0
 11
9.2053720472440936
 21
-3.6341688188976375
 31
0
  0
LINE
  5
319
330
1B
100
AcDbEntity
  8
User.Drawings
  6
CONTINUOUS
100
AcDbLine
 10
9.2053720472440936
 20
-3.6341688188976375
 30
0
 11
9.2053129921259842
 21
-3.63422
 31
0
  0
LINE
  5
31A
330
1B
100
AcDbEntity
  8
User.Drawings
  6
CONTINUOUS
100
AcDbLine
 10
9.2053129921259842
 20
-3.63422
 30
0
 11
9.2051272440944878
 21
-3.6344463779527558
 31
0
  0
LINE
  5
31B
330
1B
100
AcDbEntity
  8
User.Drawings
  6
CONTINUOUS
100
AcDbLine
 10
9.2051272440944878
 20
-3.6344463779527558
 30
0
 11
9.2032524409448815
 21
-3.6363211417322834
 31
0
  0
LINE
  5
31C
330
1B
100
AcDbEntity
  8
User.Drawings
  6
CONTINUOUS
100
AcDbLine
 10
9.2032524409448815
 20
-3.6363211417322834
 30
0
 11
9.2028049999999997
 21
-3.636688346456693
 31
0
  0
LINE
  5
31D
330
1B
100
AcDbEntity
  8
User.Drawings
  6
CONTINUOUS
100
AcDbLine
 10
9.2028049999999997
 20
-3.636688346456693
 30
0
 11
9.2017405905511804
 21
-3.6371292125984249
 31
0
  0
LINE
  5
31E
330
1B
100
AcDbEntity
  8
User.Drawings
  6
CONTINUOUS
100
AcDbLine
 10
9.2017405905511804
 20
-3.6371292125984249
 30
0
 11
9.2005885039370074
 21
-3.6371292125984249
 31
0
  0
LINE
  5
31F
330
1B
100
AcDbEntity
  8
User.Drawings
  6
CONTINUOUS
100
AcDbLine
 10
9.2005885039370074
 20
-3.6371292125984249
 30
0
 11
9.1995240944881882
 21
-3.6366883070866143
 31
0
  0
LINE
  5
320
330
1B
100
AcDbEntity
  8
User.Drawings
  6
CONTINUOUS
100
AcDbLine
 10
9.1995240944881882
 20
-3.6366883070866143
 30
0
 11
9.1987094094488189
 21
-3.6358736220472441
 31
0
  0
LINE
  5
321
330
1B
100
AcDbEntity
  8
User.Drawings
  6
CONTINUOUS
100
AcDbLine
 10
9.1987094094488189
 20
-3.6358736220472441
 30
0
 11
9.198268543307087
 21
-3.6348092125984253
 31
0
  0
LINE
  5
322
330
1B
100
AcDbEntity
  8
User.Drawings
  6
CONTINUOUS
100
AcDbLine
 10
9.198268543307087
 20
-3.6348092125984253
 30
0
 11
9.198268543307087
 21
-3.6336571259842518
 31
0
  0
LINE
  5
323
330
1B
100
AcDbEntity
  8
User.Drawings
  6
CONTINUOUS
100
AcDbLine
 10
9.198268543307087
 20
-3.6336571259842518
 30
0
 11
9.1987094488188976
 21
-3.632592716535433
 31
0
  0
LINE
  5
324
330
1B
100
AcDbEntity
  8
User.Drawings
  6
CONTINUOUS
100
AcDbLine
 10
9.1987094488188976
 20
-3.632592716535433
 30
0
 11
9.1990766929133851
 21
-3.6321452362204725
 31
0
  0
LINE
  5
325
330
1B
100
AcDbEntity
  8
User.Drawings
  6
CONTINUOUS
100
AcDbLine
 10
9.1990766929133851
 20
-3.6321452362204725
 30
0
 11
9.2006126377952757
 21
-3.6306092913385828
 31
0
  0
LINE
  5
326
330
1B
100
AcDbEntity
  8
User.Drawings
  6
CONTINUOUS
100
AcDbLine
 10
9.2006126377952757
 20
-3.6306092913385828
 30
0
 11
9.201961377952756
 21
-3.6279118503937009
 31
0
  0
LINE
  5
327
330
1B
100
AcDbEntity
  8
User.Drawings
  6
CONTINUOUS
100
AcDbLine
 10
9.201961377952756
 20
-3.6279118503937009
 30
0
 11
9.201961377952756
 21
-3.6199321259842518
 31
0
  0
LINE
  5
328
330
1B
100
AcDbEntity
  8
User.Drawings
  6
CONTINUOUS
100
AcDbLine
 10
9.201961377952756
 20
-3.6199321259842518
 30
0
 11
9.2006126377952757
 21
-3.6172346456692912
 31
0
  0
LINE
  5
329
330
1B
100
AcDbEntity
  8
User.Drawings
  6
CONTINUOUS
100
AcDbLine
 10
9.2006126377952757
 20
-3.6172346456692912
 30
0
 11
9.1994154724409452
 21
-3.6160375196850394
 31
0
  0
LINE
  5
32A
330
1B
100
AcDbEntity
  8
User.Drawings
  6
CONTINUOUS
100
AcDbLine
 10
9.1994154724409452
 20
-3.6160375196850394
 30
0
 11
9.1967179921259845
 21
-3.6146887795275591
 31
0
  0
LINE
  5
32B
330
1B
100
AcDbEntity
  8
User.Drawings
  6
CONTINUOUS
100
AcDbLine
 10
9.1967179921259845
 20
-3.6146887795275591
 30
0
 11
9.1887382677165359
 21
-3.6146887795275591
 31
0
  0
LINE
  5
32C
330
1B
100
AcDbEntity
  8
User.Drawings
  6
CONTINUOUS
100
AcDbLine
 10
9.1887382677165359
 20
-3.6146887795275591
 30
0
 11
9.1860407874015753
 21
-3.6160375196850394
 31
0
  0
LINE
  5
32D
330
1B
100
AcDbEntity
  8
User.Drawings
  6
CONTINUOUS
100
AcDbLine
 10
9.1860407874015753
 20
-3.6160375196850394
 30
0
 11
9.1848436614173234
 21
-3.6172346456692912
 31
0
  0
LINE
  5
32E
330
1B
100
AcDbEntity
  8
User.Drawings
  6
CONTINUOUS
100
AcDbLine
 10
9.1848436614173234
 20
-3.6172346456692912
 30
0
 11
9.1834949212598431
 21
-3.6199321259842518
 31
0
  0
LINE
  5
32F
330
1B
100
AcDbEntity
  8
User.Drawings
  6
CONTINUOUS
100
AcDbLine
 10
9.1834949212598431
 20
-3.6199321259842518
 30
0
 11
9.1834949212598431
 21
-3.6279118503937009
 31
0
  0
LINE
  5
330
330
1B
100
AcDbEntity
  8
User.Drawings
  6
CONTINUOUS
100
AcDbLine
 10
9.1834949212598431
 20
-3.6279118503937009
 30
0
 11
9.1848436614173234
 21
-3.6306093307086615
 31
0
  0
LINE
  5
331
330
1B
100
AcDbEntity
  8
User.Drawings
  6
CONTINUOUS
100
AcDbLine
 10
9.1848436614173234
 20
-3.6306093307086615
 30
0
 11
9.1863796062992122
 21
-3.6321452755905512
 31
0
  0
LINE
  5
332
330
1B
100
AcDbEntity
  8
User.Drawings
  6
CONTINUOUS
100
AcDbLine
 10
9.1863796062992122
 20
-3.6321452755905512
 30
0
 11
9.186746811023621
 21
-3.632592716535433
 31
0
  0
LINE
  5
333
330
1B
100
AcDbEntity
  8
User.Drawings
  6
CONTINUOUS
100
AcDbLine
 10
9.186746811023621
 20
-3.632592716535433
 30
0
 11
9.1868037007874008
 21
-3.6327300393700788
 31
0
  0
LINE
  5
334
330
1B
100
AcDbEntity
  8
User.Drawings
  6
CONTINUOUS
100
AcDbLine
 10
9.1868037007874008
 20
-3.6327300393700788
 30
0
 11
9.186897874015747
 21
-3.6328451574803147
 31
0
  0
LINE
  5
335
330
1B
100
AcDbEntity
  8
User.Drawings
  6
CONTINUOUS
100
AcDbLine
 10
9.186897874015747
 20
-3.6328451574803147
 30
0
 11
9.1870225590551176
 21
-3.6332584251968503
 31
0
  0
LINE
  5
336
330
1B
100
AcDbEntity
  8
User.Drawings
  6
CONTINUOUS
100
AcDbLine
 10
9.1870225590551176
 20
-3.6332584251968503
 30
0
 11
9.1871877165354334
 21
-3.6336571259842518
 31
0
  0
LINE
  5
337
330
1B
100
AcDbEntity
  8
User.Drawings
  6
CONTINUOUS
100
AcDbLine
 10
9.1871877165354334
 20
-3.6336571259842518
 30
0
 11
9.1871877165354334
 21
-3.6338057874015748
 31
0
  0
LINE
  5
338
330
1B
100
AcDbEntity
  8
User.Drawings
  6
CONTINUOUS
100
AcDbLine
 10
9.1871877165354334
 20
-3.6338057874015748
 30
0
 11
9.1872306692913384
 21
-3.6339481496062991
 31
0
  0
LINE
  5
339
330
1B
100
AcDbEntity
  8
User.Drawings
  6
CONTINUOUS
100
AcDbLine
 10
9.1872306692913384
 20
-3.6339481496062991
 30
0
 11
9.1871877165354334
 21
-3.6343776377952755
 31
0
  0
LINE
  5
33A
330
1B
100
AcDbEntity
  8
User.Drawings
  6
CONTINUOUS
100
AcDbLine
 10
9.1871877165354334
 20
-3.6343776377952755
 30
0
 11
9.1871877165354334
 21
-3.6348092125984253
 31
0
  0
LINE
  5
33B
330
1B
100
AcDbEntity
  8
User.Drawings
  6
CONTINUOUS
100
AcDbLine
 10
9.1871877165354334
 20
-3.6348092125984253
 30
0
 11
9.1871307874015748
 21
-3.634946535433071
 31
0
  0
LINE
  5
33C
330
1B
100
AcDbEntity
  8
User.Drawings
  6
CONTINUOUS
100
AcDbLine
 10
9.1871307874015748
 20
-3.634946535433071
 30
0
 11
9.1871160236220462
 21
-3.6350945669291339
 31
0
  0
LINE
  5
33D
330
1B
100
AcDbEntity
  8
User.Drawings
  6
CONTINUOUS
100
AcDbLine
 10
9.1871160236220462
 20
-3.6350945669291339
 30
0
 11
9.1869118897637794
 21
-3.635475
 31
0
  0
LINE
  5
33E
330
1B
100
AcDbEntity
  8
User.Drawings
  6
CONTINUOUS
100
AcDbLine
 10
9.1869118897637794
 20
-3.635475
 30
0
 11
9.186746811023621
 21
-3.6358736220472441
 31
0
  0
LINE
  5
33F
330
1B
100
AcDbEntity
  8
User.Drawings
  6
CONTINUOUS
100
AcDbLine
 10
9.186746811023621
 20
-3.6358736220472441
 30
0
 11
9.1866416535433064
 21
-3.6359787401574803
 31
0
  0
LINE
  5
340
330
1B
100
AcDbEntity
  8
User.Drawings
  6
CONTINUOUS
100
AcDbLine
 10
9.1866416535433064
 20
-3.6359787401574803
 30
0
 11
9.186571377952756
 21
-3.6361098031496062
 31
0
  0
LINE
  5
341
330
1B
100
AcDbEntity
  8
User.Drawings
  6
CONTINUOUS
100
AcDbLine
 10
9.186571377952756
 20
-3.6361098031496062
 30
0
 11
9.1862371653543313
 21
-3.6363832283464568
 31
0
  0
LINE
  5
342
330
1B
100
AcDbEntity
  8
User.Drawings
  6
CONTINUOUS
100
AcDbLine
 10
9.1862371653543313
 20
-3.6363832283464568
 30
0
 11
9.1859321259842517
 21
-3.6366883070866143
 31
0
  0
LINE
  5
343
330
1B
100
AcDbEntity
  8
User.Drawings
  6
CONTINUOUS
100
AcDbLine
 10
9.1859321259842517
 20
-3.6366883070866143
 30
0
 11
9.1857948425196856
 21
-3.6367451574803149
 31
0
  0
LINE
  5
344
330
1B
100
AcDbEntity
  8
User.Drawings
  6
CONTINUOUS
100
AcDbLine
 10
9.1857948425196856
 20
-3.6367451574803149
 30
0
 11
9.1856797244094484
 21
-3.6368393700787403
 31
0
  0
LINE
  5
345
330
1B
100
AcDbEntity
  8
User.Drawings
  6
CONTINUOUS
100
AcDbLine
 10
9.1856797244094484
 20
-3.6368393700787403
 30
0
 11
9.1852662992125982
 21
-3.6369640944881887
 31
0
  0
LINE
  5
346
330
1B
100
AcDbEntity
  8
User.Drawings
  6
CONTINUOUS
100
AcDbLine
 10
9.1852662992125982
 20
-3.6369640944881887
 30
0
 11
9.1848677165354324
 21
-3.6371292125984249
 31
0
  0
LINE
  5
347
330
1B
100
AcDbEntity
  8
User.Drawings
  6
CONTINUOUS
100
AcDbLine
 10
9.1848677165354324
 20
-3.6371292125984249
 30
0
 11
9.1847190944881891
 21
-3.6371292125984249
 31
0
  0
LINE
  5
348
330
1B
100
AcDbEntity
  8
User.Drawings
  6
CONTINUOUS
100
AcDbLine
 10
9.1847190944881891
 20
-3.6371292125984249
 30
0
 11
9.1845767322834639
 21
-3.6371721653543307
 31
0
  0
LINE
  5
349
330
1B
100
AcDbEntity
  8
User.Drawings
  6
CONTINUOUS
100
AcDbLine
 10
9.1845767322834639
 20
-3.6371721653543307
 30
0
 11
9.1839978740157484
 21
-3.6371712992125982
 31
0
  0
LINE
  5
34A
330
1B
100
AcDbEntity
  8
User.Drawings
  6
CONTINUOUS
100
AcDbLine
 10
9.1839978740157484
 20
-3.6371712992125982
 30
0
 11
9.1652502362204729
 21
-3.6352965354330706
 31
0
  0
LINE
  5
34B
330
1B
100
AcDbEntity
  8
User.Drawings
  6
CONTINUOUS
100
AcDbLine
 10
9.1652502362204729
 20
-3.6352965354330706
 30
0
 11
9.1650403149606294
 21
-3.6352544488188974
 31
0
  0
LINE
  5
34C
330
1B
100
AcDbEntity
  8
User.Drawings
  6
CONTINUOUS
100
AcDbLine
 10
9.1650403149606294
 20
-3.6352544488188974
 30
0
 11
9.1649679921259839
 21
-3.6352544488188974
 31
0
  0
LINE
  5
34D
330
1B
100
AcDbEntity
  8
User.Drawings
  6
CONTINUOUS
100
AcDbLine
 10
9.1649679921259839
 20
-3.6352544488188974
 30
0
 11
9.1649001574803144
 21
-3.6352263385826773
 31
0
  0
LINE
  5
34E
330
1B
100
AcDbEntity
  8
User.Drawings
  6
CONTINUOUS
100
AcDbLine
 10
9.1649001574803144
 20
-3.6352263385826773
 30
0
 11
9.164682677165354
 21
-3.6351827559055119
 31
0
  0
LINE
  5
34F
330
1B
100
AcDbEntity
  8
User.Drawings
  6
CONTINUOUS
100
AcDbLine
 10
9.164682677165354
 20
-3.6351827559055119
 30
0
 11
9.1643023622047242
 21
-3.6349787007874017
 31
0
  0
LINE
  5
350
330
1B
100
AcDbEntity
  8
User.Drawings
  6
CONTINUOUS
100
AcDbLine
 10
9.1643023622047242
 20
-3.6349787007874017
 30
0
 11
9.1639035826771646
 21
-3.6348135433070867
 31
0
  0
LINE
  5
351
330
1B
100
AcDbEntity
  8
User.Drawings
  6
CONTINUOUS
100
AcDbLine
 10
9.1639035826771646
 20
-3.6348135433070867
 30
0
 11
9.1637983858267713
 21
-3.6347083464566929
 31
0
  0
LINE
  5
352
330
1B
100
AcDbEntity
  8
User.Drawings
  6
CONTINUOUS
100
AcDbLine
 10
9.1637983858267713
 20
-3.6347083464566929
 30
0
 11
9.1636674409448808
 21
-3.6346381102362204
 31
0
  0
LINE
  5
353
330
1B
100
AcDbEntity
  8
User.Drawings
  6
CONTINUOUS
100
AcDbLine
 10
9.1636674409448808
 20
-3.6346381102362204
 30
0
 11
9.1633941732283457
 21
-3.6343041338582678
 31
0
  0
LINE
  5
354
330
1B
100
AcDbEntity
  8
User.Drawings
  6
CONTINUOUS
100
AcDbLine
 10
9.1633941732283457
 20
-3.6343041338582678
 30
0
 11
9.1630889370078741
 21
-3.6339988976377953
 31
0
  0
LINE
  5
355
330
1B
100
AcDbEntity
  8
User.Drawings
  6
CONTINUOUS
100
AcDbLine
 10
9.1630889370078741
 20
-3.6339988976377953
 30
0
 11
9.1630320078740155
 21
-3.6338615354330708
 31
0
  0
LINE
  5
356
330
1B
100
AcDbEntity
  8
User.Drawings
  6
CONTINUOUS
100
AcDbLine
 10
9.1630320078740155
 20
-3.6338615354330708
 30
0
 11
9.1629378740157481
 21
-3.6337464566929132
 31
0
  0
LINE
  5
357
330
1B
100
AcDbEntity
  8
User.Drawings
  6
CONTINUOUS
100
AcDbLine
 10
9.1629378740157481
 20
-3.6337464566929132
 30
0
 11
9.1628131496062988
 21
-3.6333331496062993
 31
0
  0
LINE
  5
358
330
1B
100
AcDbEntity
  8
User.Drawings
  6
CONTINUOUS
100
AcDbLine
 10
9.1628131496062988
 20
-3.6333331496062993
 30
0
 11
9.1626480314960634
 21
-3.6329344881889765
 31
0
  0
LINE
  5
359
330
1B
100
AcDbEntity
  8
User.Drawings
  6
CONTINUOUS
100
AcDbLine
 10
9.1626480314960634
 20
-3.6329344881889765
 30
0
 11
9.1626262598425203
 21
-3.6327137795275588
 31
0
  0
LINE
  5
35A
330
1B
100
AcDbEntity
  8
User.Drawings
  6
CONTINUOUS
100
AcDbLine
 10
9.1626262598425203
 20
-3.6327137795275588
 30
0
 11
9.1626050787401567
 21
-3.6326434645669292
 31
0
  0
LINE
  5
35B
330
1B
100
AcDbEntity
  8
User.Drawings
  6
CONTINUOUS
100
AcDbLine
 10
9.1626050787401567
 20
-3.6326434645669292
 30
0
 11
9.1626122440944879
 21
-3.6325714566929133
 31
0
  0
LINE
  5
35C
330
1B
100
AcDbEntity
  8
User.Drawings
  6
CONTINUOUS
100
AcDbLine
 10
9.1626122440944879
 20
-3.6325714566929133
 30
0
 11
9.1625912992125986
 21
-3.6323584251968501
 31
0
  0
LINE
  5
35D
330
1B
100
AcDbEntity
  8
User.Drawings
  6
CONTINUOUS
100
AcDbLine
 10
9.1625912992125986
 20
-3.6323584251968501
 30
0
 11
9.1625912992125986
 21
-3.6136107874015746
 31
0
  0
LINE
  5
35E
330
1B
100
AcDbEntity
  8
User.Drawings
  6
CONTINUOUS
100
AcDbLine
 10
9.1625912992125986
 20
-3.6136107874015746
 30
0
 11
9.1626480314960634
 21
-3.6130347244094487
 31
0
  0
LINE
  5
35F
330
1B
100
AcDbEntity
  8
User.Drawings
  6
CONTINUOUS
100
AcDbLine
 10
9.1626480314960634
 20
-3.6130347244094487
 30
0
 11
9.1630889370078741
 21
-3.6119703149606299
 31
0
  0
LINE
  5
360
330
1B
100
AcDbEntity
  8
User.Drawings
  6
CONTINUOUS
100
AcDbLine
 10
9.1630889370078741
 20
-3.6119703149606299
 30
0
 11
9.1639035826771646
 21
-3.6111556692913385
 31
0
  0
LINE
  5
361
330
1B
100
AcDbEntity
  8
User.Drawings
  6
CONTINUOUS
100
AcDbLine
 10
9.1639035826771646
 20
-3.6111556692913385
 30
0
 11
9.1649679921259839
 21
-3.6107147637795274
 31
0
  0
LINE
  5
362
330
1B
100
AcDbEntity
  8
User.Drawings
  6
CONTINUOUS
100
AcDbLine
 10
9.1649679921259839
 20
-3.6107147637795274
 30
0
 11
9.1661201181102356
 21
-3.6107147637795274
 31
0
  0
LINE
  5
363
330
1B
100
AcDbEntity
  8
User.Drawings
  6
CONTINUOUS
100
AcDbLine
 10
9.1661201181102356
 20
-3.6107147637795274
 30
0
 11
9.1671845275590549
 21
-3.6111556692913385
 31
0
  0
LINE
  5
364
330
1B
100
AcDbEntity
  8
User.Drawings
  6
CONTINUOUS
100
AcDbLine
 10
9.1671845275590549
 20
-3.6111556692913385
 30
0
 11
9.1679991732283455
 21
-3.6119703149606299
 31
0
  0
LINE
  5
365
330
1B
100
AcDbEntity
  8
User.Drawings
  6
CONTINUOUS
100
AcDbLine
 10
9.1679991732283455
 20
-3.6119703149606299
 30
0
 11
9.1684400787401579
 21
-3.6130347244094487
 31
0
  0
LINE
  5
366
330
1B
100
AcDbEntity
  8
User.Drawings
  6
CONTINUOUS
100
AcDbLine
 10
9.1684400787401579
 20
-3.6130347244094487
 30
0
 11
9.1684968110236227
 21
-3.6136107874015746
 31
0
  0
LINE
  5
367
330
1B
100
AcDbEntity
  8
User.Drawings
  6
CONTINUOUS
100
AcDbLine
 10
9.1684968110236227
 20
-3.6136107874015746
 30
0
 11
9.1684968110236227
 21
-3.629686181102362
 31
0
  0
LINE
  5
368
330
1B
100
AcDbEntity
  8
User.Drawings
  6
CONTINUOUS
100
AcDbLine
 10
9.1684968110236227
 20
-3.629686181102362
 30
0
 11
9.1782680708661424
 21
-3.6306633070866141
 31
0
  0
LINE
  5
369
330
1B
100
AcDbEntity
  8
User.Drawings
  6
CONTINUOUS
100
AcDbLine
 10
9.1782680708661424
 20
-3.6306633070866141
 30
0
 11
9.1779011417322831
 21
-3.629929409448819
 31
0
  0
LINE
  5
36A
330
1B
100
AcDbEntity
  8
User.Drawings
  6
CONTINUOUS
100
AcDbLine
 10
9.1779011417322831
 20
-3.629929409448819
 30
0
 11
9.1776942519685036
 21
-3.629388779527559
 31
0
  0
LINE
  5
36B
330
1B
100
AcDbEntity
  8
User.Drawings
  6
CONTINUOUS
100
AcDbLine
 10
9.1776942519685036
 20
-3.629388779527559
 30
0
 11
9.1776867322834637
 21
-3.6292829527559056
 31
0
  0
LINE
  5
36C
330
1B
100
AcDbEntity
  8
User.Drawings
  6
CONTINUOUS
100
AcDbLine
 10
9.1776867322834637
 20
-3.6292829527559056
 30
0
 11
9.1776461417322839
 21
-3.6291849606299214
 31
0
  0
LINE
  5
36D
330
1B
100
AcDbEntity
  8
User.Drawings
  6
CONTINUOUS
100
AcDbLine
 10
9.1776461417322839
 20
-3.6291849606299214
 30
0
 11
9.1775894094488191
 21
-3.628608897637795
 31
0
  0
LINE
  5
36E
330
1B
100
AcDbEntity
  8
User.Drawings
  6
CONTINUOUS
100
AcDbLine
 10
9.1775894094488191
 20
-3.628608897637795
 30
0
 11
9.1775894094488191
 21
-3.6192350787401573
 31
0
  0
LINE
  5
36F
330
1B
100
AcDbEntity
  8
User.Drawings
  6
CONTINUOUS
100
AcDbLine
 10
9.1775894094488191
 20
-3.6192350787401573
 30
0
 11
9.1776461417322839
 21
-3.6186590157480314
 31
0
  0
LINE
  5
370
330
1B
100
AcDbEntity
  8
User.Drawings
  6
CONTINUOUS
100
AcDbLine
 10
9.1776461417322839
 20
-3.6186590157480314
 30
0
 11
9.1776867322834637
 21
-3.6185609842519684
 31
0
  0
LINE
  5
371
330
1B
100
AcDbEntity
  8
User.Drawings
  6
CONTINUOUS
100
AcDbLine
 10
9.1776867322834637
 20
-3.6185609842519684
 30
0
 11
9.1776942519685036
 21
-3.6184551968503937
 31
0
  0
LINE
  5
372
330
1B
100
AcDbEntity
  8
User.Drawings
  6
CONTINUOUS
100
AcDbLine
 10
9.1776942519685036
 20
-3.6184551968503937
 30
0
 11
9.1779011417322831
 21
-3.6179145669291337
 31
0
  0
LINE
  5
373
330
1B
100
AcDbEntity
  8
User.Drawings
  6
CONTINUOUS
100
AcDbLine
 10
9.1779011417322831
 20
-3.6179145669291337
 30
0
 11
9.1797759055118107
 21
-3.6141650393700786
 31
0
  0
LINE
  5
374
330
1B
100
AcDbEntity
  8
User.Drawings
  6
CONTINUOUS
100
AcDbLine
 10
9.1797759055118107
 20
-3.6141650393700786
 30
0
 11
9.1799319685039364
 21
-3.6139170078740155
 31
0
  0
LINE
  5
375
330
1B
100
AcDbEntity
  8
User.Drawings
  6
CONTINUOUS
100
AcDbLine
 10
9.1799319685039364
 20
-3.6139170078740155
 30
0
 11
9.1799618110236221
 21
-3.6138450787401575
 31
0
  0
LINE
  5
376
330
1B
100
AcDbEntity
  8
User.Drawings
  6
CONTINUOUS
100
AcDbLine
 10
9.1799618110236221
 20
-3.6138450787401575
 30
0
 11
9.1800282677165352
 21
-3.613764094488189
 31
0
  0
LINE
  5
377
330
1B
100
AcDbEntity
  8
User.Drawings
  6
CONTINUOUS
100
AcDbLine
 10
9.1800282677165352
 20
-3.613764094488189
 30
0
 11
9.1800842519685038
 21
-3.6136751574803148
 31
0
  0
LINE
  5
378
330
1B
100
AcDbEntity
  8
User.Drawings
  6
CONTINUOUS
100
AcDbLine
 10
9.1800842519685038
 20
-3.6136751574803148
 30
0
 11
9.1801432283464557
 21
-3.6136239763779527
 31
0
  0
LINE
  5
379
330
1B
100
AcDbEntity
  8
User.Drawings
  6
CONTINUOUS
100
AcDbLine
 10
9.1801432283464557
 20
-3.6136239763779527
 30
0
 11
9.1803290157480308
 21
-3.6133976377952757
 31
0
  0
LINE
  5
37A
330
1B
100
AcDbEntity
  8
User.Drawings
  6
CONTINUOUS
100
AcDbLine
 10
9.1803290157480308
 20
-3.6133976377952757
 30
0
 11
9.1822037795275584
 21
-3.6115228740157481
 31
0
  0
LINE
  5
37B
330
1B
100
AcDbEntity
  8
User.Drawings
  6
CONTINUOUS
100
AcDbLine
 10
9.1822037795275584
 20
-3.6115228740157481
 30
0
 11
9.1824301181102364
 21
-3.611337086614173
 31
0
  0
LINE
  5
37C
330
1B
100
AcDbEntity
  8
User.Drawings
  6
CONTINUOUS
100
AcDbLine
 10
9.1824301181102364
 20
-3.611337086614173
 30
0
 11
9.1824812992125988
 21
-3.6112781102362206
 31
0
  0
LINE
  5
37D
330
1B
100
AcDbEntity
  8
User.Drawings
  6
CONTINUOUS
100
AcDbLine
 10
9.1824812992125988
 20
-3.6112781102362206
 30
0
 11
9.1825702362204726
 21
-3.6112221259842521
 31
0
  0
LINE
  5
37E
330
1B
100
AcDbEntity
  8
User.Drawings
  6
CONTINUOUS
100
AcDbLine
 10
9.1825702362204726
 20
-3.6112221259842521
 30
0
 11
9.1826512204724402
 21
-3.6111556692913385
 31
0
  0
LINE
  5
37F
330
1B
100
AcDbEntity
  8
User.Drawings
  6
CONTINUOUS
100
AcDbLine
 10
9.1826512204724402
 20
-3.6111556692913385
 30
0
 11
9.1827231496062982
 21
-3.6111258267716533
 31
0
  0
LINE
  5
380
330
1B
100
AcDbEntity
  8
User.Drawings
  6
CONTINUOUS
100
AcDbLine
 10
9.1827231496062982
 20
-3.6111258267716533
 30
0
 11
9.1829711811023618
 21
-3.6109697637795275
 31
0
  0
LINE
  5
381
330
1B
100
AcDbEntity
  8
User.Drawings
  6
CONTINUOUS
100
AcDbLine
 10
9.1829711811023618
 20
-3.6109697637795275
 30
0
 11
9.1867207086614169
 21
-3.6090949999999999
 31
0
  0
LINE
  5
382
330
1B
100
AcDbEntity
  8
User.Drawings
  6
CONTINUOUS
100
AcDbLine
 10
9.1867207086614169
 20
-3.6090949999999999
 30
0
 11
9.187261299212599
 21
-3.6088881102362205
 31
0
  0
LINE
  5
383
330
1B
100
AcDbEntity
  8
User.Drawings
  6
CONTINUOUS
100
AcDbLine
 10
9.187261299212599
 20
-3.6088881102362205
 30
0
 11
9.1873671653543312
 21
-3.6088805511811022
 31
0
  0
LINE
  5
384
330
1B
100
AcDbEntity
  8
User.Drawings
  6
CONTINUOUS
100
AcDbLine
 10
9.1873671653543312
 20
-3.6088805511811022
 30
0
 11
9.1874651574803146
 21
-3.6088399999999998
 31
0
  0
LINE
  5
385
330
1B
100
AcDbEntity
  8
User.Drawings
  6
CONTINUOUS
100
AcDbLine
 10
9.1874651574803146
 20
-3.6088399999999998
 30
0
 11
9.1880412204724404
 21
-3.6087832677165355
 31
0
  0
LINE
  5
386
330
1B
100
AcDbEntity
  8
User.Drawings
  6
CONTINUOUS
100
AcDbLine
 10
9.1880412204724404
 20
-3.6087832677165355
 30
0
 11
9.1974150393700782
 21
-3.6087832677165355
 31
0
  0
LINE
  5
387
330
1B
100
AcDbEntity
  8
User.Drawings
  6
CONTINUOUS
100
AcDbLine
 10
9.1974150393700782
 20
-3.6087832677165355
 30
0
 11
9.1979911023622041
 21
-3.6088399999999998
 31
0
  0
LINE
  5
388
330
1B
100
AcDbEntity
  8
User.Drawings
  6
CONTINUOUS
100
AcDbLine
 10
7.9939456299212592
 20
-1.9677499606299211
 30
0
 11
7.9940954724409448
 21
-1.9685032677165355
 31
0
  0
LINE
  5
389
330
1B
100
AcDbEntity
  8
User.Drawings
  6
CONTINUOUS
100
AcDbLine
 10
7.9940954724409448
 20
-1.9685032677165355
 30
0
 11
7.9940954724409448
 21
-2.5196843700787399
 31
0
  0
LINE
  5
38A
330
1B
100
AcDbEntity
  8
User.Drawings
  6
CONTINUOUS
100
AcDbLine
 10
7.9940954724409448
 20
-2.5196843700787399
 30
0
 11
7.993415275590551
 21
-2.5343964566929134
 31
0
  0
LINE
  5
38B
330
1B
100
AcDbEntity
  8
User.Drawings
  6
CONTINUOUS
100
AcDbLine
 10
7.993415275590551
 20
-2.5343964566929134
 30
0
 11
7.991380551181102
 21
-2.5489830314960629
 31
0
  0
LINE
  5
38C
330
1B
100
AcDbEntity
  8
User.Drawings
  6
CONTINUOUS
100
AcDbLine
 10
7.991380551181102
 20
-2.5489830314960629
 30
0
 11
7.9880086220472437
 21
-2.5633196062992125
 31
0
  0
LINE
  5
38D
330
1B
100
AcDbEntity
  8
User.Drawings
  6
CONTINUOUS
100
AcDbLine
 10
7.9880086220472437
 20
-2.5633196062992125
 30
0
 11
7.9833282283464566
 21
-2.5772839370078739
 31
0
  0
LINE
  5
38E
330
1B
100
AcDbEntity
  8
User.Drawings
  6
CONTINUOUS
100
AcDbLine
 10
7.9833282283464566
 20
-2.5772839370078739
 30
0
 11
7.9773793700787401
 21
-2.5907568110236219
 31
0
  0
LINE
  5
38F
330
1B
100
AcDbEntity
  8
User.Drawings
  6
CONTINUOUS
100
AcDbLine
 10
7.9773793700787401
 20
-2.5907568110236219
 30
0
 11
7.9702127559055116
 21
-2.6036233464566929
 31
0
  0
LINE
  5
390
330
1B
100
AcDbEntity
  8
User.Drawings
  6
CONTINUOUS
100
AcDbLine
 10
7.9702127559055116
 20
-2.6036233464566929
 30
0
 11
7.9618895669291341
 21
-2.6157737401574801
 31
0
  0
LINE
  5
391
330
1B
100
AcDbEntity
  8
User.Drawings
  6
CONTINUOUS
100
AcDbLine
 10
7.9618895669291341
 20
-2.6157737401574801
 30
0
 11
7.9524807480314958
 21
-2.6271043307086615
 31
0
  0
LINE
  5
392
330
1B
100
AcDbEntity
  8
User.Drawings
  6
CONTINUOUS
100
AcDbLine
 10
7.9524807480314958
 20
-2.6271043307086615
 30
0
 11
7.9420666141732283
 21
-2.637518464566929
 31
0
  0
LINE
  5
393
330
1B
100
AcDbEntity
  8
User.Drawings
  6
CONTINUOUS
100
AcDbLine
 10
7.9420666141732283
 20
-2.637518464566929
 30
0
 11
7.930736023622047
 21
-2.6469272834645667
 31
0
  0
LINE
  5
394
330
1B
100
AcDbEntity
  8
User.Drawings
  6
CONTINUOUS
100
AcDbLine
 10
7.930736023622047
 20
-2.6469272834645667
 30
0
 11
7.9185856299212594
 21
-2.6552504724409447
 31
0
  0
LINE
  5
395
330
1B
100
AcDbEntity
  8
User.Drawings
  6
CONTINUOUS
100
AcDbLine
 10
7.9185856299212594
 20
-2.6552504724409447
 30
0
 11
7.9057190944881892
 21
-2.6624170866141732
 31
0
  0
LINE
  5
396
330
1B
100
AcDbEntity
  8
User.Drawings
  6
CONTINUOUS
100
AcDbLine
 10
7.9057190944881892
 20
-2.6624170866141732
 30
0
 11
7.8922462204724404
 21
-2.6683659448818897
 31
0
  0
LINE
  5
397
330
1B
100
AcDbEntity
  8
User.Drawings
  6
CONTINUOUS
100
AcDbLine
 10
7.8922462204724404
 20
-2.6683659448818897
 30
0
 11
7.8782818897637794
 21
-2.6730463385826773
 31
0
  0
LINE
  5
398
330
1B
100
AcDbEntity
  8
User.Drawings
  6
CONTINUOUS
100
AcDbLine
 10
7.8782818897637794
 20
-2.6730463385826773
 30
0
 11
7.8639453149606293
 21
-2.6764182677165356
 31
0
  0
LINE
  5
399
330
1B
100
AcDbEntity
  8
User.Drawings
  6
CONTINUOUS
100
AcDbLine
 10
7.8639453149606293
 20
-2.6764182677165356
 30
0
 11
7.8493587401574798
 21
-2.6784529921259841
 31
0
  0
LINE
  5
39A
330
1B
100
AcDbEntity
  8
User.Drawings
  6
CONTINUOUS
100
AcDbLine
 10
7.8493587401574798
 20
-2.6784529921259841
 30
0
 11
7.8346466535433068
 21
-2.6791331889763779
 31
0
  0
LINE
  5
39B
330
1B
100
AcDbEntity
  8
User.Drawings
  6
CONTINUOUS
100
AcDbLine
 10
7.8346466535433068
 20
-2.6791331889763779
 30
0
 11
3.188976377952756
 21
-2.6791338582677167
 31
0
  0
LINE
  5
39C
330
1B
100
AcDbEntity
  8
User.Drawings
  6
CONTINUOUS
100
AcDbLine
 10
3.188976377952756
 20
-2.6791338582677167
 30
0
 11
3.1742642913385826
 21
-2.6784536614173229
 31
0
  0
LINE
  5
39D
330
1B
100
AcDbEntity
  8
User.Drawings
  6
CONTINUOUS
100
AcDbLine
 10
3.1742642913385826
 20
-2.6784536614173229
 30
0
 11
3.1596777165354331
 21
-2.6764189370078739
 31
0
  0
LINE
  5
39E
330
1B
100
AcDbEntity
  8
User.Drawings
  6
CONTINUOUS
100
AcDbLine
 10
3.1596777165354331
 20
-2.6764189370078739
 30
0
 11
3.1453411417322834
 21
-2.6730470078740156
 31
0
  0
LINE
  5
39F
330
1B
100
AcDbEntity
  8
User.Drawings
  6
CONTINUOUS
100
AcDbLine
 10
3.1453411417322834
 20
-2.6730470078740156
 30
0
 11
3.131376811023622
 21
-2.6683666141732281
 31
0
  0
LINE
  5
3A0
330
1B
100
AcDbEntity
  8
User.Drawings
  6
CONTINUOUS
100
AcDbLine
 10
3.131376811023622
 20
-2.6683666141732281
 30
0
 11
3.117903937007874
 21
-2.6624177559055116
 31
0
  0
LINE
  5
3A1
330
1B
100
AcDbEntity
  8
User.Drawings
  6
CONTINUOUS
100
AcDbLine
 10
3.117903937007874
 20
-2.6624177559055116
 30
0
 11
3.105037401574803
 21
-2.6552511417322835
 31
0
  0
LINE
  5
3A2
330
1B
100
AcDbEntity
  8
User.Drawings
  6
CONTINUOUS
100
AcDbLine
 10
3.105037401574803
 20
-2.6552511417322835
 30
0
 11
3.0928870078740158
 21
-2.6469279527559055
 31
0
  0
LINE
  5
3A3
330
1B
100
AcDbEntity
  8
User.Drawings
  6
CONTINUOUS
100
AcDbLine
 10
3.0928870078740158
 20
-2.6469279527559055
 30
0
 11
3.0815564173228345
 21
-2.6375191338582678
 31
0
  0
LINE
  5
3A4
330
1B
100
AcDbEntity
  8
User.Drawings
  6
CONTINUOUS
100
AcDbLine
 10
3.0815564173228345
 20
-2.6375191338582678
 30
0
 11
3.071142283464567
 21
-2.6271049999999998
 31
0
  0
LINE
  5
3A5
330
1B
100
AcDbEntity
  8
User.Drawings
  6
CONTINUOUS
100
AcDbLine
 10
3.071142283464567
 20
-2.6271049999999998
 30
0
 11
3.0617334645669292
 21
-2.6157744094488189
 31
0
  0
LINE
  5
3A6
330
1B
100
AcDbEntity
  8
User.Drawings
  6
CONTINUOUS
100
AcDbLine
 10
3.0617334645669292
 20
-2.6157744094488189
 30
0
 11
3.0534102755905512
 21
-2.6036240157480313
 31
0
  0
LINE
  5
3A7
330
1B
100
AcDbEntity
  8
User.Drawings
  6
CONTINUOUS
100
AcDbLine
 10
3.0534102755905512
 20
-2.6036240157480313
 30
0
 11
3.0462436614173227
 21
-2.5907574803149607
 31
0
  0
LINE
  5
3A8
330
1B
100
AcDbEntity
  8
User.Drawings
  6
CONTINUOUS
100
AcDbLine
 10
3.0462436614173227
 20
-2.5907574803149607
 30
0
 11
3.0402948031496062
 21
-2.5772846062992127
 31
0
  0
LINE
  5
3A9
330
1B
100
AcDbEntity
  8
User.Drawings
  6
CONTINUOUS
100
AcDbLine
 10
3.0402948031496062
 20
-2.5772846062992127
 30
0
 11
3.0356144094488187
 21
-2.5633202755905513
 31
0
  0
LINE
  5
3AA
330
1B
100
AcDbEntity
  8
User.Drawings
  6
CONTINUOUS
100
AcDbLine
 10
3.0356144094488187
 20
-2.5633202755905513
 30
0
 11
3.0322424803149604
 21
-2.5489837007874017
 31
0
  0
LINE
  5
3AB
330
1B
100
AcDbEntity
  8
User.Drawings
  6
CONTINUOUS
100
AcDbLine
 10
3.0322424803149604
 20
-2.5489837007874017
 30
0
 11
3.0302077559055118
 21
-2.5343971259842517
 31
0
  0
LINE
  5
3AC
330
1B
100
AcDbEntity
  8
User.Drawings
  6
CONTINUOUS
100
AcDbLine
 10
3.0302077559055118
 20
-2.5343971259842517
 30
0
 11
3.0295275590551181
 21
-2.5196850393700787
 31
0
  0
LINE
  5
3AD
330
1B
100
AcDbEntity
  8
User.Drawings
  6
CONTINUOUS
100
AcDbLine
 10
3.0295275590551181
 20
-2.5196850393700787
 30
0
 11
3.0295275590551181
 21
-1.9685039370078741
 31
0
  0
LINE
  5
3AE
330
1B
100
AcDbEntity
  8
User.Drawings
  6
CONTINUOUS
100
AcDbLine
 10
3.0295275590551181
 20
-1.9685039370078741
 30
0
 11
3.0296774015748031
 21
-1.9677506299212597
 31
0
  0
LINE
  5
3AF
330
1B
100
AcDbEntity
  8
User.Drawings
  6
CONTINUOUS
100
AcDbLine
 10
3.0296774015748031
 20
-1.9677506299212597
 30
0
 11
3.0307427559055116
 21
-1.9666852755905511
 31
0
  0
LINE
  5
3B0
330
1B
100
AcDbEntity
  8
User.Drawings
  6
CONTINUOUS
100
AcDbLine
 10
3.0307427559055116
 20
-1.9666852755905511
 30
0
 11
3.0322493700787403
 21
-1.9666852755905511
 31
0
  0
LINE
  5
3B1
330
1B
100
AcDbEntity
  8
User.Drawings
  6
CONTINUOUS
100
AcDbLine
 10
3.0322493700787403
 20
-1.9666852755905511
 30
0
 11
3.0333147244094487
 21
-1.9677506299212597
 31
0
  0
LINE
  5
3B2
330
1B
100
AcDbEntity
  8
User.Drawings
  6
CONTINUOUS
100
AcDbLine
 10
3.0333147244094487
 20
-1.9677506299212597
 30
0
 11
3.0334645669291338
 21
-1.9685039370078741
 31
0
  0
LINE
  5
3B3
330
1B
100
AcDbEntity
  8
User.Drawings
  6
CONTINUOUS
100
AcDbLine
 10
3.0334645669291338
 20
-1.9685039370078741
 30
0
 11
3.0334645669291338
 21
-2.5196850393700787
 31
0
  0
LINE
  5
3B4
330
1B
100
AcDbEntity
  8
User.Drawings
  6
CONTINUOUS
100
AcDbLine
 10
3.0334645669291338
 20
-2.5196850393700787
 30
0
 11
3.0334645669291338
 21
-2.5268747637795275
 31
0
  0
LINE
  5
3B5
330
1B
100
AcDbEntity
  8
User.Drawings
  6
CONTINUOUS
100
AcDbLine
 10
3.0334645669291338
 20
-2.5268747637795275
 30
0
 11
3.0347913385826772
 21
-2.5411929133858266
 31
0
  0
LINE
  5
3B6
330
1B
100
AcDbEntity
  8
User.Drawings
  6
CONTINUOUS
100
AcDbLine
 10
3.0347913385826772
 20
-2.5411929133858266
 30
0
 11
3.0374335826771652
 21
-2.5553275984251966
 31
0
  0
LINE
  5
3B7
330
1B
100
AcDbEntity
  8
User.Drawings
  6
CONTINUOUS
100
AcDbLine
 10
3.0374335826771652
 20
-2.5553275984251966
 30
0
 11
3.0413687007874013
 21
-2.5691581496062992
 31
0
  0
LINE
  5
3B8
330
1B
100
AcDbEntity
  8
User.Drawings
  6
CONTINUOUS
100
AcDbLine
 10
3.0413687007874013
 20
-2.5691581496062992
 30
0
 11
3.046563188976378
 21
-2.5825666141732282
 31
0
  0
LINE
  5
3B9
330
1B
100
AcDbEntity
  8
User.Drawings
  6
CONTINUOUS
100
AcDbLine
 10
3.046563188976378
 20
-2.5825666141732282
 30
0
 11
3.0529726771653545
 21
-2.5954386220472441
 31
0
  0
LINE
  5
3BA
330
1B
100
AcDbEntity
  8
User.Drawings
  6
CONTINUOUS
100
AcDbLine
 10
3.0529726771653545
 20
-2.5954386220472441
 30
0
 11
3.0605424803149606
 21
-2.6076642913385828
 31
0
  0
LINE
  5
3BB
330
1B
100
AcDbEntity
  8
User.Drawings
  6
CONTINUOUS
100
AcDbLine
 10
3.0605424803149606
 20
-2.6076642913385828
 30
0
 11
3.0692080708661416
 21
-2.6191393700787402
 31
0
  0
LINE
  5
3BC
330
1B
100
AcDbEntity
  8
User.Drawings
  6
CONTINUOUS
100
AcDbLine
 10
3.0692080708661416
 20
-2.6191393700787402
 30
0
 11
3.0788954724409447
 21
-2.6297659448818895
 31
0
  0
LINE
  5
3BD
330
1B
100
AcDbEntity
  8
User.Drawings
  6
CONTINUOUS
100
AcDbLine
 10
3.0788954724409447
 20
-2.6297659448818895
 30
0
 11
3.0895220472440945
 21
-2.6394533464566927
 31
0
  0
LINE
  5
3BE
330
1B
100
AcDbEntity
  8
User.Drawings
  6
CONTINUOUS
100
AcDbLine
 10
3.0895220472440945
 20
-2.6394533464566927
 30
0
 11
3.1009971259842519
 21
-2.6481189370078742
 31
0
  0
LINE
  5
3BF
330
1B
100
AcDbEntity
  8
User.Drawings
  6
CONTINUOUS
100
AcDbLine
 10
3.1009971259842519
 20
-2.6481189370078742
 30
0
 11
3.1132227952755906
 21
-2.6556887401574802
 31
0
  0
LINE
  5
3C0
330
1B
100
AcDbEntity
  8
User.Drawings
  6
CONTINUOUS
100
AcDbLine
 10
3.1132227952755906
 20
-2.6556887401574802
 30
0
 11
3.1260948031496061
 21
-2.6620982283464567
 31
0
  0
LINE
  5
3C1
330
1B
100
AcDbEntity
  8
User.Drawings
  6
CONTINUOUS
100
AcDbLine
 10
3.1260948031496061
 20
-2.6620982283464567
 30
0
 11
3.1395032677165355
 21
-2.667292716535433
 31
0
  0
LINE
  5
3C2
330
1B
100
AcDbEntity
  8
User.Drawings
  6
CONTINUOUS
100
AcDbLine
 10
3.1395032677165355
 20
-2.667292716535433
 30
0
 11
3.1533338188976376
 21
-2.671227834645669
 31
0
  0
LINE
  5
3C3
330
1B
100
AcDbEntity
  8
User.Drawings
  6
CONTINUOUS
100
AcDbLine
 10
3.1533338188976376
 20
-2.671227834645669
 30
0
 11
3.1674685039370076
 21
-2.6738700787401575
 31
0
  0
LINE
  5
3C4
330
1B
100
AcDbEntity
  8
User.Drawings
  6
CONTINUOUS
100
AcDbLine
 10
3.1674685039370076
 20
-2.6738700787401575
 30
0
 11
3.1817866535433068
 21
-2.6751968503937009
 31
0
  0
LINE
  5
3C5
330
1B
100
AcDbEntity
  8
User.Drawings
  6
CONTINUOUS
100
AcDbLine
 10
3.1817866535433068
 20
-2.6751968503937009
 30
0
 11
3.188976377952756
 21
-2.6751968503937009
 31
0
  0
LINE
  5
3C6
330
1B
100
AcDbEntity
  8
User.Drawings
  6
CONTINUOUS
100
AcDbLine
 10
3.188976377952756
 20
-2.6751968503937009
 30
0
 11
7.8346466535433068
 21
-2.6751961811023621
 31
0
  0
LINE
  5
3C7
330
1B
100
AcDbEntity
  8
User.Drawings
  6
CONTINUOUS
100
AcDbLine
 10
7.8346466535433068
 20
-2.6751961811023621
 30
0
 11
7.841836377952756
 21
-2.6751961811023621
 31
0
  0
LINE
  5
3C8
330
1B
100
AcDbEntity
  8
User.Drawings
  6
CONTINUOUS
100
AcDbLine
 10
7.841836377952756
 20
-2.6751961811023621
 30
0
 11
7.8561545275590552
 21
-2.6738694094488187
 31
0
  0
LINE
  5
3C9
330
1B
100
AcDbEntity
  8
User.Drawings
  6
CONTINUOUS
100
AcDbLine
 10
7.8561545275590552
 20
-2.6738694094488187
 30
0
 11
7.8702892125984247
 21
-2.6712271653543307
 31
0
  0
LINE
  5
3CA
330
1B
100
AcDbEntity
  8
User.Drawings
  6
CONTINUOUS
100
AcDbLine
 10
7.8702892125984247
 20
-2.6712271653543307
 30
0
 11
7.8841197637795277
 21
-2.6672920472440946
 31
0
  0
LINE
  5
3CB
330
1B
100
AcDbEntity
  8
User.Drawings
  6
CONTINUOUS
100
AcDbLine
 10
7.8841197637795277
 20
-2.6672920472440946
 30
0
 11
7.8975282283464567
 21
-2.6620975590551179
 31
0
  0
LINE
  5
3CC
330
1B
100
AcDbEntity
  8
User.Drawings
  6
CONTINUOUS
100
AcDbLine
 10
7.8975282283464567
 20
-2.6620975590551179
 30
0
 11
7.9104002362204726
 21
-2.6556880708661419
 31
0
  0
LINE
  5
3CD
330
1B
100
AcDbEntity
  8
User.Drawings
  6
CONTINUOUS
100
AcDbLine
 10
7.9104002362204726
 20
-2.6556880708661419
 30
0
 11
7.9226259055118105
 21
-2.6481182677165354
 31
0
  0
LINE
  5
3CE
330
1B
100
AcDbEntity
  8
User.Drawings
  6
CONTINUOUS
100
AcDbLine
 10
7.9226259055118105
 20
-2.6481182677165354
 30
0
 11
7.9341009842519687
 21
-2.6394526771653544
 31
0
  0
LINE
  5
3CF
330
1B
100
AcDbEntity
  8
User.Drawings
  6
CONTINUOUS
100
AcDbLine
 10
7.9341009842519687
 20
-2.6394526771653544
 30
0
 11
7.9447275590551181
 21
-2.6297652755905512
 31
0
  0
LINE
  5
3D0
330
1B
100
AcDbEntity
  8
User.Drawings
  6
CONTINUOUS
100
AcDbLine
 10
7.9447275590551181
 20
-2.6297652755905512
 30
0
 11
7.9544149606299213
 21
-2.6191387007874014
 31
0
  0
LINE
  5
3D1
330
1B
100
AcDbEntity
  8
User.Drawings
  6
CONTINUOUS
100
AcDbLine
 10
7.9544149606299213
 20
-2.6191387007874014
 30
0
 11
7.9630805511811023
 21
-2.607663622047244
 31
0
  0
LINE
  5
3D2
330
1B
100
AcDbEntity
  8
User.Drawings
  6
CONTINUOUS
100
AcDbLine
 10
7.9630805511811023
 20
-2.607663622047244
 30
0
 11
7.9706503543307088
 21
-2.5954379527559053
 31
0
  0
LINE
  5
3D3
330
1B
100
AcDbEntity
  8
User.Drawings
  6
CONTINUOUS
100
AcDbLine
 10
7.9706503543307088
 20
-2.5954379527559053
 30
0
 11
7.9770598425196848
 21
-2.5825659448818898
 31
0
  0
LINE
  5
3D4
330
1B
100
AcDbEntity
  8
User.Drawings
  6
CONTINUOUS
100
AcDbLine
 10
7.9770598425196848
 20
-2.5825659448818898
 30
0
 11
7.9822543307086615
 21
-2.5691574803149604
 31
0
  0
LINE
  5
3D5
330
1B
100
AcDbEntity
  8
User.Drawings
  6
CONTINUOUS
100
AcDbLine
 10
7.9822543307086615
 20
-2.5691574803149604
 30
0
 11
7.9861894488188971
 21
-2.5553269291338583
 31
0
  0
LINE
  5
3D6
330
1B
100
AcDbEntity
  8
User.Drawings
  6
CONTINUOUS
100
AcDbLine
 10
7.9861894488188971
 20
-2.5553269291338583
 30
0
 11
7.9888316929133856
 21
-2.5411922440944883
 31
0
  0
LINE
  5
3D7
330
1B
100
AcDbEntity
  8
User.Drawings
  6
CONTINUOUS
100
AcDbLine
 10
7.9888316929133856
 20
-2.5411922440944883
 30
0
 11
7.990158464566929
 21
-2.5268740944881891
 31
0
  0
LINE
  5
3D8
330
1B
100
AcDbEntity
  8
User.Drawings
  6
CONTINUOUS
100
AcDbLine
 10
7.990158464566929
 20
-2.5268740944881891
 30
0
 11
7.990158464566929
 21
-2.5196843700787399
 31
0
  0
LINE
  5
3D9
330
1B
100
AcDbEntity
  8
User.Drawings
  6
CONTINUOUS
100
AcDbLine
 10
7.990158464566929
 20
-2.5196843700787399
 30
0
 11
7.990158464566929
 21
-1.9685032677165355
 31
0
  0
LINE
  5
3DA
330
1B
100
AcDbEntity
  8
User.Drawings
  6
CONTINUOUS
100
AcDbLine
 10
7.990158464566929
 20
-1.9685032677165355
 30
0
 11
7.9903083070866137
 21
-1.9677499606299211
 31
0
  0
LINE
  5
3DB
330
1B
100
AcDbEntity
  8
User.Drawings
  6
CONTINUOUS
100
AcDbLine
 10
7.9903083070866137
 20
-1.9677499606299211
 30
0
 11
7.991373661417323
 21
-1.9666846062992125
 31
0
  0
LINE
  5
3DC
330
1B
100
AcDbEntity
  8
User.Drawings
  6
CONTINUOUS
100
AcDbLine
 10
7.991373661417323
 20
-1.9666846062992125
 30
0
 11
7.9928802755905508
 21
-1.9666846062992125
 31
0
  0
LINE
  5
3DD
330
1B
100
AcDbEntity
  8
User.Drawings
  6
CONTINUOUS
100
AcDbLine
 10
7.9928802755905508
 20
-1.9666846062992125
 30
0
 11
7.9939456299212592
 21
-1.9677499606299211
 31
0
  0
LINE
  5
3DE
330
1B
100
AcDbEntity
  8
User.Drawings
  6
CONTINUOUS
100
AcDbLine
 10
3.1120548818897635
 20
-1.9677506299212597
 30
0
 11
3.1122047244094486
 21
-1.9685039370078741
 31
0
  0
LINE
  5
3DF
330
1B
100
AcDbEntity
  8
User.Drawings
  6
CONTINUOUS
100
AcDbLine
 10
3.1122047244094486
 20
-1.9685039370078741
 30
0
 11
3.1122047244094486
 21
-2.5196850393700787
 31
0
  0
LINE
  5
3E0
330
1B
100
AcDbEntity
  8
User.Drawings
  6
CONTINUOUS
100
AcDbLine
 10
3.1122047244094486
 20
-2.5196850393700787
 30
0
 11
3.1122047244094486
 21
-2.524716929133858
 31
0
  0
LINE
  5
3E1
330
1B
100
AcDbEntity
  8
User.Drawings
  6
CONTINUOUS
100
AcDbLine
 10
3.1122047244094486
 20
-2.524716929133858
 30
0
 11
3.1135183070866139
 21
-2.5346946062992126
 31
0
  0
LINE
  5
3E2
330
1B
100
AcDbEntity
  8
User.Drawings
  6
CONTINUOUS
100
AcDbLine
 10
3.1135183070866139
 20
-2.5346946062992126
 30
0
 11
3.1161229921259843
 21
-2.5444154330708662
 31
0
  0
LINE
  5
3E3
330
1B
100
AcDbEntity
  8
User.Drawings
  6
CONTINUOUS
100
AcDbLine
 10
3.1161229921259843
 20
-2.5444154330708662
 30
0
 11
3.1199742125984251
 21
-2.553713149606299
 31
0
  0
LINE
  5
3E4
330
1B
100
AcDbEntity
  8
User.Drawings
  6
CONTINUOUS
100
AcDbLine
 10
3.1199742125984251
 20
-2.553713149606299
 30
0
 11
3.1250061023622044
 21
-2.5624286220472441
 31
0
  0
LINE
  5
3E5
330
1B
100
AcDbEntity
  8
User.Drawings
  6
CONTINUOUS
100
AcDbLine
 10
3.1250061023622044
 20
-2.5624286220472441
 30
0
 11
3.1311325196850395
 21
-2.5704127165354329
 31
0
  0
LINE
  5
3E6
330
1B
100
AcDbEntity
  8
User.Drawings
  6
CONTINUOUS
100
AcDbLine
 10
3.1311325196850395
 20
-2.5704127165354329
 30
0
 11
3.1382487007874014
 21
-2.5775288976377952
 31
0
  0
LINE
  5
3E7
330
1B
100
AcDbEntity
  8
User.Drawings
  6
CONTINUOUS
100
AcDbLine
 10
3.1382487007874014
 20
-2.5775288976377952
 30
0
 11
3.1462327952755906
 21
-2.5836553149606298
 31
0
  0
LINE
  5
3E8
330
1B
100
AcDbEntity
  8
User.Drawings
  6
CONTINUOUS
100
AcDbLine
 10
3.1462327952755906
 20
-2.5836553149606298
 30
0
 11
3.1549482677165352
 21
-2.5886872047244096
 31
0
  0
LINE
  5
3E9
330
1B
100
AcDbEntity
  8
User.Drawings
  6
CONTINUOUS
100
AcDbLine
 10
3.1549482677165352
 20
-2.5886872047244096
 30
0
 11
3.1642459842519686
 21
-2.5925384251968504
 31
0
  0
LINE
  5
3EA
330
1B
100
AcDbEntity
  8
User.Drawings
  6
CONTINUOUS
100
AcDbLine
 10
3.1642459842519686
 20
-2.5925384251968504
 30
0
 11
3.1739668110236221
 21
-2.5951431102362204
 31
0
  0
LINE
  5
3EB
330
1B
100
AcDbEntity
  8
User.Drawings
  6
CONTINUOUS
100
AcDbLine
 10
3.1739668110236221
 20
-2.5951431102362204
 30
0
 11
3.1839444881889762
 21
-2.5964566929133857
 31
0
  0
LINE
  5
3EC
330
1B
100
AcDbEntity
  8
User.Drawings
  6
CONTINUOUS
100
AcDbLine
 10
3.1839444881889762
 20
-2.5964566929133857
 30
0
 11
3.188976377952756
 21
-2.5964566929133857
 31
0
  0
LINE
  5
3ED
330
1B
100
AcDbEntity
  8
User.Drawings
  6
CONTINUOUS
100
AcDbLine
 10
3.188976377952756
 20
-2.5964566929133857
 30
0
 11
7.8346470078740156
 21
-2.5964572834645669
 31
0
  0
LINE
  5
3EE
330
1B
100
AcDbEntity
  8
User.Drawings
  6
CONTINUOUS
100
AcDbLine
 10
7.8346470078740156
 20
-2.5964572834645669
 30
0
 11
7.8396788976377954
 21
-2.5964572834645669
 31
0
  0
LINE
  5
3EF
330
1B
100
AcDbEntity
  8
User.Drawings
  6
CONTINUOUS
100
AcDbLine
 10
7.8396788976377954
 20
-2.5964572834645669
 30
0
 11
7.8496565748031495
 21
-2.5951437007874016
 31
0
  0
LINE
  5
3F0
330
1B
100
AcDbEntity
  8
User.Drawings
  6
CONTINUOUS
100
AcDbLine
 10
7.8496565748031495
 20
-2.5951437007874016
 30
0
 11
7.859377401574803
 21
-2.5925390157480313
 31
0
  0
LINE
  5
3F1
330
1B
100
AcDbEntity
  8
User.Drawings
  6
CONTINUOUS
100
AcDbLine
 10
7.859377401574803
 20
-2.5925390157480313
 30
0
 11
7.8686751181102359
 21
-2.5886877952755905
 31
0
  0
LINE
  5
3F2
330
1B
100
AcDbEntity
  8
User.Drawings
  6
CONTINUOUS
100
AcDbLine
 10
7.8686751181102359
 20
-2.5886877952755905
 30
0
 11
7.8773905905511805
 21
-2.5836559055118111
 31
0
  0
LINE
  5
3F3
330
1B
100
AcDbEntity
  8
User.Drawings
  6
CONTINUOUS
100
AcDbLine
 10
7.8773905905511805
 20
-2.5836559055118111
 30
0
 11
7.8853746850393698
 21
-2.5775294881889765
 31
0
  0
LINE
  5
3F4
330
1B
100
AcDbEntity
  8
User.Drawings
  6
CONTINUOUS
100
AcDbLine
 10
7.8853746850393698
 20
-2.5775294881889765
 30
0
 11
7.8924908661417321
 21
-2.5704133070866142
 31
0
  0
LINE
  5
3F5
330
1B
100
AcDbEntity
  8
User.Drawings
  6
CONTINUOUS
100
AcDbLine
 10
7.8924908661417321
 20
-2.5704133070866142
 30
0
 11
7.8986172834645672
 21
-2.5624292125984249
 31
0
  0
LINE
  5
3F6
330
1B
100
AcDbEntity
  8
User.Drawings
  6
CONTINUOUS
100
AcDbLine
 10
7.8986172834645672
 20
-2.5624292125984249
 30
0
 11
7.903649173228346
 21
-2.5537137401574803
 31
0
  0
LINE
  5
3F7
330
1B
100
AcDbEntity
  8
User.Drawings
  6
CONTINUOUS
100
AcDbLine
 10
7.903649173228346
 20
-2.5537137401574803
 30
0
 11
7.9075003937007873
 21
-2.544416023622047
 31
0
  0
LINE
  5
3F8
330
1B
100
AcDbEntity
  8
User.Drawings
  6
CONTINUOUS
100
AcDbLine
 10
7.9075003937007873
 20
-2.544416023622047
 30
0
 11
7.9101050787401572
 21
-2.5346951968503935
 31
0
  0
LINE
  5
3F9
330
1B
100
AcDbEntity
  8
User.Drawings
  6
CONTINUOUS
100
AcDbLine
 10
7.9101050787401572
 20
-2.5346951968503935
 30
0
 11
7.911418661417323
 21
-2.5247175196850393
 31
0
  0
LINE
  5
3FA
330
1B
100
AcDbEntity
  8
User.Drawings
  6
CONTINUOUS
100
AcDbLine
 10
7.911418661417323
 20
-2.5247175196850393
 30
0
 11
7.911418661417323
 21
-2.5196917322834644
 31
0
  0
LINE
  5
3FB
330
1B
100
AcDbEntity
  8
User.Drawings
  6
CONTINUOUS
100
AcDbLine
 10
7.911418661417323
 20
-2.5196917322834644
 30
0
 11
7.9114173228346454
 21
-2.5196850393700787
 31
0
  0
LINE
  5
3FC
330
1B
100
AcDbEntity
  8
User.Drawings
  6
CONTINUOUS
100
AcDbLine
 10
7.9114173228346454
 20
-2.5196850393700787
 30
0
 11
7.9114173228346454
 21
-1.9685039370078741
 31
0
  0
LINE
  5
3FD
330
1B
100
AcDbEntity
  8
User.Drawings
  6
CONTINUOUS
100
AcDbLine
 10
7.9114173228346454
 20
-1.9685039370078741
 30
0
 11
7.9115671653543309
 21
-1.9677506299212597
 31
0
  0
LINE
  5
3FE
330
1B
100
AcDbEntity
  8
User.Drawings
  6
CONTINUOUS
100
AcDbLine
 10
7.9115671653543309
 20
-1.9677506299212597
 30
0
 11
7.9126325196850393
 21
-1.9666852755905511
 31
0
  0
LINE
  5
3FF
330
1B
100
AcDbEntity
  8
User.Drawings
  6
CONTINUOUS
100
AcDbLine
 10
7.9126325196850393
 20
-1.9666852755905511
 30
0
 11
7.9141391338582672
 21
-1.9666852755905511
 31
0
  0
LINE
  5
400
330
1B
100
AcDbEntity
  8
User.Drawings
  6
CONTINUOUS
100
AcDbLine
 10
7.9141391338582672
 20
-1.9666852755905511
 30
0
 11
7.9152044881889765
 21
-1.9677506299212597
 31
0
  0
LINE
  5
401
330
1B
100
AcDbEntity
  8
User.Drawings
  6
CONTINUOUS
100
AcDbLine
 10
7.9152044881889765
 20
-1.9677506299212597
 30
0
 11
7.9153543307086611
 21
-1.9685039370078741
 31
0
  0
LINE
  5
402
330
1B
100
AcDbEntity
  8
User.Drawings
  6
CONTINUOUS
100
AcDbLine
 10
7.9153543307086611
 20
-1.9685039370078741
 30
0
 11
7.9153543307086611
 21
-2.5196814960629919
 31
0
  0
LINE
  5
403
330
1B
100
AcDbEntity
  8
User.Drawings
  6
CONTINUOUS
100
AcDbLine
 10
7.9153543307086611
 20
-2.5196814960629919
 30
0
 11
7.9153556692913387
 21
-2.51968562992126
 31
0
  0
LINE
  5
404
330
1B
100
AcDbEntity
  8
User.Drawings
  6
CONTINUOUS
100
AcDbLine
 10
7.9153556692913387
 20
-2.51968562992126
 30
0
 11
7.9146651968503932
 21
-2.5302202362204724
 31
0
  0
LINE
  5
405
330
1B
100
AcDbEntity
  8
User.Drawings
  6
CONTINUOUS
100
AcDbLine
 10
7.9146651968503932
 20
-2.5302202362204724
 30
0
 11
7.9126055905511805
 21
-2.5405745669291337
 31
0
  0
LINE
  5
406
330
1B
100
AcDbEntity
  8
User.Drawings
  6
CONTINUOUS
100
AcDbLine
 10
7.9126055905511805
 20
-2.5405745669291337
 30
0
 11
7.9092120866141729
 21
-2.5505714960629922
 31
0
  0
LINE
  5
407
330
1B
100
AcDbEntity
  8
User.Drawings
  6
CONTINUOUS
100
AcDbLine
 10
7.9092120866141729
 20
-2.5505714960629922
 30
0
 11
7.9045427952755904
 21
-2.5600399606299211
 31
0
  0
LINE
  5
408
330
1B
100
AcDbEntity
  8
User.Drawings
  6
CONTINUOUS
100
AcDbLine
 10
7.9045427952755904
 20
-2.5600399606299211
 30
0
 11
7.8986775196850392
 21
-2.5688179527559054
 31
0
  0
LINE
  5
409
330
1B
100
AcDbEntity
  8
User.Drawings
  6
CONTINUOUS
100
AcDbLine
 10
7.8986775196850392
 20
-2.5688179527559054
 30
0
 11
7.8917166535433072
 21
-2.5767552755905512
 31
0
  0
LINE
  5
40A
330
1B
100
AcDbEntity
  8
User.Drawings
  6
CONTINUOUS
100
AcDbLine
 10
7.8917166535433072
 20
-2.5767552755905512
 30
0
 11
7.883779330708661
 21
-2.5837161417322836
 31
0
  0
LINE
  5
40B
330
1B
100
AcDbEntity
  8
User.Drawings
  6
CONTINUOUS
100
AcDbLine
 10
7.883779330708661
 20
-2.5837161417322836
 30
0
 11
7.8750013385826767
 21
-2.5895814173228344
 31
0
  0
LINE
  5
40C
330
1B
100
AcDbEntity
  8
User.Drawings
  6
CONTINUOUS
100
AcDbLine
 10
7.8750013385826767
 20
-2.5895814173228344
 30
0
 11
7.8655328740157477
 21
-2.5942507086614173
 31
0
  0
LINE
  5
40D
330
1B
100
AcDbEntity
  8
User.Drawings
  6
CONTINUOUS
100
AcDbLine
 10
7.8655328740157477
 20
-2.5942507086614173
 30
0
 11
7.8555359448818898
 21
-2.5976442125984249
 31
0
  0
LINE
  5
40E
330
1B
100
AcDbEntity
  8
User.Drawings
  6
CONTINUOUS
100
AcDbLine
 10
7.8555359448818898
 20
-2.5976442125984249
 30
0
 11
7.845181614173228
 21
-2.5997038188976376
 31
0
  0
LINE
  5
40F
330
1B
100
AcDbEntity
  8
User.Drawings
  6
CONTINUOUS
100
AcDbLine
 10
7.845181614173228
 20
-2.5997038188976376
 30
0
 11
7.8346470078740156
 21
-2.6003942913385827
 31
0
  0
LINE
  5
410
330
1B
100
AcDbEntity
  8
User.Drawings
  6
CONTINUOUS
100
AcDbLine
 10
7.8346470078740156
 20
-2.6003942913385827
 30
0
 11
3.188976377952756
 21
-2.6003937007874014
 31
0
  0
LINE
  5
411
330
1B
100
AcDbEntity
  8
User.Drawings
  6
CONTINUOUS
100
AcDbLine
 10
3.188976377952756
 20
-2.6003937007874014
 30
0
 11
3.1784417716535431
 21
-2.5997032283464567
 31
0
  0
LINE
  5
412
330
1B
100
AcDbEntity
  8
User.Drawings
  6
CONTINUOUS
100
AcDbLine
 10
3.1784417716535431
 20
-2.5997032283464567
 30
0
 11
3.1680874409448818
 21
-2.5976436220472441
 31
0
  0
LINE
  5
413
330
1B
100
AcDbEntity
  8
User.Drawings
  6
CONTINUOUS
100
AcDbLine
 10
3.1680874409448818
 20
-2.5976436220472441
 30
0
 11
3.1580905118110234
 21
-2.594250118110236
 31
0
  0
LINE
  5
414
330
1B
100
AcDbEntity
  8
User.Drawings
  6
CONTINUOUS
100
AcDbLine
 10
3.1580905118110234
 20
-2.594250118110236
 30
0
 11
3.1486220472440944
 21
-2.5895808267716536
 31
0
  0
LINE
  5
415
330
1B
100
AcDbEntity
  8
User.Drawings
  6
CONTINUOUS
100
AcDbLine
 10
3.1486220472440944
 20
-2.5895808267716536
 30
0
 11
3.1398440551181102
 21
-2.5837155511811023
 31
0
  0
LINE
  5
416
330
1B
100
AcDbEntity
  8
User.Drawings
  6
CONTINUOUS
100
AcDbLine
 10
3.1398440551181102
 20
-2.5837155511811023
 30
0
 11
3.1319067322834644
 21
-2.5767546850393699
 31
0
  0
LINE
  5
417
330
1B
100
AcDbEntity
  8
User.Drawings
  6
CONTINUOUS
100
AcDbLine
 10
3.1319067322834644
 20
-2.5767546850393699
 30
0
 11
3.1249458661417324
 21
-2.5688173622047246
 31
0
  0
LINE
  5
418
330
1B
100
AcDbEntity
  8
User.Drawings
  6
CONTINUOUS
100
AcDbLine
 10
3.1249458661417324
 20
-2.5688173622047246
 30
0
 11
3.1190805905511811
 21
-2.5600393700787403
 31
0
  0
LINE
  5
419
330
1B
100
AcDbEntity
  8
User.Drawings
  6
CONTINUOUS
100
AcDbLine
 10
3.1190805905511811
 20
-2.5600393700787403
 30
0
 11
3.1144112992125983
 21
-2.5505709055118109
 31
0
  0
LINE
  5
41A
330
1B
100
AcDbEntity
  8
User.Drawings
  6
CONTINUOUS
100
AcDbLine
 10
3.1144112992125983
 20
-2.5505709055118109
 30
0
 11
3.1110177952755906
 21
-2.5405739763779529
 31
0
  0
LINE
  5
41B
330
1B
100
AcDbEntity
  8
User.Drawings
  6
CONTINUOUS
100
AcDbLine
 10
3.1110177952755906
 20
-2.5405739763779529
 30
0
 11
3.108958188976378
 21
-2.5302196456692911
 31
0
  0
LINE
  5
41C
330
1B
100
AcDbEntity
  8
User.Drawings
  6
CONTINUOUS
100
AcDbLine
 10
3.108958188976378
 20
-2.5302196456692911
 30
0
 11
3.1082677165354329
 21
-2.5196850393700787
 31
0
  0
LINE
  5
41D
330
1B
100
AcDbEntity
  8
User.Drawings
  6
CONTINUOUS
100
AcDbLine
 10
3.1082677165354329
 20
-2.5196850393700787
 30
0
 11
3.1082677165354329
 21
-1.9685039370078741
 31
0
  0
LINE
  5
41E
330
1B
100
AcDbEntity
  8
User.Drawings
  6
CONTINUOUS
100
AcDbLine
 10
3.1082677165354329
 20
-1.9685039370078741
 30
0
 11
3.108417559055118
 21
-1.9677506299212597
 31
0
  0
LINE
  5
41F
330
1B
100
AcDbEntity
  8
User.Drawings
  6
CONTINUOUS
100
AcDbLine
 10
3.108417559055118
 20
-1.9677506299212597
 30
0
 11
3.1094829133858268
 21
-1.9666852755905511
 31
0
  0
LINE
  5
420
330
1B
100
AcDbEntity
  8
User.Drawings
  6
CONTINUOUS
100
AcDbLine
 10
3.1094829133858268
 20
-1.9666852755905511
 30
0
 11
3.1109895275590551
 21
-1.9666852755905511
 31
0
  0
LINE
  5
421
330
1B
100
AcDbEntity
  8
User.Drawings
  6
CONTINUOUS
100
AcDbLine
 10
3.1109895275590551
 20
-1.9666852755905511
 30
0
 11
3.1120548818897635
 21
-1.9677506299212597
 31
0
  0
ENDSEC
  0
SECTION
  2
OBJECTS
  0
DICTIONARY
  5
21
330
0
100
AcDbDictionary
281
1
  3
ACAD_GROUP
350
422
  3
ACAD_LAYOUT
350
22
  3
ACAD_PLOTSTYLENAME
350
11
  0
DICTIONARY
  5
422
330
21
100
AcDbDictionary
281
1
  0
ACDBDICTIONARYWDFLT
  5
11
330
21
100
AcDbDictionary
281
1
  3
Normal
350
10
100
AcDbDictionaryWithDefault
340
10
  0
ACDBPLACEHOLDER
  5
10
330
11
  0
DICTIONARY
  5
22
330
21
100
AcDbDictionary
281
1
  3
Model
350
1E
  3
Layout1
350
1F
  3
Layout2
350
20
  0
LAYOUT
  5
1E
330
22
100
AcDbPlotSettings
  1

  2
none_device
  4
A3
  6

 40
0.0
 41
0.0
 42
0.0
 43
0.0
 44
420.0
 45
297.0
 46
0.0
 47
0.0
 48
0.0
 49
0.0
140
0.0
141
0.0
142
1.0
143
1.0
 70
1024
 72
1
 73
0
 74
5
  7

 75
16
 76
0
 77
2
 78
300
147
1.0
148
0.0
149
0.0
100
AcDbLayout
  1
Model
 70
1
 71
0
 10
0.0
 20
0.0
 11
420.0
 21
297.0
 12
0.0
 22
0.0
 32
0.0
 14
1e+20
 24
1e+20
 34
1e+20
 15
-1e+20
 25
-1e+20
 35
-1e+20
146
0.0
 13
0.0
 23
0.0
 33
0.0
 16
1.0
 26
0.0
 36
0.0
 17
0.0
 27
1.0
 37
0.0
 76
0
330
1B
  0
LAYOUT
  5
1F
330
22
100
AcDbPlotSettings
  1

  2
none_device
  4
A3
  6

 40
0.0
 41
0.0
 42
0.0
 43
0.0
 44
420.0
 45
297.0
 46
0.0
 47
0.0
 48
0.0
 49
0.0
140
0.0
141
0.0
142
1.0
143
1.0
 70
0
 72
1
 73
0
 74
5
  7

 75
16
 76
0
 77
2
 78
300
147
1.0
148
0.0
149
0.0
100
AcDbLayout
  1
Layout1
 70
1
 71
1
 10
0.0
 20
0.0
 11
420.0
 21
297.0
 12
0.0
 22
0.0
 32
0.0
 14
1e+20
 24
1e+20
 34
1e+20
 15
-1e+20
 25
-1e+20
 35
-1e+20
146
0.0
 13
0.0
 23
0.0
 33
0.0
 16
1.0
 26
0.0
 36
0.0
 17
0.0
 27
1.0
 37
0.0
 76
0
330
1C
  0
LAYOUT
  5
20
330
22
100
AcDbPlotSettings
  1

  2
none_device
  4
A3
  6

 40
0.0
 41
0.0
 42
0.0
 43
0.0
 44
420.0
 45
297.0
 46
0.0
 47
0.0
 48
0.0
 49
0.0
140
0.0
141
0.0
142
1.0
143
1.0
 70
0
 72
1
 73
0
 74
5
  7

 75
16
 76
0
 77
2
 78
300
147
1.0
148
0.0
149
0.0
100
AcDbLayout
  1
Layout2
 70
1
 71
2
 10
0.0
 20
0.0
 11
420.0
 21
297.0
 12
0.0
 22
0.0
 32
0.0
 14
1e+20
 24
1e+20
 34
1e+20
 15
-1e+20
 25
-1e+20
 35
-1e+20
146
0.0
 13
0.0
 23
0.0
 33
0.0
 16
1.0
 26
0.0
 36
0.0
 17
0.0
 27
1.0
 37
0.0
 76
0
330
1D
  0
ENDSEC
  0
EOF
